# Blender 4.2.1 LTS
# www.blender.org
mtllib CornerThin_.mtl
o CornerThin_
v 0.500000 0.000000 -1.000000
v -0.500000 0.000000 -1.000000
v 0.300000 0.200000 -1.000000
v -0.302000 0.200000 -1.000000
v 0.500000 0.600000 -1.000000
v 0.300000 0.600000 -1.000000
v -0.500000 0.600000 -1.000000
v -0.302000 0.600000 -1.000000
v 0.502408 0.000000 -0.950991
v -0.492777 0.000000 -0.852974
v 0.303371 0.200000 -0.931388
v -0.295731 0.200000 -0.872382
v 0.502408 0.600000 -0.950991
v 0.303371 0.600000 -0.931388
v -0.492777 0.600000 -0.852974
v -0.295731 0.600000 -0.872382
v 0.509607 0.000000 -0.902455
v -0.471178 0.000000 -0.707364
v 0.313450 0.200000 -0.863437
v -0.276982 0.200000 -0.745992
v 0.509607 0.600000 -0.902455
v 0.313450 0.600000 -0.863437
v -0.471178 0.600000 -0.707364
v -0.276982 0.600000 -0.745992
v 0.521530 0.000000 -0.854858
v -0.435410 0.000000 -0.564573
v 0.330142 0.200000 -0.796801
v -0.245936 0.200000 -0.622049
v 0.521530 0.600000 -0.854858
v 0.330142 0.600000 -0.796801
v -0.435410 0.600000 -0.564573
v -0.245936 0.600000 -0.622049
v 0.538060 0.000000 -0.808658
v -0.385819 0.000000 -0.425975
v 0.353284 0.200000 -0.732122
v -0.202891 0.200000 -0.501746
v 0.538060 0.600000 -0.808658
v 0.353284 0.600000 -0.732122
v -0.385819 0.600000 -0.425975
v -0.202891 0.600000 -0.501746
v 0.559039 0.000000 -0.764302
v -0.322882 0.000000 -0.292905
v 0.382655 0.200000 -0.670022
v -0.148261 0.200000 -0.386241
v 0.559039 0.600000 -0.764302
v 0.382655 0.600000 -0.670022
v -0.322882 0.600000 -0.292905
v -0.148261 0.600000 -0.386241
v 0.584265 0.000000 -0.722215
v -0.247204 0.000000 -0.166645
v 0.417971 0.200000 -0.611101
v -0.082573 0.200000 -0.276648
v 0.584265 0.600000 -0.722215
v 0.417971 0.600000 -0.611101
v -0.247204 0.600000 -0.166645
v -0.082573 0.600000 -0.276648
v 0.613495 0.000000 -0.682803
v -0.159516 0.000000 -0.048410
v 0.458893 0.200000 -0.555925
v -0.006460 0.200000 -0.174020
v 0.613495 0.600000 -0.682803
v 0.458893 0.600000 -0.555925
v -0.159516 0.600000 -0.048410
v -0.006460 0.600000 -0.174020
v 0.646447 0.000000 -0.646447
v -0.060660 0.000000 0.060660
v 0.505025 0.200000 -0.505025
v 0.079347 0.200000 -0.079347
v 0.646447 0.600000 -0.646447
v 0.505025 0.600000 -0.505025
v -0.060660 0.600000 0.060660
v 0.079347 0.600000 -0.079347
v 0.682803 0.000000 -0.613495
v 0.048410 0.000000 0.159516
v 0.555925 0.200000 -0.458893
v 0.174020 0.200000 0.006460
v 0.682803 0.600000 -0.613495
v 0.555925 0.600000 -0.458893
v 0.048410 0.600000 0.159516
v 0.174020 0.600000 0.006460
v 0.722215 0.000000 -0.584265
v 0.166645 0.000000 0.247205
v 0.611101 0.200000 -0.417971
v 0.276648 0.200000 0.082574
v 0.722215 0.600000 -0.584265
v 0.611101 0.600000 -0.417971
v 0.166645 0.600000 0.247205
v 0.276648 0.600000 0.082574
v 0.764302 0.000000 -0.559039
v 0.292905 0.000000 0.322882
v 0.670022 0.200000 -0.382655
v 0.386242 0.200000 0.148262
v 0.764302 0.600000 -0.559039
v 0.670022 0.600000 -0.382655
v 0.292905 0.600000 0.322882
v 0.386242 0.600000 0.148262
v 0.808658 0.000000 -0.538060
v 0.425975 0.000000 0.385819
v 0.732122 0.200000 -0.353284
v 0.501746 0.200000 0.202891
v 0.808658 0.600000 -0.538060
v 0.732122 0.600000 -0.353284
v 0.425975 0.600000 0.385819
v 0.501746 0.600000 0.202891
v 0.854858 0.000000 -0.521530
v 0.564573 0.000000 0.435410
v 0.796801 0.200000 -0.330142
v 0.622049 0.200000 0.245936
v 0.854858 0.600000 -0.521530
v 0.796801 0.600000 -0.330142
v 0.564573 0.600000 0.435410
v 0.622049 0.600000 0.245936
v 0.902455 0.000000 -0.509607
v 0.707365 0.000000 0.471178
v 0.863437 0.200000 -0.313450
v 0.745993 0.200000 0.276983
v 0.902455 0.600000 -0.509607
v 0.863437 0.600000 -0.313450
v 0.707365 0.600000 0.471178
v 0.745993 0.600000 0.276983
v 0.950991 0.000000 -0.502408
v 0.852974 0.000000 0.492777
v 0.931388 0.200000 -0.303371
v 0.872382 0.200000 0.295731
v 0.950991 0.600000 -0.502408
v 0.931388 0.600000 -0.303371
v 0.852974 0.600000 0.492777
v 0.872382 0.600000 0.295731
v 1.000000 0.000000 -0.500000
v 1.000000 0.000000 0.500000
v 1.000000 0.200000 -0.300000
v 1.000000 0.200000 0.302000
v 1.000000 0.600000 -0.500000
v 1.000000 0.600000 -0.300000
v 1.000000 0.600000 0.500000
v 1.000000 0.600000 0.302000
vn -0.0000 1.0000 -0.0000
vn -0.0000 -1.0000 -0.0000
vn -0.9988 -0.0000 0.0491
vn -0.9892 -0.0000 0.1467
vn -0.9700 -0.0000 0.2430
vn -0.9415 -0.0000 0.3369
vn -0.9040 -0.0000 0.4276
vn -0.8577 -0.0000 0.5141
vn -0.8032 -0.0000 0.5957
vn -0.7410 -0.0000 0.6716
vn -0.6716 -0.0000 0.7410
vn -0.5957 -0.0000 0.8032
vn -0.5141 -0.0000 0.8577
vn -0.4276 -0.0000 0.9040
vn -0.3369 -0.0000 0.9415
vn -0.2430 -0.0000 0.9700
vn -0.1467 -0.0000 0.9892
vn -0.0491 -0.0000 0.9988
vn 0.9988 -0.0000 -0.0491
vn 0.9892 -0.0000 -0.1467
vn 0.9700 -0.0000 -0.2430
vn 0.9415 -0.0000 -0.3369
vn 0.9040 -0.0000 -0.4276
vn 0.8577 -0.0000 -0.5141
vn 0.8032 -0.0000 -0.5957
vn 0.7410 -0.0000 -0.6716
vn 0.6716 -0.0000 -0.7410
vn 0.5957 -0.0000 -0.8032
vn 0.5141 -0.0000 -0.8577
vn 0.4276 -0.0000 -0.9040
vn 0.3369 -0.0000 -0.9415
vn 0.2430 -0.0000 -0.9700
vn 0.1467 -0.0000 -0.9892
vn 0.0491 -0.0000 -0.9988
vn 1.0000 -0.0000 -0.0000
vn -0.0000 -0.0000 -1.0000
vt 0.000000 0.000000
vt 1.000000 0.000000
vt 1.000000 1.000000
vt 0.000000 1.000000
vt 0.500000 1.000000
vt 0.853553 0.853553
vt 1.000000 0.500000
vt 0.853553 0.146447
vt 0.500000 0.000000
vt 0.146447 0.146447
vt 0.000000 0.500000
vt 0.146447 0.853553
s 0
f 4/1/1 12/2/1 11/3/1 3/4/1
f 12/1/1 20/2/1 19/3/1 11/4/1
f 20/1/1 28/2/1 27/3/1 19/4/1
f 28/1/1 36/2/1 35/3/1 27/4/1
f 36/1/1 44/2/1 43/3/1 35/4/1
f 44/1/1 52/2/1 51/3/1 43/4/1
f 52/1/1 60/2/1 59/3/1 51/4/1
f 60/1/1 68/2/1 67/3/1 59/4/1
f 68/1/1 76/2/1 75/3/1 67/4/1
f 76/1/1 84/2/1 83/3/1 75/4/1
f 84/1/1 92/2/1 91/3/1 83/4/1
f 92/1/1 100/2/1 99/3/1 91/4/1
f 100/1/1 108/2/1 107/3/1 99/4/1
f 108/1/1 116/2/1 115/3/1 107/4/1
f 116/1/1 124/2/1 123/3/1 115/4/1
f 124/1/1 132/2/1 131/3/1 123/4/1
f 1/1/2 9/2/2 10/3/2 2/4/2
f 9/1/2 17/2/2 18/3/2 10/4/2
f 17/1/2 25/2/2 26/3/2 18/4/2
f 25/1/2 33/2/2 34/3/2 26/4/2
f 33/1/2 41/2/2 42/3/2 34/4/2
f 41/1/2 49/2/2 50/3/2 42/4/2
f 49/1/2 57/2/2 58/3/2 50/4/2
f 57/1/2 65/2/2 66/3/2 58/4/2
f 65/1/2 73/2/2 74/3/2 66/4/2
f 73/1/2 81/2/2 82/3/2 74/4/2
f 81/1/2 89/2/2 90/3/2 82/4/2
f 89/1/2 97/2/2 98/3/2 90/4/2
f 97/1/2 105/2/2 106/3/2 98/4/2
f 105/1/2 113/2/2 114/3/2 106/4/2
f 113/1/2 121/2/2 122/3/2 114/4/2
f 121/1/2 129/2/2 130/3/2 122/4/2
f 6/1/1 14/2/1 13/3/1 5/4/1
f 14/1/1 22/2/1 21/3/1 13/4/1
f 22/1/1 30/2/1 29/3/1 21/4/1
f 30/1/1 38/2/1 37/3/1 29/4/1
f 38/1/1 46/2/1 45/3/1 37/4/1
f 46/1/1 54/2/1 53/3/1 45/4/1
f 54/1/1 62/2/1 61/3/1 53/4/1
f 62/1/1 70/2/1 69/3/1 61/4/1
f 70/1/1 78/2/1 77/3/1 69/4/1
f 78/1/1 86/2/1 85/3/1 77/4/1
f 86/1/1 94/2/1 93/3/1 85/4/1
f 94/1/1 102/2/1 101/3/1 93/4/1
f 102/1/1 110/2/1 109/3/1 101/4/1
f 110/1/1 118/2/1 117/3/1 109/4/1
f 118/1/1 126/2/1 125/3/1 117/4/1
f 126/1/1 134/2/1 133/3/1 125/4/1
f 7/1/1 15/2/1 16/3/1 8/4/1
f 15/1/1 23/2/1 24/3/1 16/4/1
f 23/1/1 31/2/1 32/3/1 24/4/1
f 31/1/1 39/2/1 40/3/1 32/4/1
f 39/1/1 47/2/1 48/3/1 40/4/1
f 47/1/1 55/2/1 56/3/1 48/4/1
f 55/1/1 63/2/1 64/3/1 56/4/1
f 63/1/1 71/2/1 72/3/1 64/4/1
f 71/1/1 79/2/1 80/3/1 72/4/1
f 79/1/1 87/2/1 88/3/1 80/4/1
f 87/1/1 95/2/1 96/3/1 88/4/1
f 95/1/1 103/2/1 104/3/1 96/4/1
f 103/1/1 111/2/1 112/3/1 104/4/1
f 111/1/1 119/2/1 120/3/1 112/4/1
f 119/1/1 127/2/1 128/3/1 120/4/1
f 127/1/1 135/2/1 136/3/1 128/4/1
f 3/1/3 11/2/3 14/3/3 6/4/3
f 11/1/4 19/2/4 22/3/4 14/4/4
f 19/1/5 27/2/5 30/3/5 22/4/5
f 27/1/6 35/2/6 38/3/6 30/4/6
f 35/1/7 43/2/7 46/3/7 38/4/7
f 43/1/8 51/2/8 54/3/8 46/4/8
f 51/1/9 59/2/9 62/3/9 54/4/9
f 59/1/10 67/2/10 70/3/10 62/4/10
f 67/1/11 75/2/11 78/3/11 70/4/11
f 75/1/12 83/2/12 86/3/12 78/4/12
f 83/1/13 91/2/13 94/3/13 86/4/13
f 91/1/14 99/2/14 102/3/14 94/4/14
f 99/1/15 107/2/15 110/3/15 102/4/15
f 107/1/16 115/2/16 118/3/16 110/4/16
f 115/1/17 123/2/17 126/3/17 118/4/17
f 123/1/18 131/2/18 134/3/18 126/4/18
f 5/1/19 13/2/19 9/3/19 1/4/19
f 13/1/20 21/2/20 17/3/20 9/4/20
f 21/1/21 29/2/21 25/3/21 17/4/21
f 29/1/22 37/2/22 33/3/22 25/4/22
f 37/1/23 45/2/23 41/3/23 33/4/23
f 45/1/24 53/2/24 49/3/24 41/4/24
f 53/1/25 61/2/25 57/3/25 49/4/25
f 61/1/26 69/2/26 65/3/26 57/4/26
f 69/1/27 77/2/27 73/3/27 65/4/27
f 77/1/28 85/2/28 81/3/28 73/4/28
f 85/1/29 93/2/29 89/3/29 81/4/29
f 93/1/30 101/2/30 97/3/30 89/4/30
f 101/1/31 109/2/31 105/3/31 97/4/31
f 109/1/32 117/2/32 113/3/32 105/4/32
f 117/1/33 125/2/33 121/3/33 113/4/33
f 125/1/34 133/2/34 129/3/34 121/4/34
f 8/1/19 16/2/19 12/3/19 4/4/19
f 16/1/20 24/2/20 20/3/20 12/4/20
f 24/1/21 32/2/21 28/3/21 20/4/21
f 32/1/22 40/2/22 36/3/22 28/4/22
f 40/1/23 48/2/23 44/3/23 36/4/23
f 48/1/24 56/2/24 52/3/24 44/4/24
f 56/1/25 64/2/25 60/3/25 52/4/25
f 64/1/26 72/2/26 68/3/26 60/4/26
f 72/1/27 80/2/27 76/3/27 68/4/27
f 80/1/28 88/2/28 84/3/28 76/4/28
f 88/1/29 96/2/29 92/3/29 84/4/29
f 96/1/30 104/2/30 100/3/30 92/4/30
f 104/1/31 112/2/31 108/3/31 100/4/31
f 112/1/32 120/2/32 116/3/32 108/4/32
f 120/1/33 128/2/33 124/3/33 116/4/33
f 128/1/34 136/2/34 132/3/34 124/4/34
f 2/1/3 10/2/3 15/3/3 7/4/3
f 10/1/4 18/2/4 23/3/4 15/4/4
f 18/1/5 26/2/5 31/3/5 23/4/5
f 26/1/6 34/2/6 39/3/6 31/4/6
f 34/1/7 42/2/7 47/3/7 39/4/7
f 42/1/8 50/2/8 55/3/8 47/4/8
f 50/1/9 58/2/9 63/3/9 55/4/9
f 58/1/10 66/2/10 71/3/10 63/4/10
f 66/1/11 74/2/11 79/3/11 71/4/11
f 74/1/12 82/2/12 87/3/12 79/4/12
f 82/1/13 90/2/13 95/3/13 87/4/13
f 90/1/14 98/2/14 103/3/14 95/4/14
f 98/1/15 106/2/15 111/3/15 103/4/15
f 106/1/16 114/2/16 119/3/16 111/4/16
f 114/1/17 122/2/17 127/3/17 119/4/17
f 122/1/18 130/2/18 135/3/18 127/4/18
f 132/5/35 136/6/35 135/7/35 130/8/35 129/9/35 133/10/35 134/11/35 131/12/35
f 4/5/36 3/6/36 6/7/36 5/8/36 1/9/36 2/10/36 7/11/36 8/12/36
