# Blender 4.2.1 LTS
# www.blender.org
mtllib Corner.mtl
o Corner
v 1.000000 0.100000 0.800000
v 1.000000 -0.100000 -0.800000
v 1.000000 -0.100000 1.000000
v 0.738948 -0.100000 0.982890
v 0.973895 0.100000 -0.801711
v 0.765053 0.100000 0.784601
v 0.482362 -0.100000 0.931852
v 0.948236 0.100000 -0.806815
v 0.534126 0.100000 0.738667
v 1.000000 -0.100000 -1.000000
v 0.923463 0.100000 -0.815224
v 0.234633 -0.100000 0.847759
v 0.311170 0.100000 0.662983
v 0.900000 0.100000 -0.826795
v -0.000000 -0.100000 0.732051
v 0.100000 0.100000 0.558846
v -0.217523 -0.100000 0.586707
v 0.878247 0.100000 -0.841329
v -0.095771 0.100000 0.428036
v -0.414214 -0.100000 0.414214
v 0.858578 0.100000 -0.858579
v -0.272793 0.100000 0.272792
v -0.272793 -0.100000 0.272792
v 0.841329 0.100000 -0.878248
v -0.586707 -0.100000 0.217523
v -0.428037 0.100000 0.095771
v 0.826795 0.100000 -0.900000
v -0.732052 -0.100000 0.000000
v -0.558846 0.100000 -0.100000
v -0.847760 -0.100000 -0.234633
v 0.815224 0.100000 -0.923463
v -0.662984 0.100000 -0.311170
v -0.931853 -0.100000 -0.482362
v 0.806814 0.100000 -0.948236
v -0.738667 0.100000 -0.534126
v -0.982891 -0.100000 -0.738948
v 0.801710 0.100000 -0.973895
v -0.784602 0.100000 -0.765053
v -1.000001 -0.100000 -1.000000
v 0.799999 0.100000 -1.000000
v -0.800001 0.100000 -1.000000
v 1.000000 0.100000 -0.800000
v 0.799999 -0.100000 -1.000000
v 1.000000 0.500000 1.000000
v 1.000000 0.500000 0.800000
v 0.482362 0.500000 0.931852
v 0.234633 0.500000 0.847759
v 0.534126 0.500000 0.738667
v 0.765053 0.500000 0.784601
v 0.973895 0.500000 -0.801711
v 0.948236 0.500000 -0.806815
v 0.923463 0.500000 -0.815224
v 0.311170 0.500000 0.662983
v 1.000000 0.500000 -0.800000
v 1.000000 0.500000 -1.000000
v 0.100000 0.500000 0.558846
v 0.900000 0.500000 -0.826795
v -0.095771 0.500000 0.428036
v 0.878247 0.500000 -0.841329
v 0.858578 0.500000 -0.858579
v -0.272793 0.500000 0.272792
v -0.428037 0.500000 0.095771
v 0.841329 0.500000 -0.878248
v 0.826795 0.500000 -0.900000
v 0.815224 0.500000 -0.923463
v -0.558846 0.500000 -0.100000
v -0.662984 0.500000 -0.311170
v -0.738667 0.500000 -0.534126
v 0.806814 0.500000 -0.948236
v 0.801710 0.500000 -0.973895
v -0.784602 0.500000 -0.765053
v -1.000001 0.500000 -1.000000
v -0.800001 0.500000 -1.000000
v -0.982891 0.500000 -0.738948
v 0.799999 0.500000 -1.000000
v 0.738948 0.500000 0.982890
v -0.000000 0.500000 0.732051
v -0.217523 0.500000 0.586707
v -0.414214 0.500000 0.414214
v -0.586707 0.500000 0.217523
v -0.732052 0.500000 0.000000
v -0.847760 0.500000 -0.234633
v -0.931853 0.500000 -0.482362
vn -0.9979 -0.0000 0.0654
vn 1.0000 -0.0000 -0.0000
vn -0.3214 -0.0000 0.9469
vn -0.0000 -0.0000 -1.0000
vn -0.0000 -1.0000 -0.0000
vn -0.0000 1.0000 -0.0000
vn -0.9808 -0.0000 0.1951
vn -0.5556 -0.0000 0.8315
vn -0.1951 -0.0000 0.9808
vn 0.9808 -0.0000 -0.1951
vn 0.5556 -0.0000 -0.8315
vn -0.0654 -0.0000 0.9979
vn -0.8969 -0.0000 0.4423
vn 0.1951 -0.0000 -0.9808
vn -0.7518 -0.0000 0.6593
vn -0.4423 -0.0000 0.8969
vn -0.6593 -0.0000 0.7518
vn -0.8315 -0.0000 0.5556
vn -0.9469 -0.0000 0.3214
vn 0.0654 -0.0000 -0.9979
vn 0.4423 -0.0000 -0.8969
vn 0.7518 -0.0000 -0.6593
vn 0.9469 -0.0000 -0.3214
vn 0.9979 -0.0000 -0.0654
vn 0.8315 -0.0000 -0.5556
vn 0.8969 -0.0000 -0.4423
vn 0.6593 -0.0000 -0.7518
vn 0.3214 -0.0000 -0.9469
vt 0.000000 0.000000
vt 1.000000 0.000000
vt 1.000000 1.000000
vt 0.000000 1.000000
vt 0.500000 1.000000
vt 0.821394 0.883022
vt 0.992404 0.586824
vt 0.933013 0.250000
vt 0.671010 0.030154
vt 0.328990 0.030154
vt 0.066987 0.250000
vt 0.007596 0.586824
vt 0.178606 0.883022
s 1
usemtl Grass
f 24/1/6 27/2/6 29/3/6
f 13/1/6 9/2/6 8/3/6
f 9/1/6 6/2/6 5/3/6
f 6/1/6 1/2/6 42/3/6
f 6/1/6 42/2/6 5/3/6
f 16/1/6 13/2/6 11/3/6
f 9/1/6 5/2/6 8/3/6
f 22/1/6 19/2/6 18/3/6
f 19/1/6 16/2/6 14/3/6
f 29/1/6 26/2/6 24/3/6
f 26/1/6 22/2/6 21/3/6
f 35/1/6 32/2/6 31/3/6
f 32/1/6 29/2/6 27/3/6
f 41/1/6 38/2/6 37/3/6
f 38/1/6 35/2/6 34/3/6
f 37/1/6 40/2/6 41/3/6
f 34/1/6 37/2/6 38/3/6
f 26/1/6 21/2/6 24/3/6
f 22/1/6 18/2/6 21/3/6
f 19/1/6 14/2/6 18/3/6
f 16/1/6 11/2/6 14/3/6
f 13/1/6 8/2/6 11/3/6
f 31/1/6 34/2/6 35/3/6
f 27/1/6 31/2/6 32/3/6
usemtl Wood
f 36/1/1 74/2/1 72/3/1 39/4/1
f 1/5/2 45/6/2 44/7/2 3/8/2 2/9/2 10/10/2 55/11/2 54/12/2 42/13/2
f 12/1/3 7/2/3 46/3/3 47/4/3
f 40/5/4 75/6/4 55/7/4 10/8/4 43/9/4 39/10/4 72/11/4 73/12/4 41/13/4
f 43/1/5 10/2/5 2/3/5
f 4/1/5 7/2/5 2/3/5
f 12/1/5 15/2/5 2/3/5
f 15/1/5 17/2/5 2/3/5
f 12/1/5 2/2/5 7/3/5
f 17/1/5 20/2/5 23/3/5 2/4/5
f 25/1/5 43/2/5 23/3/5 20/4/5
f 25/1/5 28/2/5 43/3/5
f 2/1/5 23/2/5 43/3/5
f 28/1/5 30/2/5 43/3/5
f 30/1/5 33/2/5 43/3/5
f 33/1/5 36/2/5 43/3/5
f 36/1/5 39/2/5 43/3/5
f 37/1/7 34/2/7 69/3/7 70/4/7
f 18/1/8 14/2/8 57/3/8 59/4/8
f 8/1/9 5/2/9 50/3/9 51/4/9
f 35/1/10 38/2/10 71/3/10 68/4/10
f 16/1/11 19/2/11 58/3/11 56/4/11
f 5/1/12 42/2/12 54/3/12 50/4/12
f 31/1/13 27/2/13 64/3/13 65/4/13
f 6/1/14 9/2/14 48/3/14 49/4/14
f 20/1/15 79/2/15 80/3/15 25/4/15
f 33/1/7 83/2/7 74/3/7 36/4/7
f 4/1/9 76/2/9 46/3/9 7/4/9
f 12/1/16 47/2/16 77/3/16 15/4/16
f 17/1/17 78/2/17 79/3/17 20/4/17
f 15/1/8 77/2/8 78/3/8 17/4/8
f 25/1/18 80/2/18 81/3/18 28/4/18
f 28/1/13 81/2/13 82/3/13 30/4/13
f 30/1/19 82/2/19 83/3/19 33/4/19
f 3/1/5 4/2/5 2/3/5
f 4/1/12 3/2/12 44/3/12 76/4/12
f 14/1/16 11/2/16 52/3/16 57/4/16
f 1/1/20 6/2/20 49/3/20 45/4/20
f 24/1/15 21/2/15 60/3/15 63/4/15
f 34/1/19 31/2/19 65/3/19 69/4/19
f 13/1/21 16/2/21 56/3/21 53/4/21
f 22/1/22 26/2/22 62/3/22 61/4/22
f 32/1/23 35/2/23 68/3/23 67/4/23
f 38/1/24 41/2/24 73/3/24 71/4/24
f 70/1/6 55/2/6 75/3/6
f 70/1/6 69/2/6 55/3/6
f 69/1/6 65/2/6 55/3/6
f 65/1/6 64/2/6 55/3/6
f 64/1/6 63/2/6 55/3/6
f 63/1/6 60/2/6 55/3/6
f 60/1/6 59/2/6 55/3/6
f 59/1/6 57/2/6 55/3/6
f 57/1/6 52/2/6 55/3/6
f 52/1/6 51/2/6 55/3/6
f 51/1/6 50/2/6 55/3/6
f 54/1/6 55/2/6 50/3/6
f 71/1/6 74/2/6 83/3/6 68/4/6
f 68/1/6 83/2/6 82/3/6 67/4/6
f 67/1/6 82/2/6 81/3/6 66/4/6
f 73/1/6 72/2/6 74/3/6 71/4/6
f 45/1/6 49/2/6 76/3/6 44/4/6
f 48/1/6 46/2/6 76/3/6 49/4/6
f 46/1/6 48/2/6 53/3/6 47/4/6
f 56/1/6 77/2/6 47/3/6 53/4/6
f 58/1/6 78/2/6 77/3/6 56/4/6
f 61/1/6 79/2/6 78/3/6 58/4/6
f 62/1/6 80/2/6 79/3/6 61/4/6
f 66/1/6 81/2/6 80/3/6 62/4/6
f 26/1/25 29/2/25 66/3/25 62/4/25
f 27/1/18 24/2/18 63/3/18 64/4/18
f 21/1/17 18/2/17 59/3/17 60/4/17
f 11/1/3 8/2/3 51/3/3 52/4/3
f 40/1/1 37/2/1 70/3/1 75/4/1
f 29/1/26 32/2/26 67/3/26 66/4/26
f 19/1/27 22/2/27 61/3/27 58/4/27
f 9/1/28 13/2/28 53/3/28 48/4/28
