# Blender 4.2.1 LTS
# www.blender.org
mtllib Straight4Pins.mtl
o Straight4Pins
v 1.000000 0.000000 -1.000000
v 1.000000 0.000000 1.000000
v -1.000000 0.000000 -1.000000
v -1.000000 0.000000 1.000000
v 0.800000 0.200000 1.000000
v 0.800000 0.200000 -1.000000
v -0.802000 0.200000 1.000000
v -0.802000 0.200000 -1.000000
v 1.000000 0.600000 -1.000000
v 1.000000 0.600000 1.000000
v -0.802000 0.600000 1.000000
v -1.000000 0.600000 1.000000
v 0.800000 0.600000 -1.000000
v -1.000000 0.600000 -1.000000
v 0.800000 0.600000 1.000000
v -0.802000 0.600000 -1.000000
v -0.001000 0.200000 -1.000000
v 0.800000 0.200000 0.000000
v -0.001000 0.200000 1.000000
v -0.802000 0.200000 0.000000
v -0.001000 0.200000 0.000000
v -0.201000 0.200000 0.200000
v -0.402000 0.200000 0.200000
v -0.402000 0.200000 0.600000
v -0.201000 0.200000 0.600000
v 0.400000 0.200000 0.200000
v 0.199000 0.200000 0.200000
v 0.199000 0.200000 0.600000
v 0.400000 0.200000 0.600000
v 0.400000 0.200000 -0.600000
v 0.199000 0.200000 -0.600000
v 0.199000 0.200000 -0.200000
v 0.400000 0.200000 -0.200000
v -0.201000 0.200000 -0.600000
v -0.402000 0.200000 -0.600000
v -0.402000 0.200000 -0.200000
v -0.201000 0.200000 -0.200000
v -0.402000 0.600000 0.200000
v -0.201000 0.600000 0.200000
v -0.201000 0.600000 0.600000
v -0.402000 0.600000 0.600000
v 0.199000 0.600000 0.200000
v 0.400000 0.600000 0.200000
v 0.400000 0.600000 0.600000
v 0.199000 0.600000 0.600000
v 0.199000 0.600000 -0.600000
v 0.400000 0.600000 -0.600000
v 0.400000 0.600000 -0.200000
v 0.199000 0.600000 -0.200000
v -0.402000 0.600000 -0.600000
v -0.201000 0.600000 -0.600000
v -0.201000 0.600000 -0.200000
v -0.402000 0.600000 -0.200000
vn -1.0000 -0.0000 -0.0000
vn -0.0000 -1.0000 -0.0000
vn -0.0000 -0.0000 1.0000
vn -0.0000 -0.0000 -1.0000
vn -0.0000 1.0000 -0.0000
vn 1.0000 -0.0000 -0.0000
vt 0.000000 0.000000
vt 1.000000 0.000000
vt 1.000000 1.000000
vt 0.000000 1.000000
vt 0.500000 1.000000
vt 0.821394 0.883022
vt 0.992404 0.586824
vt 0.933013 0.250000
vt 0.671010 0.030154
vt 0.328990 0.030154
vt 0.066987 0.250000
vt 0.007596 0.586824
vt 0.178606 0.883022
vt 0.975528 0.654508
vt 0.793893 0.095491
vt 0.206107 0.095492
vt 0.024472 0.654509
s 0
usemtl Wood
f 4/1/1 12/2/1 14/3/1 3/4/1
f 3/1/2 1/2/2 2/3/2 4/4/2
f 2/5/3 10/6/3 15/7/3 5/8/3 19/9/3 7/10/3 11/11/3 12/12/3 4/13/3
f 6/5/1 18/14/1 5/15/1 15/16/1 13/17/1
f 30/1/4 31/2/4 46/3/4 47/4/4
f 6/5/4 13/6/4 9/7/4 1/8/4 3/9/4 14/10/4 16/11/4 8/12/4 17/13/4
f 16/1/5 14/2/5 12/3/5 11/4/5
f 9/1/5 13/2/5 15/3/5 10/4/5
f 7/5/6 20/14/6 8/15/6 16/16/6 11/17/6
f 1/1/6 9/2/6 10/3/6 2/4/6
f 25/1/6 22/2/6 39/3/6 40/4/6
f 26/1/4 27/2/4 42/3/4 43/4/4
f 22/1/4 23/2/4 38/3/4 39/4/4
f 39/1/5 38/2/5 41/3/5 40/4/5
f 43/1/5 42/2/5 45/3/5 44/4/5
f 47/1/5 46/2/5 49/3/5 48/4/5
f 51/1/5 50/2/5 53/3/5 52/4/5
f 29/1/6 26/2/6 43/3/6 44/4/6
f 34/1/4 35/2/4 50/3/4 51/4/4
f 23/1/1 24/2/1 41/3/1 38/4/1
f 33/1/6 30/2/6 47/3/6 48/4/6
f 27/1/1 28/2/1 45/3/1 42/4/1
f 37/1/6 34/2/6 51/3/6 52/4/6
f 24/1/3 25/2/3 40/3/3 41/4/3
f 31/1/1 32/2/1 49/3/1 46/4/1
f 28/1/3 29/2/3 44/3/3 45/4/3
f 35/1/1 36/2/1 53/3/1 50/4/1
f 32/1/3 33/2/3 48/3/3 49/4/3
f 36/1/3 37/2/3 52/3/3 53/4/3
usemtl Grass
f 21/1/5 20/2/5 23/3/5 22/4/5
f 20/1/5 7/2/5 24/3/5 23/4/5
f 7/1/5 19/2/5 25/3/5 24/4/5
f 19/1/5 21/2/5 22/3/5 25/4/5
f 18/1/5 21/2/5 27/3/5 26/4/5
f 21/1/5 19/2/5 28/3/5 27/4/5
f 19/1/5 5/2/5 29/3/5 28/4/5
f 5/1/5 18/2/5 26/3/5 29/4/5
f 6/1/5 17/2/5 31/3/5 30/4/5
f 17/1/5 21/2/5 32/3/5 31/4/5
f 21/1/5 18/2/5 33/3/5 32/4/5
f 18/1/5 6/2/5 30/3/5 33/4/5
f 17/1/5 8/2/5 35/3/5 34/4/5
f 8/1/5 20/2/5 36/3/5 35/4/5
f 20/1/5 21/2/5 37/3/5 36/4/5
f 21/1/5 17/2/5 34/3/5 37/4/5
