# Blender 4.2.1 LTS
# www.blender.org
mtllib Straight6Pins.mtl
o Straight6Pins
v 1.000000 0.000000 -1.000000
v 1.000000 0.000000 1.000000
v -1.000000 0.000000 -1.000000
v -1.000000 0.000000 1.000000
v 0.800000 0.200000 1.000000
v 0.800000 0.200000 -1.000000
v -0.802000 0.200000 1.000000
v -0.802000 0.200000 -1.000000
v 1.000000 0.600000 -1.000000
v 1.000000 0.600000 1.000000
v -0.802000 0.600000 1.000000
v -1.000000 0.600000 1.000000
v 0.800000 0.600000 -1.000000
v -1.000000 0.600000 -1.000000
v 0.800000 0.600000 1.000000
v -0.802000 0.600000 -1.000000
v 0.800000 0.200000 -0.333333
v 0.800000 0.200000 0.333333
v -0.802000 0.200000 -0.333333
v -0.802000 0.200000 0.333333
v -0.001000 0.200000 -1.000000
v -0.001000 0.200000 1.000000
v -0.001000 0.200000 -0.333333
v -0.001000 0.200000 0.333333
v -0.201000 0.200000 0.466667
v -0.402000 0.200000 0.466667
v -0.402000 0.200000 0.600000
v -0.201000 0.200000 0.600000
v -0.201000 0.200000 -0.600000
v -0.402000 0.200000 -0.600000
v -0.402000 0.200000 -0.466667
v -0.201000 0.200000 -0.466667
v -0.201000 0.200000 -0.066667
v -0.402000 0.200000 -0.066667
v -0.402000 0.200000 0.066667
v -0.201000 0.200000 0.066667
v 0.400000 0.200000 -0.066667
v 0.199000 0.200000 -0.066667
v 0.199000 0.200000 0.066667
v 0.400000 0.200000 0.066667
v 0.400000 0.200000 -0.600000
v 0.199000 0.200000 -0.600000
v 0.199000 0.200000 -0.466667
v 0.400000 0.200000 -0.466667
v 0.400000 0.200000 0.466667
v 0.199000 0.200000 0.466667
v 0.199000 0.200000 0.600000
v 0.400000 0.200000 0.600000
v -0.402000 0.600000 0.466667
v -0.201000 0.600000 0.466667
v -0.201000 0.600000 0.600000
v -0.402000 0.600000 0.600000
v -0.402000 0.600000 -0.600000
v -0.201000 0.600000 -0.600000
v -0.201000 0.600000 -0.466667
v -0.402000 0.600000 -0.466667
v -0.402000 0.600000 -0.066667
v -0.201000 0.600000 -0.066667
v -0.201000 0.600000 0.066667
v -0.402000 0.600000 0.066667
v 0.199000 0.600000 -0.066667
v 0.400000 0.600000 -0.066667
v 0.400000 0.600000 0.066667
v 0.199000 0.600000 0.066667
v 0.199000 0.600000 -0.600000
v 0.400000 0.600000 -0.600000
v 0.400000 0.600000 -0.466667
v 0.199000 0.600000 -0.466667
v 0.199000 0.600000 0.466667
v 0.400000 0.600000 0.466667
v 0.400000 0.600000 0.600000
v 0.199000 0.600000 0.600000
vn -1.0000 -0.0000 -0.0000
vn -0.0000 -1.0000 -0.0000
vn -0.0000 -0.0000 1.0000
vn 1.0000 -0.0000 -0.0000
vn -0.0000 -0.0000 -1.0000
vn -0.0000 1.0000 -0.0000
vt 0.000000 0.000000
vt 1.000000 0.000000
vt 1.000000 1.000000
vt 0.000000 1.000000
vt 0.500000 1.000000
vt 0.821394 0.883022
vt 0.992404 0.586824
vt 0.933013 0.250000
vt 0.671010 0.030154
vt 0.328990 0.030154
vt 0.066987 0.250000
vt 0.007596 0.586824
vt 0.178606 0.883022
vt 0.933013 0.750000
vt 0.500000 0.000000
vt 0.066987 0.750000
s 0
usemtl Wood
f 4/1/1 12/2/1 14/3/1 3/4/1
f 3/1/2 1/2/2 2/3/2 4/4/2
f 2/5/3 10/6/3 15/7/3 5/8/3 22/9/3 7/10/3 11/11/3 12/12/3 4/13/3
f 6/5/1 17/14/1 18/8/1 5/15/1 15/11/1 13/16/1
f 32/1/4 29/2/4 54/3/4 55/4/4
f 6/5/5 13/6/5 9/7/5 1/8/5 3/9/5 14/10/5 16/11/5 8/12/5 21/13/5
f 16/1/6 14/2/6 12/3/6 11/4/6
f 9/1/6 13/2/6 15/3/6 10/4/6
f 7/5/4 20/14/4 19/8/4 8/15/4 16/11/4 11/16/4
f 1/1/4 9/2/4 10/3/4 2/4/4
f 33/1/5 34/2/5 57/3/5 58/4/5
f 28/1/4 25/2/4 50/3/4 51/4/4
f 29/1/5 30/2/5 53/3/5 54/4/5
f 25/1/5 26/2/5 49/3/5 50/4/5
f 47/1/3 48/2/3 71/3/3 72/4/3
f 50/1/6 49/2/6 52/3/6 51/4/6
f 54/1/6 53/2/6 56/3/6 55/4/6
f 58/1/6 57/2/6 60/3/6 59/4/6
f 62/1/6 61/2/6 64/3/6 63/4/6
f 66/1/6 65/2/6 68/3/6 67/4/6
f 70/1/6 69/2/6 72/3/6 71/4/6
f 37/1/5 38/2/5 61/3/5 62/4/5
f 26/1/1 27/2/1 52/3/1 49/4/1
f 36/1/4 33/2/4 58/3/4 59/4/4
f 41/1/5 42/2/5 65/3/5 66/4/5
f 30/1/1 31/2/1 56/3/1 53/4/1
f 40/1/4 37/2/4 62/3/4 63/4/4
f 45/1/5 46/2/5 69/3/5 70/4/5
f 27/1/3 28/2/3 51/3/3 52/4/3
f 34/1/1 35/2/1 60/3/1 57/4/1
f 44/1/4 41/2/4 66/3/4 67/4/4
f 31/1/3 32/2/3 55/3/3 56/4/3
f 38/1/1 39/2/1 64/3/1 61/4/1
f 48/1/4 45/2/4 70/3/4 71/4/4
f 35/1/3 36/2/3 59/3/3 60/4/3
f 42/1/1 43/2/1 68/3/1 65/4/1
f 39/1/3 40/2/3 63/3/3 64/4/3
f 46/1/1 47/2/1 72/3/1 69/4/1
f 43/1/3 44/2/3 67/3/3 68/4/3
usemtl Grass
f 24/1/6 20/2/6 26/3/6 25/4/6
f 20/1/6 7/2/6 27/3/6 26/4/6
f 7/1/6 22/2/6 28/3/6 27/4/6
f 22/1/6 24/2/6 25/3/6 28/4/6
f 21/1/6 8/2/6 30/3/6 29/4/6
f 8/1/6 19/2/6 31/3/6 30/4/6
f 19/1/6 23/2/6 32/3/6 31/4/6
f 23/1/6 21/2/6 29/3/6 32/4/6
f 23/1/6 19/2/6 34/3/6 33/4/6
f 19/1/6 20/2/6 35/3/6 34/4/6
f 20/1/6 24/2/6 36/3/6 35/4/6
f 24/1/6 23/2/6 33/3/6 36/4/6
f 17/1/6 23/2/6 38/3/6 37/4/6
f 23/1/6 24/2/6 39/3/6 38/4/6
f 24/1/6 18/2/6 40/3/6 39/4/6
f 18/1/6 17/2/6 37/3/6 40/4/6
f 6/1/6 21/2/6 42/3/6 41/4/6
f 21/1/6 23/2/6 43/3/6 42/4/6
f 23/1/6 17/2/6 44/3/6 43/4/6
f 17/1/6 6/2/6 41/3/6 44/4/6
f 18/1/6 24/2/6 46/3/6 45/4/6
f 24/1/6 22/2/6 47/3/6 46/4/6
f 22/1/6 5/2/6 48/3/6 47/4/6
f 5/1/6 18/2/6 45/3/6 48/4/6
