# Blender 4.2.1 LTS
# www.blender.org
mtllib BankedStraight.mtl
o BankedStraight.001
v 3.838591 0.000000 -1.000000
v 3.838591 0.000000 1.000000
v 1.838591 0.000000 -1.000000
v 1.838591 0.000000 1.000000
v 3.638591 0.200000 1.000000
v 3.638591 0.200000 -1.000000
v 3.838591 0.600000 -1.000000
v 3.838591 0.600000 1.000000
v 2.036591 2.000000 1.000000
v 1.838591 2.000000 1.000000
v 3.638591 0.600000 -1.000000
v 1.838591 2.000000 -1.000000
v 3.638591 0.600000 1.000000
v 2.036591 2.000000 -1.000000
v 3.496591 0.200000 1.000000
v 2.036591 1.660000 1.000000
v 3.452495 0.200666 1.000000
v 3.408439 0.202664 1.000000
v 3.364463 0.205991 1.000000
v 3.320608 0.210645 1.000000
v 3.276913 0.216622 1.000000
v 3.233419 0.223915 1.000000
v 3.190165 0.232519 1.000000
v 3.147190 0.242425 1.000000
v 3.104535 0.253625 1.000000
v 3.062237 0.266108 1.000000
v 3.020335 0.279862 1.000000
v 2.978868 0.294876 1.000000
v 2.937873 0.311136 1.000000
v 2.897388 0.328626 1.000000
v 2.857450 0.347331 1.000000
v 2.818095 0.367234 1.000000
v 2.779359 0.388317 1.000000
v 2.741278 0.410559 1.000000
v 2.703886 0.433942 1.000000
v 2.667217 0.458444 1.000000
v 2.631304 0.484041 1.000000
v 2.596182 0.510712 1.000000
v 2.561880 0.538432 1.000000
v 2.528432 0.567174 1.000000
v 2.495867 0.596914 1.000000
v 2.464215 0.627624 1.000000
v 2.433505 0.659276 1.000000
v 2.403765 0.691841 1.000000
v 2.375023 0.725289 1.000000
v 2.347303 0.759591 1.000000
v 2.320632 0.794713 1.000000
v 2.295035 0.830626 1.000000
v 2.270533 0.867295 1.000000
v 2.247150 0.904687 1.000000
v 2.224908 0.942768 1.000000
v 2.203825 0.981504 1.000000
v 2.183923 1.020859 1.000000
v 2.165217 1.060797 1.000000
v 2.147727 1.101282 1.000000
v 2.131467 1.142277 1.000000
v 2.116453 1.183744 1.000000
v 2.102699 1.225646 1.000000
v 2.090216 1.267944 1.000000
v 2.079016 1.310599 1.000000
v 2.069110 1.353574 1.000000
v 2.060506 1.396828 1.000000
v 2.053213 1.440322 1.000000
v 2.047236 1.484017 1.000000
v 2.042582 1.527872 1.000000
v 2.039255 1.571847 1.000000
v 2.037257 1.615904 1.000000
v 2.036591 1.660000 -1.000000
v 3.496591 0.200000 -1.000000
v 2.037257 1.615904 -1.000000
v 2.039255 1.571847 -1.000000
v 2.042582 1.527872 -1.000000
v 2.047236 1.484017 -1.000000
v 2.053213 1.440322 -1.000000
v 2.060506 1.396828 -1.000000
v 2.069110 1.353574 -1.000000
v 2.079016 1.310599 -1.000000
v 2.090216 1.267944 -1.000000
v 2.102699 1.225646 -1.000000
v 2.116453 1.183744 -1.000000
v 2.131467 1.142277 -1.000000
v 2.147727 1.101282 -1.000000
v 2.165217 1.060797 -1.000000
v 2.183923 1.020859 -1.000000
v 2.203825 0.981504 -1.000000
v 2.224908 0.942768 -1.000000
v 2.247150 0.904687 -1.000000
v 2.270533 0.867295 -1.000000
v 2.295035 0.830626 -1.000000
v 2.320632 0.794713 -1.000000
v 2.347303 0.759591 -1.000000
v 2.375023 0.725289 -1.000000
v 2.403765 0.691841 -1.000000
v 2.433505 0.659276 -1.000000
v 2.464215 0.627624 -1.000000
v 2.495867 0.596914 -1.000000
v 2.528432 0.567174 -1.000000
v 2.561880 0.538432 -1.000000
v 2.596182 0.510712 -1.000000
v 2.631304 0.484041 -1.000000
v 2.667217 0.458444 -1.000000
v 2.703886 0.433942 -1.000000
v 2.741278 0.410559 -1.000000
v 2.779359 0.388317 -1.000000
v 2.818095 0.367234 -1.000000
v 2.857450 0.347331 -1.000000
v 2.897388 0.328626 -1.000000
v 2.937873 0.311136 -1.000000
v 2.978868 0.294876 -1.000000
v 3.020335 0.279862 -1.000000
v 3.062237 0.266108 -1.000000
v 3.104535 0.253625 -1.000000
v 3.147190 0.242425 -1.000000
v 3.190165 0.232519 -1.000000
v 3.233419 0.223915 -1.000000
v 3.276913 0.216622 -1.000000
v 3.320608 0.210645 -1.000000
v 3.364463 0.205991 -1.000000
v 3.408439 0.202664 -1.000000
v 3.452495 0.200666 -1.000000
vn -1.0000 -0.0000 -0.0000
vn -0.0000 -1.0000 -0.0000
vn -0.0000 -0.0000 -1.0000
vn 1.0000 -0.0000 -0.0000
vn -0.0000 1.0000 -0.0000
vn -0.0000 -0.0000 1.0000
vn 0.9999 0.0151 -0.0000
vn 0.9990 0.0453 -0.0000
vn 0.9971 0.0754 -0.0000
vn 0.9944 0.1055 -0.0000
vn 0.9908 0.1355 -0.0000
vn 0.9862 0.1654 -0.0000
vn 0.9808 0.1951 -0.0000
vn 0.9744 0.2246 -0.0000
vn 0.9672 0.2540 -0.0000
vn 0.9591 0.2830 -0.0000
vn 0.9501 0.3119 -0.0000
vn 0.9403 0.3404 -0.0000
vn 0.9296 0.3687 -0.0000
vn 0.9180 0.3966 -0.0000
vn 0.9056 0.4241 -0.0000
vn 0.8924 0.4513 -0.0000
vn 0.8783 0.4780 -0.0000
vn 0.8635 0.5044 -0.0000
vn 0.8479 0.5302 -0.0000
vn 0.8315 0.5556 -0.0000
vn 0.8143 0.5804 -0.0000
vn 0.7964 0.6048 -0.0000
vn 0.7778 0.6285 -0.0000
vn 0.7584 0.6517 -0.0000
vn 0.7384 0.6744 -0.0000
vn 0.7177 0.6963 -0.0000
vn 0.6963 0.7177 -0.0000
vn 0.6744 0.7384 -0.0000
vn 0.6517 0.7584 -0.0000
vn 0.6285 0.7778 -0.0000
vn 0.6048 0.7964 -0.0000
vn 0.5804 0.8143 -0.0000
vn 0.5556 0.8315 -0.0000
vn 0.5302 0.8479 -0.0000
vn 0.5044 0.8635 -0.0000
vn 0.4780 0.8783 -0.0000
vn 0.4513 0.8924 -0.0000
vn 0.4241 0.9056 -0.0000
vn 0.3966 0.9180 -0.0000
vn 0.3687 0.9296 -0.0000
vn 0.3404 0.9403 -0.0000
vn 0.3119 0.9501 -0.0000
vn 0.2830 0.9591 -0.0000
vn 0.2540 0.9672 -0.0000
vn 0.2246 0.9744 -0.0000
vn 0.1951 0.9808 -0.0000
vn 0.1654 0.9862 -0.0000
vn 0.1355 0.9908 -0.0000
vn 0.1055 0.9944 -0.0000
vn 0.0754 0.9971 -0.0000
vn 0.0453 0.9990 -0.0000
vn 0.0151 0.9999 -0.0000
vt 1.000000 0.000000
vt 0.000000 1.000000
vt 0.000000 0.000000
vt 0.500000 0.000000
vt -0.493956 2.527703
vt -0.466895 2.506347
vt 1.000000 0.811111
vt 0.000000 0.811111
vt 1.230969 -1.636635
vt 1.212859 -1.636877
vt 0.146447 0.853553
vt 1.000000 0.786613
vt 0.000000 0.786613
vt 1.000000 0.762137
vt 0.000000 0.762137
vt 1.000000 0.737707
vt 0.000000 0.737707
vt 1.000000 0.713343
vt 0.000000 0.713343
vt 1.000000 0.689068
vt 0.000000 0.689068
vt 1.000000 0.664904
vt 0.000000 0.664904
vt 1.000000 0.640874
vt 0.000000 0.640874
vt 1.000000 0.617000
vt 0.000000 0.617000
vt 1.000000 0.593302
vt 0.000000 0.593302
vt 1.000000 0.569803
vt 0.000000 0.569803
vt 1.000000 0.546524
vt 0.000000 0.546524
vt 1.000000 0.523487
vt 0.000000 0.523487
vt 1.000000 0.500712
vt 0.000000 0.500712
vt 1.000000 0.478221
vt 0.000000 0.478221
vt 1.000000 0.456033
vt 0.000000 0.456033
vt 1.000000 0.434169
vt 0.000000 0.434169
vt 1.000000 0.412649
vt 0.000000 0.412649
vt 1.000000 0.391493
vt 0.000000 0.391493
vt 1.000000 0.370719
vt 0.000000 0.370719
vt 1.000000 0.350348
vt 0.000000 0.350348
vt 1.000000 0.330396
vt 0.000000 0.330396
vt 1.000000 0.310884
vt 0.000000 0.310884
vt 1.000000 0.291827
vt 0.000000 0.291827
vt 1.000000 0.273245
vt 0.000000 0.273245
vt 1.000000 0.255153
vt 0.000000 0.255153
vt 1.000000 1.000000
vt 0.713311 0.000000
vt 0.713311 1.000000
vt 0.692983 0.000000
vt 0.692983 1.000000
vt 0.672104 0.000000
vt 0.672104 1.000000
vt 0.650693 0.000000
vt 0.650693 1.000000
vt 0.628768 0.000000
vt 0.628768 1.000000
vt 0.606351 0.000000
vt 0.606351 1.000000
vt 0.583462 0.000000
vt 0.583462 1.000000
vt 0.560121 0.000000
vt 0.560121 1.000000
vt 0.536349 0.000000
vt 0.536349 1.000000
vt 0.512170 0.000000
vt 0.512170 1.000000
vt 0.487604 0.000000
vt 0.487604 1.000000
vt 0.462673 0.000000
vt 0.462673 1.000000
vt 0.437402 0.000000
vt 0.437402 1.000000
vt 0.411812 0.000000
vt 0.411812 1.000000
vt 0.385928 0.000000
vt 0.385928 1.000000
vt 0.359772 0.000000
vt 0.359772 1.000000
vt 0.333369 0.000000
vt 0.333369 1.000000
vt 0.306742 0.000000
vt 0.306742 1.000000
vt 0.279917 0.000000
vt 0.279917 1.000000
vt 0.252917 0.000000
vt 0.252917 1.000000
vt 0.225767 0.000000
vt 0.225767 1.000000
vt 0.198492 0.000000
vt 0.198492 1.000000
vt 0.171116 0.000000
vt 0.171116 1.000000
vt 0.143666 0.000000
vt 0.143666 1.000000
vt 0.116165 0.000000
vt 0.116165 1.000000
vt 0.088639 0.000000
vt 0.500000 1.000000
vt 0.853553 0.853553
vt 1.000000 0.500000
vt 0.146447 0.146447
vt 0.021226 0.689520
vt 0.000000 0.500000
vt 0.027662 0.566782
vt 0.030567 0.577165
vt 0.853553 0.146447
vt 0.468661 0.987019
vt 0.032036 0.591168
vt 0.031960 0.609080
vt 0.457547 0.986542
vt 0.363823 1.080970
vt 0.443807 0.992814
vt 0.427553 1.005502
vt 0.030219 0.631214
vt 0.026687 0.657907
vt 0.408819 1.024450
vt 0.387590 1.049603
vt 0.013689 0.726447
vt 0.003916 0.769111
vt 0.337460 1.118602
vt -0.008263 0.817970
vt -0.023031 0.873517
vt 0.308425 1.162581
vt 0.276635 1.213007
vt -0.040582 0.936275
vt -0.061111 1.006791
vt 0.241998 1.269998
vt 0.204420 1.333678
vt -0.084813 1.085617
vt -0.111862 1.173273
vt 0.163805 1.404157
vt 0.120074 1.481514
vt -0.142388 1.270195
vt -0.176434 1.376638
vt 0.073170 1.565749
vt 0.023094 1.656726
vt -0.213902 1.492538
vt -0.254465 1.617318
vt -0.030065 1.754073
vt -0.086066 1.857051
vt -0.297461 1.749619
vt -0.341773 1.887000
vt -0.144443 1.964365
vt -0.204407 2.073946
vt -0.385714 2.025637
vt -0.426979 2.160157
vt -0.264733 2.182701
vt -0.323669 2.286317
vt -0.462711 2.283752
vt -0.489780 2.388772
vt -0.378899 2.379222
vt -0.427637 2.454850
vt -0.505243 2.467802
vt -0.506933 2.515067
vt 0.213229 0.118785
vt 0.295467 0.027445
vt 0.222624 0.113497
vt 0.233565 0.104634
vt 0.814517 -0.007099
vt 0.822215 0.133466
vt 0.814018 0.125944
vt 0.246177 0.091914
vt 0.260597 0.075032
vt 0.808738 0.111793
vt 0.806217 0.091328
vt 0.276974 0.053660
vt 0.806367 0.064683
vt 0.809142 0.031886
vt 0.316248 -0.003996
vt 0.339506 -0.041074
vt 0.822485 -0.052351
vt 0.833051 -0.103979
vt 0.365442 -0.084235
vt 0.394277 -0.133955
vt 0.846229 -0.162115
vt 0.862036 -0.226906
vt 0.426244 -0.190742
vt 0.461590 -0.255121
vt 0.880492 -0.298506
vt 0.901610 -0.377061
vt 0.500569 -0.327619
vt 0.543424 -0.408728
vt 0.925387 -0.462684
vt 0.951784 -0.555413
vt 0.590373 -0.498847
vt 0.641565 -0.598188
vt 0.980705 -0.655153
vt 1.011951 -0.761576
vt 0.697025 -0.706636
vt 0.756576 -0.823550
vt 1.045169 -0.873991
vt 1.079772 -0.991153
vt 0.819724 -0.947504
vt 0.885534 -1.075980
vt 1.114857 -1.111039
vt 1.149102 -1.230597
vt 0.952494 -1.205083
vt 1.018435 -1.329381
vt 1.180695 -1.345538
vt 1.207335 -1.450287
vt 1.080564 -1.442043
vt 1.135684 -1.535444
vt 1.226350 -1.538226
vt 1.235004 -1.602400
vt 1.180632 -1.602260
vt 0.088639 1.000000
s 0
f 10/1/1 3/2/1 4/3/1
f 1/1/2 4/2/2 3/3/2
f 3/4/3 96/5/3 97/6/3
f 5/1/1 11/2/1 6/3/1
f 68/7/4 9/2/4 16/8/4
f 12/1/5 9/2/5 14/3/5
f 11/1/5 8/2/5 7/3/5
f 41/9/6 42/10/6 4/11/6
f 7/1/4 2/2/4 1/3/4
f 16/8/7 70/12/7 68/7/7
f 67/13/8 71/14/8 70/12/8
f 66/15/9 72/16/9 71/14/9
f 65/17/10 73/18/10 72/16/10
f 64/19/11 74/20/11 73/18/11
f 63/21/12 75/22/12 74/20/12
f 62/23/13 76/24/13 75/22/13
f 61/25/14 77/26/14 76/24/14
f 60/27/15 78/28/15 77/26/15
f 59/29/16 79/30/16 78/28/16
f 58/31/17 80/32/17 79/30/17
f 57/33/18 81/34/18 80/32/18
f 56/35/19 82/36/19 81/34/19
f 55/37/20 83/38/20 82/36/20
f 54/39/21 84/40/21 83/38/21
f 53/41/22 85/42/22 84/40/22
f 52/43/23 86/44/23 85/42/23
f 51/45/24 87/46/24 86/44/24
f 50/47/25 88/48/25 87/46/25
f 49/49/26 89/50/26 88/48/26
f 48/51/27 90/52/27 89/50/27
f 47/53/28 91/54/28 90/52/28
f 46/55/29 92/56/29 91/54/29
f 45/57/30 93/58/30 92/56/30
f 44/59/31 94/60/31 93/58/31
f 43/61/32 95/1/32 94/60/32
f 42/62/33 96/63/33 95/1/33
f 41/64/34 97/65/34 96/63/34
f 40/66/35 98/67/35 97/65/35
f 39/68/36 99/69/36 98/67/36
f 38/70/37 100/71/37 99/69/37
f 37/72/38 101/73/38 100/71/38
f 36/74/39 102/75/39 101/73/39
f 35/76/40 103/77/40 102/75/40
f 34/78/41 104/79/41 103/77/41
f 33/80/42 105/81/42 104/79/42
f 32/82/43 106/83/43 105/81/43
f 31/84/44 107/85/44 106/83/44
f 30/86/45 108/87/45 107/85/45
f 29/88/46 109/89/46 108/87/46
f 28/90/47 110/91/47 109/89/47
f 27/92/48 111/93/48 110/91/48
f 26/94/49 112/95/49 111/93/49
f 25/96/50 113/97/50 112/95/50
f 24/98/51 114/99/51 113/97/51
f 23/100/52 115/101/52 114/99/52
f 22/102/53 116/103/53 115/101/53
f 21/104/54 117/105/54 116/103/54
f 20/106/55 118/107/55 117/105/55
f 19/108/56 119/109/56 118/107/56
f 18/110/57 120/111/57 119/109/57
f 17/112/58 69/113/58 120/111/58
f 69/113/5 5/2/5 6/3/5
f 10/1/1 12/62/1 3/2/1
f 1/1/2 2/62/2 4/2/2
f 6/114/3 11/115/3 7/116/3
f 3/4/3 12/117/3 75/118/3
f 12/117/3 14/119/3 68/120/3
f 12/117/3 68/120/3 70/121/3
f 6/114/3 7/116/3 1/122/3
f 69/123/3 6/114/3 1/122/3
f 12/117/3 70/121/3 71/124/3
f 12/117/3 71/124/3 72/125/3
f 69/123/3 1/122/3 120/126/3
f 1/122/3 3/4/3 115/127/3
f 120/126/3 1/122/3 119/128/3
f 119/128/3 1/122/3 118/129/3
f 12/117/3 72/125/3 73/130/3
f 12/117/3 73/130/3 74/131/3
f 118/129/3 1/122/3 117/132/3
f 117/132/3 1/122/3 116/133/3
f 12/117/3 74/131/3 75/118/3
f 116/133/3 1/122/3 115/127/3
f 3/4/3 75/118/3 76/134/3
f 3/4/3 76/134/3 77/135/3
f 114/136/3 115/127/3 3/4/3
f 3/4/3 77/135/3 78/137/3
f 3/4/3 78/137/3 79/138/3
f 113/139/3 114/136/3 3/4/3
f 112/140/3 113/139/3 3/4/3
f 3/4/3 79/138/3 80/141/3
f 3/4/3 80/141/3 81/142/3
f 111/143/3 112/140/3 3/4/3
f 110/144/3 111/143/3 3/4/3
f 3/4/3 81/142/3 82/145/3
f 3/4/3 82/145/3 83/146/3
f 109/147/3 110/144/3 3/4/3
f 108/148/3 109/147/3 3/4/3
f 3/4/3 83/146/3 84/149/3
f 3/4/3 84/149/3 85/150/3
f 107/151/3 108/148/3 3/4/3
f 106/152/3 107/151/3 3/4/3
f 3/4/3 85/150/3 86/153/3
f 3/4/3 86/153/3 87/154/3
f 105/155/3 106/152/3 3/4/3
f 104/156/3 105/155/3 3/4/3
f 3/4/3 87/154/3 88/157/3
f 3/4/3 88/157/3 89/158/3
f 103/159/3 104/156/3 3/4/3
f 102/160/3 103/159/3 3/4/3
f 3/4/3 89/158/3 90/161/3
f 3/4/3 90/161/3 91/162/3
f 101/163/3 102/160/3 3/4/3
f 100/164/3 101/163/3 3/4/3
f 3/4/3 91/162/3 92/165/3
f 3/4/3 92/165/3 93/166/3
f 99/167/3 100/164/3 3/4/3
f 98/168/3 99/167/3 3/4/3
f 3/4/3 93/166/3 94/169/3
f 3/4/3 94/169/3 95/170/3
f 97/6/3 98/168/3 3/4/3
f 3/4/3 95/170/3 96/5/3
f 5/1/1 13/62/1 11/2/1
f 68/7/4 14/62/4 9/2/4
f 12/1/5 10/62/5 9/2/5
f 11/1/5 13/62/5 8/2/5
f 2/114/6 8/115/6 5/122/6
f 8/115/6 13/116/6 5/122/6
f 9/117/6 10/119/6 16/171/6
f 10/119/6 4/11/6 62/172/6
f 16/171/6 10/119/6 67/173/6
f 67/173/6 10/119/6 66/174/6
f 4/11/6 2/114/6 22/175/6
f 2/114/6 5/122/6 15/176/6
f 2/114/6 15/176/6 17/177/6
f 66/174/6 10/119/6 65/178/6
f 65/178/6 10/119/6 64/179/6
f 2/114/6 17/177/6 18/180/6
f 2/114/6 18/180/6 19/181/6
f 64/179/6 10/119/6 63/182/6
f 63/182/6 10/119/6 62/172/6
f 2/114/6 19/181/6 20/183/6
f 2/114/6 20/183/6 21/184/6
f 2/114/6 21/184/6 22/175/6
f 61/185/6 62/172/6 4/11/6
f 60/186/6 61/185/6 4/11/6
f 4/11/6 22/175/6 23/187/6
f 4/11/6 23/187/6 24/188/6
f 59/189/6 60/186/6 4/11/6
f 58/190/6 59/189/6 4/11/6
f 4/11/6 24/188/6 25/191/6
f 4/11/6 25/191/6 26/192/6
f 57/193/6 58/190/6 4/11/6
f 56/194/6 57/193/6 4/11/6
f 4/11/6 26/192/6 27/195/6
f 4/11/6 27/195/6 28/196/6
f 55/197/6 56/194/6 4/11/6
f 54/198/6 55/197/6 4/11/6
f 4/11/6 28/196/6 29/199/6
f 4/11/6 29/199/6 30/200/6
f 53/201/6 54/198/6 4/11/6
f 52/202/6 53/201/6 4/11/6
f 4/11/6 30/200/6 31/203/6
f 4/11/6 31/203/6 32/204/6
f 51/205/6 52/202/6 4/11/6
f 50/206/6 51/205/6 4/11/6
f 4/11/6 32/204/6 33/207/6
f 4/11/6 33/207/6 34/208/6
f 49/209/6 50/206/6 4/11/6
f 48/210/6 49/209/6 4/11/6
f 4/11/6 34/208/6 35/211/6
f 4/11/6 35/211/6 36/212/6
f 47/213/6 48/210/6 4/11/6
f 46/214/6 47/213/6 4/11/6
f 4/11/6 36/212/6 37/215/6
f 4/11/6 37/215/6 38/216/6
f 45/217/6 46/214/6 4/11/6
f 44/218/6 45/217/6 4/11/6
f 4/11/6 38/216/6 39/219/6
f 4/11/6 39/219/6 40/220/6
f 43/221/6 44/218/6 4/11/6
f 42/10/6 43/221/6 4/11/6
f 4/11/6 40/220/6 41/9/6
f 7/1/4 8/62/4 2/2/4
f 16/8/7 67/13/7 70/12/7
f 67/13/8 66/15/8 71/14/8
f 66/15/9 65/17/9 72/16/9
f 65/17/10 64/19/10 73/18/10
f 64/19/11 63/21/11 74/20/11
f 63/21/12 62/23/12 75/22/12
f 62/23/13 61/25/13 76/24/13
f 61/25/14 60/27/14 77/26/14
f 60/27/15 59/29/15 78/28/15
f 59/29/16 58/31/16 79/30/16
f 58/31/17 57/33/17 80/32/17
f 57/33/18 56/35/18 81/34/18
f 56/35/19 55/37/19 82/36/19
f 55/37/20 54/39/20 83/38/20
f 54/39/21 53/41/21 84/40/21
f 53/41/22 52/43/22 85/42/22
f 52/43/23 51/45/23 86/44/23
f 51/45/24 50/47/24 87/46/24
f 50/47/25 49/49/25 88/48/25
f 49/49/26 48/51/26 89/50/26
f 48/51/27 47/53/27 90/52/27
f 47/53/28 46/55/28 91/54/28
f 46/55/29 45/57/29 92/56/29
f 45/57/30 44/59/30 93/58/30
f 44/59/31 43/61/31 94/60/31
f 43/61/32 42/3/32 95/1/32
f 42/62/33 41/64/33 96/63/33
f 41/64/34 40/66/34 97/65/34
f 40/66/35 39/68/35 98/67/35
f 39/68/36 38/70/36 99/69/36
f 38/70/37 37/72/37 100/71/37
f 37/72/38 36/74/38 101/73/38
f 36/74/39 35/76/39 102/75/39
f 35/76/40 34/78/40 103/77/40
f 34/78/41 33/80/41 104/79/41
f 33/80/42 32/82/42 105/81/42
f 32/82/43 31/84/43 106/83/43
f 31/84/44 30/86/44 107/85/44
f 30/86/45 29/88/45 108/87/45
f 29/88/46 28/90/46 109/89/46
f 28/90/47 27/92/47 110/91/47
f 27/92/48 26/94/48 111/93/48
f 26/94/49 25/96/49 112/95/49
f 25/96/50 24/98/50 113/97/50
f 24/98/51 23/100/51 114/99/51
f 23/100/52 22/102/52 115/101/52
f 22/102/53 21/104/53 116/103/53
f 21/104/54 20/106/54 117/105/54
f 20/106/55 19/108/55 118/107/55
f 19/108/56 18/110/56 119/109/56
f 18/110/57 17/112/57 120/111/57
f 17/112/58 15/222/58 69/113/58
f 69/113/5 15/222/5 5/2/5
