# Blender 4.1.1
# www.blender.org
mtllib CornerMedium.mtl
o CornerMedium
v 1.000000 0.200000 0.800000
v 1.000000 0.000000 -0.800000
v 1.000000 0.000000 1.000000
v 1.000000 0.000000 -1.000000
v 1.000000 0.200000 -0.800000
v 1.000000 0.600000 1.000000
v 1.000000 0.600000 0.800000
v 1.000000 0.600000 -0.800000
v 1.000000 0.600000 -1.000000
v 0.725552 0.200000 0.786517
v 0.705949 0.000000 0.985554
v 0.901983 0.000000 -1.004815
v 0.882379 0.200000 -0.805778
v 0.705949 0.600000 0.985554
v 0.725552 0.600000 0.786517
v 0.882379 0.600000 -0.805778
v 0.901983 0.600000 -1.004815
v 0.453747 0.200000 0.746199
v 0.414729 0.000000 0.942356
v 0.804910 0.000000 -1.019215
v 0.765892 0.200000 -0.823058
v 0.414729 0.600000 0.942356
v 0.453747 0.600000 0.746199
v 0.765892 0.600000 -0.823058
v 0.804910 0.600000 -1.019215
v 0.187203 0.200000 0.679433
v 0.129146 0.000000 0.870821
v 0.709715 0.000000 -1.043060
v 0.651658 0.200000 -0.851672
v 0.129146 0.600000 0.870821
v 0.187203 0.600000 0.679433
v 0.651658 0.600000 -0.851672
v 0.709715 0.600000 -1.043060
v -0.071514 0.200000 0.586863
v -0.148050 0.000000 0.771639
v 0.617317 0.000000 -1.076120
v 0.540780 0.200000 -0.891344
v -0.148050 0.600000 0.771639
v -0.071514 0.600000 0.586863
v 0.540780 0.600000 -0.891344
v 0.617317 0.600000 -1.076120
v -0.319911 0.200000 0.469380
v -0.414190 0.000000 0.645764
v 0.528603 0.000000 -1.118079
v 0.434324 0.200000 -0.941694
v -0.414190 0.600000 0.645764
v -0.319911 0.600000 0.469380
v 0.434324 0.600000 -0.941694
v 0.528603 0.600000 -1.118079
v -0.555597 0.200000 0.328115
v -0.666711 0.000000 0.494409
v 0.444430 0.000000 -1.168530
v 0.333316 0.200000 -1.002236
v -0.666711 0.600000 0.494409
v -0.555597 0.600000 0.328115
v 0.333316 0.600000 -1.002236
v 0.444430 0.600000 -1.168530
v -0.776301 0.200000 0.164429
v -0.903180 0.000000 0.319031
v 0.365607 0.000000 -1.226990
v 0.238728 0.200000 -1.072387
v -0.903180 0.600000 0.319031
v -0.776301 0.600000 0.164429
v 0.238728 0.600000 -1.072387
v 0.365607 0.600000 -1.226990
v -0.979899 0.200000 -0.020101
v -1.121320 0.000000 0.121320
v 0.292893 0.000000 -1.292893
v 0.151472 0.200000 -1.151472
v -1.121320 0.600000 0.121320
v -0.979899 0.600000 -0.020101
v 0.151472 0.600000 -1.151472
v 0.292893 0.600000 -1.292893
v -1.164429 0.200000 -0.223699
v -1.319031 0.000000 -0.096820
v 0.226990 0.000000 -1.365607
v 0.072387 0.200000 -1.238728
v -1.319031 0.600000 -0.096820
v -1.164429 0.600000 -0.223699
v 0.072387 0.600000 -1.238728
v 0.226990 0.600000 -1.365607
v -1.328115 0.200000 -0.444403
v -1.494409 0.000000 -0.333289
v 0.168530 0.000000 -1.444430
v 0.002236 0.200000 -1.333316
v -1.494409 0.600000 -0.333289
v -1.328115 0.600000 -0.444403
v 0.002236 0.600000 -1.333316
v 0.168530 0.600000 -1.444430
v -1.469379 0.200000 -0.680089
v -1.645764 0.000000 -0.585810
v 0.118079 0.000000 -1.528603
v -0.058306 0.200000 -1.434324
v -1.645764 0.600000 -0.585810
v -1.469379 0.600000 -0.680089
v -0.058306 0.600000 -1.434324
v 0.118079 0.600000 -1.528603
v -1.586863 0.200000 -0.928486
v -1.771638 0.000000 -0.851950
v 0.076120 0.000000 -1.617317
v -0.108655 0.200000 -1.540780
v -1.771638 0.600000 -0.851950
v -1.586863 0.600000 -0.928486
v -0.108655 0.600000 -1.540780
v 0.076120 0.600000 -1.617317
v -1.679433 0.200000 -1.187203
v -1.870821 0.000000 -1.129146
v 0.043060 0.000000 -1.709715
v -0.148328 0.200000 -1.651658
v -1.870821 0.600000 -1.129146
v -1.679433 0.600000 -1.187203
v -0.148328 0.600000 -1.651658
v 0.043060 0.600000 -1.709715
v -1.746199 0.200000 -1.453747
v -1.942356 0.000000 -1.414729
v 0.019215 0.000000 -1.804910
v -0.176942 0.200000 -1.765892
v -1.942356 0.600000 -1.414729
v -1.746199 0.600000 -1.453747
v -0.176942 0.600000 -1.765892
v 0.019215 0.600000 -1.804910
v -1.786517 0.200000 -1.725552
v -1.985554 0.000000 -1.705948
v 0.004815 0.000000 -1.901983
v -0.194222 0.200000 -1.882379
v -1.985554 0.600000 -1.705948
v -1.786517 0.600000 -1.725552
v -0.194222 0.600000 -1.882379
v 0.004815 0.600000 -1.901983
v -1.800000 0.200000 -2.000000
v -0.200000 0.000000 -2.000000
v -2.000000 0.000000 -2.000000
v 0.000000 0.000000 -2.000000
v -0.200000 0.200000 -2.000000
v -2.000000 0.600000 -2.000000
v -1.800000 0.600000 -2.000000
v -0.200000 0.600000 -2.000000
v 0.000000 0.600000 -2.000000
vn 0.0491 -0.0000 -0.9988
vn 0.1467 -0.0000 -0.9892
vn 0.2430 -0.0000 -0.9700
vn 0.3369 -0.0000 -0.9415
vn 0.4276 -0.0000 -0.9040
vn 0.5141 -0.0000 -0.8577
vn 0.5957 -0.0000 -0.8032
vn 0.6716 -0.0000 -0.7410
vn 0.7410 -0.0000 -0.6716
vn 0.8032 -0.0000 -0.5957
vn 0.8577 -0.0000 -0.5141
vn 0.9040 -0.0000 -0.4276
vn 0.9415 -0.0000 -0.3369
vn 0.9700 -0.0000 -0.2430
vn 0.9892 -0.0000 -0.1467
vn 0.9988 -0.0000 -0.0491
vn -0.0000 1.0000 -0.0000
vn -0.0491 -0.0000 0.9988
vn -0.1467 -0.0000 0.9892
vn -0.2430 -0.0000 0.9700
vn -0.3369 -0.0000 0.9415
vn -0.4276 -0.0000 0.9040
vn -0.5141 -0.0000 0.8577
vn -0.5957 -0.0000 0.8032
vn -0.6716 -0.0000 0.7410
vn -0.7410 -0.0000 0.6716
vn -0.8032 -0.0000 0.5957
vn -0.8577 -0.0000 0.5141
vn -0.9040 -0.0000 0.4276
vn -0.9415 -0.0000 0.3369
vn -0.9700 -0.0000 0.2430
vn -0.9892 -0.0000 0.1467
vn -0.9988 -0.0000 0.0491
vn -0.0000 -0.0000 -1.0000
vn 1.0000 -0.0000 -0.0000
vn -0.0000 -1.0000 -0.0000
vt 0.212225 0.532603
vt 0.245701 0.532603
vt 0.227850 0.532603
vt 0.196600 0.532603
vt 0.230076 0.532603
vt 0.180975 0.532603
vt 0.214451 0.532603
vt 0.165350 0.532603
vt 0.198826 0.532603
vt 0.149725 0.532603
vt 0.183201 0.532603
vt 0.134100 0.532603
vt 0.167576 0.532603
vt 0.118475 0.532603
vt 0.151951 0.532603
vt 0.102850 0.532603
vt 0.136326 0.532603
vt 0.087225 0.532603
vt 0.120701 0.532603
vt 0.071600 0.532603
vt 0.105076 0.532603
vt 0.055975 0.532603
vt 0.089451 0.532603
vt 0.040350 0.532603
vt 0.073826 0.532603
vt 0.024725 0.532603
vt 0.058201 0.532603
vt 0.009100 0.532603
vt 0.042576 0.532603
vt -0.006525 0.532603
vt 0.026951 0.532603
vt -0.022150 0.532603
vt 0.011326 0.532603
vt 0.227850 0.389793
vt 0.196600 0.389793
vt 0.212225 0.389793
vt 0.180975 0.389793
vt 0.165350 0.389793
vt 0.134100 0.389793
vt 0.149725 0.389793
vt 0.102850 0.389793
vt 0.118475 0.389793
vt 0.071600 0.389793
vt 0.087225 0.389793
vt 0.055975 0.389793
vt 0.024725 0.389793
vt 0.040350 0.389793
vt -0.006525 0.389793
vt 0.009100 0.389793
vt -0.022150 0.389793
vt 0.230076 0.389793
vt 0.245701 0.389793
vt 0.214451 0.389793
vt 0.198826 0.389793
vt 0.183201 0.389793
vt 0.167576 0.389793
vt 0.151951 0.389793
vt 0.136326 0.389793
vt 0.120701 0.389793
vt 0.105076 0.389793
vt 0.089451 0.389793
vt 0.073826 0.389793
vt 0.058201 0.389793
vt 0.042576 0.389793
vt 0.026951 0.389793
vt 0.011326 0.389793
vt -0.004299 0.389793
vt 0.194374 0.371942
vt 0.245701 0.371942
vt 0.209999 0.371942
vt 0.178749 0.371942
vt 0.230076 0.371942
vt 0.163124 0.371942
vt 0.214451 0.371942
vt 0.147499 0.371942
vt 0.198826 0.371942
vt 0.131874 0.371942
vt 0.183201 0.371942
vt 0.116249 0.371942
vt 0.167576 0.371942
vt 0.100624 0.371942
vt 0.151951 0.371942
vt 0.084999 0.371942
vt 0.136326 0.371942
vt 0.069374 0.371942
vt 0.120701 0.371942
vt 0.053749 0.371942
vt 0.105076 0.371942
vt 0.038124 0.371942
vt 0.089451 0.371942
vt 0.022499 0.371942
vt 0.073826 0.371942
vt 0.006874 0.371942
vt 0.058201 0.371942
vt -0.008751 0.371942
vt 0.042576 0.371942
vt -0.024376 0.371942
vt 0.026951 0.371942
vt -0.040001 0.371942
vt 0.011326 0.371942
vt 0.245701 0.550454
vt 0.230076 0.550454
vt 0.198826 0.550454
vt 0.214451 0.550454
vt 0.183201 0.550454
vt 0.151951 0.550454
vt 0.167576 0.550454
vt 0.120701 0.550454
vt 0.136326 0.550454
vt 0.105076 0.550454
vt 0.089451 0.550454
vt 0.058201 0.550454
vt 0.073826 0.550454
vt 0.026951 0.550454
vt 0.042576 0.550454
vt -0.004299 0.532603
vt 0.011326 0.550454
vt 0.209999 0.550454
vt 0.194374 0.550454
vt 0.178749 0.550454
vt 0.163124 0.550454
vt 0.147499 0.550454
vt 0.131874 0.550454
vt 0.116249 0.550454
vt 0.100624 0.550454
vt 0.084999 0.550454
vt 0.069374 0.550454
vt 0.053749 0.550454
vt 0.038124 0.550454
vt 0.022499 0.550454
vt 0.006874 0.550454
vt -0.008751 0.550454
vt -0.004299 0.550454
vt -0.024376 0.550454
vt -0.040001 0.389793
vt -0.004299 0.371942
vt -0.040001 0.550454
vt 0.209999 0.389793
s 1
usemtl Grass
f 10/1/1 7/2/1 1/3/1
f 18/4/2 15/5/2 10/1/2
f 26/6/3 23/7/3 18/4/3
f 34/8/4 31/9/4 26/6/4
f 42/10/5 39/11/5 34/8/5
f 50/12/6 47/13/6 42/10/6
f 58/14/7 55/15/7 50/12/7
f 66/16/8 63/17/8 58/14/8
f 74/18/9 71/19/9 66/16/9
f 82/20/10 79/21/10 74/18/10
f 90/22/11 87/23/11 82/20/11
f 98/24/12 95/25/12 90/22/12
f 106/26/13 103/27/13 98/24/13
f 114/28/14 111/29/14 106/26/14
f 122/30/15 119/31/15 114/28/15
f 130/32/16 127/33/16 122/30/16
f 5/34/17 10/1/17 1/3/17
f 21/35/17 10/1/17 13/36/17
f 29/37/17 18/4/17 21/35/17
f 37/38/17 26/6/17 29/37/17
f 37/38/17 42/10/17 34/8/17
f 53/39/17 42/10/17 45/40/17
f 53/39/17 58/14/17 50/12/17
f 69/41/17 58/14/17 61/42/17
f 69/41/17 74/18/17 66/16/17
f 85/43/17 74/18/17 77/44/17
f 85/43/17 90/22/17 82/20/17
f 93/45/17 98/24/17 90/22/17
f 109/46/17 98/24/17 101/47/17
f 109/46/17 114/28/17 106/26/17
f 125/48/17 114/28/17 117/49/17
f 134/50/17 122/30/17 125/48/17
f 11/119/36 68/83/36 60/81/36
f 10/1/1 15/5/1 7/2/1
f 18/4/2 23/7/2 15/5/2
f 26/6/3 31/9/3 23/7/3
f 34/8/4 39/11/4 31/9/4
f 42/10/5 47/13/5 39/11/5
f 50/12/6 55/15/6 47/13/6
f 58/14/7 63/17/7 55/15/7
f 66/16/8 71/19/8 63/17/8
f 74/18/9 79/21/9 71/19/9
f 82/20/10 87/23/10 79/21/10
f 90/22/11 95/25/11 87/23/11
f 98/24/12 103/27/12 95/25/12
f 106/26/13 111/29/13 103/27/13
f 114/28/14 119/31/14 111/29/14
f 122/30/15 127/33/15 119/31/15
f 130/32/16 136/116/16 127/33/16
f 5/34/17 13/36/17 10/1/17
f 21/35/17 18/4/17 10/1/17
f 29/37/17 26/6/17 18/4/17
f 37/38/17 34/8/17 26/6/17
f 37/38/17 45/40/17 42/10/17
f 53/39/17 50/12/17 42/10/17
f 53/39/17 61/42/17 58/14/17
f 69/41/17 66/16/17 58/14/17
f 69/41/17 77/44/17 74/18/17
f 85/43/17 82/20/17 74/18/17
f 85/43/17 93/45/17 90/22/17
f 93/45/17 101/47/17 98/24/17
f 109/46/17 106/26/17 98/24/17
f 109/46/17 117/49/17 114/28/17
f 125/48/17 122/30/17 114/28/17
f 134/50/17 130/32/17 122/30/17
f 2/138/36 3/118/36 11/119/36
f 11/119/36 19/120/36 27/121/36
f 27/121/36 35/122/36 43/123/36
f 43/123/36 51/124/36 59/125/36
f 59/125/36 67/126/36 75/127/36
f 75/127/36 83/128/36 91/129/36
f 91/129/36 99/130/36 107/131/36
f 107/131/36 115/132/36 123/134/36
f 123/134/36 132/137/36 131/135/36
f 131/135/36 133/99/36 124/97/36
f 131/135/36 124/97/36 116/95/36
f 107/131/36 123/134/36 131/135/36
f 75/127/36 91/129/36 107/131/36
f 43/123/36 59/125/36 75/127/36
f 11/119/36 27/121/36 43/123/36
f 4/70/36 2/138/36 11/119/36
f 12/68/36 4/70/36 11/119/36
f 11/119/36 43/123/36 75/127/36
f 75/127/36 107/131/36 131/135/36
f 131/135/36 116/95/36 108/93/36
f 131/135/36 108/93/36 100/91/36
f 11/119/36 75/127/36 131/135/36
f 20/71/36 12/68/36 11/119/36
f 28/73/36 20/71/36 11/119/36
f 11/119/36 131/135/36 100/91/36
f 11/119/36 100/91/36 92/89/36
f 36/75/36 28/73/36 11/119/36
f 44/77/36 36/75/36 11/119/36
f 11/119/36 92/89/36 84/87/36
f 11/119/36 84/87/36 76/85/36
f 52/79/36 44/77/36 11/119/36
f 60/81/36 52/79/36 11/119/36
f 11/119/36 76/85/36 68/83/36
usemtl Wood
f 16/51/18 5/34/18 8/52/18
f 24/53/19 13/36/19 16/51/19
f 32/54/20 21/35/20 24/53/20
f 40/55/21 29/37/21 32/54/21
f 48/56/22 37/38/22 40/55/22
f 56/57/23 45/40/23 48/56/23
f 64/58/24 53/39/24 56/57/24
f 72/59/25 61/42/25 64/58/25
f 80/60/26 69/41/26 72/59/26
f 88/61/27 77/44/27 80/60/27
f 96/62/28 85/43/28 88/61/28
f 104/63/29 93/45/29 96/62/29
f 112/64/30 101/47/30 104/63/30
f 120/65/31 109/46/31 112/64/31
f 128/66/32 117/49/32 120/65/32
f 137/67/33 125/48/33 128/66/33
f 12/68/1 9/69/1 4/70/1
f 20/71/2 17/72/2 12/68/2
f 28/73/3 25/74/3 20/71/3
f 36/75/4 33/76/4 28/73/4
f 44/77/5 41/78/5 36/75/5
f 52/79/6 49/80/6 44/77/6
f 60/81/7 57/82/7 52/79/7
f 68/83/8 65/84/8 60/81/8
f 76/85/9 73/86/9 68/83/9
f 84/87/10 81/88/10 76/85/10
f 92/89/11 89/90/11 84/87/11
f 100/91/12 97/92/12 92/89/12
f 108/93/13 105/94/13 100/91/13
f 116/95/14 113/96/14 108/93/14
f 124/97/15 121/98/15 116/95/15
f 133/99/16 129/100/16 124/97/16
f 15/5/17 6/101/17 7/2/17
f 23/7/17 14/102/17 15/5/17
f 23/7/17 30/103/17 22/104/17
f 39/11/17 30/103/17 31/9/17
f 47/13/17 38/105/17 39/11/17
f 47/13/17 54/106/17 46/107/17
f 63/17/17 54/106/17 55/15/17
f 63/17/17 70/108/17 62/109/17
f 71/19/17 78/110/17 70/108/17
f 87/23/17 78/110/17 79/21/17
f 95/25/17 86/111/17 87/23/17
f 95/25/17 102/112/17 94/113/17
f 111/29/17 102/112/17 103/27/17
f 111/29/17 118/114/17 110/115/17
f 127/33/17 118/114/17 119/31/17
f 136/116/17 126/117/17 127/33/17
f 17/72/17 8/52/17 9/69/17
f 25/74/17 16/51/17 17/72/17
f 25/74/17 32/54/17 24/53/17
f 41/78/17 32/54/17 33/76/17
f 41/78/17 48/56/17 40/55/17
f 49/80/17 56/57/17 48/56/17
f 57/82/17 64/58/17 56/57/17
f 73/86/17 64/58/17 65/84/17
f 81/88/17 72/59/17 73/86/17
f 89/90/17 80/60/17 81/88/17
f 89/90/17 96/62/17 88/61/17
f 97/92/17 104/63/17 96/62/17
f 113/96/17 104/63/17 105/94/17
f 113/96/17 120/65/17 112/64/17
f 129/100/17 120/65/17 121/98/17
f 129/100/17 137/67/17 128/66/17
f 14/102/18 3/118/18 6/101/18
f 22/104/19 11/119/19 14/102/19
f 30/103/20 19/120/20 22/104/20
f 38/105/21 27/121/21 30/103/21
f 46/107/22 35/122/22 38/105/22
f 54/106/23 43/123/23 46/107/23
f 62/109/24 51/124/24 54/106/24
f 70/108/25 59/125/25 62/109/25
f 78/110/26 67/126/26 70/108/26
f 86/111/27 75/127/27 78/110/27
f 94/113/28 83/128/28 86/111/28
f 102/112/29 91/129/29 94/113/29
f 110/115/30 99/130/30 102/112/30
f 118/114/31 107/131/31 110/115/31
f 126/117/32 115/132/32 118/114/32
f 135/133/33 123/134/33 126/117/33
f 131/135/34 134/50/34 138/136/34
f 1/3/35 3/118/35 4/70/35
f 16/51/18 13/36/18 5/34/18
f 24/53/19 21/35/19 13/36/19
f 32/54/20 29/37/20 21/35/20
f 40/55/21 37/38/21 29/37/21
f 48/56/22 45/40/22 37/38/22
f 56/57/23 53/39/23 45/40/23
f 64/58/24 61/42/24 53/39/24
f 72/59/25 69/41/25 61/42/25
f 80/60/26 77/44/26 69/41/26
f 88/61/27 85/43/27 77/44/27
f 96/62/28 93/45/28 85/43/28
f 104/63/29 101/47/29 93/45/29
f 112/64/30 109/46/30 101/47/30
f 120/65/31 117/49/31 109/46/31
f 128/66/32 125/48/32 117/49/32
f 137/67/33 134/50/33 125/48/33
f 12/68/1 17/72/1 9/69/1
f 20/71/2 25/74/2 17/72/2
f 28/73/3 33/76/3 25/74/3
f 36/75/4 41/78/4 33/76/4
f 44/77/5 49/80/5 41/78/5
f 52/79/6 57/82/6 49/80/6
f 60/81/7 65/84/7 57/82/7
f 68/83/8 73/86/8 65/84/8
f 76/85/9 81/88/9 73/86/9
f 84/87/10 89/90/10 81/88/10
f 92/89/11 97/92/11 89/90/11
f 100/91/12 105/94/12 97/92/12
f 108/93/13 113/96/13 105/94/13
f 116/95/14 121/98/14 113/96/14
f 124/97/15 129/100/15 121/98/15
f 133/99/16 138/136/16 129/100/16
f 15/5/17 14/102/17 6/101/17
f 23/7/17 22/104/17 14/102/17
f 23/7/17 31/9/17 30/103/17
f 39/11/17 38/105/17 30/103/17
f 47/13/17 46/107/17 38/105/17
f 47/13/17 55/15/17 54/106/17
f 63/17/17 62/109/17 54/106/17
f 63/17/17 71/19/17 70/108/17
f 71/19/17 79/21/17 78/110/17
f 87/23/17 86/111/17 78/110/17
f 95/25/17 94/113/17 86/111/17
f 95/25/17 103/27/17 102/112/17
f 111/29/17 110/115/17 102/112/17
f 111/29/17 119/31/17 118/114/17
f 127/33/17 126/117/17 118/114/17
f 136/116/17 135/133/17 126/117/17
f 17/72/17 16/51/17 8/52/17
f 25/74/17 24/53/17 16/51/17
f 25/74/17 33/76/17 32/54/17
f 41/78/17 40/55/17 32/54/17
f 41/78/17 49/80/17 48/56/17
f 49/80/17 57/82/17 56/57/17
f 57/82/17 65/84/17 64/58/17
f 73/86/17 72/59/17 64/58/17
f 81/88/17 80/60/17 72/59/17
f 89/90/17 88/61/17 80/60/17
f 89/90/17 97/92/17 96/62/17
f 97/92/17 105/94/17 104/63/17
f 113/96/17 112/64/17 104/63/17
f 113/96/17 121/98/17 120/65/17
f 129/100/17 128/66/17 120/65/17
f 129/100/17 138/136/17 137/67/17
f 14/102/18 11/119/18 3/118/18
f 22/104/19 19/120/19 11/119/19
f 30/103/20 27/121/20 19/120/20
f 38/105/21 35/122/21 27/121/21
f 46/107/22 43/123/22 35/122/22
f 54/106/23 51/124/23 43/123/23
f 62/109/24 59/125/24 51/124/24
f 70/108/25 67/126/25 59/125/25
f 78/110/26 75/127/26 67/126/26
f 86/111/27 83/128/27 75/127/27
f 94/113/28 91/129/28 83/128/28
f 102/112/29 99/130/29 91/129/29
f 110/115/30 107/131/30 99/130/30
f 118/114/31 115/132/31 107/131/31
f 126/117/32 123/134/32 115/132/32
f 135/133/33 132/137/33 123/134/33
f 132/137/34 135/133/34 136/116/34
f 132/137/34 136/116/34 130/32/34
f 138/136/34 133/99/34 131/135/34
f 131/135/34 132/137/34 130/32/34
f 134/50/34 137/67/34 138/136/34
f 131/135/34 130/32/34 134/50/34
f 1/3/35 7/2/35 6/101/35
f 4/70/35 9/69/35 8/52/35
f 4/70/35 8/52/35 5/34/35
f 1/3/35 6/101/35 3/118/35
f 4/70/35 5/34/35 1/3/35
