# Blender 4.2.1 LTS
# www.blender.org
mtllib End.mtl
o End
v 1.000000 0.000000 0.000000
v 0.800000 0.200000 0.000000
v 1.000000 0.600000 0.000000
v 0.800000 0.600000 0.000000
v 0.978148 0.000000 0.207912
v 0.782518 0.200000 0.166329
v 0.978148 0.600000 0.207912
v 0.782518 0.600000 0.166329
v 0.913546 0.000000 0.406737
v 0.730836 0.200000 0.325389
v 0.913546 0.600000 0.406737
v 0.730836 0.600000 0.325389
v 0.809017 0.000000 0.587785
v 0.647214 0.200000 0.470228
v 0.809017 0.600000 0.587785
v 0.647214 0.600000 0.470228
v 0.669131 0.000000 0.743145
v 0.535305 0.200000 0.594516
v 0.669131 0.600000 0.743145
v 0.535305 0.600000 0.594516
v 0.500000 0.000000 0.866026
v 0.400000 0.200000 0.692820
v 0.500000 0.600000 0.866026
v 0.400000 0.600000 0.692820
v 0.309017 0.000000 0.951057
v 0.247214 0.200000 0.760845
v 0.309017 0.600000 0.951057
v 0.247214 0.600000 0.760845
v 0.104528 0.000000 0.994522
v 0.083623 0.200000 0.795618
v 0.104528 0.600000 0.994522
v 0.083623 0.600000 0.795618
v -0.104529 0.000000 0.994522
v -0.083623 0.200000 0.795618
v -0.104529 0.600000 0.994522
v -0.083623 0.600000 0.795618
v -0.309017 0.000000 0.951057
v -0.247214 0.200000 0.760845
v -0.309017 0.600000 0.951057
v -0.247214 0.600000 0.760845
v -0.500000 0.000000 0.866026
v -0.400000 0.200000 0.692820
v -0.500000 0.600000 0.866026
v -0.400000 0.600000 0.692820
v -0.669131 0.000000 0.743145
v -0.535305 0.200000 0.594516
v -0.669131 0.600000 0.743145
v -0.535305 0.600000 0.594516
v -0.809017 0.000000 0.587785
v -0.647214 0.200000 0.470228
v -0.809017 0.600000 0.587785
v -0.647214 0.600000 0.470228
v -0.913546 0.000000 0.406737
v -0.730837 0.200000 0.325389
v -0.913546 0.600000 0.406737
v -0.730837 0.600000 0.325389
v -0.978148 0.000000 0.207912
v -0.782518 0.200000 0.166329
v -0.978148 0.600000 0.207912
v -0.782518 0.600000 0.166329
v -1.000000 0.000000 -0.000000
v -0.800000 0.200000 -0.000000
v -1.000000 0.600000 -0.000000
v -0.800000 0.600000 -0.000000
v 0.800000 0.000000 -1.000000
v 0.800000 0.200000 -1.000000
v 1.000000 0.000000 -1.000000
v 0.800000 0.600000 -1.000000
v 1.000000 0.600000 -1.000000
v -0.800000 0.000000 -1.000000
v 0.000000 0.000000 -1.000000
v 0.000000 0.200000 -1.000000
v -0.800000 0.200000 -1.000000
v -1.000000 0.000000 -1.000000
v -0.800000 0.600000 -1.000000
v -1.000000 0.600000 -1.000000
v -0.134739 0.200000 -0.147802
v -0.179033 0.200000 -0.089148
v -0.192365 0.200000 0.054733
v -0.159603 0.200000 0.120527
v -0.105286 0.200000 0.170043
v 0.105286 0.200000 0.170043
v 0.134739 0.200000 -0.147802
v 0.072248 0.200000 -0.186494
v -0.072248 0.200000 -0.186494
v 0.000000 0.200000 -0.200000
v -0.199147 0.200000 -0.018454
v -0.036750 0.200000 0.196595
v 0.036750 0.200000 0.196595
v 0.159603 0.200000 0.120527
v 0.192365 0.200000 0.054733
v 0.199147 0.200000 -0.018454
v 0.179033 0.200000 -0.089148
v -0.072248 0.000000 -0.186494
v 0.000000 0.000000 -0.200000
v -0.134739 0.000000 -0.147802
v -0.179033 0.000000 -0.089148
v -0.199147 0.000000 -0.018454
v -0.192365 0.000000 0.054733
v -0.159603 0.000000 0.120527
v -0.105286 0.000000 0.170043
v -0.036750 0.000000 0.196595
v 0.036750 0.000000 0.196595
v 0.105286 0.000000 0.170043
v 0.159603 0.000000 0.120527
v 0.192365 0.000000 0.054733
v 0.199147 0.000000 -0.018454
v 0.179033 0.000000 -0.089148
v 0.134739 0.000000 -0.147802
v 0.072248 0.000000 -0.186494
vn -0.0000 1.0000 -0.0000
vn -0.9511 -0.0000 -0.3090
vn 0.9511 -0.0000 0.3090
vn -0.9945 -0.0000 -0.1045
vn 0.7431 -0.0000 0.6691
vn 0.8660 -0.0000 0.5000
vn 0.5878 -0.0000 0.8090
vn -0.8660 -0.0000 -0.5000
vn 0.4067 -0.0000 0.9135
vn -0.7431 -0.0000 -0.6691
vn -0.4067 -0.0000 -0.9135
vn -0.5878 -0.0000 -0.8090
vn -0.0000 -0.0000 1.0000
vn 0.2079 -0.0000 0.9781
vn -0.4067 -0.0000 0.9135
vn -0.2079 -0.0000 -0.9781
vn 0.2079 -0.0000 -0.9781
vn -0.0000 -0.0000 -1.0000
vn 0.4067 -0.0000 -0.9135
vn -0.2079 -0.0000 0.9781
vn -0.5878 -0.0000 0.8090
vn -0.7431 -0.0000 0.6691
vn -0.8660 -0.0000 0.5000
vn 0.5878 -0.0000 -0.8090
vn 0.8660 -0.0000 -0.5000
vn 0.7431 -0.0000 -0.6691
vn -0.9945 -0.0000 0.1045
vn -0.9511 -0.0000 0.3090
vn 0.9511 -0.0000 -0.3090
vn 0.9945 -0.0000 -0.1045
vn -1.0000 -0.0000 -0.0000
vn 1.0000 -0.0000 -0.0000
vn 0.3612 -0.0000 -0.9325
vn -0.5264 -0.0000 0.8502
vn 0.1837 -0.0000 0.9830
vn 0.5264 -0.0000 0.8502
vn -0.1837 -0.0000 0.9830
vn -0.3612 -0.0000 -0.9325
vn 0.7980 -0.0000 0.6026
vn -0.6737 -0.0000 -0.7390
vn 0.9618 -0.0000 0.2737
vn -0.8952 -0.0000 -0.4457
vn 0.9957 -0.0000 -0.0923
vn -0.9957 -0.0000 -0.0923
vn 0.8952 -0.0000 -0.4457
vn -0.9618 -0.0000 0.2737
vn 0.6737 -0.0000 -0.7390
vn -0.7980 -0.0000 0.6026
vn -0.0000 -1.0000 -0.0000
vn 0.9945 -0.0000 0.1045
vt 1.000000 0.000000
vt 0.000000 1.000000
vt 0.000000 0.000000
vt 0.975528 0.654508
vt 0.793893 0.095491
vt 0.024472 0.654509
vt 0.500000 1.000000
vt 1.000000 1.000000
vt 0.206107 0.095492
s 0
usemtl Grass
f 2/3/1 66/1/1 93/8/1
f 84/3/1 66/1/1 72/8/1
f 85/3/1 86/1/1 72/8/1
f 77/3/1 85/1/1 73/8/1
f 81/3/1 46/1/1 42/8/1
f 14/3/1 90/1/1 18/8/1
f 79/3/1 87/1/1 54/8/1
f 79/3/1 50/1/1 80/8/1
f 87/3/1 62/1/1 58/8/1
f 80/3/1 50/1/1 46/8/1
f 88/3/1 81/1/1 38/8/1
f 89/3/1 88/1/1 34/8/1
f 89/3/1 30/1/1 26/8/1
f 82/3/1 26/1/1 22/8/1
f 18/3/1 82/1/1 22/8/1
f 92/3/1 14/1/1 10/8/1
f 92/3/1 10/1/1 6/8/1
f 93/3/1 6/1/1 2/8/1
f 83/3/1 66/1/1 84/8/1
f 84/3/1 72/1/1 86/8/1
f 85/3/1 72/1/1 73/8/1
f 77/3/1 73/1/1 78/8/1
f 78/3/1 62/1/1 87/8/1
f 87/3/1 58/1/1 54/8/1
f 79/3/1 54/1/1 50/8/1
f 80/3/1 46/1/1 81/8/1
f 81/3/1 42/1/1 38/8/1
f 88/3/1 38/1/1 34/8/1
f 89/3/1 34/1/1 30/8/1
f 89/3/1 26/1/1 82/8/1
f 90/3/1 82/1/1 18/8/1
f 91/3/1 90/1/1 14/8/1
f 91/3/1 14/1/1 92/8/1
f 92/3/1 6/1/1 93/8/1
f 78/3/1 73/1/1 62/8/1
f 93/3/1 66/1/1 83/8/1
f 102/1/33 81/2/33 88/3/33
f 110/1/34 83/2/34 84/3/34
f 94/1/35 86/2/35 85/3/35
f 103/1/18 88/2/18 89/3/18
f 96/1/36 85/2/36 77/3/36
f 95/1/37 84/2/37 86/3/37
f 104/1/38 89/2/38 82/3/38
f 97/1/39 77/2/39 78/3/39
f 105/1/40 82/2/40 90/3/40
f 98/1/41 78/2/41 87/3/41
f 106/1/42 90/2/42 91/3/42
f 99/1/43 87/2/43 79/3/43
f 107/1/44 91/2/44 92/3/44
f 100/1/45 79/2/45 80/3/45
f 108/1/46 92/2/46 93/3/46
f 101/1/47 80/2/47 81/3/47
f 109/1/48 93/2/48 83/3/48
f 102/1/33 101/8/33 81/2/33
f 110/1/34 109/8/34 83/2/34
f 94/1/35 95/8/35 86/2/35
f 103/1/18 102/8/18 88/2/18
f 96/1/36 94/8/36 85/2/36
f 95/1/37 110/8/37 84/2/37
f 104/1/38 103/8/38 89/2/38
f 97/1/39 96/8/39 77/2/39
f 105/1/40 104/8/40 82/2/40
f 98/1/41 97/8/41 78/2/41
f 106/1/42 105/8/42 90/2/42
f 99/1/43 98/8/43 87/2/43
f 107/1/44 106/8/44 91/2/44
f 100/1/45 99/8/45 79/2/45
f 108/1/46 107/8/46 92/2/46
f 101/1/47 100/8/47 80/2/47
f 109/1/48 108/8/48 93/2/48
usemtl Wood
f 75/1/1 63/2/1 64/3/1
f 10/1/2 8/2/2 6/3/2
f 7/1/3 9/2/3 5/3/3
f 8/1/1 3/2/1 4/3/1
f 6/1/4 4/2/4 2/3/4
f 15/1/5 17/2/5 13/3/5
f 15/1/6 9/2/6 11/3/6
f 12/1/1 7/2/1 8/3/1
f 20/1/1 15/2/1 16/3/1
f 19/1/7 21/2/7 17/3/7
f 14/1/8 12/2/8 10/3/8
f 16/1/1 11/2/1 12/3/1
f 23/1/9 25/2/9 21/3/9
f 18/1/10 16/2/10 14/3/10
f 26/1/11 24/2/11 22/3/11
f 24/1/1 19/2/1 20/3/1
f 22/1/12 20/2/12 18/3/12
f 31/1/13 33/2/13 29/3/13
f 32/1/1 27/2/1 28/3/1
f 31/1/14 25/2/14 27/3/14
f 28/1/1 23/2/1 24/3/1
f 36/1/1 31/2/1 32/3/1
f 43/1/15 37/2/15 39/3/15
f 30/1/16 28/2/16 26/3/16
f 38/1/17 36/2/17 34/3/17
f 34/1/18 32/2/18 30/3/18
f 42/1/19 40/2/19 38/3/19
f 35/1/20 37/2/20 33/3/20
f 43/1/21 45/2/21 41/3/21
f 40/1/1 35/2/1 36/3/1
f 48/1/1 43/2/1 44/3/1
f 47/1/22 49/2/22 45/3/22
f 44/1/1 39/2/1 40/3/1
f 51/1/23 53/2/23 49/3/23
f 46/1/24 44/2/24 42/3/24
f 54/1/25 52/2/25 50/3/25
f 52/1/1 47/2/1 48/3/1
f 50/1/26 48/2/26 46/3/26
f 59/1/27 61/2/27 57/3/27
f 59/1/28 53/2/28 55/3/28
f 56/1/1 51/2/1 52/3/1
f 64/1/1 59/2/1 60/3/1
f 65/4/18 66/5/18 69/6/18
f 58/1/29 56/2/29 54/3/29
f 60/1/1 55/2/1 56/3/1
f 62/1/30 60/2/30 58/3/30
f 73/7/18 74/5/18 75/6/18
f 72/1/18 65/2/18 71/3/18
f 63/1/31 74/2/31 61/3/31
f 70/1/18 72/2/18 71/3/18
f 69/1/1 4/2/1 3/3/1
f 73/1/32 64/2/32 62/3/32
f 68/1/31 2/2/31 4/3/31
f 67/1/32 3/2/32 1/3/32
f 109/3/49 110/1/49 65/8/49
f 109/3/49 67/1/49 1/8/49
f 108/3/49 109/1/49 1/8/49
f 107/3/49 108/1/49 5/8/49
f 106/3/49 107/1/49 9/8/49
f 105/3/49 106/1/49 13/8/49
f 105/3/49 17/1/49 21/8/49
f 104/3/49 105/1/49 21/8/49
f 103/3/49 104/1/49 25/8/49
f 3/1/50 5/2/50 1/3/50
f 102/3/49 33/1/49 37/8/49
f 101/3/49 37/1/49 41/8/49
f 101/3/49 41/1/49 45/8/49
f 102/3/49 25/1/49 29/8/49
f 49/3/49 101/1/49 45/8/49
f 98/3/49 53/1/49 57/8/49
f 97/3/49 57/1/49 61/8/49
f 53/3/49 100/1/49 49/8/49
f 96/3/49 74/1/49 70/8/49
f 94/3/49 70/1/49 71/8/49
f 110/3/49 95/1/49 71/8/49
f 109/3/49 65/1/49 67/8/49
f 108/3/49 1/1/49 5/8/49
f 107/3/49 5/1/49 9/8/49
f 106/3/49 9/1/49 13/8/49
f 105/3/49 13/1/49 17/8/49
f 104/3/49 21/1/49 25/8/49
f 103/3/49 25/1/49 102/8/49
f 102/3/49 29/1/49 33/8/49
f 102/3/49 37/1/49 101/8/49
f 100/3/49 101/1/49 49/8/49
f 99/3/49 100/1/49 53/8/49
f 99/3/49 53/1/49 98/8/49
f 98/3/49 57/1/49 97/8/49
f 74/3/49 96/1/49 61/8/49
f 96/3/49 70/1/49 94/8/49
f 94/3/49 71/1/49 95/8/49
f 110/3/49 71/1/49 65/8/49
f 61/3/49 96/1/49 97/8/49
f 75/1/1 76/8/1 63/2/1
f 10/1/2 12/8/2 8/2/2
f 7/1/3 11/8/3 9/2/3
f 8/1/1 7/8/1 3/2/1
f 6/1/4 8/8/4 4/2/4
f 15/1/5 19/8/5 17/2/5
f 15/1/6 13/8/6 9/2/6
f 12/1/1 11/8/1 7/2/1
f 20/1/1 19/8/1 15/2/1
f 19/1/7 23/8/7 21/2/7
f 14/1/8 16/8/8 12/2/8
f 16/1/1 15/8/1 11/2/1
f 23/1/9 27/8/9 25/2/9
f 18/1/10 20/8/10 16/2/10
f 26/1/11 28/8/11 24/2/11
f 24/1/1 23/8/1 19/2/1
f 22/1/12 24/8/12 20/2/12
f 31/1/13 35/8/13 33/2/13
f 32/1/1 31/8/1 27/2/1
f 31/1/14 29/8/14 25/2/14
f 28/1/1 27/8/1 23/2/1
f 36/1/1 35/8/1 31/2/1
f 43/1/15 41/8/15 37/2/15
f 30/1/16 32/8/16 28/2/16
f 38/1/17 40/8/17 36/2/17
f 34/1/18 36/8/18 32/2/18
f 42/1/19 44/8/19 40/2/19
f 35/1/20 39/8/20 37/2/20
f 43/1/21 47/8/21 45/2/21
f 40/1/1 39/8/1 35/2/1
f 48/1/1 47/8/1 43/2/1
f 47/1/22 51/8/22 49/2/22
f 44/1/1 43/8/1 39/2/1
f 51/1/23 55/8/23 53/2/23
f 46/1/24 48/8/24 44/2/24
f 54/1/25 56/8/25 52/2/25
f 52/1/1 51/8/1 47/2/1
f 50/1/26 52/8/26 48/2/26
f 59/1/27 63/8/27 61/2/27
f 59/1/28 57/8/28 53/2/28
f 56/1/1 55/8/1 51/2/1
f 64/1/1 63/8/1 59/2/1
f 69/6/18 67/7/18 65/4/18
f 66/5/18 68/9/18 69/6/18
f 58/1/29 60/8/29 56/2/29
f 60/1/1 59/8/1 55/2/1
f 62/1/30 64/8/30 60/2/30
f 73/7/18 70/4/18 74/5/18
f 74/5/18 76/9/18 75/6/18
f 72/1/18 66/8/18 65/2/18
f 63/1/31 76/8/31 74/2/31
f 70/1/18 73/8/18 72/2/18
f 69/1/1 68/8/1 4/2/1
f 73/1/32 75/8/32 64/2/32
f 68/1/31 66/8/31 2/2/31
f 67/1/32 69/8/32 3/2/32
f 3/1/50 7/8/50 5/2/50
