# Blender 4.1.1
# www.blender.org
o End_
v 1.000000 0.000000 0.000000
v 0.800000 0.200000 0.000000
v 1.000000 0.600000 0.000000
v 0.800000 0.600000 0.000000
v 0.978148 0.000000 0.207912
v 0.782518 0.200000 0.166329
v 0.978148 0.600000 0.207912
v 0.782518 0.600000 0.166329
v 0.913546 0.000000 0.406737
v 0.730836 0.200000 0.325389
v 0.913546 0.600000 0.406737
v 0.730836 0.600000 0.325389
v 0.809017 0.000000 0.587785
v 0.647214 0.200000 0.470228
v 0.809017 0.600000 0.587785
v 0.647214 0.600000 0.470228
v 0.669131 0.000000 0.743145
v 0.535305 0.200000 0.594516
v 0.669131 0.600000 0.743145
v 0.535305 0.600000 0.594516
v 0.500000 0.000000 0.866026
v 0.400000 0.200000 0.692820
v 0.500000 0.600000 0.866026
v 0.400000 0.600000 0.692820
v 0.309017 0.000000 0.951057
v 0.247214 0.200000 0.760845
v 0.309017 0.600000 0.951057
v 0.247214 0.600000 0.760845
v 0.104528 0.000000 0.994522
v 0.083623 0.200000 0.795618
v 0.104528 0.600000 0.994522
v 0.083623 0.600000 0.795618
v -0.104529 0.000000 0.994522
v -0.083623 0.200000 0.795618
v -0.104529 0.600000 0.994522
v -0.083623 0.600000 0.795618
v -0.309017 0.000000 0.951057
v -0.247214 0.200000 0.760845
v -0.309017 0.600000 0.951057
v -0.247214 0.600000 0.760845
v -0.500000 0.000000 0.866026
v -0.400000 0.200000 0.692820
v -0.500000 0.600000 0.866026
v -0.400000 0.600000 0.692820
v -0.669131 0.000000 0.743145
v -0.535305 0.200000 0.594516
v -0.669131 0.600000 0.743145
v -0.535305 0.600000 0.594516
v -0.809017 0.000000 0.587785
v -0.647214 0.200000 0.470228
v -0.809017 0.600000 0.587785
v -0.647214 0.600000 0.470228
v -0.913546 0.000000 0.406737
v -0.730837 0.200000 0.325389
v -0.913546 0.600000 0.406737
v -0.730837 0.600000 0.325389
v -0.978148 0.000000 0.207912
v -0.782518 0.200000 0.166329
v -0.978148 0.600000 0.207912
v -0.782518 0.600000 0.166329
v -1.000000 0.000000 -0.000000
v -0.800000 0.200000 -0.000000
v -1.000000 0.600000 -0.000000
v -0.800000 0.600000 -0.000000
v 0.800000 0.000000 -1.000000
v 0.800000 0.200000 -1.000000
v 1.000000 0.000000 -1.000000
v 0.800000 0.600000 -1.000000
v 1.000000 0.600000 -1.000000
v -0.800000 0.000000 -1.000000
v 0.000000 0.000000 -1.000000
v 0.000000 0.200000 -1.000000
v -0.800000 0.200000 -1.000000
v -1.000000 0.000000 -1.000000
v -0.800000 0.600000 -1.000000
v -1.000000 0.600000 -1.000000
v -0.134739 0.200000 -0.147802
v -0.179033 0.200000 -0.089148
v -0.192365 0.200000 0.054733
v -0.159603 0.200000 0.120527
v -0.105286 0.200000 0.170043
v 0.105286 0.200000 0.170043
v 0.134739 0.200000 -0.147802
v 0.072248 0.200000 -0.186494
v -0.072248 0.200000 -0.186494
v 0.000000 0.200000 -0.200000
v -0.199147 0.200000 -0.018454
v -0.036750 0.200000 0.196595
v 0.036750 0.200000 0.196595
v 0.159603 0.200000 0.120527
v 0.192365 0.200000 0.054733
v 0.199147 0.200000 -0.018454
v 0.179033 0.200000 -0.089148
v -0.072248 0.000000 -0.186494
v 0.000000 0.000000 -0.200000
v -0.134739 0.000000 -0.147802
v -0.179033 0.000000 -0.089148
v -0.199147 0.000000 -0.018454
v -0.192365 0.000000 0.054733
v -0.159603 0.000000 0.120527
v -0.105286 0.000000 0.170043
v -0.036750 0.000000 0.196595
v 0.036750 0.000000 0.196595
v 0.105286 0.000000 0.170043
v 0.159603 0.000000 0.120527
v 0.192365 0.000000 0.054733
v 0.199147 0.000000 -0.018454
v 0.179033 0.000000 -0.089148
v 0.134739 0.000000 -0.147802
v 0.072248 0.000000 -0.186494
vn -0.0000 1.0000 -0.0000
vn -0.9511 -0.0000 -0.3090
vn 0.9511 -0.0000 0.3090
vn -0.9945 -0.0000 -0.1045
vn 0.7431 -0.0000 0.6691
vn 0.8660 -0.0000 0.5000
vn 0.5878 -0.0000 0.8090
vn -0.8660 -0.0000 -0.5000
vn 0.4067 -0.0000 0.9135
vn -0.7431 -0.0000 -0.6691
vn -0.4067 -0.0000 -0.9135
vn -0.5878 -0.0000 -0.8090
vn -0.0000 -0.0000 1.0000
vn 0.2079 -0.0000 0.9781
vn -0.4067 -0.0000 0.9135
vn -0.2079 -0.0000 -0.9781
vn 0.2079 -0.0000 -0.9781
vn -0.0000 -0.0000 -1.0000
vn 0.4067 -0.0000 -0.9135
vn -0.2079 -0.0000 0.9781
vn -0.5878 -0.0000 0.8090
vn -0.7431 -0.0000 0.6691
vn -0.8660 -0.0000 0.5000
vn 0.5878 -0.0000 -0.8090
vn 0.8660 -0.0000 -0.5000
vn 0.7431 -0.0000 -0.6691
vn -0.9945 -0.0000 0.1045
vn -0.9511 -0.0000 0.3090
vn 0.9511 -0.0000 -0.3090
vn 0.9945 -0.0000 -0.1045
vn -1.0000 -0.0000 -0.0000
vn 1.0000 -0.0000 -0.0000
vn 0.3612 -0.0000 -0.9325
vn -0.5264 -0.0000 0.8502
vn 0.1837 -0.0000 0.9830
vn 0.5264 -0.0000 0.8502
vn -0.1837 -0.0000 0.9830
vn -0.3612 -0.0000 -0.9325
vn 0.7980 -0.0000 0.6026
vn -0.6737 -0.0000 -0.7390
vn 0.9618 -0.0000 0.2737
vn -0.8952 -0.0000 -0.4457
vn 0.9957 -0.0000 -0.0923
vn -0.9957 -0.0000 -0.0923
vn 0.8952 -0.0000 -0.4457
vn -0.9618 -0.0000 0.2737
vn 0.6737 -0.0000 -0.7390
vn -0.7980 -0.0000 0.6026
vn -0.0000 -1.0000 -0.0000
vn 0.9945 -0.0000 0.1045
vt 0.000000 0.000000
vt 1.000000 1.000000
vt 0.000000 1.000000
vt 1.000000 0.000000
vt 0.975528 0.654508
vt 0.793893 0.095491
vt 0.024472 0.654509
vt 0.500000 1.000000
vt 0.206107 0.095492
s 0
f 64/1/1 76/2/1 63/3/1
f 10/4/2 8/3/2 6/1/2
f 7/4/3 9/3/3 5/1/3
f 4/1/1 7/2/1 3/3/1
f 6/4/4 4/3/4 2/1/4
f 15/4/5 17/3/5 13/1/5
f 15/4/6 9/3/6 11/1/6
f 12/4/1 7/3/1 8/1/1
f 20/4/1 15/3/1 16/1/1
f 19/4/7 21/3/7 17/1/7
f 14/4/8 12/3/8 10/1/8
f 16/4/1 11/3/1 12/1/1
f 23/4/9 25/3/9 21/1/9
f 18/4/10 16/3/10 14/1/10
f 26/4/11 24/3/11 22/1/11
f 24/4/1 19/3/1 20/1/1
f 22/4/12 20/3/12 18/1/12
f 31/4/13 33/3/13 29/1/13
f 32/4/1 27/3/1 28/1/1
f 31/4/14 25/3/14 27/1/14
f 28/4/1 23/3/1 24/1/1
f 36/4/1 31/3/1 32/1/1
f 43/4/15 37/3/15 39/1/15
f 30/4/16 28/3/16 26/1/16
f 38/4/17 36/3/17 34/1/17
f 34/4/18 32/3/18 30/1/18
f 42/4/19 40/3/19 38/1/19
f 35/4/20 37/3/20 33/1/20
f 43/4/21 45/3/21 41/1/21
f 40/4/1 35/3/1 36/1/1
f 48/4/1 43/3/1 44/1/1
f 47/4/22 49/3/22 45/1/22
f 44/4/1 39/3/1 40/1/1
f 51/4/23 53/3/23 49/1/23
f 46/4/24 44/3/24 42/1/24
f 54/4/25 52/3/25 50/1/25
f 52/4/1 47/3/1 48/1/1
f 50/4/26 48/3/26 46/1/26
f 59/4/27 61/3/27 57/1/27
f 59/4/28 53/3/28 55/1/28
f 56/4/1 51/3/1 52/1/1
f 64/4/1 59/3/1 60/1/1
f 65/5/18 66/6/18 69/7/18
f 58/4/29 56/3/29 54/1/29
f 60/4/1 55/3/1 56/1/1
f 62/4/30 60/3/30 58/1/30
f 73/8/18 74/6/18 75/7/18
f 72/4/18 65/3/18 71/1/18
f 63/4/31 74/3/31 61/1/31
f 70/4/18 72/3/18 71/1/18
f 69/4/1 4/3/1 3/1/1
f 73/4/32 64/3/32 62/1/32
f 68/4/31 2/3/31 4/1/31
f 67/4/32 3/3/32 1/1/32
f 2/1/1 66/4/1 93/2/1
f 84/1/1 66/4/1 72/2/1
f 85/1/1 86/4/1 72/2/1
f 77/1/1 85/4/1 73/2/1
f 81/1/1 46/4/1 42/2/1
f 14/1/1 90/4/1 18/2/1
f 79/1/1 87/4/1 54/2/1
f 79/1/1 50/4/1 80/2/1
f 87/1/1 62/4/1 58/2/1
f 80/1/1 50/4/1 46/2/1
f 88/1/1 81/4/1 38/2/1
f 89/1/1 88/4/1 34/2/1
f 89/1/1 30/4/1 26/2/1
f 82/1/1 26/4/1 22/2/1
f 18/1/1 82/4/1 22/2/1
f 92/1/1 14/4/1 10/2/1
f 92/1/1 10/4/1 6/2/1
f 93/1/1 6/4/1 2/2/1
f 83/1/1 66/4/1 84/2/1
f 84/1/1 72/4/1 86/2/1
f 85/1/1 72/4/1 73/2/1
f 77/1/1 73/4/1 78/2/1
f 78/1/1 62/4/1 87/2/1
f 87/1/1 58/4/1 54/2/1
f 79/1/1 54/4/1 50/2/1
f 80/1/1 46/4/1 81/2/1
f 81/1/1 42/4/1 38/2/1
f 88/1/1 38/4/1 34/2/1
f 89/1/1 34/4/1 30/2/1
f 89/1/1 26/4/1 82/2/1
f 90/1/1 82/4/1 18/2/1
f 91/1/1 90/4/1 14/2/1
f 91/1/1 14/4/1 92/2/1
f 92/1/1 6/4/1 93/2/1
f 78/1/1 73/4/1 62/2/1
f 93/1/1 66/4/1 83/2/1
f 102/4/33 81/3/33 88/1/33
f 110/4/34 83/3/34 84/1/34
f 94/4/35 86/3/35 85/1/35
f 103/4/18 88/3/18 89/1/18
f 96/4/36 85/3/36 77/1/36
f 95/4/37 84/3/37 86/1/37
f 104/4/38 89/3/38 82/1/38
f 97/4/39 77/3/39 78/1/39
f 105/4/40 82/3/40 90/1/40
f 98/4/41 78/3/41 87/1/41
f 106/4/42 90/3/42 91/1/42
f 99/4/43 87/3/43 79/1/43
f 107/4/44 91/3/44 92/1/44
f 100/4/45 79/3/45 80/1/45
f 108/4/46 92/3/46 93/1/46
f 101/4/47 80/3/47 81/1/47
f 109/4/48 93/3/48 83/1/48
f 109/1/49 110/4/49 65/2/49
f 109/1/49 67/4/49 1/2/49
f 108/1/49 109/4/49 1/2/49
f 107/1/49 108/4/49 5/2/49
f 106/1/49 107/4/49 9/2/49
f 105/1/49 106/4/49 13/2/49
f 105/1/49 17/4/49 21/2/49
f 104/1/49 105/4/49 21/2/49
f 103/1/49 104/4/49 25/2/49
f 3/4/50 5/3/50 1/1/50
f 102/1/49 33/4/49 37/2/49
f 101/1/49 37/4/49 41/2/49
f 101/1/49 41/4/49 45/2/49
f 102/1/49 25/4/49 29/2/49
f 49/1/49 101/4/49 45/2/49
f 98/1/49 53/4/49 57/2/49
f 97/1/49 57/4/49 61/2/49
f 53/1/49 100/4/49 49/2/49
f 96/1/49 74/4/49 70/2/49
f 94/1/49 70/4/49 71/2/49
f 110/1/49 95/4/49 71/2/49
f 109/1/49 65/4/49 67/2/49
f 108/1/49 1/4/49 5/2/49
f 107/1/49 5/4/49 9/2/49
f 106/1/49 9/4/49 13/2/49
f 105/1/49 13/4/49 17/2/49
f 104/1/49 21/4/49 25/2/49
f 103/1/49 25/4/49 102/2/49
f 102/1/49 29/4/49 33/2/49
f 102/1/49 37/4/49 101/2/49
f 100/1/49 101/4/49 49/2/49
f 99/1/49 100/4/49 53/2/49
f 99/1/49 53/4/49 98/2/49
f 98/1/49 57/4/49 97/2/49
f 74/1/49 96/4/49 61/2/49
f 96/1/49 70/4/49 94/2/49
f 94/1/49 71/4/49 95/2/49
f 110/1/49 71/4/49 65/2/49
f 61/1/49 96/4/49 97/2/49
f 64/1/1 75/4/1 76/2/1
f 10/4/2 12/2/2 8/3/2
f 7/4/3 11/2/3 9/3/3
f 4/1/1 8/4/1 7/2/1
f 6/4/4 8/2/4 4/3/4
f 15/4/5 19/2/5 17/3/5
f 15/4/6 13/2/6 9/3/6
f 12/4/1 11/2/1 7/3/1
f 20/4/1 19/2/1 15/3/1
f 19/4/7 23/2/7 21/3/7
f 14/4/8 16/2/8 12/3/8
f 16/4/1 15/2/1 11/3/1
f 23/4/9 27/2/9 25/3/9
f 18/4/10 20/2/10 16/3/10
f 26/4/11 28/2/11 24/3/11
f 24/4/1 23/2/1 19/3/1
f 22/4/12 24/2/12 20/3/12
f 31/4/13 35/2/13 33/3/13
f 32/4/1 31/2/1 27/3/1
f 31/4/14 29/2/14 25/3/14
f 28/4/1 27/2/1 23/3/1
f 36/4/1 35/2/1 31/3/1
f 43/4/15 41/2/15 37/3/15
f 30/4/16 32/2/16 28/3/16
f 38/4/17 40/2/17 36/3/17
f 34/4/18 36/2/18 32/3/18
f 42/4/19 44/2/19 40/3/19
f 35/4/20 39/2/20 37/3/20
f 43/4/21 47/2/21 45/3/21
f 40/4/1 39/2/1 35/3/1
f 48/4/1 47/2/1 43/3/1
f 47/4/22 51/2/22 49/3/22
f 44/4/1 43/2/1 39/3/1
f 51/4/23 55/2/23 53/3/23
f 46/4/24 48/2/24 44/3/24
f 54/4/25 56/2/25 52/3/25
f 52/4/1 51/2/1 47/3/1
f 50/4/26 52/2/26 48/3/26
f 59/4/27 63/2/27 61/3/27
f 59/4/28 57/2/28 53/3/28
f 56/4/1 55/2/1 51/3/1
f 64/4/1 63/2/1 59/3/1
f 69/7/18 67/8/18 65/5/18
f 66/6/18 68/9/18 69/7/18
f 58/4/29 60/2/29 56/3/29
f 60/4/1 59/2/1 55/3/1
f 62/4/30 64/2/30 60/3/30
f 73/8/18 70/5/18 74/6/18
f 74/6/18 76/9/18 75/7/18
f 72/4/18 66/2/18 65/3/18
f 63/4/31 76/2/31 74/3/31
f 70/4/18 73/2/18 72/3/18
f 69/4/1 68/2/1 4/3/1
f 73/4/32 75/2/32 64/3/32
f 68/4/31 66/2/31 2/3/31
f 67/4/32 69/2/32 3/3/32
f 102/4/33 101/2/33 81/3/33
f 110/4/34 109/2/34 83/3/34
f 94/4/35 95/2/35 86/3/35
f 103/4/18 102/2/18 88/3/18
f 96/4/36 94/2/36 85/3/36
f 95/4/37 110/2/37 84/3/37
f 104/4/38 103/2/38 89/3/38
f 97/4/39 96/2/39 77/3/39
f 105/4/40 104/2/40 82/3/40
f 98/4/41 97/2/41 78/3/41
f 106/4/42 105/2/42 90/3/42
f 99/4/43 98/2/43 87/3/43
f 107/4/44 106/2/44 91/3/44
f 100/4/45 99/2/45 79/3/45
f 108/4/46 107/2/46 92/3/46
f 101/4/47 100/2/47 80/3/47
f 109/4/48 108/2/48 93/3/48
f 3/4/50 7/2/50 5/3/50
