# Blender 4.1.1
# www.blender.org
mtllib EndBlock.mtl
o EndBlock_-_col
v 1.000000 0.000000 0.000000
v 0.800000 0.200000 0.000000
v 1.000000 0.400000 0.000000
v 0.800000 0.400000 0.000000
v 0.978148 0.000000 0.207912
v 0.782518 0.200000 0.166329
v 0.978148 0.400000 0.207912
v 0.782518 0.400000 0.166329
v 0.913546 0.000000 0.406737
v 0.730836 0.200000 0.325389
v 0.913546 0.400000 0.406737
v 0.730836 0.400000 0.325389
v 0.809017 0.000000 0.587785
v 0.647214 0.200000 0.470228
v 0.809017 0.400000 0.587785
v 0.647214 0.400000 0.470228
v 0.669131 0.000000 0.743145
v 0.535305 0.200000 0.594516
v 0.669131 0.400000 0.743145
v 0.535305 0.400000 0.594516
v 0.500000 0.000000 0.866026
v 0.400000 0.200000 0.692820
v 0.500000 0.400000 0.866026
v 0.400000 0.400000 0.692820
v 0.309017 0.000000 0.951057
v 0.247214 0.200000 0.760845
v 0.309017 0.400000 0.951057
v 0.247214 0.400000 0.760845
v 0.104528 0.000000 0.994522
v 0.083623 0.200000 0.795618
v 0.104528 0.400000 0.994522
v 0.083623 0.400000 0.795618
v -0.104529 0.000000 0.994522
v -0.083623 0.200000 0.795618
v -0.104529 0.400000 0.994522
v -0.083623 0.400000 0.795618
v -0.309017 0.000000 0.951057
v -0.247214 0.200000 0.760845
v -0.309017 0.400000 0.951057
v -0.247214 0.400000 0.760845
v -0.500000 0.000000 0.866026
v -0.400000 0.200000 0.692820
v -0.500000 0.400000 0.866026
v -0.400000 0.400000 0.692820
v -0.669131 0.000000 0.743145
v -0.535305 0.200000 0.594516
v -0.669131 0.400000 0.743145
v -0.535305 0.400000 0.594516
v -0.809017 0.000000 0.587785
v -0.647214 0.200000 0.470228
v -0.809017 0.400000 0.587785
v -0.647214 0.400000 0.470228
v -0.913546 0.000000 0.406737
v -0.730837 0.200000 0.325389
v -0.913546 0.400000 0.406737
v -0.730837 0.400000 0.325389
v -0.978148 0.000000 0.207912
v -0.782518 0.200000 0.166329
v -0.978148 0.400000 0.207912
v -0.782518 0.400000 0.166329
v -1.000000 0.000000 -0.000000
v -0.800000 0.200000 -0.000000
v -1.000000 0.400000 -0.000000
v -0.800000 0.400000 -0.000000
v 0.800000 0.000000 -1.000000
v 0.800000 0.200000 -1.000000
v 1.000000 0.000000 -1.000000
v 0.800000 0.400000 -1.000000
v 1.000000 0.400000 -1.000000
v -0.800000 0.000000 -1.000000
v 0.000000 0.000000 -1.000000
v 0.000000 0.200000 -1.000000
v -0.800000 0.200000 -1.000000
v -1.000000 0.000000 -1.000000
v -0.800000 0.400000 -1.000000
v -1.000000 0.400000 -1.000000
v 0.000000 0.200000 -0.400000
v -0.144497 0.200000 -0.372989
v -0.269478 0.200000 -0.295604
v -0.358065 0.200000 -0.178295
v -0.398294 0.200000 -0.036907
v -0.384730 0.200000 0.109465
v -0.319207 0.200000 0.241054
v -0.210573 0.200000 0.340087
v -0.073500 0.200000 0.393189
v 0.073500 0.200000 0.393189
v 0.210573 0.200000 0.340087
v 0.319207 0.200000 0.241054
v 0.384730 0.200000 0.109465
v 0.398294 0.200000 -0.036907
v 0.358065 0.200000 -0.178295
v 0.269478 0.200000 -0.295604
v 0.144497 0.200000 -0.372989
v -0.144497 0.200000 -0.372989
v 0.000000 0.200000 -0.400000
v -0.269478 0.200000 -0.295604
v -0.358065 0.200000 -0.178295
v -0.398294 0.200000 -0.036907
v -0.384730 0.200000 0.109465
v -0.319207 0.200000 0.241054
v -0.210573 0.200000 0.340087
v -0.073500 0.200000 0.393189
v 0.073500 0.200000 0.393189
v 0.210573 0.200000 0.340087
v 0.319207 0.200000 0.241054
v 0.384730 0.200000 0.109465
v 0.398294 0.200000 -0.036907
v 0.358065 0.200000 -0.178295
v 0.269478 0.200000 -0.295604
v 0.144497 0.200000 -0.372989
v -0.144497 0.000000 -0.372989
v 0.000000 0.000000 -0.400000
v -0.269478 0.000000 -0.295604
v -0.358065 0.000000 -0.178295
v -0.398294 0.000000 -0.036907
v -0.384730 0.000000 0.109465
v -0.319207 0.000000 0.241054
v -0.210573 0.000000 0.340087
v -0.073500 0.000000 0.393189
v 0.073500 0.000000 0.393189
v 0.210573 0.000000 0.340087
v 0.319207 0.000000 0.241054
v 0.384730 0.000000 0.109465
v 0.398294 0.000000 -0.036907
v 0.358065 0.000000 -0.178295
v 0.269478 0.000000 -0.295604
v 0.144497 0.000000 -0.372989
vn -0.0000 -1.0000 -0.0000
vn 0.9781 -0.0000 0.2079
vn 0.9135 -0.0000 0.4067
vn -0.9781 -0.0000 -0.2079
vn -0.9135 -0.0000 -0.4067
vn 0.9986 -0.0000 0.0523
vn -0.8090 -0.0000 -0.5878
vn -0.6691 -0.0000 -0.7431
vn -0.5000 -0.0000 -0.8660
vn 0.8090 -0.0000 0.5878
vn -0.3090 -0.0000 -0.9511
vn 0.6691 -0.0000 0.7431
vn 0.5000 -0.0000 0.8660
vn 0.3090 -0.0000 0.9511
vn -0.1045 -0.0000 -0.9945
vn 0.1045 -0.0000 -0.9945
vn 0.3090 -0.0000 -0.9511
vn 0.5000 -0.0000 -0.8660
vn 0.1045 -0.0000 0.9945
vn -0.1045 -0.0000 0.9945
vn -0.3090 -0.0000 0.9511
vn -0.5000 -0.0000 0.8660
vn 0.6691 -0.0000 -0.7431
vn 0.8090 -0.0000 -0.5878
vn 0.9135 -0.0000 -0.4067
vn -0.6691 -0.0000 0.7431
vn -0.8090 -0.0000 0.5878
vn -0.9135 -0.0000 0.4067
vn 0.9781 -0.0000 -0.2079
vn 0.9986 -0.0000 -0.0523
vn -0.0000 -0.0000 1.0000
vn -0.9781 -0.0000 0.2079
vn -0.9986 -0.0000 0.0523
vn 1.0000 -0.0000 -0.0000
vn -1.0000 -0.0000 -0.0000
vn -0.9986 -0.0000 -0.0523
vn -0.0000 1.0000 -0.0000
vn -0.1837 -0.0000 0.9830
vn -0.5264 -0.0000 0.8502
vn 0.3612 -0.0000 -0.9325
vn 0.6737 -0.0000 -0.7390
vn -0.3612 -0.0000 -0.9325
vn -0.0000 -0.0000 -1.0000
vn 0.1837 -0.0000 0.9830
vn -0.6737 -0.0000 -0.7390
vn 0.5264 -0.0000 0.8502
vn -0.8952 -0.0000 -0.4457
vn 0.7980 -0.0000 0.6026
vn -0.9957 -0.0000 -0.0923
vn 0.9618 -0.0000 0.2737
vn -0.9618 -0.0000 0.2737
vn 0.9957 -0.0000 -0.0923
vn -0.7980 -0.0000 0.6026
vn 0.8952 -0.0000 -0.4457
vt 0.625000 0.200000
vt 0.625000 0.250000
vt 0.375000 0.250000
vt 0.375000 0.200000
vt 0.375000 0.000000
vt 0.625000 0.000000
vt 0.000000 0.000000
s 1
f 64/1/1 63/2/1 76/2/1 75/1/1
f 6/1/2 8/1/2 12/1/3 10/1/3
f 5/3/4 9/3/5 11/2/5 7/2/4
f 4/1/1 3/2/1 7/2/1 8/1/1
f 2/1/6 4/1/6 8/1/2 6/1/2
f 13/3/7 17/3/8 19/2/8 15/2/7
f 11/2/5 9/3/5 13/3/7 15/2/7
f 8/1/1 7/2/1 11/2/1 12/1/1
f 16/1/1 15/2/1 19/2/1 20/1/1
f 17/3/8 21/3/9 23/2/9 19/2/8
f 10/1/3 12/1/3 16/1/10 14/1/10
f 12/1/1 11/2/1 15/2/1 16/1/1
f 21/3/9 25/3/11 27/2/11 23/2/9
f 14/1/10 16/1/10 20/1/12 18/1/12
f 22/1/13 24/1/13 28/1/14 26/1/14
f 20/1/1 19/2/1 23/2/1 24/1/1
f 18/1/12 20/1/12 24/1/13 22/1/13
f 29/3/15 33/3/16 35/2/16 31/2/15
f 28/1/1 27/2/1 31/2/1 32/1/1
f 27/2/11 25/3/11 29/3/15 31/2/15
f 24/1/1 23/2/1 27/2/1 28/1/1
f 32/1/1 31/2/1 35/2/1 36/1/1
f 39/2/17 37/3/17 41/3/18 43/2/18
f 26/1/14 28/1/14 32/1/19 30/1/19
f 34/1/20 36/1/20 40/1/21 38/1/21
f 30/1/19 32/1/19 36/1/20 34/1/20
f 38/1/21 40/1/21 44/1/22 42/1/22
f 33/3/16 37/3/17 39/2/17 35/2/16
f 41/3/18 45/3/23 47/2/23 43/2/18
f 36/1/1 35/2/1 39/2/1 40/1/1
f 44/1/1 43/2/1 47/2/1 48/1/1
f 45/3/23 49/3/24 51/2/24 47/2/23
f 40/1/1 39/2/1 43/2/1 44/1/1
f 49/3/24 53/3/25 55/2/25 51/2/24
f 42/1/22 44/1/22 48/1/26 46/1/26
f 50/1/27 52/1/27 56/1/28 54/1/28
f 48/1/1 47/2/1 51/2/1 52/1/1
f 46/1/26 48/1/26 52/1/27 50/1/27
f 57/3/29 61/3/30 63/2/30 59/2/29
f 55/2/25 53/3/25 57/3/29 59/2/29
f 52/1/1 51/2/1 55/2/1 56/1/1
f 60/1/1 59/2/1 63/2/1 64/1/1
f 67/3/31 69/2/31 68/1/31 66/1/31 65/4/31
f 54/1/28 56/1/28 60/1/32 58/1/32
f 56/1/1 55/2/1 59/2/1 60/1/1
f 58/1/32 60/1/32 64/1/33 62/1/33
f 73/1/31 75/1/31 76/2/31 74/3/31 70/4/31
f 71/5/31 65/4/31 66/1/31 72/6/31
f 61/3/30 74/3/34 76/2/34 63/2/30
f 71/5/31 72/6/31 73/1/31 70/4/31
f 3/2/1 4/1/1 68/1/1 69/2/1
f 62/1/33 64/1/33 75/1/35 73/1/35
f 4/1/6 2/1/6 66/1/34 68/1/34
f 1/3/36 3/2/36 69/2/35 67/3/35
f 2/1/1 91/7/1 66/1/1
f 93/7/1 72/6/1 66/1/1
f 78/7/1 72/6/1 77/7/1
f 79/7/1 73/1/1 78/7/1
f 84/7/1 42/1/1 46/1/1
f 14/1/1 18/1/1 88/7/1
f 82/7/1 54/1/1 81/7/1
f 82/7/1 83/7/1 50/1/1
f 81/7/1 58/1/1 62/1/1
f 83/7/1 46/1/1 50/1/1
f 85/7/1 38/1/1 84/7/1
f 86/7/1 34/1/1 85/7/1
f 86/7/1 26/1/1 30/1/1
f 87/7/1 22/1/1 26/1/1
f 79/7/37 78/7/37 94/7/37 96/7/37
f 18/1/1 22/1/1 87/7/1
f 90/7/1 10/1/1 14/1/1
f 90/7/1 6/1/1 10/1/1
f 91/7/1 2/1/1 6/1/1
f 92/7/1 93/7/1 66/1/1
f 93/7/1 77/7/1 72/6/1
f 78/7/1 73/1/1 72/6/1
f 79/7/1 80/7/1 73/1/1
f 80/7/1 81/7/1 62/1/1
f 81/7/1 54/1/1 58/1/1
f 82/7/1 50/1/1 54/1/1
f 83/7/1 84/7/1 46/1/1
f 84/7/1 38/1/1 42/1/1
f 85/7/1 34/1/1 38/1/1
f 86/7/1 30/1/1 34/1/1
f 86/7/1 87/7/1 26/1/1
f 88/7/1 18/1/1 87/7/1
f 89/7/1 14/1/1 88/7/1
f 89/7/1 90/7/1 14/1/1
f 90/7/1 91/7/1 6/1/1
f 80/7/1 62/1/1 73/1/1
f 91/7/1 92/7/1 66/1/1
f 102/7/38 101/7/39 118/7/39 119/7/38
f 77/7/37 93/7/37 110/7/37 95/7/37
f 87/7/37 86/7/37 103/7/37 104/7/37
f 80/7/37 79/7/37 96/7/37 97/7/37
f 88/7/37 87/7/37 104/7/37 105/7/37
f 81/7/37 80/7/37 97/7/37 98/7/37
f 89/7/37 88/7/37 105/7/37 106/7/37
f 82/7/37 81/7/37 98/7/37 99/7/37
f 90/7/37 89/7/37 106/7/37 107/7/37
f 83/7/37 82/7/37 99/7/37 100/7/37
f 91/7/37 90/7/37 107/7/37 108/7/37
f 84/7/37 83/7/37 100/7/37 101/7/37
f 92/7/37 91/7/37 108/7/37 109/7/37
f 85/7/37 84/7/37 101/7/37 102/7/37
f 78/7/37 77/7/37 95/7/37 94/7/37
f 93/7/37 92/7/37 109/7/37 110/7/37
f 86/7/37 85/7/37 102/7/37 103/7/37
f 110/7/40 109/7/41 126/7/41 127/7/40
f 94/7/42 95/7/43 112/7/43 111/7/42
f 103/7/44 102/7/38 119/7/38 120/7/44
f 96/7/45 94/7/42 111/7/42 113/7/45
f 95/7/43 110/7/40 127/7/40 112/7/43
f 104/7/46 103/7/44 120/7/44 121/7/46
f 97/7/47 96/7/45 113/7/45 114/7/47
f 105/7/48 104/7/46 121/7/46 122/7/48
f 98/7/49 97/7/47 114/7/47 115/7/49
f 106/7/50 105/7/48 122/7/48 123/7/50
f 99/7/51 98/7/49 115/7/49 116/7/51
f 107/7/52 106/7/50 123/7/50 124/7/52
f 100/7/53 99/7/51 116/7/51 117/7/53
f 108/7/54 107/7/52 124/7/52 125/7/54
f 101/7/39 100/7/53 117/7/53 118/7/39
f 109/7/41 108/7/54 125/7/54 126/7/41
f 126/7/37 65/4/37 127/7/37
f 126/7/37 1/3/37 67/3/37
f 125/7/37 1/3/37 126/7/37
f 124/7/37 5/3/37 125/7/37
f 123/7/37 9/3/37 124/7/37
f 122/7/37 13/3/37 123/7/37
f 122/7/37 21/3/37 17/3/37
f 121/7/37 21/3/37 122/7/37
f 120/7/37 25/3/37 121/7/37
f 1/3/36 5/3/4 7/2/4 3/2/36
f 119/7/37 37/3/37 33/3/37
f 118/7/37 41/3/37 37/3/37
f 118/7/37 45/3/37 41/3/37
f 119/7/37 29/3/37 25/3/37
f 49/3/37 45/3/37 118/7/37
f 115/7/37 57/3/37 53/3/37
f 114/7/37 61/3/37 57/3/37
f 53/3/37 49/3/37 117/7/37
f 113/7/37 70/4/37 74/3/37
f 111/7/37 71/5/37 70/4/37
f 127/7/37 71/5/37 112/7/37
f 126/7/37 67/3/37 65/4/37
f 125/7/37 5/3/37 1/3/37
f 124/7/37 9/3/37 5/3/37
f 123/7/37 13/3/37 9/3/37
f 122/7/37 17/3/37 13/3/37
f 121/7/37 25/3/37 21/3/37
f 120/7/37 119/7/37 25/3/37
f 119/7/37 33/3/37 29/3/37
f 119/7/37 118/7/37 37/3/37
f 117/7/37 49/3/37 118/7/37
f 116/7/37 53/3/37 117/7/37
f 116/7/37 115/7/37 53/3/37
f 115/7/37 114/7/37 57/3/37
f 74/3/37 61/3/37 113/7/37
f 113/7/37 111/7/37 70/4/37
f 111/7/37 112/7/37 71/5/37
f 127/7/37 65/4/37 71/5/37
f 61/3/37 114/7/37 113/7/37
