# Blender 4.2.1 LTS
# www.blender.org
mtllib EndBlock.mtl
o EndBlock_-_col
v 0.000000 0.000000 0.000000
v 0.000000 0.200000 0.000000
v 0.000000 0.000000 -1.000000
v 0.000000 0.200000 -1.000000
v 0.000000 0.000000 -0.800000
v 0.000000 0.200000 -0.800000
v 0.000000 0.400000 -1.000000
v 0.000000 0.400000 -0.800000
v 0.000000 0.000000 0.000000
v 0.000000 0.200000 0.000000
v 0.207912 0.000000 -0.978148
v 0.207912 0.200000 -0.978148
v 0.166329 0.000000 -0.782518
v 0.166329 0.200000 -0.782518
v 0.207912 0.400000 -0.978148
v 0.166329 0.400000 -0.782518
v 0.000000 0.000000 0.000000
v 0.000000 0.200000 0.000000
v 0.406737 0.000000 -0.913546
v 0.406737 0.200000 -0.913546
v 0.325389 0.000000 -0.730836
v 0.325389 0.200000 -0.730836
v 0.406737 0.400000 -0.913546
v 0.325389 0.400000 -0.730836
v 0.000000 0.000000 0.000000
v 0.000000 0.200000 0.000000
v 0.587785 0.000000 -0.809017
v 0.587785 0.200000 -0.809017
v 0.470228 0.000000 -0.647214
v 0.470228 0.200000 -0.647214
v 0.587785 0.400000 -0.809017
v 0.470228 0.400000 -0.647214
v 0.000000 0.000000 0.000000
v 0.000000 0.200000 0.000000
v 0.743145 0.000000 -0.669131
v 0.743145 0.200000 -0.669131
v 0.594516 0.000000 -0.535305
v 0.594516 0.200000 -0.535305
v 0.743145 0.400000 -0.669131
v 0.594516 0.400000 -0.535305
v 0.000000 0.000000 0.000000
v 0.000000 0.200000 0.000000
v 0.866026 0.000000 -0.500000
v 0.866026 0.200000 -0.500000
v 0.692820 0.000000 -0.400000
v 0.692820 0.200000 -0.400000
v 0.866026 0.400000 -0.500000
v 0.692820 0.400000 -0.400000
v 0.000000 0.000000 0.000000
v 0.000000 0.200000 0.000000
v 0.951057 0.000000 -0.309017
v 0.951057 0.200000 -0.309017
v 0.760845 0.000000 -0.247214
v 0.760845 0.200000 -0.247214
v 0.951057 0.400000 -0.309017
v 0.760845 0.400000 -0.247214
v 0.000000 0.000000 0.000000
v 0.000000 0.200000 0.000000
v 0.994522 0.000000 -0.104528
v 0.994522 0.200000 -0.104528
v 0.795618 0.000000 -0.083623
v 0.795618 0.200000 -0.083623
v 0.994522 0.400000 -0.104528
v 0.795618 0.400000 -0.083623
v 0.000000 0.000000 0.000000
v 0.000000 0.200000 0.000000
v 0.994522 0.000000 0.104529
v 0.994522 0.200000 0.104529
v 0.795618 0.000000 0.083623
v 0.795618 0.200000 0.083623
v 0.994522 0.400000 0.104529
v 0.795618 0.400000 0.083623
v 0.000000 0.000000 0.000000
v 0.000000 0.200000 0.000000
v 0.951057 0.000000 0.309017
v 0.951057 0.200000 0.309017
v 0.760845 0.000000 0.247214
v 0.760845 0.200000 0.247214
v 0.951057 0.400000 0.309017
v 0.760845 0.400000 0.247214
v 0.000000 0.000000 0.000000
v 0.000000 0.200000 0.000000
v 0.866026 0.000000 0.500000
v 0.866026 0.200000 0.500000
v 0.692820 0.000000 0.400000
v 0.692820 0.200000 0.400000
v 0.866026 0.400000 0.500000
v 0.692820 0.400000 0.400000
v 0.000000 0.000000 0.000000
v 0.000000 0.200000 0.000000
v 0.743145 0.000000 0.669131
v 0.743145 0.200000 0.669131
v 0.594516 0.000000 0.535305
v 0.594516 0.200000 0.535305
v 0.743145 0.400000 0.669131
v 0.594516 0.400000 0.535305
v 0.000000 0.000000 0.000000
v 0.000000 0.200000 0.000000
v 0.587785 0.000000 0.809017
v 0.587785 0.200000 0.809017
v 0.470228 0.000000 0.647214
v 0.470228 0.200000 0.647214
v 0.587785 0.400000 0.809017
v 0.470228 0.400000 0.647214
v 0.000000 0.000000 0.000000
v 0.000000 0.200000 0.000000
v 0.406737 0.000000 0.913546
v 0.406737 0.200000 0.913546
v 0.325389 0.000000 0.730837
v 0.325389 0.200000 0.730837
v 0.406737 0.400000 0.913546
v 0.325389 0.400000 0.730837
v 0.000000 0.000000 0.000000
v 0.000000 0.200000 0.000000
v 0.207912 0.000000 0.978148
v 0.207912 0.200000 0.978148
v 0.166329 0.000000 0.782518
v 0.166329 0.200000 0.782518
v 0.207912 0.400000 0.978148
v 0.166329 0.400000 0.782518
v 0.000000 0.000000 0.000000
v 0.000000 0.200000 0.000000
v -0.000000 0.000000 1.000000
v -0.000000 0.200000 1.000000
v -0.000000 0.000000 0.800000
v -0.000000 0.200000 0.800000
v -0.000000 0.400000 1.000000
v -0.000000 0.400000 0.800000
v -1.000000 0.000000 -0.800000
v -1.000000 0.000000 0.000000
v -1.000000 0.200000 0.000000
v -1.000000 0.200000 -0.800000
v -1.000000 0.200000 -1.000000
v -1.000000 0.000000 -1.000000
v -1.000000 0.400000 -0.800000
v -1.000000 0.400000 -1.000000
v -1.000000 0.000000 0.800000
v -1.000000 0.000000 0.000000
v -1.000000 0.200000 0.000000
v -1.000000 0.200000 0.800000
v -1.000000 0.200000 1.000000
v -1.000000 0.000000 1.000000
v -1.000000 0.400000 0.800000
v -1.000000 0.400000 1.000000
vn -0.0000 1.0000 -0.0000
vn -0.0000 -1.0000 -0.0000
vn 0.3090 -0.0000 -0.9511
vn -0.1045 -0.0000 0.9945
vn 0.1045 -0.0000 -0.9945
vn -0.5000 -0.0000 0.8660
vn -0.3090 -0.0000 0.9511
vn -0.6691 -0.0000 0.7431
vn 0.5000 -0.0000 -0.8660
vn -0.8090 -0.0000 0.5878
vn 0.6691 -0.0000 -0.7431
vn 0.9135 -0.0000 -0.4067
vn 0.8090 -0.0000 -0.5878
vn -0.9781 -0.0000 0.2079
vn -0.9135 -0.0000 0.4067
vn -1.0000 -0.0000 -0.0000
vn 0.9781 -0.0000 -0.2079
vn 0.9781 -0.0000 0.2079
vn 1.0000 -0.0000 -0.0000
vn 0.9135 -0.0000 0.4067
vn -0.9135 -0.0000 -0.4067
vn -0.9781 -0.0000 -0.2079
vn -0.8090 -0.0000 -0.5878
vn -0.6691 -0.0000 -0.7431
vn 0.8090 -0.0000 0.5878
vn 0.5000 -0.0000 0.8660
vn 0.6691 -0.0000 0.7431
vn -0.3090 -0.0000 -0.9511
vn -0.5000 -0.0000 -0.8660
vn -0.1045 -0.0000 -0.9945
vn 0.3090 -0.0000 0.9511
vn 0.1045 -0.0000 0.9945
vn -0.0000 -0.0000 1.0000
vn -0.0000 -0.0000 -1.0000
vt 0.375000 0.200000
vt 0.375000 0.000000
vt 0.625000 0.200000
vt 0.625000 0.250000
vt 0.625000 0.000000
vt 0.375000 0.250000
s 0
f 125/1/1 121/2/1 138/2/1 137/1/1
f 128/3/2 127/4/2 144/4/2 143/3/2
f 6/3/2 2/5/2 131/5/2 132/3/2
f 11/6/1 13/1/1 21/1/1 19/6/1
f 14/3/3 16/3/3 24/3/3 22/3/3
f 9/2/1 10/5/1 18/5/1 17/2/1
f 5/1/1 1/2/1 9/2/1 13/1/1
f 7/4/4 4/4/4 12/4/4 15/4/4
f 8/3/2 7/4/2 15/4/2 16/3/2
f 2/5/2 6/3/2 14/3/2 10/5/2
f 4/4/4 3/6/4 11/6/4 12/4/4
f 1/2/1 2/5/1 10/5/1 9/2/1
f 6/3/5 8/3/5 16/3/5 14/3/5
f 3/6/1 5/1/1 13/1/1 11/6/1
f 17/2/1 18/5/1 26/5/1 25/2/1
f 20/4/6 19/6/6 27/6/6 28/4/6
f 18/5/2 22/3/2 30/3/2 26/5/2
f 13/1/1 9/2/1 17/2/1 21/1/1
f 15/4/7 12/4/7 20/4/7 23/4/7
f 16/3/2 15/4/2 23/4/2 24/3/2
f 10/5/2 14/3/2 22/3/2 18/5/2
f 12/4/7 11/6/7 19/6/7 20/4/7
f 32/3/2 31/4/2 39/4/2 40/3/2
f 31/4/8 28/4/8 36/4/8 39/4/8
f 29/1/1 25/2/1 33/2/1 37/1/1
f 22/3/9 24/3/9 32/3/9 30/3/9
f 19/6/1 21/1/1 29/1/1 27/6/1
f 21/1/1 17/2/1 25/2/1 29/1/1
f 23/4/6 20/4/6 28/4/6 31/4/6
f 24/3/2 23/4/2 31/4/2 32/3/2
f 39/4/10 36/4/10 44/4/10 47/4/10
f 37/1/1 33/2/1 41/2/1 45/1/1
f 35/6/1 37/1/1 45/1/1 43/6/1
f 26/5/2 30/3/2 38/3/2 34/5/2
f 28/4/8 27/6/8 35/6/8 36/4/8
f 25/2/1 26/5/1 34/5/1 33/2/1
f 30/3/11 32/3/11 40/3/11 38/3/11
f 27/6/1 29/1/1 37/1/1 35/6/1
f 43/6/1 45/1/1 53/1/1 51/6/1
f 46/3/12 48/3/12 56/3/12 54/3/12
f 41/2/1 42/5/1 50/5/1 49/2/1
f 40/3/2 39/4/2 47/4/2 48/3/2
f 34/5/2 38/3/2 46/3/2 42/5/2
f 36/4/10 35/6/10 43/6/10 44/4/10
f 33/2/1 34/5/1 42/5/1 41/2/1
f 38/3/13 40/3/13 48/3/13 46/3/13
f 52/4/14 51/6/14 59/6/14 60/4/14
f 50/5/2 54/3/2 62/3/2 58/5/2
f 56/3/2 55/4/2 63/4/2 64/3/2
f 45/1/1 41/2/1 49/2/1 53/1/1
f 47/4/15 44/4/15 52/4/15 55/4/15
f 48/3/2 47/4/2 55/4/2 56/3/2
f 42/5/2 46/3/2 54/3/2 50/5/2
f 44/4/15 43/6/15 51/6/15 52/4/15
f 64/3/2 63/4/2 71/4/2 72/3/2
f 63/4/16 60/4/16 68/4/16 71/4/16
f 61/1/1 57/2/1 65/2/1 69/1/1
f 49/2/1 50/5/1 58/5/1 57/2/1
f 54/3/17 56/3/17 64/3/17 62/3/17
f 51/6/1 53/1/1 61/1/1 59/6/1
f 53/1/1 49/2/1 57/2/1 61/1/1
f 55/4/14 52/4/14 60/4/14 63/4/14
f 69/1/1 65/2/1 73/2/1 77/1/1
f 67/6/1 69/1/1 77/1/1 75/6/1
f 70/3/18 72/3/18 80/3/18 78/3/18
f 58/5/2 62/3/2 70/3/2 66/5/2
f 60/4/16 59/6/16 67/6/16 68/4/16
f 57/2/1 58/5/1 66/5/1 65/2/1
f 62/3/19 64/3/19 72/3/19 70/3/19
f 59/6/1 61/1/1 69/1/1 67/6/1
f 78/3/20 80/3/20 88/3/20 86/3/20
f 73/2/1 74/5/1 82/5/1 81/2/1
f 76/4/21 75/6/21 83/6/21 84/4/21
f 71/4/22 68/4/22 76/4/22 79/4/22
f 72/3/2 71/4/2 79/4/2 80/3/2
f 66/5/2 70/3/2 78/3/2 74/5/2
f 68/4/22 67/6/22 75/6/22 76/4/22
f 65/2/1 66/5/1 74/5/1 73/2/1
f 82/5/2 86/3/2 94/3/2 90/5/2
f 88/3/2 87/4/2 95/4/2 96/3/2
f 87/4/23 84/4/23 92/4/23 95/4/23
f 75/6/1 77/1/1 85/1/1 83/6/1
f 77/1/1 73/2/1 81/2/1 85/1/1
f 79/4/21 76/4/21 84/4/21 87/4/21
f 80/3/2 79/4/2 87/4/2 88/3/2
f 74/5/2 78/3/2 86/3/2 82/5/2
f 95/4/24 92/4/24 100/4/24 103/4/24
f 93/1/1 89/2/1 97/2/1 101/1/1
f 91/6/1 93/1/1 101/1/1 99/6/1
f 84/4/23 83/6/23 91/6/23 92/4/23
f 81/2/1 82/5/1 90/5/1 89/2/1
f 86/3/25 88/3/25 96/3/25 94/3/25
f 83/6/1 85/1/1 93/1/1 91/6/1
f 85/1/1 81/2/1 89/2/1 93/1/1
f 101/1/1 97/2/1 105/2/1 109/1/1
f 99/6/1 101/1/1 109/1/1 107/6/1
f 102/3/26 104/3/26 112/3/26 110/3/26
f 96/3/2 95/4/2 103/4/2 104/3/2
f 90/5/2 94/3/2 102/3/2 98/5/2
f 92/4/24 91/6/24 99/6/24 100/4/24
f 89/2/1 90/5/1 98/5/1 97/2/1
f 94/3/27 96/3/27 104/3/27 102/3/27
f 105/2/1 106/5/1 114/5/1 113/2/1
f 108/4/28 107/6/28 115/6/28 116/4/28
f 106/5/2 110/3/2 118/3/2 114/5/2
f 103/4/29 100/4/29 108/4/29 111/4/29
f 104/3/2 103/4/2 111/4/2 112/3/2
f 98/5/2 102/3/2 110/3/2 106/5/2
f 100/4/29 99/6/29 107/6/29 108/4/29
f 97/2/1 98/5/1 106/5/1 105/2/1
f 120/3/2 119/4/2 127/4/2 128/3/2
f 119/4/30 116/4/30 124/4/30 127/4/30
f 117/1/1 113/2/1 121/2/1 125/1/1
f 110/3/31 112/3/31 120/3/31 118/3/31
f 107/6/1 109/1/1 117/1/1 115/6/1
f 109/1/1 105/2/1 113/2/1 117/1/1
f 111/4/28 108/4/28 116/4/28 119/4/28
f 112/3/2 111/4/2 119/4/2 120/3/2
f 122/5/2 126/3/2 140/3/2 139/5/2
f 5/1/1 3/6/1 134/6/1 129/1/1
f 123/6/1 125/1/1 137/1/1 142/6/1
f 114/5/2 118/3/2 126/3/2 122/5/2
f 116/4/30 115/6/30 123/6/30 124/4/30
f 113/2/1 114/5/1 122/5/1 121/2/1
f 118/3/32 120/3/32 128/3/32 126/3/32
f 115/6/1 117/1/1 125/1/1 123/6/1
f 129/1/19 134/6/19 133/4/19 132/3/19
f 130/2/19 129/1/19 132/3/19 131/5/19
f 133/4/19 136/4/19 135/3/19 132/3/19
f 137/1/19 140/3/19 141/4/19 142/6/19
f 138/2/19 139/5/19 140/3/19 137/1/19
f 141/4/19 140/3/19 143/3/19 144/4/19
f 7/4/2 8/3/2 135/3/2 136/4/2
f 126/3/33 128/3/33 143/3/33 140/3/33
f 1/2/1 5/1/1 129/1/1 130/2/1
f 121/2/33 122/5/33 139/5/33 138/2/33
f 8/3/34 6/3/34 132/3/34 135/3/34
f 127/4/34 124/4/34 141/4/34 144/4/34
f 2/5/34 1/2/34 130/2/34 131/5/34
f 4/4/33 7/4/33 136/4/33 133/4/33
f 124/4/34 123/6/34 142/6/34 141/4/34
f 3/6/33 4/4/33 133/4/33 134/6/33
