# Blender 4.2.1 LTS
# www.blender.org
mtllib EndIndicator.mtl
o EndIndicator
v -0.012300 1.394354 -0.037854
v -0.039802 1.394354 0.000000
v -0.037854 1.394354 0.012300
v -0.032201 1.394354 0.023395
v -0.023395 1.394354 0.032201
v -0.012300 1.394354 0.037854
v -0.758270 1.000000 0.022457
v -0.021835 0.635330 0.022160
v -0.021835 1.364670 0.022160
v -0.758270 1.000000 -0.022457
v -0.021835 0.635330 -0.022160
v -0.021835 1.364670 -0.022160
v -0.000000 0.033677 0.063042
v -0.019481 0.033677 0.059957
v -0.037055 0.033677 0.051002
v -0.051002 0.033677 0.037055
v -0.059957 0.033677 0.019481
v -0.063042 0.033677 0.000000
v -0.059957 0.033677 -0.019481
v -0.051002 0.033677 -0.037055
v -0.037055 0.033677 -0.051002
v -0.019481 0.033677 -0.059957
v 0.063042 0.033677 0.000000
v 0.059957 0.033677 0.019481
v 0.051002 0.033677 0.037055
v 0.037055 0.033677 0.051002
v 0.019481 0.033677 0.059957
v -0.000000 0.033677 -0.063042
v 0.019481 0.033677 -0.059957
v 0.037055 0.033677 -0.051002
v 0.051002 0.033677 -0.037055
v 0.059957 0.033677 -0.019481
v -0.053495 1.381634 0.000000
v -0.050877 1.381634 0.016531
v -0.043279 1.381634 0.031444
v -0.031444 1.381634 0.043279
v -0.016531 1.381634 0.050877
v -0.000000 1.381634 -0.053495
v -0.016531 1.381634 -0.050877
v -0.031444 1.381634 -0.043279
v -0.043279 1.381634 -0.031444
v -0.050877 1.381634 -0.016531
v 0.053495 1.381634 0.000000
v 0.050877 1.381634 -0.016531
v 0.043279 1.381634 -0.031444
v 0.031444 1.381634 -0.043279
v 0.016531 1.381634 -0.050877
v -0.000000 1.381634 0.053495
v 0.016531 1.381634 0.050877
v 0.031444 1.381634 0.043279
v 0.043279 1.381634 0.031444
v 0.050877 1.381634 0.016531
v -0.023395 1.394354 -0.032201
v -0.032201 1.394354 -0.023395
v -0.037854 1.394354 -0.012300
v 0.037854 1.394354 0.012300
v 0.032201 1.394354 0.023395
v 0.023395 1.394354 0.032201
v 0.012300 1.394354 0.037854
v -0.000000 1.394354 0.039802
v 0.037854 1.394354 -0.012300
v 0.039802 1.394354 0.000000
v 0.032201 1.394354 -0.023395
v 0.023395 1.394354 -0.032201
v 0.012300 1.394354 -0.037854
v -0.000000 1.394354 -0.039802
vn 0.4001 0.7326 0.5506
vn 0.2103 0.7326 0.6473
vn -0.0000 1.0000 -0.0000
vn 0.0004 -0.0000 1.0000
vn 0.0004 -0.0000 -1.0000
vn -0.4438 0.8961 -0.0000
vn 1.0000 -0.0000 -0.0000
vn -0.4438 -0.8961 -0.0000
vn -0.0000 0.0071 1.0000
vn -0.3090 0.0071 0.9510
vn -0.5878 0.0071 0.8090
vn -0.8090 0.0071 0.5878
vn -0.9510 0.0071 0.3090
vn -1.0000 0.0071 -0.0000
vn -0.0000 0.0071 -1.0000
vn -0.3090 0.0071 -0.9510
vn -0.5878 0.0071 -0.8090
vn -0.8090 0.0071 -0.5878
vn -0.9510 0.0071 -0.3090
vn 1.0000 0.0071 -0.0000
vn 0.9510 0.0071 0.3090
vn 0.8090 0.0071 0.5878
vn 0.5878 0.0071 0.8090
vn 0.3090 0.0071 0.9510
vn 0.9510 0.0071 -0.3090
vn 0.8090 0.0071 -0.5878
vn 0.5878 0.0071 -0.8090
vn 0.3090 0.0071 -0.9510
vn -0.5506 0.7326 0.4001
vn -0.6473 0.7326 0.2103
vn 0.6473 0.7326 0.2103
vn 0.6806 0.7326 -0.0000
vn 0.4001 0.7326 -0.5506
vn 0.5506 0.7326 -0.4001
vn -0.0000 0.7326 0.6806
vn -0.2103 0.7326 0.6473
vn -0.5506 0.7326 -0.4001
vn -0.4001 0.7326 -0.5506
vn -0.6806 0.7326 -0.0000
vn 0.5506 0.7326 0.4001
vn 0.2103 0.7326 -0.6473
vn -0.4001 0.7326 0.5506
vn -0.6473 0.7326 -0.2103
vn 0.6473 0.7326 -0.2103
vn -0.2103 0.7326 -0.6473
vn -0.0000 0.7326 -0.6806
vn -0.0000 -1.0000 -0.0000
vt 0.731632 0.654261
vt 0.740343 0.655740
vt 0.768368 0.595739
vt 0.750000 0.656250
vt 0.719260 0.634657
vt 0.000000 0.000000
vt 1.000000 0.000000
vt 1.000000 1.000000
vt 0.759657 0.656250
vt 0.759657 0.655740
vt 0.768368 0.656250
vt 0.779261 0.643368
vt 0.781250 0.643368
vt 0.781250 0.634657
vt 0.781250 0.625000
vt 0.750000 0.593750
vt 0.759657 0.594260
vt 0.759657 0.593750
vt 0.768368 0.593750
vt 0.779261 0.606632
vt 0.781250 0.615343
vt 0.780740 0.615343
vt 0.718750 0.625000
vt 0.718750 0.634657
vt 0.718750 0.643368
vt 0.720739 0.643368
vt 0.731632 0.656250
vt 0.740343 0.656250
vt 0.718750 0.615343
vt 0.719260 0.615343
vt 0.720739 0.606632
vt 0.731632 0.593750
vt 0.731632 0.595739
vt 0.740343 0.594260
vt 0.780740 0.634657
vt 0.768368 0.654261
vt 0.781250 0.606632
vt 0.718750 0.606632
vt 0.740343 0.593750
s 1
usemtl Translucent_Red
f 50/1/1 59/2/2 49/2/2
f 53/3/3 60/4/3 56/5/3
f 7/6/4 8/7/4 9/8/4
f 10/6/5 12/8/5 11/7/5
f 12/8/6 7/6/6 9/8/6
f 11/7/7 9/8/7 8/7/7
f 10/6/8 8/7/8 7/6/8
f 48/4/9 14/9/10 13/4/9
f 37/10/10 15/11/11 14/9/10
f 15/11/11 35/12/12 16/13/12
f 35/12/12 17/14/13 16/13/12
f 17/14/13 33/15/14 18/15/14
f 28/16/15 39/17/16 38/16/15
f 22/18/16 40/3/17 39/17/16
f 21/19/17 41/20/18 40/3/17
f 41/20/18 19/21/19 42/22/19
f 42/22/19 18/15/14 33/15/14
f 23/23/20 52/5/21 24/24/21
f 52/5/21 25/25/22 24/24/21
f 51/26/22 26/27/23 25/25/22
f 50/1/23 27/28/24 26/27/23
f 27/28/24 48/4/9 13/4/9
f 43/23/20 32/29/25 44/30/25
f 32/29/25 45/31/26 44/30/25
f 45/31/26 30/32/27 46/33/27
f 30/32/27 47/34/28 46/33/27
f 47/34/28 28/16/15 38/16/15
f 35/12/29 3/35/30 34/35/30
f 52/5/31 62/23/32 56/5/31
f 46/33/33 63/31/34 45/31/34
f 48/4/35 6/10/36 37/10/36
f 41/20/37 53/3/38 40/3/38
f 49/2/2 60/4/35 48/4/35
f 34/35/30 2/15/39 33/15/39
f 51/26/40 56/5/31 57/26/40
f 47/34/41 64/33/33 46/33/33
f 36/36/42 6/10/36 5/36/42
f 42/22/43 54/20/37 41/20/37
f 44/30/44 62/23/32 43/23/32
f 39/17/45 66/16/46 38/16/46
f 51/26/40 58/1/1 50/1/1
f 47/34/41 66/16/46 65/34/41
f 35/12/29 5/36/42 4/12/29
f 42/22/43 2/15/39 55/22/43
f 44/30/44 63/31/34 61/30/44
f 40/3/38 1/17/45 39/17/45
f 20/37/47 23/23/47 27/28/47
f 50/1/1 58/1/1 59/2/2
f 56/5/3 62/23/3 61/30/3
f 61/30/3 63/31/3 64/33/3
f 64/33/3 65/34/3 66/16/3
f 66/16/3 1/17/3 53/3/3
f 53/3/3 54/20/3 55/22/3
f 55/22/3 2/15/3 3/35/3
f 3/35/3 4/12/3 5/36/3
f 5/36/3 6/10/3 60/4/3
f 60/4/3 59/2/3 58/1/3
f 58/1/3 57/26/3 56/5/3
f 56/5/3 61/30/3 64/33/3
f 64/33/3 66/16/3 53/3/3
f 53/3/3 55/22/3 3/35/3
f 3/35/3 5/36/3 60/4/3
f 60/4/3 58/1/3 56/5/3
f 56/5/3 64/33/3 53/3/3
f 53/3/3 3/35/3 60/4/3
f 12/8/6 10/6/6 7/6/6
f 11/7/7 12/8/7 9/8/7
f 10/6/8 11/7/8 8/7/8
f 48/4/9 37/10/10 14/9/10
f 37/10/10 36/36/11 15/11/11
f 15/11/11 36/36/11 35/12/12
f 35/12/12 34/35/13 17/14/13
f 17/14/13 34/35/13 33/15/14
f 28/16/15 22/18/16 39/17/16
f 22/18/16 21/19/17 40/3/17
f 21/19/17 20/37/18 41/20/18
f 41/20/18 20/37/18 19/21/19
f 42/22/19 19/21/19 18/15/14
f 23/23/20 43/23/20 52/5/21
f 52/5/21 51/26/22 25/25/22
f 51/26/22 50/1/23 26/27/23
f 50/1/23 49/2/24 27/28/24
f 27/28/24 49/2/24 48/4/9
f 43/23/20 23/23/20 32/29/25
f 32/29/25 31/38/26 45/31/26
f 45/31/26 31/38/26 30/32/27
f 30/32/27 29/39/28 47/34/28
f 47/34/28 29/39/28 28/16/15
f 35/12/29 4/12/29 3/35/30
f 52/5/31 43/23/32 62/23/32
f 46/33/33 64/33/33 63/31/34
f 48/4/35 60/4/35 6/10/36
f 41/20/37 54/20/37 53/3/38
f 49/2/2 59/2/2 60/4/35
f 34/35/30 3/35/30 2/15/39
f 51/26/40 52/5/31 56/5/31
f 47/34/41 65/34/41 64/33/33
f 36/36/42 37/10/36 6/10/36
f 42/22/43 55/22/43 54/20/37
f 44/30/44 61/30/44 62/23/32
f 39/17/45 1/17/45 66/16/46
f 51/26/40 57/26/40 58/1/1
f 47/34/41 38/16/46 66/16/46
f 35/12/29 36/36/42 5/36/42
f 42/22/43 33/15/39 2/15/39
f 44/30/44 45/31/34 63/31/34
f 40/3/38 53/3/38 1/17/45
f 27/28/47 13/4/47 14/9/47
f 14/9/47 15/11/47 16/13/47
f 16/13/47 17/14/47 18/15/47
f 18/15/47 19/21/47 20/37/47
f 20/37/47 21/19/47 22/18/47
f 22/18/47 28/16/47 29/39/47
f 29/39/47 30/32/47 31/38/47
f 31/38/47 32/29/47 23/23/47
f 23/23/47 24/24/47 25/25/47
f 25/25/47 26/27/47 27/28/47
f 27/28/47 14/9/47 16/13/47
f 16/13/47 18/15/47 20/37/47
f 20/37/47 22/18/47 29/39/47
f 29/39/47 31/38/47 23/23/47
f 23/23/47 25/25/47 27/28/47
f 27/28/47 16/13/47 20/37/47
f 20/37/47 29/39/47 23/23/47
