# Blender 4.1.1
# www.blender.org
o EndMarker
v -1.000000 0.000000 1.000000
v 1.000000 0.000000 1.000000
v -1.000000 0.000000 -1.000000
v 1.000000 0.000000 -1.000000
v -0.800000 0.000000 -0.800000
v -0.800000 0.000000 0.800000
v 0.800000 0.000000 0.800000
v 0.800000 0.000000 -0.800000
v -0.800000 0.200000 -0.800000
v -0.800000 0.200000 0.800000
v 0.800000 0.200000 0.800000
v 0.800000 0.200000 -0.800000
v -1.000000 0.200000 -1.000000
v -1.000000 0.200000 1.000000
v 1.000000 0.200000 1.000000
v 1.000000 0.200000 -1.000000
v -0.400000 -0.000000 0.400000
v -0.100000 0.200000 0.100000
v -0.400000 -0.000000 -0.400000
v -0.100000 0.200000 -0.100000
v 0.400000 -0.000000 0.400000
v 0.100000 0.200000 0.100000
v 0.400000 -0.000000 -0.400000
v 0.100000 0.200000 -0.100000
v -0.400000 0.200000 0.400000
v -0.400000 0.200000 -0.400000
v 0.400000 0.200000 -0.400000
v 0.400000 0.200000 0.400000
v -0.100000 1.400000 0.100000
v -0.100000 1.400000 -0.100000
v 0.100000 1.400000 -0.100000
v 0.100000 1.400000 0.100000
v -0.800000 1.000000 0.050000
v -0.000000 0.600000 0.050000
v -0.000000 1.400000 0.050000
v -0.800000 1.000000 -0.050000
v -0.000000 0.600000 -0.050000
v -0.000000 1.400000 -0.050000
vn -0.0000 1.0000 -0.0000
vn -0.0000 -1.0000 -0.0000
vn -0.0000 -0.0000 -1.0000
vn 1.0000 -0.0000 -0.0000
vn -1.0000 -0.0000 -0.0000
vn -0.0000 -0.0000 1.0000
vn -0.4472 0.8944 -0.0000
vn -0.4472 -0.8944 -0.0000
vt 0.100000 0.100000
vt 0.000000 1.000000
vt 0.000000 0.000000
vt 0.100000 0.900000
vt 1.000000 0.000000
vt 0.900000 0.100000
vt 1.000000 1.000000
vt 0.900000 0.900000
vt 0.625000 0.000000
vt 0.375000 0.250000
vt 0.375000 0.000000
vt 0.625000 0.250000
vt 0.375000 0.500000
vt 0.625000 0.500000
vt 0.375000 0.750000
vt 0.625000 0.750000
vt 0.375000 1.000000
vt 0.125000 0.750000
vt 0.125000 0.500000
vt 0.781250 0.656250
vt 0.781250 0.593750
vt 0.875000 0.750000
vt 0.718750 0.593750
vt 0.875000 0.500000
vt 0.718750 0.656250
vt 0.625000 1.000000
s 0
f 10/1/1 13/2/1 14/3/1
f 1/3/2 5/4/2 6/1/2
f 2/5/2 6/1/2 7/6/2
f 4/7/2 7/6/2 8/8/2
f 3/2/2 8/8/2 5/4/2
f 11/6/1 14/3/1 15/5/1
f 12/8/1 15/5/1 16/7/1
f 9/4/1 16/7/1 13/2/1
f 6/1/3 11/6/3 7/6/3
f 4/7/4 15/5/4 2/5/4
f 1/3/5 13/2/5 3/2/5
f 7/6/5 12/8/5 8/8/5
f 5/4/4 10/1/4 6/1/4
f 3/2/3 16/7/3 4/7/3
f 2/5/6 14/3/6 1/3/6
f 8/8/6 9/4/6 5/4/6
f 25/9/5 19/10/5 17/11/5
f 26/12/3 23/13/3 19/10/3
f 27/14/4 21/15/4 23/13/4
f 28/16/6 17/17/6 21/15/6
f 23/13/2 17/18/2 19/19/2
f 18/20/5 30/21/5 20/21/5
f 20/21/1 25/22/1 18/20/1
f 24/23/1 26/24/1 20/21/1
f 22/25/1 27/14/1 24/23/1
f 18/20/1 28/16/1 22/25/1
f 30/21/1 32/25/1 31/23/1
f 22/25/6 29/20/6 18/20/6
f 20/21/3 31/23/3 24/23/3
f 24/23/4 32/25/4 22/25/4
f 33/3/6 34/5/6 35/7/6
f 36/3/3 38/7/3 37/5/3
f 38/7/7 33/3/7 35/7/7
f 37/5/4 35/7/4 34/5/4
f 36/3/8 34/5/8 33/3/8
f 10/1/1 9/4/1 13/2/1
f 1/3/2 3/2/2 5/4/2
f 2/5/2 1/3/2 6/1/2
f 4/7/2 2/5/2 7/6/2
f 3/2/2 4/7/2 8/8/2
f 11/6/1 10/1/1 14/3/1
f 12/8/1 11/6/1 15/5/1
f 9/4/1 12/8/1 16/7/1
f 6/1/3 10/1/3 11/6/3
f 4/7/4 16/7/4 15/5/4
f 1/3/5 14/3/5 13/2/5
f 7/6/5 11/6/5 12/8/5
f 5/4/4 9/4/4 10/1/4
f 3/2/3 13/2/3 16/7/3
f 2/5/6 15/5/6 14/3/6
f 8/8/6 12/8/6 9/4/6
f 25/9/5 26/12/5 19/10/5
f 26/12/3 27/14/3 23/13/3
f 27/14/4 28/16/4 21/15/4
f 28/16/6 25/26/6 17/17/6
f 23/13/2 21/15/2 17/18/2
f 18/20/5 29/20/5 30/21/5
f 20/21/1 26/24/1 25/22/1
f 24/23/1 27/14/1 26/24/1
f 22/25/1 28/16/1 27/14/1
f 18/20/1 25/22/1 28/16/1
f 30/21/1 29/20/1 32/25/1
f 22/25/6 32/25/6 29/20/6
f 20/21/3 30/21/3 31/23/3
f 24/23/4 31/23/4 32/25/4
f 38/7/7 36/3/7 33/3/7
f 37/5/4 38/7/4 35/7/4
f 36/3/8 37/5/8 34/5/8
