# Blender 4.1.1
# www.blender.org
mtllib EndMarker.mtl
o EndMarker
v 0.738210 0.200000 -0.305776
v 0.738210 0.000000 -0.305776
v 0.664371 0.200000 -0.443919
v 0.664371 0.000000 -0.443919
v 0.565001 0.200000 -0.565001
v 0.565001 0.000000 -0.565001
v 0.443919 0.200000 -0.664371
v 0.443919 0.000000 -0.664371
v 0.305776 0.200000 -0.738210
v 0.305776 0.000000 -0.738210
v 0.155883 0.200000 -0.783679
v 0.155883 0.000000 -0.783679
v 0.000000 0.200000 -0.799032
v 0.000000 0.000000 -0.799032
v -0.018745 1.439796 -0.057691
v -0.060660 1.439796 0.000000
v -0.057692 1.439796 0.018745
v -0.049075 1.439796 0.035655
v -0.035655 1.439796 0.049075
v -0.018745 1.439796 0.057691
v -0.800000 1.000000 0.050000
v -0.000000 0.600000 0.050000
v -0.000000 1.400000 0.050000
v -0.800000 1.000000 -0.050000
v -0.000000 0.600000 -0.050000
v -0.000000 1.400000 -0.050000
v 0.783679 0.000000 -0.155883
v 0.783679 0.200000 -0.155883
v 0.799032 0.000000 0.000000
v 0.799032 0.200000 0.000000
v 0.783679 0.000000 0.155883
v 0.783679 0.200000 0.155883
v 0.738210 0.000000 0.305776
v 0.738210 0.200000 0.305776
v 0.664371 0.000000 0.443919
v 0.664371 0.200000 0.443919
v 0.565001 0.000000 0.565001
v 0.565001 0.200000 0.565001
v 0.443919 0.000000 0.664371
v 0.443919 0.200000 0.664371
v 0.305776 0.000000 0.738210
v 0.305776 0.200000 0.738210
v 0.155883 0.000000 0.783679
v 0.155883 0.200000 0.783679
v 0.000000 0.000000 0.799032
v 0.000000 0.200000 0.799032
v -0.155883 0.000000 0.783679
v -0.155883 0.200000 0.783679
v -0.305776 0.000000 0.738210
v -0.305776 0.200000 0.738210
v -0.443919 0.000000 0.664371
v -0.443919 0.200000 0.664371
v -0.565001 0.000000 0.565001
v -0.565001 0.200000 0.565001
v -0.664371 0.000000 0.443919
v -0.664371 0.200000 0.443919
v -0.738210 0.000000 0.305776
v -0.738210 0.200000 0.305776
v -0.783679 0.000000 0.155883
v -0.783679 0.200000 0.155883
v -0.799032 0.000000 0.000000
v -0.799032 0.200000 0.000000
v -0.783679 0.000000 -0.155883
v -0.783679 0.200000 -0.155883
v -0.738210 0.000000 -0.305776
v -0.738210 0.200000 -0.305776
v -0.664371 0.000000 -0.443919
v -0.664371 0.200000 -0.443919
v -0.565001 0.000000 -0.565001
v -0.565001 0.200000 -0.565001
v -0.443919 0.000000 -0.664371
v -0.443919 0.200000 -0.664371
v -0.305776 0.000000 -0.738210
v -0.305776 0.200000 -0.738210
v -0.155883 0.000000 -0.783679
v -0.155883 0.200000 -0.783679
v 0.923880 0.200000 -0.382683
v 0.831470 0.200000 -0.555570
v 0.831470 0.000000 -0.555570
v 0.923880 0.000000 -0.382683
v 0.707107 0.200000 -0.707107
v 0.707107 0.000000 -0.707107
v 0.555570 0.200000 -0.831470
v 0.555570 0.000000 -0.831470
v 0.382683 0.200000 -0.923880
v 0.382683 0.000000 -0.923880
v 0.195090 0.200000 -0.980785
v 0.195090 0.000000 -0.980785
v 0.000000 0.200000 -1.000000
v 0.000000 0.000000 -1.000000
v 0.980785 0.000000 -0.195090
v 0.980785 0.200000 -0.195090
v 1.000000 0.000000 0.000000
v 1.000000 0.200000 0.000000
v 0.980785 0.000000 0.195090
v 0.980785 0.200000 0.195090
v 0.923880 0.000000 0.382683
v 0.923880 0.200000 0.382683
v 0.831470 0.000000 0.555570
v 0.831470 0.200000 0.555570
v 0.707107 0.000000 0.707107
v 0.707107 0.200000 0.707107
v 0.555570 0.000000 0.831470
v 0.555570 0.200000 0.831470
v 0.382683 0.000000 0.923880
v 0.382683 0.200000 0.923880
v 0.195090 0.000000 0.980785
v 0.195090 0.200000 0.980785
v 0.000000 0.000000 1.000000
v 0.000000 0.200000 1.000000
v -0.195090 0.000000 0.980785
v -0.195090 0.200000 0.980785
v -0.382683 0.000000 0.923880
v -0.382683 0.200000 0.923880
v -0.555570 0.000000 0.831470
v -0.555570 0.200000 0.831470
v -0.707107 0.000000 0.707107
v -0.707107 0.200000 0.707107
v -0.831470 0.000000 0.555570
v -0.831470 0.200000 0.555570
v -0.923880 0.000000 0.382683
v -0.923880 0.200000 0.382683
v -0.980785 0.000000 0.195090
v -0.980785 0.200000 0.195090
v -1.000000 0.000000 0.000000
v -1.000000 0.200000 0.000000
v -0.980785 0.000000 -0.195090
v -0.980785 0.200000 -0.195090
v -0.923880 0.000000 -0.382683
v -0.923880 0.200000 -0.382683
v -0.831470 0.000000 -0.555570
v -0.831470 0.200000 -0.555570
v -0.707107 0.000000 -0.707107
v -0.707107 0.200000 -0.707107
v -0.555570 0.000000 -0.831470
v -0.555570 0.200000 -0.831470
v -0.382683 0.000000 -0.923880
v -0.382683 0.200000 -0.923880
v -0.195090 0.000000 -0.980785
v -0.195090 0.200000 -0.980785
v -0.123607 -0.000000 0.380423
v -0.235114 -0.000000 0.323607
v -0.323607 -0.000000 0.235114
v -0.380423 -0.000000 0.123607
v -0.400000 -0.000000 0.000000
v -0.000000 -0.000000 -0.400000
v -0.380423 -0.000000 -0.123607
v -0.323607 -0.000000 -0.235114
v -0.235114 -0.000000 -0.323607
v -0.123607 -0.000000 -0.380423
v -0.000000 -0.000000 0.400000
v 0.380423 -0.000000 0.123607
v 0.323607 -0.000000 0.235114
v 0.235114 -0.000000 0.323607
v 0.123607 -0.000000 0.380423
v 0.400000 -0.000000 0.000000
v 0.123607 -0.000000 -0.380423
v 0.235114 -0.000000 -0.323607
v 0.323607 -0.000000 -0.235114
v 0.380423 -0.000000 -0.123607
v -0.380423 0.200000 0.123607
v -0.323607 0.200000 0.235114
v -0.235114 0.200000 0.323607
v -0.123607 0.200000 0.380423
v -0.400000 0.200000 0.000000
v -0.123607 0.200000 -0.380423
v -0.235114 0.200000 -0.323607
v -0.323607 0.200000 -0.235114
v -0.380423 0.200000 -0.123607
v 0.400000 0.200000 0.000000
v -0.000000 0.200000 -0.400000
v 0.380423 0.200000 -0.123607
v 0.323607 0.200000 -0.235114
v 0.235114 0.200000 -0.323607
v 0.123607 0.200000 -0.380423
v -0.000000 0.200000 0.400000
v 0.123607 0.200000 0.380423
v 0.235114 0.200000 0.323607
v 0.323607 0.200000 0.235114
v 0.380423 0.200000 0.123607
v -0.000000 0.200000 0.100000
v -0.117122 0.200000 0.117122
v -0.030902 0.200000 0.095106
v -0.058779 0.200000 0.080902
v -0.080902 0.200000 0.058779
v -0.095106 0.200000 0.030902
v -0.100000 0.200000 0.000000
v -0.117122 0.200000 -0.117122
v -0.095106 0.200000 -0.030902
v -0.080902 0.200000 -0.058779
v -0.058779 0.200000 -0.080902
v -0.030902 0.200000 -0.095106
v 0.100000 0.200000 0.000000
v 0.117122 0.200000 0.117122
v 0.095106 0.200000 0.030902
v 0.080902 0.200000 0.058779
v 0.058779 0.200000 0.080902
v 0.030902 0.200000 0.095106
v -0.000000 0.200000 -0.100000
v 0.117122 0.200000 -0.117122
v 0.030902 0.200000 -0.095106
v 0.058779 0.200000 -0.080902
v 0.080902 0.200000 -0.058779
v 0.095106 0.200000 -0.030902
v -0.100000 1.400000 0.000000
v -0.095106 1.400000 0.030902
v -0.080902 1.400000 0.058779
v -0.058779 1.400000 0.080902
v -0.030902 1.400000 0.095106
v -0.000000 1.400000 -0.100000
v -0.030902 1.400000 -0.095106
v -0.058779 1.400000 -0.080902
v -0.080902 1.400000 -0.058779
v -0.095106 1.400000 -0.030902
v 0.100000 1.400000 0.000000
v 0.095106 1.400000 -0.030902
v 0.080902 1.400000 -0.058779
v 0.058779 1.400000 -0.080902
v 0.030902 1.400000 -0.095106
v -0.000000 1.400000 0.100000
v 0.030902 1.400000 0.095106
v 0.058779 1.400000 0.080902
v 0.080902 1.400000 0.058779
v 0.095106 1.400000 0.030902
v -0.035655 1.439796 -0.049075
v -0.049075 1.439796 -0.035655
v -0.057692 1.439796 -0.018745
v 0.057691 1.439796 0.018745
v 0.049075 1.439796 0.035655
v 0.035655 1.439796 0.049075
v 0.018745 1.439796 0.057691
v -0.000000 1.439796 0.060660
v 0.057691 1.439796 -0.018745
v 0.060660 1.439796 0.000000
v 0.049075 1.439796 -0.035655
v 0.035655 1.439796 -0.049075
v 0.018745 1.439796 -0.057691
v -0.000000 1.439796 -0.060660
vn -0.0000 1.0000 -0.0000
vn 0.3248 0.6986 0.6375
vn -0.0000 -0.0000 1.0000
vn -0.0000 -0.0000 -1.0000
vn -0.4472 0.8944 -0.0000
vn 1.0000 -0.0000 -0.0000
vn -0.4472 -0.8944 -0.0000
vn -0.1564 -0.0000 0.9877
vn -0.4540 -0.0000 0.8910
vn -0.7071 -0.0000 0.7071
vn -0.8910 -0.0000 0.4540
vn -0.9877 -0.0000 0.1564
vn -0.1564 -0.0000 -0.9877
vn -0.4540 -0.0000 -0.8910
vn -0.7071 -0.0000 -0.7071
vn -0.8910 -0.0000 -0.4540
vn -0.9877 -0.0000 -0.1564
vn 0.9877 -0.0000 -0.1564
vn 0.8910 -0.0000 -0.4540
vn 0.7071 -0.0000 -0.7071
vn 0.4540 -0.0000 -0.8910
vn 0.1564 -0.0000 -0.9877
vn 0.1564 -0.0000 0.9877
vn 0.4540 -0.0000 0.8910
vn 0.7071 -0.0000 0.7071
vn 0.8910 -0.0000 0.4540
vn 0.9877 -0.0000 0.1564
vn -0.0000 -1.0000 -0.0000
vn -0.3090 -0.0000 0.9511
vn -0.5878 -0.0000 0.8090
vn -0.8090 -0.0000 0.5878
vn -0.9511 -0.0000 0.3090
vn -1.0000 -0.0000 -0.0000
vn -0.3090 -0.0000 -0.9511
vn -0.5878 -0.0000 -0.8090
vn -0.8090 -0.0000 -0.5878
vn -0.9511 -0.0000 -0.3090
vn 0.9511 -0.0000 0.3090
vn 0.8090 -0.0000 0.5878
vn 0.5878 -0.0000 0.8090
vn 0.3090 -0.0000 0.9511
vn 0.9511 -0.0000 -0.3090
vn 0.8090 -0.0000 -0.5878
vn 0.5878 -0.0000 -0.8090
vn 0.3090 -0.0000 -0.9511
vn -0.6375 0.6986 0.3248
vn 0.7067 0.6986 0.1119
vn 0.5059 0.6986 -0.5059
vn -0.1119 0.6986 0.7067
vn -0.5059 0.6986 -0.5059
vn 0.1119 0.6986 0.7067
vn -0.7067 0.6986 0.1119
vn 0.6375 0.6986 0.3248
vn 0.3248 0.6986 -0.6375
vn -0.3248 0.6986 0.6375
vn -0.6375 0.6986 -0.3248
vn 0.7067 0.6986 -0.1119
vn -0.1119 0.6986 -0.7067
vn 0.5059 0.6986 0.5059
vn 0.1119 0.6986 -0.7067
vn -0.5059 0.6986 0.5059
vn -0.7067 0.6986 -0.1119
vn 0.6375 0.6986 -0.3248
vn -0.3248 0.6986 -0.6375
vt 0.750000 0.656250
vt 0.750000 0.750000
vt 0.713399 0.661601
vt 0.781250 0.625000
vt 0.875000 0.625000
vt 0.786601 0.661601
vt 0.731632 0.654261
vt 0.740343 0.655740
vt 0.768368 0.595739
vt 0.719260 0.634657
vt 0.750000 0.593750
vt 0.750000 0.500000
vt 0.786601 0.588399
vt 0.718750 0.625000
vt 0.625000 0.625000
vt 0.713399 0.588399
vt 0.000000 0.000000
vt 1.000000 0.000000
vt 1.000000 1.000000
vt 0.868882 0.663627
vt 0.786612 0.661612
vt 0.837300 0.712300
vt 0.828755 0.703755
vt 0.812500 0.687500
vt 0.812500 0.562500
vt 0.788627 0.506118
vt 0.786612 0.588388
vt 0.837300 0.537700
vt 0.875000 0.586373
vt 0.687500 0.562500
vt 0.631118 0.586373
vt 0.713388 0.588388
vt 0.662700 0.537700
vt 0.711373 0.500000
vt 0.711373 0.743882
vt 0.713388 0.661612
vt 0.662700 0.712300
vt 0.671245 0.703755
vt 0.687500 0.687500
vt 0.625000 0.875000
vt 0.375000 0.913627
vt 0.375000 0.875000
vt 0.625000 0.913627
vt 0.375000 1.000000
vt 0.625000 0.000000
vt 0.375000 0.051527
vt 0.375000 0.000000
vt 0.625000 0.051527
vt 0.375000 0.086373
vt 0.625000 0.086373
vt 0.375000 0.125000
vt 0.375000 0.375000
vt 0.625000 0.336373
vt 0.625000 0.375000
vt 0.375000 0.336373
vt 0.625000 0.301527
vt 0.375000 0.301527
vt 0.625000 0.198473
vt 0.375000 0.198473
vt 0.625000 0.163627
vt 0.375000 0.163627
vt 0.625000 0.125000
vt 0.375000 0.625000
vt 0.625000 0.586373
vt 0.375000 0.586373
vt 0.625000 0.551527
vt 0.375000 0.551527
vt 0.625000 0.448473
vt 0.375000 0.448473
vt 0.625000 0.413627
vt 0.375000 0.413627
vt 0.625000 0.836373
vt 0.375000 0.836373
vt 0.625000 0.801527
vt 0.375000 0.801527
vt 0.625000 0.698473
vt 0.375000 0.698473
vt 0.625000 0.663627
vt 0.375000 0.663627
vt 0.323473 0.523873
vt 0.250000 0.750000
vt 0.131118 0.663627
vt 0.759657 0.656250
vt 0.768368 0.656250
vt 0.775282 0.656250
vt 0.779721 0.656250
vt 0.781250 0.656250
vt 0.781250 0.615343
vt 0.781250 0.606632
vt 0.781250 0.599718
vt 0.781250 0.595280
vt 0.781250 0.593750
vt 0.718750 0.634657
vt 0.718750 0.643368
vt 0.718750 0.650282
vt 0.718750 0.654720
vt 0.718750 0.656250
vt 0.740343 0.593750
vt 0.731632 0.593750
vt 0.724718 0.593750
vt 0.720279 0.593750
vt 0.718750 0.593750
vt 0.759657 0.655740
vt 0.768368 0.654261
vt 0.781250 0.643368
vt 0.779261 0.643368
vt 0.781250 0.634657
vt 0.780740 0.634657
vt 0.759657 0.594260
vt 0.759657 0.593750
vt 0.768368 0.593750
vt 0.779261 0.606632
vt 0.780740 0.615343
vt 0.720739 0.643368
vt 0.731632 0.656250
vt 0.740343 0.656250
vt 0.719260 0.615343
vt 0.718750 0.615343
vt 0.720739 0.606632
vt 0.718750 0.606632
vt 0.731632 0.595739
vt 0.740343 0.594260
vt 0.786612 0.661612
vt 0.713388 0.661612
vt 0.625000 1.000000
vt 0.125000 0.625000
vt 0.131118 0.586373
vt 0.148873 0.551527
vt 0.176527 0.523873
vt 0.211373 0.506118
vt 0.250000 0.500000
vt 0.288627 0.506118
vt 0.351127 0.551527
vt 0.368882 0.586373
vt 0.368882 0.663627
vt 0.351127 0.698473
vt 0.323473 0.726127
vt 0.288627 0.743882
vt 0.211373 0.743882
vt 0.176527 0.726127
vt 0.148873 0.698473
s 0
usemtl Red
f 222/7/2 231/8/2 221/8/2
s 1
f 225/9/1 232/1/1 228/10/1
s 0
f 21/17/3 22/18/3 23/19/3
f 24/17/4 26/19/4 25/18/4
f 26/19/5 21/17/5 23/19/5
f 25/18/6 23/19/6 22/18/6
f 24/17/7 22/18/7 21/17/7
s 1
f 220/1/3 183/83/29 181/1/3
f 209/103/29 184/84/30 183/83/29
f 208/104/30 185/105/31 184/84/30
f 207/106/31 186/107/32 185/105/31
f 206/108/32 187/4/33 186/107/32
f 199/11/4 211/109/34 210/11/4
f 192/110/34 212/9/35 211/109/34
f 191/111/35 213/112/36 212/9/35
f 190/89/36 214/113/37 213/112/36
f 189/88/37 205/4/33 214/113/37
f 215/14/6 195/93/38 193/14/6
f 224/10/38 196/94/39 195/93/38
f 223/114/39 197/115/40 196/94/39
f 222/7/40 198/116/41 197/115/40
f 221/8/41 181/1/3 198/116/41
f 193/14/6 216/117/42 215/14/6
f 204/118/42 217/119/43 216/117/42
f 203/120/43 218/121/44 217/119/43
f 202/99/44 219/122/45 218/121/44
f 201/98/45 210/11/4 219/122/45
s 0
f 207/106/46 17/108/46 206/108/46
f 215/14/47 228/10/47 224/10/47
f 218/121/48 235/119/48 217/119/48
f 220/1/49 20/103/49 209/103/49
f 213/112/50 225/9/50 212/9/50
f 220/1/51 231/8/51 232/1/51
f 205/4/52 17/108/52 16/4/52
f 223/114/53 228/10/53 229/114/53
f 219/122/54 236/121/54 218/121/54
f 209/103/55 19/104/55 208/104/55
f 214/113/56 226/112/56 213/112/56
f 215/14/57 233/117/57 234/14/57
f 210/11/58 15/109/58 238/11/58
f 223/114/59 230/7/59 222/7/59
f 210/11/60 237/122/60 219/122/60
f 208/104/61 18/106/61 207/106/61
f 205/4/62 227/113/62 214/113/62
f 217/119/63 233/117/63 216/117/63
f 212/9/64 15/109/64 211/109/64
f 222/7/2 230/7/2 231/8/2
s 1
f 228/10/1 234/14/1 233/117/1
f 233/117/1 235/119/1 236/121/1
f 236/121/1 237/122/1 238/11/1
f 238/11/1 15/109/1 225/9/1
f 225/9/1 226/112/1 227/113/1
f 227/113/1 16/4/1 17/108/1
f 17/108/1 18/106/1 19/104/1
f 19/104/1 20/103/1 232/1/1
f 232/1/1 231/8/1 230/7/1
f 230/7/1 229/114/1 228/10/1
f 228/10/1 233/117/1 236/121/1
f 236/121/1 238/11/1 225/9/1
f 225/9/1 227/113/1 17/108/1
f 17/108/1 19/104/1 232/1/1
f 232/1/1 230/7/1 228/10/1
f 228/10/1 236/121/1 225/9/1
f 225/9/1 17/108/1 232/1/1
s 0
f 26/19/5 24/17/5 21/17/5
f 25/18/6 26/19/6 23/19/6
f 24/17/7 25/18/7 22/18/7
s 1
f 220/1/3 209/103/29 183/83/29
f 209/103/29 208/104/30 184/84/30
f 208/104/30 207/106/31 185/105/31
f 207/106/31 206/108/32 186/107/32
f 206/108/32 205/4/33 187/4/33
f 199/11/4 192/110/34 211/109/34
f 192/110/34 191/111/35 212/9/35
f 191/111/35 190/89/36 213/112/36
f 190/89/36 189/88/37 214/113/37
f 189/88/37 187/4/33 205/4/33
f 215/14/6 224/10/38 195/93/38
f 224/10/38 223/114/39 196/94/39
f 223/114/39 222/7/40 197/115/40
f 222/7/40 221/8/41 198/116/41
f 221/8/41 220/1/3 181/1/3
f 193/14/6 204/118/42 216/117/42
f 204/118/42 203/120/43 217/119/43
f 203/120/43 202/99/44 218/121/44
f 202/99/44 201/98/45 219/122/45
f 201/98/45 199/11/4 210/11/4
s 0
f 207/106/46 18/106/46 17/108/46
f 215/14/47 234/14/47 228/10/47
f 218/121/48 236/121/48 235/119/48
f 220/1/49 232/1/49 20/103/49
f 213/112/50 226/112/50 225/9/50
f 220/1/51 221/8/51 231/8/51
f 205/4/52 206/108/52 17/108/52
f 223/114/53 224/10/53 228/10/53
f 219/122/54 237/122/54 236/121/54
f 209/103/55 20/103/55 19/104/55
f 214/113/56 227/113/56 226/112/56
f 215/14/57 216/117/57 233/117/57
f 210/11/58 211/109/58 15/109/58
f 223/114/59 229/114/59 230/7/59
f 210/11/60 238/11/60 237/122/60
f 208/104/61 19/104/61 18/106/61
f 205/4/62 16/4/62 227/113/62
f 217/119/63 235/119/63 233/117/63
f 212/9/64 225/9/64 15/109/64
usemtl Grass
f 181/1/1 176/2/1 194/3/1
f 187/4/1 165/5/1 182/6/1
f 199/11/1 171/12/1 188/13/1
f 193/14/1 170/15/1 200/16/1
f 165/5/1 161/20/1 182/21/1
f 161/20/1 162/22/1 182/21/1
f 162/22/1 163/22/1 182/21/1
f 163/22/1 164/23/1 182/21/1
f 164/23/1 176/24/1 182/21/1
f 171/25/1 166/26/1 188/27/1
f 166/26/1 167/28/1 188/27/1
f 167/28/1 168/28/1 188/27/1
f 168/28/1 169/29/1 188/27/1
f 169/29/1 165/5/1 188/27/1
f 170/30/1 172/31/1 200/32/1
f 172/31/1 173/33/1 200/32/1
f 173/33/1 174/33/1 200/32/1
f 174/33/1 175/34/1 200/32/1
f 175/34/1 171/12/1 200/32/1
f 176/2/1 177/35/1 194/36/1
f 177/35/1 178/37/1 194/36/1
f 178/37/1 179/37/1 194/36/1
f 179/37/1 180/38/1 194/36/1
f 180/38/1 170/39/1 194/36/1
f 181/1/1 183/83/1 182/6/1
f 183/83/1 184/84/1 182/6/1
f 184/84/1 185/85/1 182/6/1
f 185/85/1 186/86/1 182/6/1
f 186/86/1 187/87/1 182/6/1
f 187/4/1 189/88/1 188/13/1
f 189/88/1 190/89/1 188/13/1
f 190/89/1 191/90/1 188/13/1
f 191/90/1 192/91/1 188/13/1
f 192/91/1 199/92/1 188/13/1
f 193/14/1 195/93/1 194/3/1
f 195/93/1 196/94/1 194/3/1
f 196/94/1 197/95/1 194/3/1
f 197/95/1 198/96/1 194/3/1
f 198/96/1 181/97/1 194/3/1
f 199/11/1 201/98/1 200/16/1
f 201/98/1 202/99/1 200/16/1
f 202/99/1 203/100/1 200/16/1
f 203/100/1 204/101/1 200/16/1
f 204/101/1 193/102/1 200/16/1
f 181/1/1 182/123/1 176/2/1
f 187/4/1 188/27/1 165/5/1
f 199/11/1 200/32/1 171/12/1
f 193/14/1 194/124/1 170/15/1
usemtl Wood
f 176/40/8 141/41/8 151/42/8
f 164/43/9 142/44/9 141/41/9
f 163/45/10 143/46/10 142/47/10
f 162/48/11 144/49/11 143/46/11
f 161/50/12 145/51/12 144/49/12
f 146/52/13 166/53/13 171/54/13
f 150/55/14 167/56/14 166/53/14
f 149/57/15 168/58/15 167/56/15
f 148/59/16 169/60/16 168/58/16
f 147/61/17 165/62/17 169/60/17
f 156/63/18 172/64/18 170/15/18
f 160/65/19 173/66/19 172/64/19
f 159/67/20 174/68/20 173/66/20
f 158/69/21 175/70/21 174/68/21
f 157/71/22 171/54/22 175/70/22
f 151/42/23 177/72/23 176/40/23
f 155/73/24 178/74/24 177/72/24
f 154/75/25 179/76/25 178/74/25
f 153/77/26 180/78/26 179/76/26
f 152/79/27 170/15/27 180/78/27
f 158/80/28 151/81/28 144/82/28
f 176/40/8 164/43/8 141/41/8
f 164/43/9 163/125/9 142/44/9
f 163/45/10 162/48/10 143/46/10
f 162/48/11 161/50/11 144/49/11
f 161/50/12 165/62/12 145/51/12
f 146/52/13 150/55/13 166/53/13
f 150/55/14 149/57/14 167/56/14
f 149/57/15 148/59/15 168/58/15
f 148/59/16 147/61/16 169/60/16
f 147/61/17 145/51/17 165/62/17
f 156/63/18 160/65/18 172/64/18
f 160/65/19 159/67/19 173/66/19
f 159/67/20 158/69/20 174/68/20
f 158/69/21 157/71/21 175/70/21
f 157/71/22 146/52/22 171/54/22
f 151/42/23 155/73/23 177/72/23
f 155/73/24 154/75/24 178/74/24
f 154/75/25 153/77/25 179/76/25
f 153/77/26 152/79/26 180/78/26
f 152/79/27 156/63/27 170/15/27
f 144/82/28 145/126/28 147/127/28
f 147/127/28 148/128/28 149/129/28
f 149/129/28 150/130/28 146/131/28
f 146/131/28 157/132/28 158/80/28
f 158/80/28 159/133/28 160/134/28
f 160/134/28 156/63/28 152/135/28
f 152/135/28 153/136/28 154/137/28
f 154/137/28 155/138/28 151/81/28
f 151/81/28 141/139/28 142/140/28
f 142/140/28 143/141/28 144/82/28
f 144/82/28 147/127/28 149/129/28
f 149/129/28 146/131/28 158/80/28
f 158/80/28 160/134/28 152/135/28
f 152/135/28 154/137/28 151/81/28
f 151/81/28 142/140/28 144/82/28
f 144/82/28 149/129/28 158/80/28
f 158/80/28 152/135/28 151/81/28
