# Blender 4.2.1 LTS
# www.blender.org
mtllib RampTransitionUp.mtl
o RampTransitionUp
v 1.000000 1.000000 1.000000
v -1.000000 1.000000 1.000000
v 0.800000 1.200000 1.000000
v -0.802000 1.200000 1.000000
v 1.000000 1.600000 1.000000
v -0.802000 1.600000 1.000000
v -1.000000 1.600000 1.000000
v 0.800000 1.600000 1.000000
v -0.802000 0.200000 -3.000000
v 0.800000 0.200000 -3.000000
v 1.000000 0.000000 -3.000000
v -1.000000 0.000000 -3.000000
v 0.800000 0.600000 -3.000000
v 1.000000 0.600000 -3.000000
v -1.000000 0.600000 -3.000000
v -0.802000 0.600000 -3.000000
v 1.000000 0.000000 -2.830545
v 1.000000 0.861590 0.723181
v 1.000000 0.000919 -2.744166
v 1.000000 0.003675 -2.654293
v 1.000000 0.008262 -2.561120
v 1.000000 0.014670 -2.464843
v 1.000000 0.022886 -2.365670
v 1.000000 0.032891 -2.263812
v 1.000000 0.044664 -2.159485
v 1.000000 0.058181 -2.052914
v 1.000000 0.073413 -1.944324
v 1.000000 0.090326 -1.833949
v 1.000000 0.108886 -1.722023
v 1.000000 0.129051 -1.608785
v 1.000000 0.150780 -1.494477
v 1.000000 0.174026 -1.379343
v 1.000000 0.198740 -1.263628
v 1.000000 0.224867 -1.147580
v 1.000000 0.252354 -1.031446
v 1.000000 0.281141 -0.915475
v 1.000000 0.311166 -0.799913
v 1.000000 0.342366 -0.685006
v 1.000000 0.374674 -0.571002
v 1.000000 0.408022 -0.458141
v 1.000000 0.442337 -0.346667
v 1.000000 0.477547 -0.236815
v 1.000000 0.513576 -0.128822
v 1.000000 0.550348 -0.022917
v 1.000000 0.587784 0.080674
v 1.000000 0.625805 0.181730
v 1.000000 0.664329 0.280035
v 1.000000 0.703274 0.375379
v 1.000000 0.742556 0.467558
v 1.000000 0.782093 0.556377
v 1.000000 0.821799 0.641645
v -1.000000 0.861590 0.723181
v -1.000000 0.000000 -2.830545
v -1.000000 0.821799 0.641645
v -1.000000 0.782093 0.556377
v -1.000000 0.742556 0.467558
v -1.000000 0.703274 0.375379
v -1.000000 0.664329 0.280035
v -1.000000 0.625805 0.181730
v -1.000000 0.587784 0.080674
v -1.000000 0.550348 -0.022917
v -1.000000 0.513576 -0.128822
v -1.000000 0.477547 -0.236815
v -1.000000 0.442337 -0.346667
v -1.000000 0.408022 -0.458141
v -1.000000 0.374674 -0.571002
v -1.000000 0.342366 -0.685006
v -1.000000 0.311166 -0.799913
v -1.000000 0.281141 -0.915475
v -1.000000 0.252354 -1.031446
v -1.000000 0.224867 -1.147580
v -1.000000 0.198740 -1.263628
v -1.000000 0.174026 -1.379343
v -1.000000 0.150780 -1.494477
v -1.000000 0.129051 -1.608785
v -1.000000 0.108886 -1.722023
v -1.000000 0.090326 -1.833949
v -1.000000 0.073413 -1.944324
v -1.000000 0.058181 -2.052914
v -1.000000 0.044664 -2.159485
v -1.000000 0.032891 -2.263812
v -1.000000 0.022886 -2.365670
v -1.000000 0.014670 -2.464843
v -1.000000 0.008262 -2.561120
v -1.000000 0.003675 -2.654293
v -1.000000 0.000919 -2.744166
v 0.800000 1.061590 0.723181
v 0.800000 0.200000 -2.830545
v 0.800000 1.021799 0.641645
v 0.800000 0.982093 0.556377
v 0.800000 0.942556 0.467558
v 0.800000 0.903274 0.375379
v 0.800000 0.864329 0.280035
v 0.800000 0.825805 0.181730
v 0.800000 0.787784 0.080674
v 0.800000 0.750348 -0.022917
v 0.800000 0.713576 -0.128822
v 0.800000 0.677547 -0.236815
v 0.800000 0.642337 -0.346667
v 0.800000 0.608021 -0.458141
v 0.800000 0.574674 -0.571002
v 0.800000 0.542366 -0.685006
v 0.800000 0.511166 -0.799913
v 0.800000 0.481141 -0.915475
v 0.800000 0.452354 -1.031446
v 0.800000 0.424867 -1.147580
v 0.800000 0.398740 -1.263628
v 0.800000 0.374026 -1.379343
v 0.800000 0.350780 -1.494477
v 0.800000 0.329051 -1.608785
v 0.800000 0.308886 -1.722023
v 0.800000 0.290326 -1.833949
v 0.800000 0.273413 -1.944324
v 0.800000 0.258181 -2.052914
v 0.800000 0.244664 -2.159485
v 0.800000 0.232891 -2.263812
v 0.800000 0.222885 -2.365670
v 0.800000 0.214670 -2.464843
v 0.800000 0.208262 -2.561120
v 0.800000 0.203675 -2.654293
v 0.800000 0.200919 -2.744166
v -0.802000 0.200000 -2.830545
v -0.802000 1.061590 0.723181
v -0.802000 0.200919 -2.744166
v -0.802000 0.203675 -2.654293
v -0.802000 0.208262 -2.561120
v -0.802000 0.214670 -2.464843
v -0.802000 0.222885 -2.365670
v -0.802000 0.232891 -2.263812
v -0.802000 0.244664 -2.159485
v -0.802000 0.258181 -2.052914
v -0.802000 0.273413 -1.944324
v -0.802000 0.290326 -1.833949
v -0.802000 0.308886 -1.722023
v -0.802000 0.329051 -1.608785
v -0.802000 0.350780 -1.494477
v -0.802000 0.374026 -1.379343
v -0.802000 0.398740 -1.263628
v -0.802000 0.424867 -1.147580
v -0.802000 0.452354 -1.031446
v -0.802000 0.481141 -0.915475
v -0.802000 0.511166 -0.799913
v -0.802000 0.542366 -0.685006
v -0.802000 0.574674 -0.571002
v -0.802000 0.608021 -0.458141
v -0.802000 0.642337 -0.346667
v -0.802000 0.677547 -0.236815
v -0.802000 0.713576 -0.128822
v -0.802000 0.750348 -0.022917
v -0.802000 0.787784 0.080674
v -0.802000 0.825805 0.181730
v -0.802000 0.864329 0.280035
v -0.802000 0.903274 0.375379
v -0.802000 0.942556 0.467558
v -0.802000 0.982093 0.556377
v -0.802000 1.021799 0.641645
v 1.000000 1.461591 0.723181
v 1.000000 0.600000 -2.830545
v 1.000000 1.421799 0.641645
v 1.000000 1.382093 0.556377
v 1.000000 1.342556 0.467558
v 1.000000 1.303274 0.375379
v 1.000000 1.264329 0.280035
v 1.000000 1.225805 0.181730
v 1.000000 1.187784 0.080675
v 1.000000 1.150348 -0.022916
v 1.000000 1.113576 -0.128822
v 1.000000 1.077547 -0.236815
v 1.000000 1.042337 -0.346667
v 1.000000 1.008022 -0.458141
v 1.000000 0.974674 -0.571001
v 1.000000 0.942366 -0.685006
v 1.000000 0.911166 -0.799912
v 1.000000 0.881141 -0.915475
v 1.000000 0.852354 -1.031446
v 1.000000 0.824867 -1.147580
v 1.000000 0.798740 -1.263628
v 1.000000 0.774026 -1.379343
v 1.000000 0.750780 -1.494477
v 1.000000 0.729051 -1.608785
v 1.000000 0.708886 -1.722022
v 1.000000 0.690326 -1.833948
v 1.000000 0.673413 -1.944324
v 1.000000 0.658181 -2.052914
v 1.000000 0.644664 -2.159485
v 1.000000 0.632891 -2.263812
v 1.000000 0.622885 -2.365670
v 1.000000 0.614670 -2.464843
v 1.000000 0.608262 -2.561119
v 1.000000 0.603675 -2.654293
v 1.000000 0.600919 -2.744166
v 0.800000 0.600000 -2.830545
v 0.800000 1.461591 0.723181
v 0.800000 0.600919 -2.744166
v 0.800000 0.603675 -2.654293
v 0.800000 0.608262 -2.561119
v 0.800000 0.614670 -2.464843
v 0.800000 0.622885 -2.365670
v 0.800000 0.632891 -2.263812
v 0.800000 0.644664 -2.159485
v 0.800000 0.658181 -2.052914
v 0.800000 0.673413 -1.944324
v 0.800000 0.690326 -1.833948
v 0.800000 0.708886 -1.722022
v 0.800000 0.729051 -1.608785
v 0.800000 0.750780 -1.494477
v 0.800000 0.774026 -1.379343
v 0.800000 0.798740 -1.263628
v 0.800000 0.824867 -1.147580
v 0.800000 0.852354 -1.031446
v 0.800000 0.881141 -0.915475
v 0.800000 0.911166 -0.799912
v 0.800000 0.942366 -0.685006
v 0.800000 0.974674 -0.571001
v 0.800000 1.008022 -0.458141
v 0.800000 1.042337 -0.346667
v 0.800000 1.077547 -0.236815
v 0.800000 1.113576 -0.128822
v 0.800000 1.150348 -0.022916
v 0.800000 1.187784 0.080675
v 0.800000 1.225805 0.181730
v 0.800000 1.264329 0.280035
v 0.800000 1.303274 0.375379
v 0.800000 1.342556 0.467558
v 0.800000 1.382093 0.556377
v 0.800000 1.421799 0.641645
v -1.000000 0.600000 -2.830545
v -1.000000 1.461591 0.723181
v -1.000000 0.600919 -2.744166
v -1.000000 0.603675 -2.654293
v -1.000000 0.608262 -2.561119
v -1.000000 0.614670 -2.464843
v -1.000000 0.622885 -2.365670
v -1.000000 0.632891 -2.263812
v -1.000000 0.644664 -2.159485
v -1.000000 0.658181 -2.052914
v -1.000000 0.673413 -1.944324
v -1.000000 0.690326 -1.833948
v -1.000000 0.708886 -1.722022
v -1.000000 0.729051 -1.608785
v -1.000000 0.750780 -1.494477
v -1.000000 0.774026 -1.379343
v -1.000000 0.798740 -1.263628
v -1.000000 0.824867 -1.147580
v -1.000000 0.852354 -1.031446
v -1.000000 0.881141 -0.915475
v -1.000000 0.911166 -0.799912
v -1.000000 0.942366 -0.685006
v -1.000000 0.974674 -0.571001
v -1.000000 1.008022 -0.458141
v -1.000000 1.042337 -0.346667
v -1.000000 1.077547 -0.236815
v -1.000000 1.113576 -0.128822
v -1.000000 1.150348 -0.022916
v -1.000000 1.187784 0.080675
v -1.000000 1.225805 0.181730
v -1.000000 1.264329 0.280035
v -1.000000 1.303274 0.375379
v -1.000000 1.342556 0.467558
v -1.000000 1.382093 0.556377
v -1.000000 1.421799 0.641645
v -0.802000 1.461591 0.723181
v -0.802000 0.600000 -2.830545
v -0.802000 1.421799 0.641645
v -0.802000 1.382093 0.556377
v -0.802000 1.342556 0.467558
v -0.802000 1.303274 0.375379
v -0.802000 1.264329 0.280035
v -0.802000 1.225805 0.181730
v -0.802000 1.187784 0.080675
v -0.802000 1.150348 -0.022916
v -0.802000 1.113576 -0.128822
v -0.802000 1.077547 -0.236815
v -0.802000 1.042337 -0.346667
v -0.802000 1.008022 -0.458141
v -0.802000 0.974674 -0.571001
v -0.802000 0.942366 -0.685006
v -0.802000 0.911166 -0.799912
v -0.802000 0.881141 -0.915475
v -0.802000 0.852354 -1.031446
v -0.802000 0.824867 -1.147580
v -0.802000 0.798740 -1.263628
v -0.802000 0.774026 -1.379343
v -0.802000 0.750780 -1.494477
v -0.802000 0.729051 -1.608785
v -0.802000 0.708886 -1.722022
v -0.802000 0.690326 -1.833948
v -0.802000 0.673413 -1.944324
v -0.802000 0.658181 -2.052914
v -0.802000 0.644664 -2.159485
v -0.802000 0.632891 -2.263812
v -0.802000 0.622885 -2.365670
v -0.802000 0.614670 -2.464843
v -0.802000 0.608262 -2.561119
v -0.802000 0.603675 -2.654293
v -0.802000 0.600919 -2.744166
vn -1.0000 -0.0000 -0.0000
vn 1.0000 -0.0000 -0.0000
vn -0.0000 -0.0000 1.0000
vn -0.0000 0.8944 -0.4472
vn -0.0000 0.8966 -0.4429
vn -0.0000 1.0000 -0.0053
vn -0.0000 1.0000 -0.0000
vn -0.0000 -1.0000 -0.0000
vn -0.0000 -0.0000 -1.0000
vn -0.0000 -0.8944 0.4472
vn -0.0000 0.9026 -0.4304
vn -0.0000 0.9101 -0.4144
vn -0.0000 0.9168 -0.3994
vn -0.0000 0.9229 -0.3851
vn -0.0000 0.9284 -0.3715
vn -0.0000 0.9335 -0.3585
vn -0.0000 0.9382 -0.3460
vn -0.0000 0.9426 -0.3339
vn -0.0000 0.9467 -0.3222
vn -0.0000 0.9505 -0.3109
vn -0.0000 0.9540 -0.2997
vn -0.0000 0.9574 -0.2888
vn -0.0000 0.9606 -0.2780
vn -0.0000 0.9636 -0.2674
vn -0.0000 0.9665 -0.2568
vn -0.0000 0.9692 -0.2462
vn -0.0000 0.9718 -0.2356
vn -0.0000 0.9744 -0.2250
vn -0.0000 0.9768 -0.2143
vn -0.0000 0.9791 -0.2034
vn -0.0000 0.9813 -0.1923
vn -0.0000 0.9835 -0.1810
vn -0.0000 0.9855 -0.1695
vn -0.0000 0.9875 -0.1575
vn -0.0000 0.9894 -0.1452
vn -0.0000 0.9912 -0.1324
vn -0.0000 0.9929 -0.1190
vn -0.0000 0.9945 -0.1050
vn -0.0000 0.9959 -0.0902
vn -0.0000 0.9972 -0.0745
vn -0.0000 0.9983 -0.0578
vn -0.0000 0.9992 -0.0399
vn -0.0000 0.9998 -0.0206
vn -0.0000 -0.8987 0.4386
vn -0.0000 -0.9065 0.4221
vn -0.0000 -0.9136 0.4067
vn -0.0000 -0.9199 0.3920
vn -0.0000 -0.9257 0.3781
vn -0.0000 -0.9311 0.3649
vn -0.0000 -0.9359 0.3521
vn -0.0000 -0.9405 0.3399
vn -0.0000 -0.9447 0.3280
vn -0.0000 -0.9486 0.3165
vn -0.0000 -0.9523 0.3052
vn -0.0000 -0.9557 0.2942
vn -0.0000 -0.9590 0.2834
vn -0.0000 -0.9621 0.2727
vn -0.0000 -0.9651 0.2620
vn -0.0000 -0.9679 0.2515
vn -0.0000 -0.9705 0.2409
vn -0.0000 -0.9731 0.2303
vn -0.0000 -0.9756 0.2196
vn -0.0000 -0.9779 0.2089
vn -0.0000 -0.9802 0.1979
vn -0.0000 -0.9824 0.1867
vn -0.0000 -0.9845 0.1753
vn -0.0000 -0.9865 0.1636
vn -0.0000 -0.9885 0.1515
vn -0.0000 -0.9903 0.1389
vn -0.0000 -0.9921 0.1258
vn -0.0000 -0.9937 0.1121
vn -0.0000 -0.9952 0.0978
vn -0.0000 -0.9966 0.0826
vn -0.0000 -0.9978 0.0664
vn -0.0000 -0.9988 0.0492
vn -0.0000 -0.9995 0.0307
vn -0.0000 -0.9999 0.0106
vt 0.000000 0.000000
vt 1.000000 0.000000
vt 1.000000 1.000000
vt 0.000000 1.000000
s 0
usemtl Wood
f 53/1/1 227/2/1 15/3/1 12/4/1
f 158/1/2 17/2/2 11/3/2 14/4/2
f 7/1/3 2/2/3 4/3/3 6/4/3
f 88/1/1 192/2/1 13/3/1 10/4/1
s 1
f 6/1/4 262/2/5 228/3/5 7/4/4
f 192/1/6 158/2/6 14/3/7 13/4/7
s 0
f 6/1/2 4/2/2 123/3/2 262/4/2
f 52/1/1 2/2/1 7/3/1 228/4/1
f 17/1/8 53/2/8 12/3/8 11/4/8
f 15/1/9 16/2/9 9/3/9 12/4/9
f 5/1/3 8/2/3 3/3/3 1/4/3
f 3/1/1 8/2/1 193/3/1 87/4/1
f 1/1/2 18/2/2 157/3/2 5/4/2
f 18/1/10 1/2/10 2/3/10 52/4/10
s 1
f 227/1/6 263/2/6 16/3/7 15/4/7
s 0
f 263/1/2 122/2/2 9/3/2 16/4/2
f 1/1/3 3/2/3 4/3/3 2/4/3
f 14/1/9 11/2/9 10/3/9 13/4/9
f 18/1/44 52/2/44 54/3/44 51/4/44
f 51/1/45 54/2/45 55/3/45 50/4/45
f 50/1/46 55/2/46 56/3/46 49/4/46
f 49/1/47 56/2/47 57/3/47 48/4/47
f 48/1/48 57/2/48 58/3/48 47/4/48
f 47/1/49 58/2/49 59/3/49 46/4/49
f 46/1/50 59/2/50 60/3/50 45/4/50
f 45/1/51 60/2/51 61/3/51 44/4/51
f 44/1/52 61/2/52 62/3/52 43/4/52
f 43/1/53 62/2/53 63/3/53 42/4/53
f 42/1/54 63/2/54 64/3/54 41/4/54
f 41/1/55 64/2/55 65/3/55 40/4/55
f 40/1/56 65/2/56 66/3/56 39/4/56
f 39/1/57 66/2/57 67/3/57 38/4/57
f 38/1/58 67/2/58 68/3/58 37/4/58
f 37/1/59 68/2/59 69/3/59 36/4/59
f 36/1/60 69/2/60 70/3/60 35/4/60
f 35/1/61 70/2/61 71/3/61 34/4/61
f 34/1/62 71/2/62 72/3/62 33/4/62
f 33/1/63 72/2/63 73/3/63 32/4/63
f 32/1/64 73/2/64 74/3/64 31/4/64
f 31/1/65 74/2/65 75/3/65 30/4/65
f 30/1/66 75/2/66 76/3/66 29/4/66
f 29/1/67 76/2/67 77/3/67 28/4/67
f 28/1/68 77/2/68 78/3/68 27/4/68
f 27/1/69 78/2/69 79/3/69 26/4/69
f 26/1/70 79/2/70 80/3/70 25/4/70
f 25/1/71 80/2/71 81/3/71 24/4/71
f 24/1/72 81/2/72 82/3/72 23/4/72
f 23/1/73 82/2/73 83/3/73 22/4/73
f 22/1/74 83/2/74 84/3/74 21/4/74
f 21/1/75 84/2/75 85/3/75 20/4/75
f 20/1/76 85/2/76 86/3/76 19/4/76
f 19/1/77 86/2/77 53/3/77 17/4/77
s 1
f 193/1/5 157/2/5 159/3/11 226/4/11
f 226/1/11 159/2/11 160/3/12 225/4/12
f 225/1/12 160/2/12 161/3/13 224/4/13
f 224/1/13 161/2/13 162/3/14 223/4/14
f 223/1/14 162/2/14 163/3/15 222/4/15
f 222/1/15 163/2/15 164/3/16 221/4/16
f 221/1/16 164/2/16 165/3/17 220/4/17
f 220/1/17 165/2/17 166/3/18 219/4/18
f 219/1/18 166/2/18 167/3/19 218/4/19
f 218/1/19 167/2/19 168/3/20 217/4/20
f 217/1/20 168/2/20 169/3/21 216/4/21
f 216/1/21 169/2/21 170/3/22 215/4/22
f 215/1/22 170/2/22 171/3/23 214/4/23
f 214/1/23 171/2/23 172/3/24 213/4/24
f 213/1/24 172/2/24 173/3/25 212/4/25
f 212/1/25 173/2/25 174/3/26 211/4/26
f 211/1/26 174/2/26 175/3/27 210/4/27
f 210/1/27 175/2/27 176/3/28 209/4/28
f 209/1/28 176/2/28 177/3/29 208/4/29
f 208/1/29 177/2/29 178/3/30 207/4/30
f 207/1/30 178/2/30 179/3/31 206/4/31
f 206/1/31 179/2/31 180/3/32 205/4/32
f 205/1/32 180/2/32 181/3/33 204/4/33
f 204/1/33 181/2/33 182/3/34 203/4/34
f 203/1/34 182/2/34 183/3/35 202/4/35
f 202/1/35 183/2/35 184/3/36 201/4/36
f 201/1/36 184/2/36 185/3/37 200/4/37
f 200/1/37 185/2/37 186/3/38 199/4/38
f 199/1/38 186/2/38 187/3/39 198/4/39
f 198/1/39 187/2/39 188/3/40 197/4/40
f 197/1/40 188/2/40 189/3/41 196/4/41
f 196/1/41 189/2/41 190/3/42 195/4/42
f 195/1/42 190/2/42 191/3/43 194/4/43
f 194/1/43 191/2/43 158/3/6 192/4/6
f 228/1/5 262/2/5 264/3/11 261/4/11
f 261/1/11 264/2/11 265/3/12 260/4/12
f 260/1/12 265/2/12 266/3/13 259/4/13
f 259/1/13 266/2/13 267/3/14 258/4/14
f 258/1/14 267/2/14 268/3/15 257/4/15
f 257/1/15 268/2/15 269/3/16 256/4/16
f 256/1/16 269/2/16 270/3/17 255/4/17
f 255/1/17 270/2/17 271/3/18 254/4/18
f 254/1/18 271/2/18 272/3/19 253/4/19
f 253/1/19 272/2/19 273/3/20 252/4/20
f 252/1/20 273/2/20 274/3/21 251/4/21
f 251/1/21 274/2/21 275/3/22 250/4/22
f 250/1/22 275/2/22 276/3/23 249/4/23
f 249/1/23 276/2/23 277/3/24 248/4/24
f 248/1/24 277/2/24 278/3/25 247/4/25
f 247/1/25 278/2/25 279/3/26 246/4/26
f 246/1/26 279/2/26 280/3/27 245/4/27
f 245/1/27 280/2/27 281/3/28 244/4/28
f 244/1/28 281/2/28 282/3/29 243/4/29
f 243/1/29 282/2/29 283/3/30 242/4/30
f 242/1/30 283/2/30 284/3/31 241/4/31
f 241/1/31 284/2/31 285/3/32 240/4/32
f 240/1/32 285/2/32 286/3/33 239/4/33
f 239/1/33 286/2/33 287/3/34 238/4/34
f 238/1/34 287/2/34 288/3/35 237/4/35
f 237/1/35 288/2/35 289/3/36 236/4/36
f 236/1/36 289/2/36 290/3/37 235/4/37
f 235/1/37 290/2/37 291/3/38 234/4/38
f 234/1/38 291/2/38 292/3/39 233/4/39
f 233/1/39 292/2/39 293/3/40 232/4/40
f 232/1/40 293/2/40 294/3/41 231/4/41
f 231/1/41 294/2/41 295/3/42 230/4/42
f 230/1/42 295/2/42 296/3/43 229/4/43
f 229/1/43 296/2/43 263/3/6 227/4/6
s 0
f 192/1/1 88/2/1 121/3/1 194/4/1
f 194/1/1 121/2/1 120/3/1 195/4/1
f 195/1/1 120/2/1 119/3/1 196/4/1
f 196/1/1 119/2/1 118/3/1 197/4/1
f 197/1/1 118/2/1 117/3/1 198/4/1
f 198/1/1 117/2/1 116/3/1 199/4/1
f 199/1/1 116/2/1 115/3/1 200/4/1
f 200/1/1 115/2/1 114/3/1 201/4/1
f 201/1/1 114/2/1 113/3/1 202/4/1
f 202/1/1 113/2/1 112/3/1 203/4/1
f 203/1/1 112/2/1 111/3/1 204/4/1
f 204/1/1 111/2/1 110/3/1 205/4/1
f 205/1/1 110/2/1 109/3/1 206/4/1
f 206/1/1 109/2/1 108/3/1 207/4/1
f 207/1/1 108/2/1 107/3/1 208/4/1
f 208/1/1 107/2/1 106/3/1 209/4/1
f 209/1/1 106/2/1 105/3/1 210/4/1
f 210/1/1 105/2/1 104/3/1 211/4/1
f 211/1/1 104/2/1 103/3/1 212/4/1
f 212/1/1 103/2/1 102/3/1 213/4/1
f 213/1/1 102/2/1 101/3/1 214/4/1
f 214/1/1 101/2/1 100/3/1 215/4/1
f 215/1/1 100/2/1 99/3/1 216/4/1
f 216/1/1 99/2/1 98/3/1 217/4/1
f 217/1/1 98/2/1 97/3/1 218/4/1
f 218/1/1 97/2/1 96/3/1 219/4/1
f 219/1/1 96/2/1 95/3/1 220/4/1
f 220/1/1 95/2/1 94/3/1 221/4/1
f 221/1/1 94/2/1 93/3/1 222/4/1
f 222/1/1 93/2/1 92/3/1 223/4/1
f 223/1/1 92/2/1 91/3/1 224/4/1
f 224/1/1 91/2/1 90/3/1 225/4/1
f 225/1/1 90/2/1 89/3/1 226/4/1
f 226/1/1 89/2/1 87/3/1 193/4/1
f 17/1/2 158/2/2 191/3/2 19/4/2
f 19/1/2 191/2/2 190/3/2 20/4/2
f 20/1/2 190/2/2 189/3/2 21/4/2
f 21/1/2 189/2/2 188/3/2 22/4/2
f 22/1/2 188/2/2 187/3/2 23/4/2
f 23/1/2 187/2/2 186/3/2 24/4/2
f 24/1/2 186/2/2 185/3/2 25/4/2
f 25/1/2 185/2/2 184/3/2 26/4/2
f 26/1/2 184/2/2 183/3/2 27/4/2
f 27/1/2 183/2/2 182/3/2 28/4/2
f 28/1/2 182/2/2 181/3/2 29/4/2
f 29/1/2 181/2/2 180/3/2 30/4/2
f 30/1/2 180/2/2 179/3/2 31/4/2
f 31/1/2 179/2/2 178/3/2 32/4/2
f 32/1/2 178/2/2 177/3/2 33/4/2
f 33/1/2 177/2/2 176/3/2 34/4/2
f 34/1/2 176/2/2 175/3/2 35/4/2
f 35/1/2 175/2/2 174/3/2 36/4/2
f 36/1/2 174/2/2 173/3/2 37/4/2
f 37/1/2 173/2/2 172/3/2 38/4/2
f 38/1/2 172/2/2 171/3/2 39/4/2
f 39/1/2 171/2/2 170/3/2 40/4/2
f 40/1/2 170/2/2 169/3/2 41/4/2
f 41/1/2 169/2/2 168/3/2 42/4/2
f 42/1/2 168/2/2 167/3/2 43/4/2
f 43/1/2 167/2/2 166/3/2 44/4/2
f 44/1/2 166/2/2 165/3/2 45/4/2
f 45/1/2 165/2/2 164/3/2 46/4/2
f 46/1/2 164/2/2 163/3/2 47/4/2
f 47/1/2 163/2/2 162/3/2 48/4/2
f 48/1/2 162/2/2 161/3/2 49/4/2
f 49/1/2 161/2/2 160/3/2 50/4/2
f 50/1/2 160/2/2 159/3/2 51/4/2
f 51/1/2 159/2/2 157/3/2 18/4/2
f 122/1/2 263/2/2 296/3/2 124/4/2
f 124/1/2 296/2/2 295/3/2 125/4/2
f 125/1/2 295/2/2 294/3/2 126/4/2
f 126/1/2 294/2/2 293/3/2 127/4/2
f 127/1/2 293/2/2 292/3/2 128/4/2
f 128/1/2 292/2/2 291/3/2 129/4/2
f 129/1/2 291/2/2 290/3/2 130/4/2
f 130/1/2 290/2/2 289/3/2 131/4/2
f 131/1/2 289/2/2 288/3/2 132/4/2
f 132/1/2 288/2/2 287/3/2 133/4/2
f 133/1/2 287/2/2 286/3/2 134/4/2
f 134/1/2 286/2/2 285/3/2 135/4/2
f 135/1/2 285/2/2 284/3/2 136/4/2
f 136/1/2 284/2/2 283/3/2 137/4/2
f 137/1/2 283/2/2 282/3/2 138/4/2
f 138/1/2 282/2/2 281/3/2 139/4/2
f 139/1/2 281/2/2 280/3/2 140/4/2
f 140/1/2 280/2/2 279/3/2 141/4/2
f 141/1/2 279/2/2 278/3/2 142/4/2
f 142/1/2 278/2/2 277/3/2 143/4/2
f 143/1/2 277/2/2 276/3/2 144/4/2
f 144/1/2 276/2/2 275/3/2 145/4/2
f 145/1/2 275/2/2 274/3/2 146/4/2
f 146/1/2 274/2/2 273/3/2 147/4/2
f 147/1/2 273/2/2 272/3/2 148/4/2
f 148/1/2 272/2/2 271/3/2 149/4/2
f 149/1/2 271/2/2 270/3/2 150/4/2
f 150/1/2 270/2/2 269/3/2 151/4/2
f 151/1/2 269/2/2 268/3/2 152/4/2
f 152/1/2 268/2/2 267/3/2 153/4/2
f 153/1/2 267/2/2 266/3/2 154/4/2
f 154/1/2 266/2/2 265/3/2 155/4/2
f 155/1/2 265/2/2 264/3/2 156/4/2
f 156/1/2 264/2/2 262/3/2 123/4/2
f 52/1/1 228/2/1 261/3/1 54/4/1
f 54/1/1 261/2/1 260/3/1 55/4/1
f 55/1/1 260/2/1 259/3/1 56/4/1
f 56/1/1 259/2/1 258/3/1 57/4/1
f 57/1/1 258/2/1 257/3/1 58/4/1
f 58/1/1 257/2/1 256/3/1 59/4/1
f 59/1/1 256/2/1 255/3/1 60/4/1
f 60/1/1 255/2/1 254/3/1 61/4/1
f 61/1/1 254/2/1 253/3/1 62/4/1
f 62/1/1 253/2/1 252/3/1 63/4/1
f 63/1/1 252/2/1 251/3/1 64/4/1
f 64/1/1 251/2/1 250/3/1 65/4/1
f 65/1/1 250/2/1 249/3/1 66/4/1
f 66/1/1 249/2/1 248/3/1 67/4/1
f 67/1/1 248/2/1 247/3/1 68/4/1
f 68/1/1 247/2/1 246/3/1 69/4/1
f 69/1/1 246/2/1 245/3/1 70/4/1
f 70/1/1 245/2/1 244/3/1 71/4/1
f 71/1/1 244/2/1 243/3/1 72/4/1
f 72/1/1 243/2/1 242/3/1 73/4/1
f 73/1/1 242/2/1 241/3/1 74/4/1
f 74/1/1 241/2/1 240/3/1 75/4/1
f 75/1/1 240/2/1 239/3/1 76/4/1
f 76/1/1 239/2/1 238/3/1 77/4/1
f 77/1/1 238/2/1 237/3/1 78/4/1
f 78/1/1 237/2/1 236/3/1 79/4/1
f 79/1/1 236/2/1 235/3/1 80/4/1
f 80/1/1 235/2/1 234/3/1 81/4/1
f 81/1/1 234/2/1 233/3/1 82/4/1
f 82/1/1 233/2/1 232/3/1 83/4/1
f 83/1/1 232/2/1 231/3/1 84/4/1
f 84/1/1 231/2/1 230/3/1 85/4/1
f 85/1/1 230/2/1 229/3/1 86/4/1
f 86/1/1 229/2/1 227/3/1 53/4/1
s 1
f 5/1/4 157/2/5 193/3/5 8/4/4
s 0
f 12/1/9 9/2/9 10/3/9 11/4/9
s 1
usemtl Grass
f 122/1/6 88/2/6 10/3/7 9/4/7
f 123/1/5 4/2/4 3/3/4 87/4/5
f 123/1/5 87/2/5 89/3/11 156/4/11
f 156/1/11 89/2/11 90/3/12 155/4/12
f 155/1/12 90/2/12 91/3/13 154/4/13
f 154/1/13 91/2/13 92/3/14 153/4/14
f 153/1/14 92/2/14 93/3/15 152/4/15
f 152/1/15 93/2/15 94/3/16 151/4/16
f 151/1/16 94/2/16 95/3/17 150/4/17
f 150/1/17 95/2/17 96/3/18 149/4/18
f 149/1/18 96/2/18 97/3/19 148/4/19
f 148/1/19 97/2/19 98/3/20 147/4/20
f 147/1/20 98/2/20 99/3/21 146/4/21
f 146/1/21 99/2/21 100/3/22 145/4/22
f 145/1/22 100/2/22 101/3/23 144/4/23
f 144/1/23 101/2/23 102/3/24 143/4/24
f 143/1/24 102/2/24 103/3/25 142/4/25
f 142/1/25 103/2/25 104/3/26 141/4/26
f 141/1/26 104/2/26 105/3/27 140/4/27
f 140/1/27 105/2/27 106/3/28 139/4/28
f 139/1/28 106/2/28 107/3/29 138/4/29
f 138/1/29 107/2/29 108/3/30 137/4/30
f 137/1/30 108/2/30 109/3/31 136/4/31
f 136/1/31 109/2/31 110/3/32 135/4/32
f 135/1/32 110/2/32 111/3/33 134/4/33
f 134/1/33 111/2/33 112/3/34 133/4/34
f 133/1/34 112/2/34 113/3/35 132/4/35
f 132/1/35 113/2/35 114/3/36 131/4/36
f 131/1/36 114/2/36 115/3/37 130/4/37
f 130/1/37 115/2/37 116/3/38 129/4/38
f 129/1/38 116/2/38 117/3/39 128/4/39
f 128/1/39 117/2/39 118/3/40 127/4/40
f 127/1/40 118/2/40 119/3/41 126/4/41
f 126/1/41 119/2/41 120/3/42 125/4/42
f 125/1/42 120/2/42 121/3/43 124/4/43
f 124/1/43 121/2/43 88/3/6 122/4/6
