# Blender 4.1.1
# www.blender.org
o RampTransitionDown
v 1.000000 0.000000 -1.000000
v -1.000000 0.000000 -1.000000
v 0.800000 0.200000 -1.000000
v -0.802000 0.200000 -1.000000
v 1.000000 0.600000 -1.000000
v 0.800000 0.600000 -1.000000
v -1.000000 0.600000 -1.000000
v -0.802000 0.600000 -1.000000
v 0.800000 1.200000 3.000000
v -0.802000 1.200000 3.000000
v -1.000000 1.000000 3.000000
v 1.000000 1.000000 3.000000
v -0.802000 1.600000 3.000000
v -1.000000 1.600000 3.000000
v 1.000000 1.600000 3.000000
v 0.800000 1.600000 3.000000
v 1.000000 0.110741 -0.778519
v 1.000000 1.000000 2.889331
v 1.000000 0.171426 -0.652744
v 1.000000 0.231828 -0.518747
v 1.000000 0.291666 -0.377151
v 1.000000 0.350660 -0.228619
v 1.000000 0.408535 -0.073841
v 1.000000 0.465022 0.086460
v 1.000000 0.519858 0.251537
v 1.000000 0.572785 0.420621
v 1.000000 0.623559 0.592922
v 1.000000 0.671941 0.767638
v 1.000000 0.717707 0.943955
v 1.000000 0.760643 1.121049
v 1.000000 0.800549 1.298095
v 1.000000 0.837239 1.474268
v 1.000000 0.870541 1.648747
v 1.000000 0.900301 1.820718
v 1.000000 0.926379 1.989378
v 1.000000 0.948655 2.153942
v 1.000000 0.967024 2.313643
v 1.000000 0.981400 2.467736
v 1.000000 0.991717 2.615502
v 1.000000 0.997927 2.756252
v -1.000000 1.000000 2.889331
v -1.000000 0.110741 -0.778519
v -1.000000 0.997927 2.756252
v -1.000000 0.991717 2.615502
v -1.000000 0.981400 2.467736
v -1.000000 0.967024 2.313643
v -1.000000 0.948655 2.153942
v -1.000000 0.926379 1.989378
v -1.000000 0.900301 1.820718
v -1.000000 0.870541 1.648747
v -1.000000 0.837239 1.474268
v -1.000000 0.800549 1.298095
v -1.000000 0.760643 1.121049
v -1.000000 0.717707 0.943955
v -1.000000 0.671941 0.767638
v -1.000000 0.623559 0.592922
v -1.000000 0.572785 0.420621
v -1.000000 0.519858 0.251537
v -1.000000 0.465022 0.086460
v -1.000000 0.408535 -0.073841
v -1.000000 0.350660 -0.228619
v -1.000000 0.291666 -0.377151
v -1.000000 0.231828 -0.518747
v -1.000000 0.171426 -0.652744
v 0.800000 1.200000 2.889331
v 0.800000 0.310741 -0.778519
v 0.800000 1.197927 2.756252
v 0.800000 1.191717 2.615502
v 0.800000 1.181400 2.467736
v 0.800000 1.167024 2.313643
v 0.800000 1.148655 2.153942
v 0.800000 1.126379 1.989378
v 0.800000 1.100301 1.820718
v 0.800000 1.070541 1.648747
v 0.800000 1.037239 1.474268
v 0.800000 1.000549 1.298095
v 0.800000 0.960643 1.121049
v 0.800000 0.917707 0.943955
v 0.800000 0.871942 0.767638
v 0.800000 0.823559 0.592922
v 0.800000 0.772786 0.420621
v 0.800000 0.719858 0.251537
v 0.800000 0.665022 0.086460
v 0.800000 0.608535 -0.073841
v 0.800000 0.550660 -0.228619
v 0.800000 0.491666 -0.377151
v 0.800000 0.431828 -0.518747
v 0.800000 0.371426 -0.652744
v -0.802000 0.310741 -0.778519
v -0.802000 1.200000 2.889331
v -0.802000 0.371426 -0.652744
v -0.802000 0.431828 -0.518747
v -0.802000 0.491666 -0.377151
v -0.802000 0.550660 -0.228619
v -0.802000 0.608535 -0.073841
v -0.802000 0.665022 0.086460
v -0.802000 0.719858 0.251537
v -0.802000 0.772786 0.420621
v -0.802000 0.823559 0.592922
v -0.802000 0.871942 0.767638
v -0.802000 0.917707 0.943955
v -0.802000 0.960643 1.121049
v -0.802000 1.000549 1.298095
v -0.802000 1.037239 1.474268
v -0.802000 1.070541 1.648747
v -0.802000 1.100301 1.820718
v -0.802000 1.126379 1.989378
v -0.802000 1.148655 2.153942
v -0.802000 1.167024 2.313643
v -0.802000 1.181400 2.467736
v -0.802000 1.191717 2.615502
v -0.802000 1.197927 2.756252
v 1.000000 1.600000 2.889331
v 1.000000 0.710741 -0.778519
v 1.000000 1.597927 2.756252
v 1.000000 1.591717 2.615502
v 1.000000 1.581400 2.467736
v 1.000000 1.567024 2.313643
v 1.000000 1.548655 2.153943
v 1.000000 1.526379 1.989378
v 1.000000 1.500301 1.820718
v 1.000000 1.470541 1.648747
v 1.000000 1.437239 1.474268
v 1.000000 1.400549 1.298095
v 1.000000 1.360643 1.121049
v 1.000000 1.317708 0.943955
v 1.000000 1.271942 0.767639
v 1.000000 1.223559 0.592922
v 1.000000 1.172786 0.420621
v 1.000000 1.119858 0.251538
v 1.000000 1.065023 0.086460
v 1.000000 1.008536 -0.073841
v 1.000000 0.950660 -0.228619
v 1.000000 0.891666 -0.377151
v 1.000000 0.831828 -0.518746
v 1.000000 0.771426 -0.652744
v -0.802000 1.600000 2.889331
v -0.802000 0.710741 -0.778519
v -0.802000 1.597927 2.756252
v -0.802000 1.591717 2.615502
v -0.802000 1.581400 2.467736
v -0.802000 1.567024 2.313643
v -0.802000 1.548655 2.153943
v -0.802000 1.526379 1.989378
v -0.802000 1.500301 1.820718
v -0.802000 1.470541 1.648747
v -0.802000 1.437239 1.474268
v -0.802000 1.400549 1.298095
v -0.802000 1.360643 1.121049
v -0.802000 1.317708 0.943955
v -0.802000 1.271942 0.767639
v -0.802000 1.223559 0.592922
v -0.802000 1.172786 0.420621
v -0.802000 1.119858 0.251538
v -0.802000 1.065023 0.086460
v -0.802000 1.008536 -0.073841
v -0.802000 0.950660 -0.228619
v -0.802000 0.891666 -0.377151
v -0.802000 0.831828 -0.518746
v -0.802000 0.771426 -0.652744
v -1.000000 0.710741 -0.778519
v -1.000000 1.600000 2.889331
v -1.000000 0.771426 -0.652744
v -1.000000 0.831828 -0.518746
v -1.000000 0.891666 -0.377151
v -1.000000 0.950660 -0.228619
v -1.000000 1.008536 -0.073841
v -1.000000 1.065023 0.086460
v -1.000000 1.119858 0.251538
v -1.000000 1.172786 0.420621
v -1.000000 1.223559 0.592922
v -1.000000 1.271942 0.767639
v -1.000000 1.317708 0.943955
v -1.000000 1.360643 1.121049
v -1.000000 1.400549 1.298095
v -1.000000 1.437239 1.474268
v -1.000000 1.470541 1.648747
v -1.000000 1.500301 1.820718
v -1.000000 1.526379 1.989378
v -1.000000 1.548655 2.153943
v -1.000000 1.567024 2.313643
v -1.000000 1.581400 2.467736
v -1.000000 1.591717 2.615502
v -1.000000 1.597927 2.756252
v 0.800000 0.710741 -0.778519
v 0.800000 1.600000 2.889331
v 0.800000 0.771426 -0.652744
v 0.800000 0.831828 -0.518746
v 0.800000 0.891666 -0.377151
v 0.800000 0.950660 -0.228619
v 0.800000 1.008536 -0.073841
v 0.800000 1.065023 0.086460
v 0.800000 1.119858 0.251538
v 0.800000 1.172786 0.420621
v 0.800000 1.223559 0.592922
v 0.800000 1.271942 0.767639
v 0.800000 1.317708 0.943955
v 0.800000 1.360643 1.121049
v 0.800000 1.400549 1.298095
v 0.800000 1.437239 1.474268
v 0.800000 1.470541 1.648747
v 0.800000 1.500301 1.820718
v 0.800000 1.526379 1.989378
v 0.800000 1.548655 2.153943
v 0.800000 1.567024 2.313643
v 0.800000 1.581400 2.467736
v 0.800000 1.591717 2.615502
v 0.800000 1.597927 2.756252
vn -1.0000 -0.0000 -0.0000
vn 1.0000 -0.0000 -0.0000
vn -0.0000 0.8944 -0.4472
vn -0.0000 -0.8944 0.4472
vn -0.0000 1.0000 -0.0000
vn -0.0000 -0.0000 -1.0000
vn -0.0000 -1.0000 -0.0000
vn -0.0000 -0.0000 1.0000
vn -0.0000 0.9006 -0.4346
vn -0.0000 0.9117 -0.4110
vn -0.0000 0.9211 -0.3893
vn -0.0000 0.9294 -0.3691
vn -0.0000 0.9367 -0.3502
vn -0.0000 0.9432 -0.3324
vn -0.0000 0.9490 -0.3152
vn -0.0000 0.9543 -0.2987
vn -0.0000 0.9592 -0.2827
vn -0.0000 0.9637 -0.2669
vn -0.0000 0.9679 -0.2512
vn -0.0000 0.9718 -0.2356
vn -0.0000 0.9755 -0.2199
vn -0.0000 0.9790 -0.2039
vn -0.0000 0.9823 -0.1875
vn -0.0000 0.9854 -0.1705
vn -0.0000 0.9883 -0.1528
vn -0.0000 0.9910 -0.1341
vn -0.0000 0.9934 -0.1143
vn -0.0000 0.9957 -0.0929
vn -0.0000 0.9976 -0.0697
vn -0.0000 0.9990 -0.0441
vn -0.0000 0.9999 -0.0156
vn -0.0000 -0.9006 0.4346
vn -0.0000 -0.9117 0.4109
vn -0.0000 -0.9211 0.3893
vn -0.0000 -0.9294 0.3691
vn -0.0000 -0.9367 0.3502
vn -0.0000 -0.9432 0.3324
vn -0.0000 -0.9490 0.3152
vn -0.0000 -0.9543 0.2987
vn -0.0000 -0.9592 0.2827
vn -0.0000 -0.9637 0.2669
vn -0.0000 -0.9679 0.2512
vn -0.0000 -0.9718 0.2356
vn -0.0000 -0.9755 0.2199
vn -0.0000 -0.9790 0.2039
vn -0.0000 -0.9823 0.1875
vn -0.0000 -0.9854 0.1705
vn -0.0000 -0.9883 0.1528
vn -0.0000 -0.9910 0.1341
vn -0.0000 -0.9935 0.1143
vn -0.0000 -0.9957 0.0929
vn -0.0000 -0.9976 0.0697
vn -0.0000 -0.9990 0.0441
vn -0.0000 -0.9999 0.0156
vn -0.0000 0.9935 -0.1143
vn -0.0000 0.9117 -0.4109
vt 1.000000 0.000000
vt 0.000000 1.000000
vt 0.000000 0.000000
vt 1.000000 1.000000
s 0
f 41/1/1 14/2/1 162/3/1
f 17/3/2 5/4/2 114/2/2
f 3/1/3 89/2/3 66/3/3
f 17/1/4 2/2/4 1/3/4
f 90/1/5 9/2/5 65/3/5
f 186/1/5 15/2/5 113/3/5
f 137/1/2 10/2/2 90/3/2
f 7/1/1 42/2/1 161/3/1
f 113/1/2 12/2/2 18/3/2
f 8/1/2 89/2/2 4/3/2
f 66/3/1 6/4/1 3/2/1
f 5/1/3 185/2/3 114/3/3
f 65/1/1 16/2/1 186/3/1
f 2/3/6 3/4/6 1/2/6
f 5/3/6 3/4/6 6/2/6
f 162/1/5 13/2/5 137/3/5
f 18/1/7 11/2/7 41/3/7
f 15/3/8 9/4/8 12/2/8
f 14/3/8 10/4/8 13/2/8
f 7/3/6 4/4/6 2/2/6
f 89/1/9 88/2/9 66/3/9
f 91/1/10 87/2/10 88/3/10
f 92/1/11 86/2/11 87/3/11
f 93/1/12 85/2/12 86/3/12
f 94/1/13 84/2/13 85/3/13
f 95/1/14 83/2/14 84/3/14
f 96/1/15 82/2/15 83/3/15
f 97/1/16 81/2/16 82/3/16
f 98/1/17 80/2/17 81/3/17
f 99/1/18 79/2/18 80/3/18
f 100/1/19 78/2/19 79/3/19
f 101/1/20 77/2/20 78/3/20
f 102/1/21 76/2/21 77/3/21
f 103/1/22 75/2/22 76/3/22
f 104/1/23 74/2/23 75/3/23
f 105/1/24 73/2/24 74/3/24
f 106/1/25 72/2/25 73/3/25
f 107/1/26 71/2/26 72/3/26
f 108/1/27 70/2/27 71/3/27
f 109/1/28 69/2/28 70/3/28
f 110/1/29 68/2/29 69/3/29
f 111/1/30 67/2/30 68/3/30
f 112/1/31 65/2/31 67/3/31
f 17/1/32 64/2/32 42/3/32
f 19/1/33 63/2/33 64/3/33
f 20/1/34 62/2/34 63/3/34
f 21/1/35 61/2/35 62/3/35
f 22/1/36 60/2/36 61/3/36
f 23/1/37 59/2/37 60/3/37
f 24/1/38 58/2/38 59/3/38
f 25/1/39 57/2/39 58/3/39
f 26/1/40 56/2/40 57/3/40
f 27/1/41 55/2/41 56/3/41
f 28/1/42 54/2/42 55/3/42
f 29/1/43 53/2/43 54/3/43
f 30/1/44 52/2/44 53/3/44
f 31/1/45 51/2/45 52/3/45
f 32/1/46 50/2/46 51/3/46
f 33/1/47 49/2/47 50/3/47
f 34/1/48 48/2/48 49/3/48
f 35/1/49 47/2/49 48/3/49
f 36/1/50 46/2/50 47/3/50
f 37/1/51 45/2/51 46/3/51
f 38/1/52 44/2/52 45/3/52
f 39/1/53 43/2/53 44/3/53
f 40/1/54 41/2/54 43/3/54
f 161/1/9 160/2/9 138/3/9
f 163/1/10 159/2/10 160/3/10
f 164/1/11 158/2/11 159/3/11
f 165/1/12 157/2/12 158/3/12
f 166/1/13 156/2/13 157/3/13
f 167/1/14 155/2/14 156/3/14
f 168/1/15 154/2/15 155/3/15
f 169/1/16 153/2/16 154/3/16
f 170/1/17 152/2/17 153/3/17
f 171/1/18 151/2/18 152/3/18
f 172/1/19 150/2/19 151/3/19
f 173/1/20 149/2/20 150/3/20
f 174/1/21 148/2/21 149/3/21
f 175/1/22 147/2/22 148/3/22
f 176/1/23 146/2/23 147/3/23
f 177/1/24 145/2/24 146/3/24
f 178/1/25 144/2/25 145/3/25
f 179/1/26 143/2/26 144/3/26
f 180/1/55 142/2/55 143/3/55
f 181/1/28 141/2/28 142/3/28
f 182/1/29 140/2/29 141/3/29
f 183/1/30 139/2/30 140/3/30
f 184/1/31 137/2/31 139/3/31
f 185/1/9 136/2/9 114/3/9
f 187/1/56 135/2/56 136/3/56
f 188/1/11 134/2/11 135/3/11
f 189/1/12 133/2/12 134/3/12
f 190/1/13 132/2/13 133/3/13
f 191/1/14 131/2/14 132/3/14
f 192/1/15 130/2/15 131/3/15
f 193/1/16 129/2/16 130/3/16
f 194/1/17 128/2/17 129/3/17
f 195/1/18 127/2/18 128/3/18
f 196/1/19 126/2/19 127/3/19
f 197/1/20 125/2/20 126/3/20
f 198/1/21 124/2/21 125/3/21
f 199/1/22 123/2/22 124/3/22
f 200/1/23 122/2/23 123/3/23
f 201/1/24 121/2/24 122/3/24
f 202/1/25 120/2/25 121/3/25
f 203/1/26 119/2/26 120/3/26
f 204/1/27 118/2/27 119/3/27
f 205/1/28 117/2/28 118/3/28
f 206/1/29 116/2/29 117/3/29
f 207/1/30 115/2/30 116/3/30
f 208/1/31 113/2/31 115/3/31
f 65/3/1 208/4/1 67/2/1
f 67/3/1 207/4/1 68/2/1
f 68/3/1 206/4/1 69/2/1
f 69/3/1 205/4/1 70/2/1
f 70/3/1 204/4/1 71/2/1
f 71/3/1 203/4/1 72/2/1
f 72/3/1 202/4/1 73/2/1
f 73/3/1 201/4/1 74/2/1
f 74/3/1 200/4/1 75/2/1
f 75/3/1 199/4/1 76/2/1
f 76/3/1 198/4/1 77/2/1
f 77/3/1 197/4/1 78/2/1
f 78/3/1 196/4/1 79/2/1
f 79/3/1 195/4/1 80/2/1
f 80/3/1 194/4/1 81/2/1
f 81/3/1 193/4/1 82/2/1
f 82/3/1 192/4/1 83/2/1
f 83/3/1 191/4/1 84/2/1
f 84/3/1 190/4/1 85/2/1
f 85/3/1 189/4/1 86/2/1
f 86/3/1 188/4/1 87/2/1
f 87/3/1 187/4/1 88/2/1
f 88/3/1 185/4/1 66/2/1
f 114/1/2 19/2/2 17/3/2
f 136/1/2 20/2/2 19/3/2
f 135/1/2 21/2/2 20/3/2
f 134/1/2 22/2/2 21/3/2
f 133/1/2 23/2/2 22/3/2
f 132/1/2 24/2/2 23/3/2
f 131/1/2 25/2/2 24/3/2
f 130/1/2 26/2/2 25/3/2
f 129/1/2 27/2/2 26/3/2
f 128/1/2 28/2/2 27/3/2
f 127/1/2 29/2/2 28/3/2
f 126/1/2 30/2/2 29/3/2
f 125/1/2 31/2/2 30/3/2
f 124/1/2 32/2/2 31/3/2
f 123/1/2 33/2/2 32/3/2
f 122/1/2 34/2/2 33/3/2
f 121/1/2 35/2/2 34/3/2
f 120/1/2 36/2/2 35/3/2
f 119/1/2 37/2/2 36/3/2
f 118/1/2 38/2/2 37/3/2
f 117/1/2 39/2/2 38/3/2
f 116/1/2 40/2/2 39/3/2
f 115/1/2 18/2/2 40/3/2
f 90/1/2 139/2/2 137/3/2
f 112/1/2 140/2/2 139/3/2
f 111/1/2 141/2/2 140/3/2
f 110/1/2 142/2/2 141/3/2
f 109/1/2 143/2/2 142/3/2
f 108/1/2 144/2/2 143/3/2
f 107/1/2 145/2/2 144/3/2
f 106/1/2 146/2/2 145/3/2
f 105/1/2 147/2/2 146/3/2
f 104/1/2 148/2/2 147/3/2
f 103/1/2 149/2/2 148/3/2
f 102/1/2 150/2/2 149/3/2
f 101/1/2 151/2/2 150/3/2
f 100/1/2 152/2/2 151/3/2
f 99/1/2 153/2/2 152/3/2
f 98/1/2 154/2/2 153/3/2
f 97/1/2 155/2/2 154/3/2
f 96/1/2 156/2/2 155/3/2
f 95/1/2 157/2/2 156/3/2
f 94/1/2 158/2/2 157/3/2
f 93/1/2 159/2/2 158/3/2
f 92/1/2 160/2/2 159/3/2
f 91/1/2 138/2/2 160/3/2
f 161/3/1 64/4/1 163/2/1
f 163/3/1 63/4/1 164/2/1
f 164/3/1 62/4/1 165/2/1
f 165/3/1 61/4/1 166/2/1
f 166/3/1 60/4/1 167/2/1
f 167/3/1 59/4/1 168/2/1
f 168/3/1 58/4/1 169/2/1
f 169/3/1 57/4/1 170/2/1
f 170/3/1 56/4/1 171/2/1
f 171/3/1 55/4/1 172/2/1
f 172/3/1 54/4/1 173/2/1
f 173/3/1 53/4/1 174/2/1
f 174/3/1 52/4/1 175/2/1
f 175/3/1 51/4/1 176/2/1
f 176/3/1 50/4/1 177/2/1
f 177/3/1 49/4/1 178/2/1
f 178/3/1 48/4/1 179/2/1
f 179/3/1 47/4/1 180/2/1
f 180/3/1 46/4/1 181/2/1
f 181/3/1 45/4/1 182/2/1
f 182/3/1 44/4/1 183/2/1
f 183/3/1 43/4/1 184/2/1
f 184/3/1 41/4/1 162/2/1
f 161/1/3 8/2/3 7/3/3
f 9/1/8 11/2/8 12/3/8
f 41/1/1 11/4/1 14/2/1
f 17/3/2 1/1/2 5/4/2
f 3/1/3 4/4/3 89/2/3
f 17/1/4 42/4/4 2/2/4
f 90/1/5 10/4/5 9/2/5
f 186/1/5 16/4/5 15/2/5
f 137/1/2 13/4/2 10/2/2
f 7/1/1 2/4/1 42/2/1
f 113/1/2 15/4/2 12/2/2
f 8/1/2 138/4/2 89/2/2
f 66/3/1 185/1/1 6/4/1
f 5/1/3 6/4/3 185/2/3
f 65/1/1 9/4/1 16/2/1
f 2/3/6 4/1/6 3/4/6
f 5/3/6 1/1/6 3/4/6
f 162/1/5 14/4/5 13/2/5
f 18/1/7 12/4/7 11/2/7
f 15/3/8 16/1/8 9/4/8
f 14/3/8 11/1/8 10/4/8
f 7/3/6 8/1/6 4/4/6
f 89/1/9 91/4/9 88/2/9
f 91/1/10 92/4/10 87/2/10
f 92/1/11 93/4/11 86/2/11
f 93/1/12 94/4/12 85/2/12
f 94/1/13 95/4/13 84/2/13
f 95/1/14 96/4/14 83/2/14
f 96/1/15 97/4/15 82/2/15
f 97/1/16 98/4/16 81/2/16
f 98/1/17 99/4/17 80/2/17
f 99/1/18 100/4/18 79/2/18
f 100/1/19 101/4/19 78/2/19
f 101/1/20 102/4/20 77/2/20
f 102/1/21 103/4/21 76/2/21
f 103/1/22 104/4/22 75/2/22
f 104/1/23 105/4/23 74/2/23
f 105/1/24 106/4/24 73/2/24
f 106/1/25 107/4/25 72/2/25
f 107/1/26 108/4/26 71/2/26
f 108/1/27 109/4/27 70/2/27
f 109/1/28 110/4/28 69/2/28
f 110/1/29 111/4/29 68/2/29
f 111/1/30 112/4/30 67/2/30
f 112/1/31 90/4/31 65/2/31
f 17/1/32 19/4/32 64/2/32
f 19/1/33 20/4/33 63/2/33
f 20/1/34 21/4/34 62/2/34
f 21/1/35 22/4/35 61/2/35
f 22/1/36 23/4/36 60/2/36
f 23/1/37 24/4/37 59/2/37
f 24/1/38 25/4/38 58/2/38
f 25/1/39 26/4/39 57/2/39
f 26/1/40 27/4/40 56/2/40
f 27/1/41 28/4/41 55/2/41
f 28/1/42 29/4/42 54/2/42
f 29/1/43 30/4/43 53/2/43
f 30/1/44 31/4/44 52/2/44
f 31/1/45 32/4/45 51/2/45
f 32/1/46 33/4/46 50/2/46
f 33/1/47 34/4/47 49/2/47
f 34/1/48 35/4/48 48/2/48
f 35/1/49 36/4/49 47/2/49
f 36/1/50 37/4/50 46/2/50
f 37/1/51 38/4/51 45/2/51
f 38/1/52 39/4/52 44/2/52
f 39/1/53 40/4/53 43/2/53
f 40/1/54 18/4/54 41/2/54
f 161/1/9 163/4/9 160/2/9
f 163/1/56 164/4/56 159/2/56
f 164/1/11 165/4/11 158/2/11
f 165/1/12 166/4/12 157/2/12
f 166/1/13 167/4/13 156/2/13
f 167/1/14 168/4/14 155/2/14
f 168/1/15 169/4/15 154/2/15
f 169/1/16 170/4/16 153/2/16
f 170/1/17 171/4/17 152/2/17
f 171/1/18 172/4/18 151/2/18
f 172/1/19 173/4/19 150/2/19
f 173/1/20 174/4/20 149/2/20
f 174/1/21 175/4/21 148/2/21
f 175/1/22 176/4/22 147/2/22
f 176/1/23 177/4/23 146/2/23
f 177/1/24 178/4/24 145/2/24
f 178/1/25 179/4/25 144/2/25
f 179/1/26 180/4/26 143/2/26
f 180/1/55 181/4/55 142/2/55
f 181/1/28 182/4/28 141/2/28
f 182/1/29 183/4/29 140/2/29
f 183/1/30 184/4/30 139/2/30
f 184/1/31 162/4/31 137/2/31
f 185/1/9 187/4/9 136/2/9
f 187/1/56 188/4/56 135/2/56
f 188/1/11 189/4/11 134/2/11
f 189/1/12 190/4/12 133/2/12
f 190/1/13 191/4/13 132/2/13
f 191/1/14 192/4/14 131/2/14
f 192/1/15 193/4/15 130/2/15
f 193/1/16 194/4/16 129/2/16
f 194/1/17 195/4/17 128/2/17
f 195/1/18 196/4/18 127/2/18
f 196/1/19 197/4/19 126/2/19
f 197/1/20 198/4/20 125/2/20
f 198/1/21 199/4/21 124/2/21
f 199/1/22 200/4/22 123/2/22
f 200/1/23 201/4/23 122/2/23
f 201/1/24 202/4/24 121/2/24
f 202/1/25 203/4/25 120/2/25
f 203/1/26 204/4/26 119/2/26
f 204/1/55 205/4/55 118/2/55
f 205/1/28 206/4/28 117/2/28
f 206/1/29 207/4/29 116/2/29
f 207/1/30 208/4/30 115/2/30
f 208/1/31 186/4/31 113/2/31
f 65/3/1 186/1/1 208/4/1
f 67/3/1 208/1/1 207/4/1
f 68/3/1 207/1/1 206/4/1
f 69/3/1 206/1/1 205/4/1
f 70/3/1 205/1/1 204/4/1
f 71/3/1 204/1/1 203/4/1
f 72/3/1 203/1/1 202/4/1
f 73/3/1 202/1/1 201/4/1
f 74/3/1 201/1/1 200/4/1
f 75/3/1 200/1/1 199/4/1
f 76/3/1 199/1/1 198/4/1
f 77/3/1 198/1/1 197/4/1
f 78/3/1 197/1/1 196/4/1
f 79/3/1 196/1/1 195/4/1
f 80/3/1 195/1/1 194/4/1
f 81/3/1 194/1/1 193/4/1
f 82/3/1 193/1/1 192/4/1
f 83/3/1 192/1/1 191/4/1
f 84/3/1 191/1/1 190/4/1
f 85/3/1 190/1/1 189/4/1
f 86/3/1 189/1/1 188/4/1
f 87/3/1 188/1/1 187/4/1
f 88/3/1 187/1/1 185/4/1
f 114/1/2 136/4/2 19/2/2
f 136/1/2 135/4/2 20/2/2
f 135/1/2 134/4/2 21/2/2
f 134/1/2 133/4/2 22/2/2
f 133/1/2 132/4/2 23/2/2
f 132/1/2 131/4/2 24/2/2
f 131/1/2 130/4/2 25/2/2
f 130/1/2 129/4/2 26/2/2
f 129/1/2 128/4/2 27/2/2
f 128/1/2 127/4/2 28/2/2
f 127/1/2 126/4/2 29/2/2
f 126/1/2 125/4/2 30/2/2
f 125/1/2 124/4/2 31/2/2
f 124/1/2 123/4/2 32/2/2
f 123/1/2 122/4/2 33/2/2
f 122/1/2 121/4/2 34/2/2
f 121/1/2 120/4/2 35/2/2
f 120/1/2 119/4/2 36/2/2
f 119/1/2 118/4/2 37/2/2
f 118/1/2 117/4/2 38/2/2
f 117/1/2 116/4/2 39/2/2
f 116/1/2 115/4/2 40/2/2
f 115/1/2 113/4/2 18/2/2
f 90/1/2 112/4/2 139/2/2
f 112/1/2 111/4/2 140/2/2
f 111/1/2 110/4/2 141/2/2
f 110/1/2 109/4/2 142/2/2
f 109/1/2 108/4/2 143/2/2
f 108/1/2 107/4/2 144/2/2
f 107/1/2 106/4/2 145/2/2
f 106/1/2 105/4/2 146/2/2
f 105/1/2 104/4/2 147/2/2
f 104/1/2 103/4/2 148/2/2
f 103/1/2 102/4/2 149/2/2
f 102/1/2 101/4/2 150/2/2
f 101/1/2 100/4/2 151/2/2
f 100/1/2 99/4/2 152/2/2
f 99/1/2 98/4/2 153/2/2
f 98/1/2 97/4/2 154/2/2
f 97/1/2 96/4/2 155/2/2
f 96/1/2 95/4/2 156/2/2
f 95/1/2 94/4/2 157/2/2
f 94/1/2 93/4/2 158/2/2
f 93/1/2 92/4/2 159/2/2
f 92/1/2 91/4/2 160/2/2
f 91/1/2 89/4/2 138/2/2
f 161/3/1 42/1/1 64/4/1
f 163/3/1 64/1/1 63/4/1
f 164/3/1 63/1/1 62/4/1
f 165/3/1 62/1/1 61/4/1
f 166/3/1 61/1/1 60/4/1
f 167/3/1 60/1/1 59/4/1
f 168/3/1 59/1/1 58/4/1
f 169/3/1 58/1/1 57/4/1
f 170/3/1 57/1/1 56/4/1
f 171/3/1 56/1/1 55/4/1
f 172/3/1 55/1/1 54/4/1
f 173/3/1 54/1/1 53/4/1
f 174/3/1 53/1/1 52/4/1
f 175/3/1 52/1/1 51/4/1
f 176/3/1 51/1/1 50/4/1
f 177/3/1 50/1/1 49/4/1
f 178/3/1 49/1/1 48/4/1
f 179/3/1 48/1/1 47/4/1
f 180/3/1 47/1/1 46/4/1
f 181/3/1 46/1/1 45/4/1
f 182/3/1 45/1/1 44/4/1
f 183/3/1 44/1/1 43/4/1
f 184/3/1 43/1/1 41/4/1
f 161/1/3 138/4/3 8/2/3
f 9/1/8 10/4/8 11/2/8
