# Blender 4.2.1 LTS
# www.blender.org
mtllib Ramp.mtl
o Ramp
v 1.000000 0.000000 -1.000000
v 1.000000 1.000000 1.000000
v -1.000000 0.000000 -1.000000
v -1.000000 1.000000 1.000000
v 0.800000 1.200000 1.000000
v 0.800000 0.200000 -1.000000
v -0.802000 1.200000 1.000000
v -0.802000 0.200000 -1.000000
v 1.000000 0.600000 -1.000000
v 1.000000 1.600000 1.000000
v -0.802000 1.600000 1.000000
v -1.000000 1.600000 1.000000
v 0.800000 0.600000 -1.000000
v -1.000000 0.600000 -1.000000
v 0.800000 1.600000 1.000000
v -0.802000 0.600000 -1.000000
vn -1.0000 -0.0000 -0.0000
vn -0.0000 0.8944 -0.4472
vn -0.0000 -0.0000 -1.0000
vn 1.0000 -0.0000 -0.0000
vn -0.0000 -0.0000 1.0000
vn -0.0000 -0.8944 0.4472
vt 0.000000 0.000000
vt 1.000000 1.000000
vt 0.000000 1.000000
vt 1.000000 0.000000
s 0
usemtl Wood
f 5/1/1 13/2/1 6/3/1
f 12/4/2 16/3/2 14/1/2
f 3/1/3 6/2/3 1/3/3
f 16/4/4 7/3/4 8/1/4
f 15/4/2 9/3/2 13/1/2
f 9/1/4 2/2/4 1/3/4
f 5/4/5 4/3/5 2/1/5
f 14/4/1 4/3/1 12/1/1
f 12/1/5 7/2/5 11/3/5
f 14/1/3 8/2/3 3/3/3
f 10/1/5 5/2/5 2/3/5
f 2/4/6 3/3/6 1/1/6
f 9/1/3 6/2/3 13/3/3
f 5/1/1 15/4/1 13/2/1
f 12/4/2 11/2/2 16/3/2
f 3/1/3 8/4/3 6/2/3
f 16/4/4 11/2/4 7/3/4
f 15/4/2 10/2/2 9/3/2
f 9/1/4 10/4/4 2/2/4
f 5/4/5 7/2/5 4/3/5
f 14/4/1 3/2/1 4/3/1
f 12/1/5 4/4/5 7/2/5
f 14/1/3 16/4/3 8/2/3
f 10/1/5 15/4/5 5/2/5
f 2/4/6 4/2/6 3/3/6
f 9/1/3 1/4/3 6/2/3
usemtl Grass
f 7/4/2 6/3/2 8/1/2
f 7/4/2 5/2/2 6/3/2
