# Blender 4.2.1 LTS
# www.blender.org
mtllib Ramp.mtl
o Ramp
v 1.000000 0.000000 -1.000000
v 1.000000 1.000000 1.000000
v -1.000000 0.000000 -1.000000
v -1.000000 1.000000 1.000000
v 0.800000 1.200000 1.000000
v 0.800000 0.200000 -1.000000
v -0.802000 1.200000 1.000000
v -0.802000 0.200000 -1.000000
v 1.000000 0.600000 -1.000000
v 1.000000 1.600000 1.000000
v -0.802000 1.600000 1.000000
v -1.000000 1.600000 1.000000
v 0.800000 0.600000 -1.000000
v -1.000000 0.600000 -1.000000
v 0.800000 1.600000 1.000000
v -0.802000 0.600000 -1.000000
vn -1.0000 -0.0000 -0.0000
vn -0.0000 0.8944 -0.4472
vn -0.0000 -0.0000 -1.0000
vn 1.0000 -0.0000 -0.0000
vn -0.0000 -0.0000 1.0000
vn -0.0000 -0.8944 0.4472
vt 0.000000 0.000000
vt 1.000000 0.000000
vt 1.000000 1.000000
vt 0.000000 1.000000
s 0
usemtl Wood
f 5/1/1 15/2/1 13/3/1 6/4/1
f 14/1/2 12/2/2 11/3/2 16/4/2
f 3/1/3 8/2/3 6/3/3 1/4/3
f 8/1/4 16/2/4 11/3/4 7/4/4
f 13/1/2 15/2/2 10/3/2 9/4/2
f 9/1/4 10/2/4 2/3/4 1/4/4
f 2/1/5 5/2/5 7/3/5 4/4/5
f 12/1/1 14/2/1 3/3/1 4/4/1
f 12/1/5 4/2/5 7/3/5 11/4/5
f 14/1/3 16/2/3 8/3/3 3/4/3
f 10/1/5 15/2/5 5/3/5 2/4/5
f 1/1/6 2/2/6 4/3/6 3/4/6
f 9/1/3 1/2/3 6/3/3 13/4/3
usemtl Grass
f 8/1/2 7/2/2 5/3/2 6/4/2
