# Blender 4.1.1
# www.blender.org
mtllib Split.mtl
o Split
v 1.000000 0.000000 -1.000000
v 1.000000 0.000000 1.000000
v -1.000000 0.000000 -1.000000
v -1.000000 0.000000 1.000000
v 0.200000 0.200000 1.000000
v 0.200000 0.200000 -1.000000
v -0.202000 0.200000 1.000000
v -0.202000 0.200000 -1.000000
v 1.000000 0.600000 -1.000000
v 1.000000 0.600000 1.000000
v -0.802000 0.600000 1.000000
v -1.000000 0.600000 1.000000
v 0.800000 0.600000 -1.000000
v -1.000000 0.600000 -1.000000
v 0.800000 0.600000 1.000000
v -0.802000 0.600000 -1.000000
v -0.802000 0.200000 -1.000000
v 0.800000 0.200000 -1.000000
v 0.800000 0.200000 1.000000
v -0.802000 0.200000 1.000000
v 0.200000 0.200000 1.000000
v -0.202000 0.200000 1.000000
v 0.200000 0.600000 1.000000
v -0.202000 0.600000 1.000000
v -0.202000 0.200000 0.201000
v -0.001000 0.200000 -0.000000
v -0.202000 0.200000 -0.201000
v -0.195151 0.200000 0.148977
v -0.175071 0.200000 0.100500
v -0.143128 0.200000 0.058871
v -0.101500 0.200000 0.026929
v -0.053023 0.200000 0.006849
v -0.001000 0.200000 -0.000000
v 0.200000 0.200000 0.201000
v 0.200000 0.200000 -0.201000
v 0.051023 0.200000 0.006849
v 0.099500 0.200000 0.026929
v 0.141128 0.200000 0.058871
v 0.173071 0.200000 0.100500
v 0.193151 0.200000 0.148977
v -0.001000 0.600000 -0.000000
v -0.202000 0.600000 0.201000
v -0.053023 0.600000 0.006849
v -0.101500 0.600000 0.026929
v -0.143128 0.600000 0.058871
v -0.175071 0.600000 0.100500
v -0.195151 0.600000 0.148977
v 0.200000 0.600000 0.201000
v -0.001000 0.600000 -0.000000
v 0.193151 0.600000 0.148977
v 0.173071 0.600000 0.100500
v 0.141128 0.600000 0.058871
v 0.099500 0.600000 0.026929
v 0.051023 0.600000 0.006849
vn -1.0000 -0.0000 -0.0000
vn -0.0000 -1.0000 -0.0000
vn -0.0000 -0.0000 1.0000
vn -0.0000 1.0000 -0.0000
vn -0.0000 -0.0000 -1.0000
vn 1.0000 -0.0000 -0.0000
vn -0.9979 -0.0000 -0.0654
vn 0.9979 -0.0000 -0.0654
vn -0.9659 -0.0000 -0.2588
vn -0.8660 -0.0000 -0.5000
vn -0.7071 -0.0000 -0.7071
vn -0.5000 -0.0000 -0.8660
vn -0.2588 -0.0000 -0.9659
vn -0.1305 -0.0000 -0.9914
vn 0.9659 -0.0000 -0.2588
vn 0.8660 -0.0000 -0.5000
vn 0.7071 -0.0000 -0.7071
vn 0.5000 -0.0000 -0.8660
vn 0.2588 -0.0000 -0.9659
vn 0.1305 -0.0000 -0.9914
vt 1.000000 0.000000
vt 0.000000 1.000000
vt 0.000000 0.000000
vt 0.500000 1.000000
vt 0.500000 0.000000
vt 0.146447 0.853553
vt 0.467526 0.300913
vt 0.500000 0.300000
vt 0.532474 0.300913
vt 0.853553 0.146447
vt 0.374532 0.300000
vt 0.625468 0.300000
vt 0.374532 0.700000
vt 0.625468 0.700000
vt 1.000000 1.000000
vt 0.625468 0.380400
vt 0.374532 0.380400
vt 0.625468 0.540200
vt 0.374532 0.540200
vt 0.625468 0.359591
vt 0.625468 0.340200
vt 0.625468 0.323549
vt 0.625468 0.310772
vt 0.625468 0.302740
vt 0.467526 0.300000
vt 0.374532 0.459800
vt 0.437266 0.300000
vt 0.411281 0.300000
vt 0.391341 0.300000
vt 0.378807 0.300000
vt 0.624043 0.359591
vt 0.619865 0.340200
vt 0.613219 0.307850
vt 0.562734 0.300000
vt 0.562734 0.303591
vt 0.532474 0.300000
vt 0.375957 0.359591
vt 0.374532 0.359591
vt 0.380135 0.340200
vt 0.374532 0.340200
vt 0.386781 0.307850
vt 0.437266 0.303591
vt 0.853553 0.853553
vt 1.000000 0.500000
vt 0.146447 0.146447
vt 0.000000 0.500000
s 0
usemtl Grass
f 6/11/4 17/1/4 8/12/4
f 5/13/4 18/3/4 6/11/4
f 7/14/4 19/2/4 5/13/4
f 8/12/4 20/15/4 7/14/4
f 7/14/4 21/13/4 22/14/4
f 27/12/4 26/8/4 35/11/4
f 8/12/6 7/14/6 25/18/6
f 5/13/1 6/11/1 34/19/1
f 25/16/4 28/20/4 27/12/4
f 28/20/4 29/21/4 27/12/4
f 29/21/4 30/22/4 27/12/4
f 30/22/4 31/23/4 27/12/4
f 31/23/4 32/24/4 27/12/4
f 32/24/4 26/12/4 27/12/4
f 33/8/4 36/25/4 35/26/4
f 36/25/4 37/27/4 35/26/4
f 37/27/4 38/28/4 35/26/4
f 38/28/4 39/29/4 35/26/4
f 39/29/4 40/30/4 35/26/4
f 40/30/4 34/11/4 35/26/4
f 33/8/4 41/8/4 49/8/4
f 6/11/4 18/3/4 17/1/4
f 5/13/4 19/2/4 18/3/4
f 7/14/4 20/15/4 19/2/4
f 8/12/4 17/1/4 20/15/4
f 7/14/4 5/13/4 21/13/4
f 35/11/4 6/11/4 8/12/4
f 35/11/4 8/12/4 27/12/4
f 26/8/4 33/8/4 35/11/4
f 7/14/4 22/14/4 25/18/4
f 25/18/1 27/12/1 8/12/1
f 6/11/6 35/26/6 34/19/6
f 34/19/4 21/13/4 5/13/4
f 33/8/4 26/8/4 41/8/4
usemtl Wood
f 12/1/1 3/2/1 4/3/1
f 1/1/2 4/2/2 3/3/2
f 2/4/3 20/5/3 4/6/3
f 19/1/1 13/2/1 18/3/1
f 54/7/4 49/8/4 43/9/4
f 18/4/5 1/10/5 3/5/5
f 14/1/4 11/2/4 16/3/4
f 13/1/4 10/2/4 9/3/4
f 17/1/6 11/2/6 20/3/6
f 9/1/6 2/2/6 1/3/6
f 21/13/3 24/14/3 22/14/3
s 1
f 22/14/1 42/16/7 25/16/7
f 34/17/8 23/13/6 21/13/6
f 42/16/7 28/20/9 25/16/7
f 47/31/9 29/21/10 28/20/9
f 46/32/10 30/12/11 29/21/10
f 45/33/11 31/34/12 30/12/11
f 44/35/12 32/36/13 31/34/12
f 43/9/13 26/8/14 32/36/13
f 34/17/8 50/37/15 48/17/8
f 40/38/15 51/39/16 50/37/15
f 39/40/16 52/41/17 51/39/16
f 38/11/17 53/42/18 52/41/17
f 37/27/18 54/7/19 53/42/18
f 36/25/19 49/8/20 54/7/19
s 0
f 12/1/1 14/15/1 3/2/1
f 1/1/2 2/15/2 4/2/2
f 2/4/3 10/43/3 15/44/3
f 2/4/3 15/44/3 19/10/3
f 11/45/3 12/46/3 4/6/3
f 2/4/3 19/10/3 20/5/3
f 20/5/3 11/45/3 4/6/3
f 19/1/1 15/15/1 13/2/1
f 23/13/4 48/17/4 50/37/4
f 50/37/4 51/39/4 52/41/4
f 52/41/4 53/42/4 54/7/4
f 50/37/4 52/41/4 54/7/4
f 24/14/4 23/13/4 50/37/4
f 47/31/4 42/16/4 24/14/4
f 45/33/4 46/32/4 47/31/4
f 43/9/4 44/35/4 45/33/4
f 43/9/4 45/33/4 47/31/4
f 47/31/4 24/14/4 50/37/4
f 43/9/4 47/31/4 50/37/4
f 43/9/4 50/37/4 54/7/4
f 49/8/4 41/8/4 43/9/4
f 18/4/5 13/43/5 9/44/5
f 3/5/5 14/45/5 16/46/5
f 3/5/5 16/46/5 17/6/5
f 18/4/5 9/44/5 1/10/5
f 3/5/5 17/6/5 18/4/5
f 14/1/4 12/15/4 11/2/4
f 13/1/4 15/15/4 10/2/4
f 17/1/6 16/15/6 11/2/6
f 9/1/6 10/15/6 2/2/6
f 21/13/3 23/13/3 24/14/3
s 1
f 22/14/1 24/14/1 42/16/7
f 34/17/8 48/17/8 23/13/6
f 42/16/7 47/31/9 28/20/9
f 47/31/9 46/32/10 29/21/10
f 46/32/10 45/33/11 30/12/11
f 45/33/11 44/35/12 31/34/12
f 44/35/12 43/9/13 32/36/13
f 43/9/13 41/8/14 26/8/14
f 34/17/8 40/38/15 50/37/15
f 40/38/15 39/40/16 51/39/16
f 39/40/16 38/11/17 52/41/17
f 38/11/17 37/27/18 53/42/18
f 37/27/18 36/25/19 54/7/19
f 36/25/19 33/8/20 49/8/20
