# Blender 4.1.1
# www.blender.org
mtllib Start.mtl
o Start
v 1.000000 0.000000 0.000000
v 0.800000 0.200000 0.000000
v 1.000000 0.600000 0.000000
v 0.800000 0.600000 0.000000
v 0.978148 0.000000 0.207912
v 0.782518 0.200000 0.166329
v 0.978148 0.600000 0.207912
v 0.782518 0.600000 0.166329
v 0.913546 0.000000 0.406737
v 0.730836 0.200000 0.325389
v 0.913546 0.600000 0.406737
v 0.730836 0.600000 0.325389
v 0.809017 0.000000 0.587785
v 0.647214 0.200000 0.470228
v 0.809017 0.600000 0.587785
v 0.647214 0.600000 0.470228
v 0.669131 0.000000 0.743145
v 0.535305 0.200000 0.594516
v 0.669131 0.600000 0.743145
v 0.535305 0.600000 0.594516
v 0.500000 0.000000 0.866026
v 0.400000 0.200000 0.692820
v 0.500000 0.600000 0.866026
v 0.400000 0.600000 0.692820
v 0.309017 0.000000 0.951057
v 0.247214 0.200000 0.760845
v 0.309017 0.600000 0.951057
v 0.247214 0.600000 0.760845
v 0.104528 0.000000 0.994522
v 0.083623 0.200000 0.795618
v 0.104528 0.600000 0.994522
v 0.083623 0.600000 0.795618
v -0.104529 0.000000 0.994522
v -0.083623 0.200000 0.795618
v -0.104529 0.600000 0.994522
v -0.083623 0.600000 0.795618
v -0.309017 0.000000 0.951057
v -0.247214 0.200000 0.760845
v -0.309017 0.600000 0.951057
v -0.247214 0.600000 0.760845
v -0.500000 0.000000 0.866026
v -0.400000 0.200000 0.692820
v -0.500000 0.600000 0.866026
v -0.400000 0.600000 0.692820
v -0.669131 0.000000 0.743145
v -0.535305 0.200000 0.594516
v -0.669131 0.600000 0.743145
v -0.535305 0.600000 0.594516
v -0.809017 0.000000 0.587785
v -0.647214 0.200000 0.470228
v -0.809017 0.600000 0.587785
v -0.647214 0.600000 0.470228
v -0.913546 0.000000 0.406737
v -0.730837 0.200000 0.325389
v -0.913546 0.600000 0.406737
v -0.730837 0.600000 0.325389
v -0.978148 0.000000 0.207912
v -0.782518 0.200000 0.166329
v -0.978148 0.600000 0.207912
v -0.782518 0.600000 0.166329
v -1.000000 0.000000 -0.000000
v -0.800000 0.200000 -0.000000
v -1.000000 0.600000 -0.000000
v -0.800000 0.600000 -0.000000
v 0.800000 0.000000 -1.000000
v 0.800000 0.200000 -1.000000
v 1.000000 0.000000 -1.000000
v 0.800000 0.600000 -1.000000
v 1.000000 0.600000 -1.000000
v -0.800000 0.000000 -1.000000
v 0.000000 0.000000 -1.000000
v 0.000000 0.200000 -1.000000
v -0.800000 0.200000 -1.000000
v -1.000000 0.000000 -1.000000
v -0.800000 0.600000 -1.000000
v -1.000000 0.600000 -1.000000
vn -0.0000 1.0000 -0.0000
vn 0.9511 -0.0000 0.3090
vn 0.2079 -0.0000 -0.9781
vn 0.7431 -0.0000 0.6691
vn 0.8660 -0.0000 0.5000
vn -0.2079 -0.0000 -0.9781
vn -0.8660 -0.0000 -0.5000
vn 0.2079 -0.0000 0.9781
vn -0.7431 -0.0000 -0.6691
vn -0.4067 -0.0000 -0.9135
vn -0.0000 -0.0000 1.0000
vn 1.0000 -0.0000 -0.0000
vn 0.9945 -0.0000 0.1045
vn 0.4067 -0.0000 0.9135
vn 0.5878 -0.0000 0.8090
vn -0.4067 -0.0000 0.9135
vn -0.9945 -0.0000 -0.1045
vn -0.9511 -0.0000 -0.3090
vn -0.0000 -0.0000 -1.0000
vn 0.4067 -0.0000 -0.9135
vn -0.2079 -0.0000 0.9781
vn -0.5878 -0.0000 0.8090
vn -0.7431 -0.0000 0.6691
vn -0.8660 -0.0000 0.5000
vn 0.5878 -0.0000 -0.8090
vn 0.8660 -0.0000 -0.5000
vn 0.7431 -0.0000 -0.6691
vn -0.9945 -0.0000 0.1045
vn -0.9511 -0.0000 0.3090
vn 0.9511 -0.0000 -0.3090
vn 0.9945 -0.0000 -0.1045
vn -1.0000 -0.0000 -0.0000
vn -0.0000 -1.0000 -0.0000
vn -0.5878 -0.0000 -0.8090
vt 0.000000 0.000000
vt 1.000000 1.000000
vt 0.000000 1.000000
vt 1.000000 0.000000
vt 0.957887 0.299152
vt 0.417703 0.006819
vt 0.337651 0.972909
vt 0.965437 0.682670
vt 0.283058 0.049516
vt 0.352622 0.977786
vt 0.500000 1.000000
vt 0.662350 0.972909
vt 0.807106 0.894570
vt 0.918583 0.773474
vt 0.984700 0.622743
vt 0.081417 0.773474
vt 0.192894 0.894571
vt 0.001708 0.458711
vt 0.015300 0.622743
vt 0.132138 0.161359
vt 0.042113 0.299152
vt 0.262026 0.060263
vt 0.737974 0.060263
vt 0.582297 0.006819
vt 0.867862 0.161359
vt 0.998292 0.458710
vt 0.647378 0.977786
vt 0.781660 0.913119
vt 0.890916 0.811745
vt 0.998602 0.537365
vt 0.987464 0.388739
vt 0.933013 0.250000
vt 0.840086 0.133474
vt 0.716942 0.049516
vt 0.574521 0.005585
vt 0.425479 0.005585
vt 0.159914 0.133474
vt 0.066987 0.250000
vt 0.012536 0.388739
vt 0.001398 0.537365
vt 0.034563 0.682670
vt 0.109084 0.811745
vt 0.218340 0.913119
s 0
usemtl Wood
f 44/1/1 39/2/1 40/3/1
f 11/4/2 5/3/2 7/1/2
f 40/4/3 34/3/3 38/1/3
f 40/1/1 35/2/1 36/3/1
f 19/4/4 13/3/4 15/1/4
f 13/4/5 11/3/5 15/1/5
f 32/4/6 26/3/6 30/1/6
f 28/1/1 23/2/1 24/3/1
f 24/1/1 19/2/1 20/3/1
f 16/4/7 10/3/7 14/1/7
f 29/4/8 27/3/8 31/1/8
f 20/1/1 15/2/1 16/3/1
f 20/4/9 14/3/9 18/1/9
f 28/4/10 22/3/10 26/1/10
f 35/4/11 29/3/11 31/1/11
f 48/1/1 43/2/1 44/3/1
f 69/4/12 1/3/12 67/1/12
f 7/4/13 1/3/13 3/1/13
f 64/1/1 59/2/1 60/3/1
f 27/4/14 21/3/14 23/1/14
f 56/1/1 51/2/1 52/3/1
f 52/1/1 47/2/1 48/3/1
f 23/4/15 17/3/15 19/1/15
f 41/4/16 39/3/16 43/1/16
f 8/4/17 2/3/17 6/1/17
f 12/4/18 6/3/18 10/1/18
f 36/4/19 30/3/19 34/1/19
f 44/4/20 38/3/20 42/1/20
f 39/4/21 33/3/21 35/1/21
f 4/1/1 7/2/1 3/3/1
f 47/4/22 41/3/22 43/1/22
f 60/1/1 55/2/1 56/3/1
f 51/4/23 45/3/23 47/1/23
f 55/4/24 49/3/24 51/1/24
f 48/4/25 42/3/25 46/1/25
f 32/1/1 27/2/1 28/3/1
f 56/4/26 50/3/26 54/1/26
f 52/4/27 46/3/27 50/1/27
f 63/4/28 57/3/28 59/1/28
f 15/4/1 12/3/1 16/1/1
f 12/1/1 7/2/1 8/3/1
f 57/4/29 55/3/29 59/1/29
f 36/1/1 31/2/1 32/3/1
f 60/4/30 54/3/30 58/1/30
f 69/1/19 66/2/19 68/3/19
f 64/4/31 58/3/31 62/1/31
f 66/4/19 71/3/19 72/1/19
f 76/4/32 61/3/32 63/1/32
f 73/4/19 71/3/19 70/1/19
f 68/4/1 3/3/1 69/1/1
f 75/4/12 62/3/12 73/1/12
f 66/4/32 4/3/32 68/1/32
f 64/1/1 76/2/1 63/3/1
f 9/8/33 41/9/33 71/10/33
f 67/1/19 65/4/19 66/2/19
f 73/1/19 70/4/19 74/2/19
f 24/4/34 18/3/34 22/1/34
f 76/4/19 73/3/19 74/1/19
f 44/1/1 43/4/1 39/2/1
f 11/4/2 9/2/2 5/3/2
f 40/4/3 36/2/3 34/3/3
f 40/1/1 39/4/1 35/2/1
f 19/4/4 17/2/4 13/3/4
f 13/4/5 9/2/5 11/3/5
f 32/4/6 28/2/6 26/3/6
f 28/1/1 27/4/1 23/2/1
f 24/1/1 23/4/1 19/2/1
f 16/4/7 12/2/7 10/3/7
f 29/4/8 25/2/8 27/3/8
f 20/1/1 19/4/1 15/2/1
f 20/4/9 16/2/9 14/3/9
f 28/4/10 24/2/10 22/3/10
f 35/4/11 33/2/11 29/3/11
f 48/1/1 47/4/1 43/2/1
f 69/4/12 3/2/12 1/3/12
f 7/4/13 5/2/13 1/3/13
f 64/1/1 63/4/1 59/2/1
f 27/4/14 25/2/14 21/3/14
f 56/1/1 55/4/1 51/2/1
f 52/1/1 51/4/1 47/2/1
f 23/4/15 21/2/15 17/3/15
f 41/4/16 37/2/16 39/3/16
f 8/4/17 4/2/17 2/3/17
f 12/4/18 8/2/18 6/3/18
f 36/4/19 32/2/19 30/3/19
f 44/4/20 40/2/20 38/3/20
f 39/4/21 37/2/21 33/3/21
f 4/1/1 8/4/1 7/2/1
f 47/4/22 45/2/22 41/3/22
f 60/1/1 59/4/1 55/2/1
f 51/4/23 49/2/23 45/3/23
f 55/4/24 53/2/24 49/3/24
f 48/4/25 44/2/25 42/3/25
f 32/1/1 31/4/1 27/2/1
f 56/4/26 52/2/26 50/3/26
f 52/4/27 48/2/27 46/3/27
f 63/4/28 61/2/28 57/3/28
f 15/4/1 11/2/1 12/3/1
f 12/1/1 11/4/1 7/2/1
f 57/4/29 53/2/29 55/3/29
f 36/1/1 35/4/1 31/2/1
f 60/4/30 56/2/30 54/3/30
f 69/1/19 67/4/19 66/2/19
f 64/4/31 60/2/31 58/3/31
f 66/4/19 65/2/19 71/3/19
f 76/4/32 74/2/32 61/3/32
f 73/4/19 72/2/19 71/3/19
f 68/4/1 4/2/1 3/3/1
f 75/4/12 64/2/12 62/3/12
f 66/4/32 2/2/32 4/3/32
f 64/1/1 75/4/1 76/2/1
f 65/11/33 67/27/33 1/28/33
f 1/28/33 5/29/33 9/8/33
f 9/8/33 13/30/33 17/31/33
f 17/31/33 21/32/33 25/33/33
f 25/33/33 29/34/33 33/35/33
f 33/35/33 37/36/33 41/9/33
f 41/9/33 45/37/33 49/38/33
f 49/38/33 53/39/33 57/40/33
f 57/40/33 61/41/33 74/42/33
f 57/40/33 74/42/33 70/43/33
f 41/9/33 49/38/33 57/40/33
f 25/33/33 33/35/33 41/9/33
f 9/8/33 17/31/33 25/33/33
f 65/11/33 1/28/33 9/8/33
f 57/40/33 70/43/33 71/10/33
f 71/10/33 65/11/33 9/8/33
f 9/8/33 25/33/33 41/9/33
f 41/9/33 57/40/33 71/10/33
f 24/4/34 20/2/34 18/3/34
f 76/4/19 75/2/19 73/3/19
usemtl Grass
f 54/5/1 38/6/1 6/7/1
f 6/7/1 2/11/1 66/12/1
f 72/13/1 73/14/1 62/15/1
f 6/7/1 66/12/1 72/13/1
f 14/16/1 10/17/1 6/7/1
f 22/18/1 18/19/1 14/16/1
f 30/20/1 26/21/1 22/18/1
f 38/6/1 34/22/1 30/20/1
f 46/23/1 42/24/1 38/6/1
f 54/5/1 50/25/1 46/23/1
f 62/15/1 58/26/1 54/5/1
f 6/7/1 72/13/1 62/15/1
f 22/18/1 14/16/1 6/7/1
f 38/6/1 30/20/1 22/18/1
f 54/5/1 46/23/1 38/6/1
f 6/7/1 62/15/1 54/5/1
f 38/6/1 22/18/1 6/7/1
