# Blender 4.2.1 LTS
# www.blender.org
mtllib Start.mtl
o Start_-_col
v 1.000000 0.000000 0.000000
v 0.800000 0.200000 0.000000
v 1.000000 0.400000 0.000000
v 0.800000 0.400000 0.000000
v 0.978148 0.000000 0.207912
v 0.782518 0.200000 0.166329
v 0.978148 0.400000 0.207912
v 0.782518 0.400000 0.166329
v 0.913546 0.000000 0.406737
v 0.730836 0.200000 0.325389
v 0.913546 0.400000 0.406737
v 0.730836 0.400000 0.325389
v 0.809017 0.000000 0.587785
v 0.647214 0.200000 0.470228
v 0.809017 0.400000 0.587785
v 0.647214 0.400000 0.470228
v 0.669131 0.000000 0.743145
v 0.535305 0.200000 0.594516
v 0.669131 0.400000 0.743145
v 0.535305 0.400000 0.594516
v 0.500000 0.000000 0.866026
v 0.400000 0.200000 0.692820
v 0.500000 0.400000 0.866026
v 0.400000 0.400000 0.692820
v 0.309017 0.000000 0.951057
v 0.247214 0.200000 0.760845
v 0.309017 0.400000 0.951057
v 0.247214 0.400000 0.760845
v 0.104528 0.000000 0.994522
v 0.083623 0.200000 0.795618
v 0.104528 0.400000 0.994522
v 0.083623 0.400000 0.795618
v -0.104529 0.000000 0.994522
v -0.083623 0.200000 0.795618
v -0.104529 0.400000 0.994522
v -0.083623 0.400000 0.795618
v -0.309017 0.000000 0.951057
v -0.247214 0.200000 0.760845
v -0.309017 0.400000 0.951057
v -0.247214 0.400000 0.760845
v -0.500000 0.000000 0.866026
v -0.400000 0.200000 0.692820
v -0.500000 0.400000 0.866026
v -0.400000 0.400000 0.692820
v -0.669131 0.000000 0.743145
v -0.535305 0.200000 0.594516
v -0.669131 0.400000 0.743145
v -0.535305 0.400000 0.594516
v -0.809017 0.000000 0.587785
v -0.647214 0.200000 0.470228
v -0.809017 0.400000 0.587785
v -0.647214 0.400000 0.470228
v -0.913546 0.000000 0.406737
v -0.730837 0.200000 0.325389
v -0.913546 0.400000 0.406737
v -0.730837 0.400000 0.325389
v -0.978148 0.000000 0.207912
v -0.782518 0.200000 0.166329
v -0.978148 0.400000 0.207912
v -0.782518 0.400000 0.166329
v -1.000000 0.000000 -0.000000
v -0.800000 0.200000 -0.000000
v -1.000000 0.400000 -0.000000
v -0.800000 0.400000 -0.000000
v 0.800000 0.000000 -1.000000
v 0.800000 0.200000 -1.000000
v 1.000000 0.000000 -1.000000
v 0.800000 0.400000 -1.000000
v 1.000000 0.400000 -1.000000
v -0.800000 0.000000 -1.000000
v 0.000000 0.000000 -1.000000
v 0.000000 0.200000 -1.000000
v -0.800000 0.200000 -1.000000
v -1.000000 0.000000 -1.000000
v -0.800000 0.400000 -1.000000
v -1.000000 0.400000 -1.000000
vn -0.0000 1.0000 -0.0000
vn -0.9511 -0.0000 -0.3090
vn 0.9511 -0.0000 0.3090
vn -0.9945 -0.0000 -0.1045
vn 0.7431 -0.0000 0.6691
vn 0.8660 -0.0000 0.5000
vn 0.5878 -0.0000 0.8090
vn -0.8660 -0.0000 -0.5000
vn 0.4067 -0.0000 0.9135
vn -0.7431 -0.0000 -0.6691
vn -0.4067 -0.0000 -0.9135
vn -0.5878 -0.0000 -0.8090
vn -0.0000 -0.0000 1.0000
vn 0.2079 -0.0000 0.9781
vn -0.4067 -0.0000 0.9135
vn -0.2079 -0.0000 -0.9781
vn 0.2079 -0.0000 -0.9781
vn -0.0000 -0.0000 -1.0000
vn 0.4067 -0.0000 -0.9135
vn -0.2079 -0.0000 0.9781
vn -0.5878 -0.0000 0.8090
vn -0.7431 -0.0000 0.6691
vn -0.8660 -0.0000 0.5000
vn 0.5878 -0.0000 -0.8090
vn 0.8660 -0.0000 -0.5000
vn 0.7431 -0.0000 -0.6691
vn -0.9945 -0.0000 0.1045
vn -0.9511 -0.0000 0.3090
vn 0.9511 -0.0000 -0.3090
vn 0.9945 -0.0000 -0.1045
vn -1.0000 -0.0000 -0.0000
vn 1.0000 -0.0000 -0.0000
vn 0.9945 -0.0000 0.1045
vn -0.0000 -1.0000 -0.0000
vt 0.000000 0.000000
vt 1.000000 1.000000
vt 0.000000 1.000000
vt 1.000000 0.000000
vt 0.793893 0.095491
vt 0.206107 0.095492
vt 0.024472 0.654509
vt 0.500000 1.000000
vt 0.975528 0.654508
s 0
f 64/1/1 76/2/1 63/3/1
f 10/4/2 8/3/2 6/1/2
f 7/4/3 9/3/3 5/1/3
f 4/1/1 7/2/1 3/3/1
f 6/4/4 4/3/4 2/1/4
f 15/4/5 17/3/5 13/1/5
f 15/4/6 9/3/6 11/1/6
f 12/4/1 7/3/1 8/1/1
f 20/4/1 15/3/1 16/1/1
f 19/4/7 21/3/7 17/1/7
f 14/4/8 12/3/8 10/1/8
f 16/4/1 11/3/1 12/1/1
f 23/4/9 25/3/9 21/1/9
f 18/4/10 16/3/10 14/1/10
f 26/4/11 24/3/11 22/1/11
f 24/4/1 19/3/1 20/1/1
f 22/4/12 20/3/12 18/1/12
f 31/4/13 33/3/13 29/1/13
f 32/4/1 27/3/1 28/1/1
f 31/4/14 25/3/14 27/1/14
f 28/4/1 23/3/1 24/1/1
f 36/4/1 31/3/1 32/1/1
f 43/4/15 37/3/15 39/1/15
f 30/4/16 28/3/16 26/1/16
f 38/4/17 36/3/17 34/1/17
f 34/4/18 32/3/18 30/1/18
f 42/4/19 40/3/19 38/1/19
f 35/4/20 37/3/20 33/1/20
f 43/4/21 45/3/21 41/1/21
f 40/4/1 35/3/1 36/1/1
f 48/4/1 43/3/1 44/1/1
f 47/4/22 49/3/22 45/1/22
f 44/4/1 39/3/1 40/1/1
f 51/4/23 53/3/23 49/1/23
f 46/4/24 44/3/24 42/1/24
f 54/4/25 52/3/25 50/1/25
f 52/4/1 47/3/1 48/1/1
f 50/4/26 48/3/26 46/1/26
f 59/4/27 61/3/27 57/1/27
f 59/4/28 53/3/28 55/1/28
f 56/4/1 51/3/1 52/1/1
f 64/4/1 59/3/1 60/1/1
f 66/5/18 68/6/18 69/7/18
f 58/4/29 56/3/29 54/1/29
f 60/4/1 55/3/1 56/1/1
f 62/4/30 60/3/30 58/1/30
f 76/6/18 75/7/18 73/8/18
f 72/4/18 65/3/18 71/1/18
f 63/4/31 74/3/31 61/1/31
f 70/4/18 72/3/18 71/1/18
f 69/4/1 4/3/1 3/1/1
f 73/4/32 64/3/32 62/1/32
f 68/4/31 2/3/31 4/1/31
f 67/4/32 3/3/32 1/1/32
f 3/4/33 5/3/33 1/1/33
f 2/3/1 66/2/1 72/4/1 73/2/1 62/1/1 58/1/1 54/1/1 50/1/1 46/1/1 42/1/1 38/1/1 34/1/1 30/1/1 26/1/1 22/1/1 18/1/1 14/1/1 10/1/1 6/1/1
f 65/9/34 67/8/34 1/1/34 5/3/34 9/3/34 13/2/34 17/3/34 21/3/34 25/3/34 29/2/34 33/3/34 37/3/34 41/2/34 45/3/34 49/3/34 53/3/34 57/2/34 61/3/34 74/3/34 70/9/34 71/1/34
f 64/1/1 75/4/1 76/2/1
f 10/4/2 12/2/2 8/3/2
f 7/4/3 11/2/3 9/3/3
f 4/1/1 8/4/1 7/2/1
f 6/4/4 8/2/4 4/3/4
f 15/4/5 19/2/5 17/3/5
f 15/4/6 13/2/6 9/3/6
f 12/4/1 11/2/1 7/3/1
f 20/4/1 19/2/1 15/3/1
f 19/4/7 23/2/7 21/3/7
f 14/4/8 16/2/8 12/3/8
f 16/4/1 15/2/1 11/3/1
f 23/4/9 27/2/9 25/3/9
f 18/4/10 20/2/10 16/3/10
f 26/4/11 28/2/11 24/3/11
f 24/4/1 23/2/1 19/3/1
f 22/4/12 24/2/12 20/3/12
f 31/4/13 35/2/13 33/3/13
f 32/4/1 31/2/1 27/3/1
f 31/4/14 29/2/14 25/3/14
f 28/4/1 27/2/1 23/3/1
f 36/4/1 35/2/1 31/3/1
f 43/4/15 41/2/15 37/3/15
f 30/4/16 32/2/16 28/3/16
f 38/4/17 40/2/17 36/3/17
f 34/4/18 36/2/18 32/3/18
f 42/4/19 44/2/19 40/3/19
f 35/4/20 39/2/20 37/3/20
f 43/4/21 47/2/21 45/3/21
f 40/4/1 39/2/1 35/3/1
f 48/4/1 47/2/1 43/3/1
f 47/4/22 51/2/22 49/3/22
f 44/4/1 43/2/1 39/3/1
f 51/4/23 55/2/23 53/3/23
f 46/4/24 48/2/24 44/3/24
f 54/4/25 56/2/25 52/3/25
f 52/4/1 51/2/1 47/3/1
f 50/4/26 52/2/26 48/3/26
f 59/4/27 63/2/27 61/3/27
f 59/4/28 57/2/28 53/3/28
f 56/4/1 55/2/1 51/3/1
f 64/4/1 63/2/1 59/3/1
f 69/7/18 67/8/18 66/5/18
f 67/8/18 65/9/18 66/5/18
f 58/4/29 60/2/29 56/3/29
f 60/4/1 59/2/1 55/3/1
f 62/4/30 64/2/30 60/3/30
f 73/8/18 70/9/18 74/5/18
f 74/5/18 76/6/18 73/8/18
f 72/4/18 66/2/18 65/3/18
f 63/4/31 76/2/31 74/3/31
f 70/4/18 73/2/18 72/3/18
f 69/4/1 68/2/1 4/3/1
f 73/4/32 75/2/32 64/3/32
f 68/4/31 66/2/31 2/3/31
f 67/4/32 69/2/32 3/3/32
f 3/4/33 7/2/33 5/3/33
