# Blender 4.1.1
# www.blender.org
o Straight6Pins_-_col
v 1.000000 0.000000 -1.000000
v 1.000000 0.000000 1.000000
v -1.000000 0.000000 -1.000000
v -1.000000 0.000000 1.000000
v 0.800000 0.200000 1.000000
v 0.800000 0.200000 -1.000000
v -0.802000 0.200000 1.000000
v -0.802000 0.200000 -1.000000
v 1.000000 0.400000 -1.000000
v 1.000000 0.400000 1.000000
v -0.802000 0.400000 1.000000
v -1.000000 0.400000 1.000000
v 0.800000 0.400000 -1.000000
v -1.000000 0.400000 -1.000000
v 0.800000 0.400000 1.000000
v -0.802000 0.400000 -1.000000
v 0.800000 0.200000 -0.333333
v 0.800000 0.200000 0.333333
v -0.802000 0.200000 -0.333333
v -0.802000 0.200000 0.333333
v -0.001000 0.200000 -1.000000
v -0.001000 0.200000 1.000000
v -0.001000 0.200000 -0.333333
v -0.001000 0.200000 0.333333
v -0.201000 0.200000 0.466667
v -0.402000 0.200000 0.466667
v -0.402000 0.200000 0.600000
v -0.201000 0.200000 0.600000
v -0.201000 0.200000 -0.600000
v -0.402000 0.200000 -0.600000
v -0.402000 0.200000 -0.466667
v -0.201000 0.200000 -0.466667
v -0.201000 0.200000 -0.066667
v -0.402000 0.200000 -0.066667
v -0.402000 0.200000 0.066667
v -0.201000 0.200000 0.066667
v 0.400000 0.200000 -0.066667
v 0.199000 0.200000 -0.066667
v 0.199000 0.200000 0.066667
v 0.400000 0.200000 0.066667
v 0.400000 0.200000 -0.600000
v 0.199000 0.200000 -0.600000
v 0.199000 0.200000 -0.466667
v 0.400000 0.200000 -0.466667
v 0.400000 0.200000 0.466667
v 0.199000 0.200000 0.466667
v 0.199000 0.200000 0.600000
v 0.400000 0.200000 0.600000
v -0.402000 0.400000 0.466667
v -0.201000 0.400000 0.466667
v -0.201000 0.400000 0.600000
v -0.402000 0.400000 0.600000
v -0.402000 0.400000 -0.600000
v -0.201000 0.400000 -0.600000
v -0.201000 0.400000 -0.466667
v -0.402000 0.400000 -0.466667
v -0.402000 0.400000 -0.066667
v -0.201000 0.400000 -0.066667
v -0.201000 0.400000 0.066667
v -0.402000 0.400000 0.066667
v 0.199000 0.400000 -0.066667
v 0.400000 0.400000 -0.066667
v 0.400000 0.400000 0.066667
v 0.199000 0.400000 0.066667
v 0.199000 0.400000 -0.600000
v 0.400000 0.400000 -0.600000
v 0.400000 0.400000 -0.466667
v 0.199000 0.400000 -0.466667
v 0.199000 0.400000 0.466667
v 0.400000 0.400000 0.466667
v 0.400000 0.400000 0.600000
v 0.199000 0.400000 0.600000
vn -1.0000 -0.0000 -0.0000
vn -0.0000 -1.0000 -0.0000
vn -0.0000 -0.0000 1.0000
vn 1.0000 -0.0000 -0.0000
vn -0.0000 -0.0000 -1.0000
vn -0.0000 1.0000 -0.0000
vt 0.577894 0.352258
vt 0.610451 0.189475
vt 0.610451 0.352258
vt 0.002104 0.711242
vt 0.164887 0.548459
vt 0.164887 0.711242
vt 0.629861 0.270948
vt 0.629861 0.336143
vt 0.613583 0.352258
vt 0.649272 0.243736
vt 0.665550 0.189475
vt 0.665550 0.352258
vt 0.597720 0.148071
vt 0.597720 0.126367
vt 0.610133 0.371867
vt 0.610133 0.534651
vt 0.593855 0.453340
vt 0.684480 0.371867
vt 0.668365 0.534651
vt 0.668365 0.371867
vt 0.205436 0.183958
vt 0.189157 0.346741
vt 0.189157 0.183958
vt 0.648954 0.426128
vt 0.665232 0.371867
vt 0.665232 0.534651
vt 0.645822 0.371867
vt 0.613265 0.534651
vt 0.613265 0.371867
vt 0.565082 0.093810
vt 0.597720 0.093810
vt 0.597720 0.039549
vt 0.597720 0.017844
vt 0.565082 0.148071
vt 0.565082 0.039549
vt 0.662915 0.017844
vt 0.630277 0.017844
vt 0.613998 0.055827
vt 0.548804 0.055827
vt 0.565082 0.017844
vt 0.613998 0.001566
vt 0.548804 0.001566
vt 0.613998 0.164349
vt 0.548804 0.110088
vt 0.548804 0.164349
vt 0.613998 0.110088
vt 0.565082 0.126367
vt 0.565082 0.072105
vt 0.597720 0.072105
vt 0.662915 0.093810
vt 0.679193 0.110088
vt 0.630277 0.093810
vt 0.662915 0.072105
vt 0.630277 0.072105
vt 0.679193 0.055827
vt 0.662915 0.148071
vt 0.679193 0.164349
vt 0.630277 0.148071
vt 0.662915 0.126367
vt 0.630277 0.126367
vt 0.662915 0.039549
vt 0.630277 0.039549
vt 0.679193 0.001566
vt 0.577894 0.189475
vt 0.002104 0.548459
vt 0.613583 0.189475
vt 0.646140 0.189475
vt 0.629861 0.205753
vt 0.646140 0.205753
vt 0.646140 0.336143
vt 0.646140 0.352258
vt 0.649272 0.352258
vt 0.649272 0.297997
vt 0.649272 0.189475
vt 0.593855 0.388146
vt 0.577577 0.388146
vt 0.577577 0.371867
vt 0.577577 0.534651
vt 0.593855 0.518535
vt 0.577577 0.518535
vt 0.684480 0.534651
vt 0.205436 0.346741
vt 0.648954 0.534651
vt 0.648954 0.480389
vt 0.648954 0.371867
vt 0.645822 0.534651
s 0
f 12/1/1 3/2/1 4/3/1
f 1/4/2 4/5/2 3/6/2
f 22/7/3 7/8/3 4/9/3
f 18/10/1 15/11/1 13/12/1
f 29/13/4 55/14/4 32/14/4
f 1/15/5 3/16/5 21/17/5
f 14/18/6 11/19/6 16/20/6
f 13/21/6 10/22/6 9/23/6
f 19/24/4 16/25/4 11/26/4
f 9/27/4 2/28/4 1/29/4
f 34/30/5 58/31/5 33/31/5
f 25/32/4 51/33/4 28/33/4
f 30/34/5 54/13/5 29/13/5
f 26/35/5 50/32/5 25/32/5
f 48/36/3 72/37/3 47/37/3
f 24/38/6 26/35/6 25/32/6
f 20/39/6 27/40/6 26/35/6
f 22/41/6 27/40/6 7/42/6
f 24/38/6 28/33/6 22/41/6
f 21/43/6 30/34/6 29/13/6
f 19/44/6 30/34/6 8/45/6
f 23/46/6 31/47/6 19/44/6
f 23/46/6 29/13/6 32/14/6
f 23/46/6 34/30/6 33/31/6
f 20/39/6 34/30/6 19/44/6
f 24/38/6 35/48/6 20/39/6
f 23/46/6 36/49/6 24/38/6
f 23/46/6 37/50/6 17/51/6
f 24/38/6 38/52/6 23/46/6
f 24/38/6 40/53/6 39/54/6
f 17/51/6 40/53/6 18/55/6
f 21/43/6 41/56/6 6/57/6
f 23/46/6 42/58/6 21/43/6
f 23/46/6 44/59/6 43/60/6
f 17/51/6 41/56/6 44/59/6
f 24/38/6 45/61/6 18/55/6
f 24/38/6 47/37/6 46/62/6
f 22/41/6 48/36/6 47/37/6
f 18/55/6 48/36/6 5/63/6
f 49/35/6 51/33/6 50/32/6
f 53/34/6 55/14/6 54/13/6
f 57/30/6 59/49/6 58/31/6
f 61/52/6 63/53/6 62/50/6
f 65/58/6 67/59/6 66/56/6
f 69/62/6 71/36/6 70/61/6
f 38/52/5 62/50/5 37/50/5
f 27/40/1 49/35/1 26/35/1
f 33/31/4 59/49/4 36/49/4
f 42/58/5 66/56/5 41/56/5
f 31/47/1 53/34/1 30/34/1
f 37/50/4 63/53/4 40/53/4
f 46/62/5 70/61/5 45/61/5
f 28/33/3 52/40/3 27/40/3
f 35/48/1 57/30/1 34/30/1
f 41/56/4 67/59/4 44/59/4
f 32/14/3 56/47/3 31/47/3
f 39/54/1 61/52/1 38/52/1
f 45/61/4 71/36/4 48/36/4
f 36/49/3 60/48/3 35/48/3
f 43/60/1 65/58/1 42/58/1
f 40/53/3 64/54/3 39/54/3
f 47/37/1 69/62/1 46/62/1
f 44/59/3 68/60/3 43/60/3
f 12/1/1 14/64/1 3/2/1
f 1/4/2 2/65/2 4/5/2
f 2/66/3 10/67/3 5/68/3
f 10/67/3 15/69/3 5/68/3
f 11/70/3 12/71/3 7/8/3
f 12/71/3 4/9/3 7/8/3
f 4/9/3 2/66/3 22/7/3
f 2/66/3 5/68/3 22/7/3
f 13/12/1 6/72/1 17/73/1
f 18/10/1 5/74/1 15/11/1
f 13/12/1 17/73/1 18/10/1
f 29/13/4 54/13/4 55/14/4
f 6/75/5 13/76/5 9/77/5
f 3/16/5 14/78/5 8/79/5
f 14/78/5 16/80/5 8/79/5
f 6/75/5 9/77/5 1/15/5
f 3/16/5 8/79/5 21/17/5
f 21/17/5 6/75/5 1/15/5
f 14/18/6 12/81/6 11/19/6
f 13/21/6 15/82/6 10/22/6
f 11/26/4 7/83/4 20/84/4
f 19/24/4 8/85/4 16/25/4
f 11/26/4 20/84/4 19/24/4
f 9/27/4 10/86/4 2/28/4
f 34/30/5 57/30/5 58/31/5
f 25/32/4 50/32/4 51/33/4
f 30/34/5 53/34/5 54/13/5
f 26/35/5 49/35/5 50/32/5
f 48/36/3 71/36/3 72/37/3
f 24/38/6 20/39/6 26/35/6
f 20/39/6 7/42/6 27/40/6
f 22/41/6 28/33/6 27/40/6
f 24/38/6 25/32/6 28/33/6
f 21/43/6 8/45/6 30/34/6
f 19/44/6 31/47/6 30/34/6
f 23/46/6 32/14/6 31/47/6
f 23/46/6 21/43/6 29/13/6
f 23/46/6 19/44/6 34/30/6
f 20/39/6 35/48/6 34/30/6
f 24/38/6 36/49/6 35/48/6
f 23/46/6 33/31/6 36/49/6
f 23/46/6 38/52/6 37/50/6
f 24/38/6 39/54/6 38/52/6
f 24/38/6 18/55/6 40/53/6
f 17/51/6 37/50/6 40/53/6
f 21/43/6 42/58/6 41/56/6
f 23/46/6 43/60/6 42/58/6
f 23/46/6 17/51/6 44/59/6
f 17/51/6 6/57/6 41/56/6
f 24/38/6 46/62/6 45/61/6
f 24/38/6 22/41/6 47/37/6
f 22/41/6 5/63/6 48/36/6
f 18/55/6 45/61/6 48/36/6
f 49/35/6 52/40/6 51/33/6
f 53/34/6 56/47/6 55/14/6
f 57/30/6 60/48/6 59/49/6
f 61/52/6 64/54/6 63/53/6
f 65/58/6 68/60/6 67/59/6
f 69/62/6 72/37/6 71/36/6
f 38/52/5 61/52/5 62/50/5
f 27/40/1 52/40/1 49/35/1
f 33/31/4 58/31/4 59/49/4
f 42/58/5 65/58/5 66/56/5
f 31/47/1 56/47/1 53/34/1
f 37/50/4 62/50/4 63/53/4
f 46/62/5 69/62/5 70/61/5
f 28/33/3 51/33/3 52/40/3
f 35/48/1 60/48/1 57/30/1
f 41/56/4 66/56/4 67/59/4
f 32/14/3 55/14/3 56/47/3
f 39/54/1 64/54/1 61/52/1
f 45/61/4 70/61/4 71/36/4
f 36/49/3 59/49/3 60/48/3
f 43/60/1 68/60/1 65/58/1
f 40/53/3 63/53/3 64/54/3
f 47/37/1 72/37/1 69/62/1
f 44/59/3 67/59/3 68/60/3
