# Blender 4.1.1
# www.blender.org
o Straight2Pins_-_col
v 1.000000 0.000000 -1.000000
v 1.000000 0.000000 1.000000
v -1.000000 0.000000 -1.000000
v -1.000000 0.000000 1.000000
v 0.800000 0.200000 1.000000
v 0.800000 0.200000 -1.000000
v -0.802000 0.200000 1.000000
v -0.802000 0.200000 -1.000000
v 1.000000 0.400000 -1.000000
v 1.000000 0.400000 1.000000
v -0.802000 0.400000 1.000000
v -1.000000 0.400000 1.000000
v 0.800000 0.400000 -1.000000
v -1.000000 0.400000 -1.000000
v 0.800000 0.400000 1.000000
v -0.802000 0.400000 -1.000000
v -0.001000 0.200000 -1.000000
v -0.001000 0.200000 1.000000
v -0.201000 0.200000 -0.600000
v -0.402000 0.200000 -0.600000
v -0.402000 0.200000 0.600000
v -0.201000 0.200000 0.600000
v 0.400000 0.200000 -0.600000
v 0.199000 0.200000 -0.600000
v 0.199000 0.200000 0.600000
v 0.400000 0.200000 0.600000
v -0.402000 0.400000 -0.600000
v -0.201000 0.400000 -0.600000
v -0.201000 0.400000 0.600000
v -0.402000 0.400000 0.600000
v 0.199000 0.400000 -0.600000
v 0.400000 0.400000 -0.600000
v 0.400000 0.400000 0.600000
v 0.199000 0.400000 0.600000
vn -1.0000 -0.0000 -0.0000
vn -0.0000 -1.0000 -0.0000
vn -0.0000 -0.0000 1.0000
vn -0.0000 -0.0000 -1.0000
vn -0.0000 1.0000 -0.0000
vn 1.0000 -0.0000 -0.0000
vt 0.577894 0.352258
vt 0.610451 0.189475
vt 0.610451 0.352258
vt 0.002104 0.711242
vt 0.164887 0.548459
vt 0.164887 0.711242
vt 0.629861 0.270948
vt 0.629861 0.336143
vt 0.613583 0.352258
vt 0.649272 0.189475
vt 0.665550 0.352258
vt 0.649272 0.352258
vt 0.662915 0.017844
vt 0.630277 0.017844
vt 0.610133 0.371867
vt 0.610133 0.534651
vt 0.593855 0.453340
vt 0.684480 0.371867
vt 0.668365 0.534651
vt 0.668365 0.371867
vt 0.205436 0.183958
vt 0.189157 0.346741
vt 0.189157 0.183958
vt 0.648954 0.371867
vt 0.665232 0.534651
vt 0.648954 0.534651
vt 0.645822 0.371867
vt 0.613265 0.534651
vt 0.613265 0.371867
vt 0.565082 0.017844
vt 0.565082 0.148071
vt 0.613998 0.164349
vt 0.597720 0.148071
vt 0.548804 0.001566
vt 0.548804 0.164349
vt 0.613998 0.001566
vt 0.597720 0.017844
vt 0.662915 0.148071
vt 0.679193 0.164349
vt 0.630277 0.148071
vt 0.679193 0.001566
vt 0.577894 0.189475
vt 0.002104 0.548459
vt 0.613583 0.189475
vt 0.646140 0.189475
vt 0.629861 0.205753
vt 0.646140 0.205753
vt 0.646140 0.336143
vt 0.646140 0.352258
vt 0.665550 0.189475
vt 0.593855 0.388146
vt 0.577577 0.388146
vt 0.577577 0.371867
vt 0.577577 0.534651
vt 0.593855 0.518535
vt 0.577577 0.518535
vt 0.684480 0.534651
vt 0.205436 0.346741
vt 0.665232 0.371867
vt 0.645822 0.534651
s 0
f 12/1/1 3/2/1 4/3/1
f 1/4/2 4/5/2 3/6/2
f 18/7/3 7/8/3 4/9/3
f 5/10/1 13/11/1 6/12/1
f 26/13/3 34/14/3 25/14/3
f 1/15/4 3/16/4 17/17/4
f 14/18/5 11/19/5 16/20/5
f 13/21/5 10/22/5 9/23/5
f 8/24/6 11/25/6 7/26/6
f 9/27/6 2/28/6 1/29/6
f 21/30/1 27/31/1 20/31/1
f 17/32/5 20/31/5 19/33/5
f 7/34/5 20/31/5 8/35/5
f 18/36/5 21/30/5 7/34/5
f 17/32/5 22/37/5 18/36/5
f 17/32/5 23/38/5 6/39/5
f 18/36/5 24/40/5 17/32/5
f 18/36/5 26/13/5 25/14/5
f 6/39/5 26/13/5 5/41/5
f 27/31/5 29/37/5 28/33/5
f 31/40/5 33/13/5 32/38/5
f 20/31/4 28/33/4 19/33/4
f 23/38/6 33/13/6 26/13/6
f 22/37/3 30/30/3 21/30/3
f 19/33/6 29/37/6 22/37/6
f 25/14/1 31/40/1 24/40/1
f 24/40/4 32/38/4 23/38/4
f 12/1/1 14/42/1 3/2/1
f 1/4/2 2/43/2 4/5/2
f 2/44/3 10/45/3 5/46/3
f 10/45/3 15/47/3 5/46/3
f 11/48/3 12/49/3 7/8/3
f 12/49/3 4/9/3 7/8/3
f 4/9/3 2/44/3 18/7/3
f 2/44/3 5/46/3 18/7/3
f 5/10/1 15/50/1 13/11/1
f 26/13/3 33/13/3 34/14/3
f 6/51/4 13/52/4 9/53/4
f 3/16/4 14/54/4 8/55/4
f 14/54/4 16/56/4 8/55/4
f 6/51/4 9/53/4 1/15/4
f 3/16/4 8/55/4 17/17/4
f 17/17/4 6/51/4 1/15/4
f 14/18/5 12/57/5 11/19/5
f 13/21/5 15/58/5 10/22/5
f 8/24/6 16/59/6 11/25/6
f 9/27/6 10/60/6 2/28/6
f 21/30/1 30/30/1 27/31/1
f 17/32/5 8/35/5 20/31/5
f 7/34/5 21/30/5 20/31/5
f 18/36/5 22/37/5 21/30/5
f 17/32/5 19/33/5 22/37/5
f 17/32/5 24/40/5 23/38/5
f 18/36/5 25/14/5 24/40/5
f 18/36/5 5/41/5 26/13/5
f 6/39/5 23/38/5 26/13/5
f 27/31/5 30/30/5 29/37/5
f 31/40/5 34/14/5 33/13/5
f 20/31/4 27/31/4 28/33/4
f 23/38/6 32/38/6 33/13/6
f 22/37/3 29/37/3 30/30/3
f 19/33/6 28/33/6 29/37/6
f 25/14/1 34/14/1 31/40/1
f 24/40/4 31/40/4 32/38/4
