# Blender 4.2.2 LTS
# www.blender.org
mtllib StraightOneWall.mtl
o StraightOneWall
v -1.000000 0.000000 1.000000
v -1.000000 0.000000 -1.000000
v 1.000000 0.000000 1.000000
v 1.000000 0.000000 -1.000000
v -1.000000 0.200000 -1.000000
v -1.000000 0.200000 1.000000
v 1.000000 0.200000 -1.000000
v 1.000000 0.200000 1.000000
v 0.800000 0.000000 -1.000000
v 0.800000 0.000000 1.000000
v 0.800000 0.200000 -1.000000
v 0.800000 0.200000 1.000000
v 0.800000 0.200000 -1.000000
v 0.800000 0.200000 1.000000
v 1.000000 0.600000 1.000000
v 1.000000 0.600000 -1.000000
v 0.800000 0.600000 1.000000
v 0.800000 0.600000 -1.000000
vn -0.0000 1.0000 -0.0000
vn -1.0000 -0.0000 -0.0000
vn -0.0000 -0.0000 -1.0000
vn -0.0000 -0.0000 1.0000
vn 1.0000 -0.0000 -0.0000
vn -0.0000 -1.0000 -0.0000
vt 0.350000 0.500000
vt 0.350000 0.750000
vt 0.375000 0.750000
vt 0.375000 0.500000
vt 0.125000 0.750000
vt 0.350000 0.750000
vt 0.350000 0.500000
vt 0.125000 0.500000
s 0
usemtl Grass
f 9/1/1 10/2/1 3/3/1 4/4/1
f 7/4/2 8/3/2 15/3/2 16/4/2
f 10/2/3 1/5/3 6/5/3 12/6/3
f 9/1/4 4/4/4 7/4/4 11/7/4
f 4/4/2 3/3/2 8/3/2 7/4/2
f 1/5/5 2/8/5 5/8/5 6/5/5
f 2/8/4 9/1/4 11/7/4 5/8/4
f 3/3/3 10/2/3 12/6/3 8/3/3
f 5/8/6 11/7/6 12/6/6 6/5/6
f 2/8/1 1/5/1 10/2/1 9/1/1
f 12/6/1 11/7/1 13/7/1 14/6/1
usemtl Wood
f 18/7/6 16/4/6 15/3/6 17/6/6
f 8/3/3 12/6/3 17/6/3 15/3/3
f 12/6/5 11/7/5 18/7/5 17/6/5
f 11/7/4 7/4/4 16/4/4 18/7/4
