# Blender 4.1.1
# www.blender.org
o Straight4Pins_-_col
v 1.000000 0.000000 -1.000000
v 1.000000 0.000000 1.000000
v -1.000000 0.000000 -1.000000
v -1.000000 0.000000 1.000000
v 0.800000 0.200000 1.000000
v 0.800000 0.200000 -1.000000
v -0.802000 0.200000 1.000000
v -0.802000 0.200000 -1.000000
v 1.000000 0.400000 -1.000000
v 1.000000 0.400000 1.000000
v -0.802000 0.400000 1.000000
v -1.000000 0.400000 1.000000
v 0.800000 0.400000 -1.000000
v -1.000000 0.400000 -1.000000
v 0.800000 0.400000 1.000000
v -0.802000 0.400000 -1.000000
v -0.001000 0.200000 -1.000000
v 0.800000 0.200000 0.000000
v -0.001000 0.200000 1.000000
v -0.802000 0.200000 0.000000
v -0.001000 0.200000 0.000000
v -0.201000 0.200000 0.200000
v -0.402000 0.200000 0.200000
v -0.402000 0.200000 0.600000
v -0.201000 0.200000 0.600000
v 0.400000 0.200000 0.200000
v 0.199000 0.200000 0.200000
v 0.199000 0.200000 0.600000
v 0.400000 0.200000 0.600000
v 0.400000 0.200000 -0.600000
v 0.199000 0.200000 -0.600000
v 0.199000 0.200000 -0.200000
v 0.400000 0.200000 -0.200000
v -0.201000 0.200000 -0.600000
v -0.402000 0.200000 -0.600000
v -0.402000 0.200000 -0.200000
v -0.201000 0.200000 -0.200000
v -0.402000 0.400000 0.200000
v -0.201000 0.400000 0.200000
v -0.201000 0.400000 0.600000
v -0.402000 0.400000 0.600000
v 0.199000 0.400000 0.200000
v 0.400000 0.400000 0.200000
v 0.400000 0.400000 0.600000
v 0.199000 0.400000 0.600000
v 0.199000 0.400000 -0.600000
v 0.400000 0.400000 -0.600000
v 0.400000 0.400000 -0.200000
v 0.199000 0.400000 -0.200000
v -0.402000 0.400000 -0.600000
v -0.201000 0.400000 -0.600000
v -0.201000 0.400000 -0.200000
v -0.402000 0.400000 -0.200000
vn -1.0000 -0.0000 -0.0000
vn -0.0000 -1.0000 -0.0000
vn -0.0000 -0.0000 1.0000
vn -0.0000 -0.0000 -1.0000
vn -0.0000 1.0000 -0.0000
vn 1.0000 -0.0000 -0.0000
vt 0.577894 0.352258
vt 0.610451 0.189475
vt 0.610451 0.352258
vt 0.002104 0.711242
vt 0.164887 0.548459
vt 0.164887 0.711242
vt 0.629861 0.270948
vt 0.629861 0.336143
vt 0.613583 0.352258
vt 0.649272 0.270867
vt 0.665550 0.189475
vt 0.665550 0.352258
vt 0.630277 0.148071
vt 0.662915 0.148071
vt 0.610133 0.371867
vt 0.610133 0.534651
vt 0.593855 0.453340
vt 0.684480 0.371867
vt 0.668365 0.534651
vt 0.668365 0.371867
vt 0.205436 0.183958
vt 0.189157 0.346741
vt 0.189157 0.183958
vt 0.648954 0.453259
vt 0.665232 0.371867
vt 0.665232 0.534651
vt 0.645822 0.371867
vt 0.613265 0.534651
vt 0.613265 0.371867
vt 0.597720 0.066679
vt 0.597720 0.017844
vt 0.630277 0.066679
vt 0.662915 0.066679
vt 0.565082 0.066679
vt 0.613998 0.082958
vt 0.548804 0.082958
vt 0.565082 0.017844
vt 0.613998 0.001566
vt 0.548804 0.001566
vt 0.679193 0.082958
vt 0.630277 0.017844
vt 0.662915 0.017844
vt 0.679193 0.001566
vt 0.613998 0.164349
vt 0.679193 0.164349
vt 0.662915 0.099236
vt 0.630277 0.099236
vt 0.565082 0.148071
vt 0.597720 0.148071
vt 0.548804 0.164349
vt 0.565082 0.099236
vt 0.597720 0.099236
vt 0.577894 0.189475
vt 0.002104 0.548459
vt 0.613583 0.189475
vt 0.646140 0.189475
vt 0.629861 0.205753
vt 0.646140 0.205753
vt 0.646140 0.336143
vt 0.646140 0.352258
vt 0.649272 0.352258
vt 0.649272 0.189475
vt 0.593855 0.388146
vt 0.577577 0.388146
vt 0.577577 0.371867
vt 0.577577 0.534651
vt 0.593855 0.518535
vt 0.577577 0.518535
vt 0.684480 0.534651
vt 0.205436 0.346741
vt 0.648954 0.534651
vt 0.648954 0.371867
vt 0.645822 0.534651
s 0
f 12/1/1 3/2/1 4/3/1
f 1/4/2 4/5/2 3/6/2
f 19/7/3 7/8/3 4/9/3
f 18/10/1 15/11/1 13/12/1
f 31/13/4 47/14/4 30/14/4
f 1/15/4 3/16/4 17/17/4
f 14/18/5 11/19/5 16/20/5
f 13/21/5 10/22/5 9/23/5
f 20/24/6 16/25/6 11/26/6
f 9/27/6 2/28/6 1/29/6
f 22/30/6 40/31/6 25/31/6
f 27/32/4 43/33/4 26/33/4
f 23/34/4 39/30/4 22/30/4
f 21/35/5 23/34/5 22/30/5
f 20/36/5 24/37/5 23/34/5
f 19/38/5 24/37/5 7/39/5
f 21/35/5 25/31/5 19/38/5
f 21/35/5 26/33/5 18/40/5
f 21/35/5 28/41/5 27/32/5
f 19/38/5 29/42/5 28/41/5
f 18/40/5 29/42/5 5/43/5
f 17/44/5 30/14/5 6/45/5
f 21/35/5 31/13/5 17/44/5
f 21/35/5 33/46/5 32/47/5
f 18/40/5 30/14/5 33/46/5
f 17/44/5 35/48/5 34/49/5
f 20/36/5 35/48/5 8/50/5
f 21/35/5 36/51/5 20/36/5
f 21/35/5 34/49/5 37/52/5
f 38/34/5 40/31/5 39/30/5
f 42/32/5 44/42/5 43/33/5
f 46/13/5 48/46/5 47/14/5
f 50/48/5 52/52/5 51/49/5
f 26/33/6 44/42/6 29/42/6
f 35/48/4 51/49/4 34/49/4
f 24/37/1 38/34/1 23/34/1
f 30/14/6 48/46/6 33/46/6
f 28/41/1 42/32/1 27/32/1
f 34/49/6 52/52/6 37/52/6
f 25/31/3 41/37/3 24/37/3
f 32/47/1 46/13/1 31/13/1
f 29/42/3 45/41/3 28/41/3
f 36/51/1 50/48/1 35/48/1
f 33/46/3 49/47/3 32/47/3
f 37/52/3 53/51/3 36/51/3
f 12/1/1 14/53/1 3/2/1
f 1/4/2 2/54/2 4/5/2
f 2/55/3 10/56/3 5/57/3
f 10/56/3 15/58/3 5/57/3
f 11/59/3 12/60/3 7/8/3
f 12/60/3 4/9/3 7/8/3
f 4/9/3 2/55/3 19/7/3
f 2/55/3 5/57/3 19/7/3
f 13/12/1 6/61/1 18/10/1
f 18/10/1 5/62/1 15/11/1
f 31/13/4 46/13/4 47/14/4
f 6/63/4 13/64/4 9/65/4
f 3/16/4 14/66/4 8/67/4
f 14/66/4 16/68/4 8/67/4
f 6/63/4 9/65/4 1/15/4
f 3/16/4 8/67/4 17/17/4
f 17/17/4 6/63/4 1/15/4
f 14/18/5 12/69/5 11/19/5
f 13/21/5 15/70/5 10/22/5
f 11/26/6 7/71/6 20/24/6
f 20/24/6 8/72/6 16/25/6
f 9/27/6 10/73/6 2/28/6
f 22/30/6 39/30/6 40/31/6
f 27/32/4 42/32/4 43/33/4
f 23/34/4 38/34/4 39/30/4
f 21/35/5 20/36/5 23/34/5
f 20/36/5 7/39/5 24/37/5
f 19/38/5 25/31/5 24/37/5
f 21/35/5 22/30/5 25/31/5
f 21/35/5 27/32/5 26/33/5
f 21/35/5 19/38/5 28/41/5
f 19/38/5 5/43/5 29/42/5
f 18/40/5 26/33/5 29/42/5
f 17/44/5 31/13/5 30/14/5
f 21/35/5 32/47/5 31/13/5
f 21/35/5 18/40/5 33/46/5
f 18/40/5 6/45/5 30/14/5
f 17/44/5 8/50/5 35/48/5
f 20/36/5 36/51/5 35/48/5
f 21/35/5 37/52/5 36/51/5
f 21/35/5 17/44/5 34/49/5
f 38/34/5 41/37/5 40/31/5
f 42/32/5 45/41/5 44/42/5
f 46/13/5 49/47/5 48/46/5
f 50/48/5 53/51/5 52/52/5
f 26/33/6 43/33/6 44/42/6
f 35/48/4 50/48/4 51/49/4
f 24/37/1 41/37/1 38/34/1
f 30/14/6 47/14/6 48/46/6
f 28/41/1 45/41/1 42/32/1
f 34/49/6 51/49/6 52/52/6
f 25/31/3 40/31/3 41/37/3
f 32/47/1 49/47/1 46/13/1
f 29/42/3 44/42/3 45/41/3
f 36/51/1 53/51/1 50/48/1
f 33/46/3 48/46/3 49/47/3
f 37/52/3 52/52/3 53/51/3
