# Blender 4.2.1 LTS
# www.blender.org
mtllib StraightLeft.mtl
o StraightLeft
v 1.000000 0.000000 -1.000000
v 1.000000 0.000000 1.000000
v -1.000000 0.000000 -1.000000
v 0.000000 0.000000 1.000000
v 0.800000 0.200000 1.000000
v 0.800000 0.200000 -1.000000
v 0.198000 0.200000 1.000000
v -0.802000 0.200000 -1.000000
v 1.000000 0.600000 -1.000000
v 1.000000 0.600000 1.000000
v 0.198000 0.600000 1.000000
v 0.000000 0.600000 1.000000
v 0.800000 0.600000 -1.000000
v -1.000000 0.600000 -1.000000
v 0.800000 0.600000 1.000000
v -0.802000 0.600000 -1.000000
vn -0.8944 -0.0000 0.4472
vn -0.0000 -1.0000 -0.0000
vn -0.0000 -0.0000 1.0000
vn -1.0000 -0.0000 -0.0000
vn -0.0000 1.0000 -0.0000
vn -0.0000 -0.0000 -1.0000
vn 0.8944 -0.0000 -0.4472
vn 1.0000 -0.0000 -0.0000
vt 1.000000 0.000000
vt 0.000000 1.000000
vt 0.000000 0.000000
vt 0.500000 1.000000
vt 0.500000 0.000000
vt 0.146447 0.853553
vt 1.000000 1.000000
vt 0.853553 0.146447
vt 0.853553 0.853553
vt 1.000000 0.500000
vt 0.146447 0.146447
vt 0.000000 0.500000
s 0
usemtl Grass
f 6/3/5 7/7/5 5/2/5
f 6/3/5 8/1/5 7/7/5
usemtl Wood
f 12/1/1 3/2/1 4/3/1
f 1/1/2 4/2/2 3/3/2
f 2/4/3 7/5/3 4/6/3
f 5/1/4 13/2/4 6/3/4
f 6/4/6 1/8/6 3/5/6
f 16/3/5 12/7/5 11/2/5
f 13/1/5 10/2/5 9/3/5
f 8/1/7 11/2/7 7/3/7
f 9/1/8 2/2/8 1/3/8
f 12/1/1 14/7/1 3/2/1
f 1/1/2 2/7/2 4/2/2
f 2/4/3 10/9/3 15/10/3
f 2/4/3 15/10/3 5/8/3
f 11/11/3 12/12/3 4/6/3
f 2/4/3 5/8/3 7/5/3
f 7/5/3 11/11/3 4/6/3
f 5/1/4 15/7/4 13/2/4
f 6/4/6 13/9/6 9/10/6
f 3/5/6 14/11/6 16/12/6
f 3/5/6 16/12/6 8/6/6
f 6/4/6 9/10/6 1/8/6
f 3/5/6 8/6/6 6/4/6
f 16/3/5 14/1/5 12/7/5
f 13/1/5 15/7/5 10/2/5
f 8/1/7 16/7/7 11/2/7
f 9/1/8 10/7/8 2/2/8
