# Blender 4.1.1
# www.blender.org
o ThickThinThick_
v 1.000000 0.000000 -1.000000
v 1.000000 0.000000 1.000000
v -1.000000 0.000000 -1.000000
v -1.000000 0.000000 1.000000
v 0.800000 0.200000 1.000000
v 0.800000 0.200000 -1.000000
v -0.802000 0.200000 1.000000
v -0.802000 0.200000 -1.000000
v 1.000000 0.600000 -1.000000
v 1.000000 0.600000 1.000000
v -0.802000 0.600000 1.000000
v -1.000000 0.600000 1.000000
v 0.800000 0.600000 -1.000000
v -1.000000 0.600000 -1.000000
v 0.800000 0.600000 1.000000
v -0.802000 0.600000 -1.000000
v -0.500000 0.000000 -0.333333
v -0.500000 0.000000 0.333333
v 0.500000 0.000000 0.333333
v 0.500000 0.000000 -0.333333
v 0.300000 0.200000 -0.333333
v 0.300000 0.200000 0.333333
v -0.302000 0.200000 -0.333333
v -0.302000 0.200000 0.333333
v 0.500000 0.600000 -0.333333
v 0.500000 0.600000 0.333333
v -0.500000 0.600000 0.333333
v -0.500000 0.600000 -0.333333
v 0.300000 0.600000 -0.333333
v 0.300000 0.600000 0.333333
v -0.302000 0.600000 -0.333333
v -0.302000 0.600000 0.333333
vn -0.8000 -0.0000 0.6000
vn -0.0000 -1.0000 -0.0000
vn -0.0000 -0.0000 1.0000
vn -0.0000 1.0000 -0.0000
vn -0.0000 -0.0000 -1.0000
vn 0.8000 -0.0000 -0.6000
vn 0.8000 -0.0000 0.6000
vn 1.0000 -0.0000 -0.0000
vn -0.8000 -0.0000 -0.6000
vn -1.0000 -0.0000 -0.0000
vt 1.000000 0.000000
vt 0.000000 1.000000
vt 0.000000 0.000000
vt 0.500000 1.000000
vt 0.500000 0.000000
vt 0.146447 0.853553
vt 0.853553 0.146447
vt 1.000000 1.000000
vt 0.853553 0.853553
vt 1.000000 0.500000
vt 0.146447 0.146447
vt 0.000000 0.500000
s 0
f 28/1/1 3/2/1 17/3/1
f 19/1/2 4/2/2 18/3/2
f 2/4/3 7/5/3 4/6/3
f 5/1/1 30/2/1 22/3/1
f 24/1/4 5/2/4 22/3/4
f 6/4/5 1/7/5 3/5/5
f 27/1/4 11/2/4 32/3/4
f 26/3/4 15/8/4 10/2/4
f 8/1/6 31/2/6 23/3/6
f 26/1/6 2/2/6 19/3/6
f 9/1/7 20/2/7 1/3/7
f 25/1/8 19/2/8 20/3/8
f 24/1/7 11/2/7 7/3/7
f 23/1/8 32/2/8 24/3/8
f 13/1/4 25/2/4 9/3/4
f 29/1/4 26/2/4 25/3/4
f 16/3/4 28/8/4 31/2/4
f 28/1/4 32/2/4 31/3/4
f 8/1/4 21/2/4 6/3/4
f 23/1/4 22/2/4 21/3/4
f 21/1/9 13/2/9 6/3/9
f 22/1/10 29/2/10 21/3/10
f 1/1/2 17/2/2 3/3/2
f 20/1/2 18/2/2 17/3/2
f 12/1/9 18/2/9 4/3/9
f 27/1/10 17/2/10 18/3/10
f 28/1/1 14/8/1 3/2/1
f 19/1/2 2/8/2 4/2/2
f 2/4/3 10/9/3 15/10/3
f 2/4/3 15/10/3 5/7/3
f 11/11/3 12/12/3 4/6/3
f 2/4/3 5/7/3 7/5/3
f 7/5/3 11/11/3 4/6/3
f 5/1/1 15/8/1 30/2/1
f 24/1/4 7/8/4 5/2/4
f 6/4/5 13/9/5 9/10/5
f 3/5/5 14/11/5 16/12/5
f 3/5/5 16/12/5 8/6/5
f 6/4/5 9/10/5 1/7/5
f 3/5/5 8/6/5 6/4/5
f 27/1/4 12/8/4 11/2/4
f 26/3/4 30/1/4 15/8/4
f 8/1/6 16/8/6 31/2/6
f 26/1/6 10/8/6 2/2/6
f 9/1/7 25/8/7 20/2/7
f 25/1/8 26/8/8 19/2/8
f 24/1/7 32/8/7 11/2/7
f 23/1/8 31/8/8 32/2/8
f 13/1/4 29/8/4 25/2/4
f 29/1/4 30/8/4 26/2/4
f 16/3/4 14/1/4 28/8/4
f 28/1/4 27/8/4 32/2/4
f 8/1/4 23/8/4 21/2/4
f 23/1/4 24/8/4 22/2/4
f 21/1/9 29/8/9 13/2/9
f 22/1/10 30/8/10 29/2/10
f 1/1/2 20/8/2 17/2/2
f 20/1/2 19/8/2 18/2/2
f 12/1/9 27/8/9 18/2/9
f 27/1/10 28/8/10 17/2/10
