# Blender 4.1.1
# www.blender.org
o ThickThickThin_
v 1.000000 0.000000 -1.000000
v 0.500000 0.000000 1.000000
v -1.000000 0.000000 -1.000000
v -0.500000 0.000000 1.000000
v 0.300000 0.200000 1.000000
v 0.800000 0.200000 -1.000000
v -0.302000 0.200000 1.000000
v -0.802000 0.200000 -1.000000
v 1.000000 0.600000 -1.000000
v 0.500000 0.600000 1.000000
v -0.302000 0.600000 1.000000
v -0.500000 0.600000 1.000000
v 0.800000 0.600000 -1.000000
v -1.000000 0.600000 -1.000000
v 0.300000 0.600000 1.000000
v -0.802000 0.600000 -1.000000
v -1.000000 0.000000 -0.333333
v -1.000000 0.000000 0.333333
v 1.000000 0.000000 0.333333
v 1.000000 0.000000 -0.333333
v 0.800000 0.200000 -0.333333
v 0.800000 0.200000 0.333333
v -0.802000 0.200000 -0.333333
v -0.802000 0.200000 0.333333
v 1.000000 0.600000 -0.333333
v 1.000000 0.600000 0.333333
v -1.000000 0.600000 0.333333
v -1.000000 0.600000 -0.333333
v 0.800000 0.600000 -0.333333
v 0.800000 0.600000 0.333333
v -0.802000 0.600000 -0.333333
v -0.802000 0.600000 0.333333
vn -1.0000 -0.0000 -0.0000
vn -0.0000 -1.0000 -0.0000
vn -0.0000 -0.0000 1.0000
vn -0.8000 -0.0000 -0.6000
vn -0.0000 1.0000 -0.0000
vn -0.0000 -0.0000 -1.0000
vn 1.0000 -0.0000 -0.0000
vn 0.8000 -0.0000 0.6000
vn 0.8000 -0.0000 -0.6000
vn -0.8000 -0.0000 0.6000
vt 1.000000 0.000000
vt 0.000000 1.000000
vt 0.000000 0.000000
vt 0.500000 1.000000
vt 0.500000 0.000000
vt 0.146447 0.853553
vt 0.853553 0.146447
vt 1.000000 1.000000
vt 0.853553 0.853553
vt 1.000000 0.500000
vt 0.146447 0.146447
vt 0.000000 0.500000
s 0
f 28/1/1 3/2/1 17/3/1
f 19/1/2 4/2/2 18/3/2
f 2/4/3 7/5/3 4/6/3
f 5/1/4 30/2/4 22/3/4
f 24/1/5 5/2/5 22/3/5
f 6/4/6 1/7/6 3/5/6
f 32/3/5 12/8/5 11/2/5
f 30/1/5 10/2/5 26/3/5
f 8/1/7 31/2/7 23/3/7
f 26/1/8 2/2/8 19/3/8
f 9/1/7 20/2/7 1/3/7
f 25/1/7 19/2/7 20/3/7
f 24/1/9 11/2/9 7/3/9
f 23/1/7 32/2/7 24/3/7
f 13/1/5 25/2/5 9/3/5
f 29/1/5 26/2/5 25/3/5
f 14/1/5 31/2/5 16/3/5
f 28/1/5 32/2/5 31/3/5
f 8/1/5 21/2/5 6/3/5
f 23/1/5 22/2/5 21/3/5
f 21/1/1 13/2/1 6/3/1
f 22/1/1 29/2/1 21/3/1
f 1/1/2 17/2/2 3/3/2
f 20/1/2 18/2/2 17/3/2
f 12/1/10 18/2/10 4/3/10
f 27/1/1 17/2/1 18/3/1
f 28/1/1 14/8/1 3/2/1
f 19/1/2 2/8/2 4/2/2
f 2/4/3 10/9/3 15/10/3
f 2/4/3 15/10/3 5/7/3
f 11/11/3 12/12/3 4/6/3
f 2/4/3 5/7/3 7/5/3
f 7/5/3 11/11/3 4/6/3
f 5/1/4 15/8/4 30/2/4
f 24/1/5 7/8/5 5/2/5
f 6/4/6 13/9/6 9/10/6
f 3/5/6 14/11/6 16/12/6
f 3/5/6 16/12/6 8/6/6
f 6/4/6 9/10/6 1/7/6
f 3/5/6 8/6/6 6/4/6
f 32/3/5 27/1/5 12/8/5
f 30/1/5 15/8/5 10/2/5
f 8/1/7 16/8/7 31/2/7
f 26/1/8 10/8/8 2/2/8
f 9/1/7 25/8/7 20/2/7
f 25/1/7 26/8/7 19/2/7
f 24/1/9 32/8/9 11/2/9
f 23/1/7 31/8/7 32/2/7
f 13/1/5 29/8/5 25/2/5
f 29/1/5 30/8/5 26/2/5
f 14/1/5 28/8/5 31/2/5
f 28/1/5 27/8/5 32/2/5
f 8/1/5 23/8/5 21/2/5
f 23/1/5 24/8/5 22/2/5
f 21/1/1 29/8/1 13/2/1
f 22/1/1 30/8/1 29/2/1
f 1/1/2 20/8/2 17/2/2
f 20/1/2 19/8/2 18/2/2
f 12/1/10 27/8/10 18/2/10
f 27/1/1 28/8/1 17/2/1
