# Blender 4.2.1 LTS
# www.blender.org
mtllib ThickThinThin.mtl
o ThickThinThin
v 1.000000 0.000000 -1.000000
v 0.500000 0.000000 1.000000
v -1.000000 0.000000 -1.000000
v -0.500000 0.000000 1.000000
v 0.300000 0.200000 1.000000
v 0.800000 0.200000 -1.000000
v -0.302000 0.200000 1.000000
v -0.802000 0.200000 -1.000000
v 1.000000 0.600000 -1.000000
v 0.500000 0.600000 1.000000
v -0.302000 0.600000 1.000000
v -0.500000 0.600000 1.000000
v 0.800000 0.600000 -1.000000
v -1.000000 0.600000 -1.000000
v 0.300000 0.600000 1.000000
v -0.802000 0.600000 -1.000000
v -1.000000 0.000000 -0.333333
v -0.500000 0.000000 0.333333
v 0.500000 0.000000 0.333333
v 1.000000 0.000000 -0.333333
v 0.800000 0.200000 -0.333333
v 0.300000 0.200000 0.333333
v -0.802000 0.200000 -0.333333
v -0.302000 0.200000 0.333333
v 1.000000 0.600000 -0.333333
v 0.500000 0.600000 0.333333
v -0.500000 0.600000 0.333333
v -1.000000 0.600000 -0.333333
v 0.800000 0.600000 -0.333333
v 0.300000 0.600000 0.333333
v -0.802000 0.600000 -0.333333
v -0.302000 0.600000 0.333333
vn -1.0000 -0.0000 -0.0000
vn -0.0000 -1.0000 -0.0000
vn -0.0000 -0.0000 1.0000
vn -0.0000 1.0000 -0.0000
vn -0.0000 -0.0000 -1.0000
vn 1.0000 -0.0000 -0.0000
vn 0.8000 -0.0000 0.6000
vn 0.8000 -0.0000 -0.6000
vn -0.8000 -0.0000 -0.6000
vn -0.8000 -0.0000 0.6000
vt 0.000000 0.000000
vt 1.000000 0.000000
vt 1.000000 1.000000
vt 0.000000 1.000000
vt 0.500000 1.000000
vt 0.853553 0.853553
vt 1.000000 0.500000
vt 0.853553 0.146447
vt 0.500000 0.000000
vt 0.146447 0.146447
vt 0.000000 0.500000
vt 0.146447 0.853553
s 0
f 17/1/1 28/2/1 14/3/1 3/4/1
f 18/1/2 19/2/2 2/3/2 4/4/2
f 2/5/3 10/6/3 15/7/3 5/8/3 7/9/3 11/10/3 12/11/3 4/12/3
f 22/1/1 5/2/1 15/3/1 30/4/1
f 22/1/4 24/2/4 7/3/4 5/4/4
f 6/5/5 13/6/5 9/7/5 1/8/5 3/9/5 14/10/5 16/11/5 8/12/5
f 32/1/4 27/2/4 12/3/4 11/4/4
f 26/1/4 30/2/4 15/3/4 10/4/4
f 23/1/6 8/2/6 16/3/6 31/4/6
f 19/1/6 26/2/6 10/3/6 2/4/6
f 1/1/6 9/2/6 25/3/6 20/4/6
f 20/1/7 25/2/7 26/3/7 19/4/7
f 7/1/6 24/2/6 32/3/6 11/4/6
f 24/1/8 23/2/8 31/3/8 32/4/8
f 9/1/4 13/2/4 29/3/4 25/4/4
f 25/1/4 29/2/4 30/3/4 26/4/4
f 16/1/4 14/2/4 28/3/4 31/4/4
f 31/1/4 28/2/4 27/3/4 32/4/4
f 6/1/4 8/2/4 23/3/4 21/4/4
f 21/1/4 23/2/4 24/3/4 22/4/4
f 6/1/1 21/2/1 29/3/1 13/4/1
f 21/1/9 22/2/9 30/3/9 29/4/9
f 3/1/2 1/2/2 20/3/2 17/4/2
f 17/1/2 20/2/2 19/3/2 18/4/2
f 4/1/1 12/2/1 27/3/1 18/4/1
f 18/1/10 27/2/10 28/3/10 17/4/10
