# Blender 4.1.1
# www.blender.org
o ThinRampTransitionDown
v 0.500000 1.000000 1.000000
v -0.500000 1.000000 1.000000
v 0.300000 1.200000 1.000000
v -0.302000 1.200000 1.000000
v 0.500000 1.600000 1.000000
v -0.302000 1.600000 1.000000
v -0.500000 1.600000 1.000000
v 0.300000 1.600000 1.000000
v -0.302000 0.200000 -3.000000
v 0.300000 0.200000 -3.000000
v 0.500000 0.000000 -3.000000
v -0.500000 0.000000 -3.000000
v 0.300000 0.600000 -3.000000
v 0.500000 0.600000 -3.000000
v -0.500000 0.600000 -3.000000
v -0.302000 0.600000 -3.000000
v 0.500000 0.000000 -2.930193
v 0.500000 0.908492 0.816984
v 0.500000 0.002118 -2.794236
v 0.500000 0.008462 -2.650442
v 0.500000 0.019002 -2.499480
v 0.500000 0.033689 -2.342054
v 0.500000 0.052455 -2.178900
v 0.500000 0.075213 -2.010776
v 0.500000 0.101855 -1.838468
v 0.500000 0.132259 -1.662778
v 0.500000 0.166281 -1.484526
v 0.500000 0.203764 -1.304542
v 0.500000 0.244533 -1.123667
v 0.500000 0.288398 -0.942742
v 0.500000 0.335154 -0.762613
v 0.500000 0.384583 -0.584118
v 0.500000 0.436454 -0.408090
v 0.500000 0.490527 -0.235350
v 0.500000 0.546548 -0.066702
v 0.500000 0.604257 0.097066
v 0.500000 0.663384 0.255191
v 0.500000 0.723654 0.406936
v 0.500000 0.784786 0.551594
v 0.500000 0.846494 0.688489
v -0.500000 0.908492 0.816984
v -0.500000 0.000000 -2.930193
v -0.500000 0.846494 0.688489
v -0.500000 0.784786 0.551594
v -0.500000 0.723654 0.406936
v -0.500000 0.663384 0.255191
v -0.500000 0.604257 0.097066
v -0.500000 0.546548 -0.066702
v -0.500000 0.490527 -0.235350
v -0.500000 0.436454 -0.408090
v -0.500000 0.384583 -0.584118
v -0.500000 0.335154 -0.762613
v -0.500000 0.288398 -0.942742
v -0.500000 0.244533 -1.123667
v -0.500000 0.203764 -1.304542
v -0.500000 0.166281 -1.484526
v -0.500000 0.132259 -1.662778
v -0.500000 0.101855 -1.838468
v -0.500000 0.075213 -2.010776
v -0.500000 0.052455 -2.178900
v -0.500000 0.033689 -2.342054
v -0.500000 0.019002 -2.499480
v -0.500000 0.008462 -2.650442
v -0.500000 0.002118 -2.794236
v 0.300000 1.108492 0.816984
v 0.300000 0.200000 -2.930193
v 0.300000 1.046494 0.688489
v 0.300000 0.984786 0.551594
v 0.300000 0.923654 0.406936
v 0.300000 0.863384 0.255191
v 0.300000 0.804257 0.097066
v 0.300000 0.746548 -0.066702
v 0.300000 0.690527 -0.235350
v 0.300000 0.636454 -0.408090
v 0.300000 0.584583 -0.584118
v 0.300000 0.535154 -0.762613
v 0.300000 0.488398 -0.942742
v 0.300000 0.444533 -1.123667
v 0.300000 0.403764 -1.304542
v 0.300000 0.366281 -1.484526
v 0.300000 0.332259 -1.662778
v 0.300000 0.301855 -1.838468
v 0.300000 0.275213 -2.010776
v 0.300000 0.252455 -2.178900
v 0.300000 0.233689 -2.342054
v 0.300000 0.219002 -2.499480
v 0.300000 0.208462 -2.650442
v 0.300000 0.202118 -2.794236
v -0.302000 0.200000 -2.930193
v -0.302000 1.108492 0.816984
v -0.302000 0.202118 -2.794236
v -0.302000 0.208462 -2.650442
v -0.302000 0.219002 -2.499480
v -0.302000 0.233689 -2.342054
v -0.302000 0.252455 -2.178900
v -0.302000 0.275213 -2.010776
v -0.302000 0.301855 -1.838468
v -0.302000 0.332259 -1.662778
v -0.302000 0.366281 -1.484526
v -0.302000 0.403764 -1.304542
v -0.302000 0.444533 -1.123667
v -0.302000 0.488398 -0.942742
v -0.302000 0.535154 -0.762613
v -0.302000 0.584583 -0.584118
v -0.302000 0.636454 -0.408090
v -0.302000 0.690527 -0.235350
v -0.302000 0.746548 -0.066702
v -0.302000 0.804257 0.097066
v -0.302000 0.863384 0.255191
v -0.302000 0.923654 0.406936
v -0.302000 0.984786 0.551594
v -0.302000 1.046494 0.688489
v 0.500000 1.508492 0.816984
v 0.500000 0.600000 -2.930193
v 0.500000 1.446495 0.688489
v 0.500000 1.384786 0.551594
v 0.500000 1.323654 0.406936
v 0.500000 1.263384 0.255191
v 0.500000 1.204257 0.097066
v 0.500000 1.146548 -0.066702
v 0.500000 1.090527 -0.235350
v 0.500000 1.036454 -0.408090
v 0.500000 0.984583 -0.584118
v 0.500000 0.935154 -0.762613
v 0.500000 0.888398 -0.942742
v 0.500000 0.844533 -1.123667
v 0.500000 0.803765 -1.304542
v 0.500000 0.766281 -1.484526
v 0.500000 0.732259 -1.662778
v 0.500000 0.701855 -1.838468
v 0.500000 0.675213 -2.010776
v 0.500000 0.652455 -2.178900
v 0.500000 0.633689 -2.342054
v 0.500000 0.619002 -2.499480
v 0.500000 0.608462 -2.650442
v 0.500000 0.602118 -2.794236
v 0.300000 0.600000 -2.930193
v 0.300000 1.508492 0.816984
v 0.300000 0.602118 -2.794236
v 0.300000 0.608462 -2.650442
v 0.300000 0.619002 -2.499480
v 0.300000 0.633689 -2.342055
v 0.300000 0.652455 -2.178900
v 0.300000 0.675213 -2.010776
v 0.300000 0.701855 -1.838468
v 0.300000 0.732259 -1.662778
v 0.300000 0.766281 -1.484526
v 0.300000 0.803765 -1.304542
v 0.300000 0.844533 -1.123667
v 0.300000 0.888398 -0.942743
v 0.300000 0.935154 -0.762613
v 0.300000 0.984583 -0.584118
v 0.300000 1.036454 -0.408090
v 0.300000 1.090527 -0.235350
v 0.300000 1.146548 -0.066702
v 0.300000 1.204257 0.097066
v 0.300000 1.263384 0.255191
v 0.300000 1.323654 0.406936
v 0.300000 1.384786 0.551594
v 0.300000 1.446495 0.688489
v -0.500000 0.600000 -2.930193
v -0.500000 1.508492 0.816984
v -0.500000 0.602118 -2.794236
v -0.500000 0.608462 -2.650442
v -0.500000 0.619002 -2.499480
v -0.500000 0.633689 -2.342055
v -0.500000 0.652455 -2.178900
v -0.500000 0.675213 -2.010776
v -0.500000 0.701855 -1.838468
v -0.500000 0.732259 -1.662778
v -0.500000 0.766281 -1.484526
v -0.500000 0.803765 -1.304542
v -0.500000 0.844533 -1.123667
v -0.500000 0.888398 -0.942743
v -0.500000 0.935154 -0.762613
v -0.500000 0.984583 -0.584118
v -0.500000 1.036454 -0.408090
v -0.500000 1.090527 -0.235350
v -0.500000 1.146548 -0.066702
v -0.500000 1.204257 0.097066
v -0.500000 1.263384 0.255191
v -0.500000 1.323654 0.406936
v -0.500000 1.384786 0.551594
v -0.500000 1.446495 0.688489
v -0.302000 1.508492 0.816984
v -0.302000 0.600000 -2.930193
v -0.302000 1.446495 0.688489
v -0.302000 1.384786 0.551594
v -0.302000 1.323654 0.406936
v -0.302000 1.263384 0.255191
v -0.302000 1.204257 0.097066
v -0.302000 1.146548 -0.066702
v -0.302000 1.090527 -0.235350
v -0.302000 1.036454 -0.408090
v -0.302000 0.984583 -0.584118
v -0.302000 0.935154 -0.762613
v -0.302000 0.888398 -0.942742
v -0.302000 0.844533 -1.123667
v -0.302000 0.803765 -1.304542
v -0.302000 0.766281 -1.484526
v -0.302000 0.732259 -1.662778
v -0.302000 0.701855 -1.838468
v -0.302000 0.675213 -2.010776
v -0.302000 0.652455 -2.178900
v -0.302000 0.633689 -2.342054
v -0.302000 0.619002 -2.499480
v -0.302000 0.608462 -2.650442
v -0.302000 0.602118 -2.794236
vn -1.0000 -0.0000 -0.0000
vn -0.0000 -1.0000 -0.0000
vn -0.0000 -0.0000 1.0000
vn -0.0000 1.0000 -0.0000
vn 1.0000 -0.0000 -0.0000
vn -0.0000 -0.0000 -1.0000
vn -0.0000 0.8944 -0.4472
vn -0.0000 -0.8944 0.4472
vn -0.0000 0.9006 -0.4346
vn -0.0000 0.9117 -0.4110
vn -0.0000 0.9211 -0.3893
vn -0.0000 0.9294 -0.3691
vn -0.0000 0.9367 -0.3502
vn -0.0000 0.9432 -0.3324
vn -0.0000 0.9490 -0.3152
vn -0.0000 0.9543 -0.2987
vn -0.0000 0.9592 -0.2827
vn -0.0000 0.9637 -0.2669
vn -0.0000 0.9679 -0.2512
vn -0.0000 0.9718 -0.2356
vn -0.0000 0.9755 -0.2199
vn -0.0000 0.9790 -0.2039
vn -0.0000 0.9823 -0.1875
vn -0.0000 0.9854 -0.1705
vn -0.0000 0.9883 -0.1528
vn -0.0000 0.9910 -0.1341
vn -0.0000 0.9935 -0.1143
vn -0.0000 0.9957 -0.0929
vn -0.0000 0.9976 -0.0697
vn -0.0000 0.9990 -0.0441
vn -0.0000 0.9999 -0.0156
vn -0.0000 -0.9006 0.4346
vn -0.0000 -0.9117 0.4109
vn -0.0000 -0.9211 0.3893
vn -0.0000 -0.9294 0.3691
vn -0.0000 -0.9367 0.3502
vn -0.0000 -0.9432 0.3324
vn -0.0000 -0.9490 0.3152
vn -0.0000 -0.9543 0.2987
vn -0.0000 -0.9592 0.2827
vn -0.0000 -0.9637 0.2669
vn -0.0000 -0.9679 0.2512
vn -0.0000 -0.9718 0.2356
vn -0.0000 -0.9755 0.2199
vn -0.0000 -0.9790 0.2039
vn -0.0000 -0.9823 0.1875
vn -0.0000 -0.9854 0.1705
vn -0.0000 -0.9883 0.1528
vn -0.0000 -0.9910 0.1341
vn -0.0000 -0.9935 0.1143
vn -0.0000 -0.9957 0.0929
vn -0.0000 -0.9976 0.0697
vn -0.0000 -0.9990 0.0441
vn -0.0000 -0.9999 0.0156
vn -0.0000 0.9934 -0.1143
vt 1.000000 0.000000
vt 0.000000 1.000000
vt 0.000000 0.000000
vt 0.500000 1.000000
vt 0.500000 0.000000
vt 0.146447 0.853553
vt 1.000000 1.000000
vt 0.853553 0.146447
vt 0.853553 0.853553
vt 1.000000 0.500000
vt 0.146447 0.146447
vt 0.000000 0.500000
s 0
f 161/1/1 12/2/1 42/3/1
f 42/1/2 11/2/2 17/3/2
f 1/4/3 4/5/3 2/6/3
f 137/1/1 10/2/1 66/3/1
f 3/1/1 138/2/1 65/3/1
f 2/3/1 162/7/1 41/2/1
f 186/1/4 15/2/4 161/3/4
f 114/1/4 13/2/4 137/3/4
f 89/1/5 16/2/5 186/3/5
f 17/1/5 14/2/5 114/3/5
f 10/4/6 11/8/6 12/5/6
f 66/1/4 9/2/4 89/3/4
f 162/1/7 6/2/7 185/3/7
f 18/1/8 2/2/8 41/3/8
f 4/3/5 185/7/5 6/2/5
f 90/1/7 3/2/7 65/3/7
f 138/1/7 5/2/7 113/3/7
f 65/1/9 112/2/9 90/3/9
f 67/1/10 111/2/10 112/3/10
f 68/1/11 110/2/11 111/3/11
f 69/1/12 109/2/12 110/3/12
f 70/1/13 108/2/13 109/3/13
f 71/1/14 107/2/14 108/3/14
f 72/1/15 106/2/15 107/3/15
f 73/1/16 105/2/16 106/3/16
f 74/1/17 104/2/17 105/3/17
f 75/1/18 103/2/18 104/3/18
f 76/1/19 102/2/19 103/3/19
f 77/1/20 101/2/20 102/3/20
f 78/1/21 100/2/21 101/3/21
f 79/1/22 99/2/22 100/3/22
f 80/1/23 98/2/23 99/3/23
f 81/1/24 97/2/24 98/3/24
f 82/1/25 96/2/25 97/3/25
f 83/1/26 95/2/26 96/3/26
f 84/1/27 94/2/27 95/3/27
f 85/1/28 93/2/28 94/3/28
f 86/1/29 92/2/29 93/3/29
f 87/1/30 91/2/30 92/3/30
f 88/1/31 89/2/31 91/3/31
f 41/1/32 40/2/32 18/3/32
f 43/1/33 39/2/33 40/3/33
f 44/1/34 38/2/34 39/3/34
f 45/1/35 37/2/35 38/3/35
f 46/1/36 36/2/36 37/3/36
f 47/1/37 35/2/37 36/3/37
f 48/1/38 34/2/38 35/3/38
f 49/1/39 33/2/39 34/3/39
f 50/1/40 32/2/40 33/3/40
f 51/1/41 31/2/41 32/3/41
f 52/1/42 30/2/42 31/3/42
f 53/1/43 29/2/43 30/3/43
f 54/1/44 28/2/44 29/3/44
f 55/1/45 27/2/45 28/3/45
f 56/1/46 26/2/46 27/3/46
f 57/1/47 25/2/47 26/3/47
f 58/1/48 24/2/48 25/3/48
f 59/1/49 23/2/49 24/3/49
f 60/1/50 22/2/50 23/3/50
f 61/1/51 21/2/51 22/3/51
f 62/1/52 20/2/52 21/3/52
f 63/1/53 19/2/53 20/3/53
f 64/1/54 17/2/54 19/3/54
f 138/3/9 115/7/9 160/2/9
f 115/1/10 159/2/10 160/3/10
f 159/3/11 117/7/11 158/2/11
f 158/3/12 118/7/12 157/2/12
f 157/3/13 119/7/13 156/2/13
f 156/3/14 120/7/14 155/2/14
f 155/3/15 121/7/15 154/2/15
f 154/3/16 122/7/16 153/2/16
f 153/3/17 123/7/17 152/2/17
f 152/3/18 124/7/18 151/2/18
f 151/3/19 125/7/19 150/2/19
f 150/3/20 126/7/20 149/2/20
f 149/3/21 127/7/21 148/2/21
f 148/3/22 128/7/22 147/2/22
f 147/3/23 129/7/23 146/2/23
f 146/3/24 130/7/24 145/2/24
f 145/3/25 131/7/25 144/2/25
f 131/1/26 143/2/26 144/3/26
f 143/3/27 133/7/27 142/2/27
f 142/3/28 134/7/28 141/2/28
f 134/1/29 140/2/29 141/3/29
f 135/1/30 139/2/30 140/3/30
f 136/1/31 137/2/31 139/3/31
f 185/1/9 184/2/9 162/3/9
f 187/1/10 183/2/10 184/3/10
f 183/3/11 189/7/11 182/2/11
f 189/1/12 181/2/12 182/3/12
f 181/3/13 191/7/13 180/2/13
f 180/3/14 192/7/14 179/2/14
f 179/3/15 193/7/15 178/2/15
f 178/3/16 194/7/16 177/2/16
f 177/3/17 195/7/17 176/2/17
f 176/3/18 196/7/18 175/2/18
f 175/3/19 197/7/19 174/2/19
f 174/3/20 198/7/20 173/2/20
f 173/3/21 199/7/21 172/2/21
f 172/3/22 200/7/22 171/2/22
f 171/3/23 201/7/23 170/2/23
f 170/3/24 202/7/24 169/2/24
f 169/3/25 203/7/25 168/2/25
f 203/1/26 167/2/26 168/3/26
f 167/3/55 205/7/55 166/2/55
f 166/3/28 206/7/28 165/2/28
f 206/1/29 164/2/29 165/3/29
f 207/1/30 163/2/30 164/3/30
f 208/1/31 161/2/31 163/3/31
f 137/3/1 88/7/1 139/2/1
f 139/3/1 87/7/1 140/2/1
f 140/3/1 86/7/1 141/2/1
f 141/3/1 85/7/1 142/2/1
f 142/3/1 84/7/1 143/2/1
f 143/3/1 83/7/1 144/2/1
f 144/3/1 82/7/1 145/2/1
f 145/3/1 81/7/1 146/2/1
f 146/3/1 80/7/1 147/2/1
f 147/3/1 79/7/1 148/2/1
f 148/3/1 78/7/1 149/2/1
f 149/3/1 77/7/1 150/2/1
f 150/3/1 76/7/1 151/2/1
f 151/3/1 75/7/1 152/2/1
f 152/3/1 74/7/1 153/2/1
f 153/3/1 73/7/1 154/2/1
f 154/3/1 72/7/1 155/2/1
f 155/3/1 71/7/1 156/2/1
f 156/3/1 70/7/1 157/2/1
f 157/3/1 69/7/1 158/2/1
f 158/3/1 68/7/1 159/2/1
f 159/3/1 67/7/1 160/2/1
f 160/3/1 65/7/1 138/2/1
f 114/1/5 19/2/5 17/3/5
f 136/1/5 20/2/5 19/3/5
f 135/1/5 21/2/5 20/3/5
f 134/1/5 22/2/5 21/3/5
f 133/1/5 23/2/5 22/3/5
f 132/1/5 24/2/5 23/3/5
f 131/1/5 25/2/5 24/3/5
f 130/1/5 26/2/5 25/3/5
f 129/1/5 27/2/5 26/3/5
f 128/1/5 28/2/5 27/3/5
f 127/1/5 29/2/5 28/3/5
f 126/1/5 30/2/5 29/3/5
f 125/1/5 31/2/5 30/3/5
f 124/1/5 32/2/5 31/3/5
f 123/1/5 33/2/5 32/3/5
f 122/1/5 34/2/5 33/3/5
f 121/1/5 35/2/5 34/3/5
f 120/1/5 36/2/5 35/3/5
f 119/1/5 37/2/5 36/3/5
f 118/1/5 38/2/5 37/3/5
f 117/1/5 39/2/5 38/3/5
f 116/1/5 40/2/5 39/3/5
f 115/1/5 18/2/5 40/3/5
f 186/1/5 91/2/5 89/3/5
f 208/1/5 92/2/5 91/3/5
f 207/1/5 93/2/5 92/3/5
f 206/1/5 94/2/5 93/3/5
f 205/1/5 95/2/5 94/3/5
f 204/1/5 96/2/5 95/3/5
f 203/1/5 97/2/5 96/3/5
f 202/1/5 98/2/5 97/3/5
f 201/1/5 99/2/5 98/3/5
f 200/1/5 100/2/5 99/3/5
f 199/1/5 101/2/5 100/3/5
f 198/1/5 102/2/5 101/3/5
f 197/1/5 103/2/5 102/3/5
f 196/1/5 104/2/5 103/3/5
f 195/1/5 105/2/5 104/3/5
f 194/1/5 106/2/5 105/3/5
f 193/1/5 107/2/5 106/3/5
f 192/1/5 108/2/5 107/3/5
f 191/1/5 109/2/5 108/3/5
f 190/1/5 110/2/5 109/3/5
f 189/1/5 111/2/5 110/3/5
f 188/1/5 112/2/5 111/3/5
f 187/1/5 90/2/5 112/3/5
f 41/3/1 184/7/1 43/2/1
f 43/3/1 183/7/1 44/2/1
f 44/3/1 182/7/1 45/2/1
f 45/3/1 181/7/1 46/2/1
f 46/3/1 180/7/1 47/2/1
f 47/3/1 179/7/1 48/2/1
f 48/3/1 178/7/1 49/2/1
f 49/3/1 177/7/1 50/2/1
f 50/3/1 176/7/1 51/2/1
f 51/3/1 175/7/1 52/2/1
f 52/3/1 174/7/1 53/2/1
f 53/3/1 173/7/1 54/2/1
f 54/3/1 172/7/1 55/2/1
f 55/3/1 171/7/1 56/2/1
f 56/3/1 170/7/1 57/2/1
f 57/3/1 169/7/1 58/2/1
f 58/3/1 168/7/1 59/2/1
f 59/3/1 167/7/1 60/2/1
f 60/3/1 166/7/1 61/2/1
f 61/3/1 165/7/1 62/2/1
f 62/3/1 164/7/1 63/2/1
f 63/3/1 163/7/1 64/2/1
f 64/3/1 161/7/1 42/2/1
f 113/1/5 1/2/5 18/3/5
f 161/1/1 15/7/1 12/2/1
f 42/1/2 12/7/2 11/2/2
f 1/4/3 5/9/3 8/10/3
f 1/4/3 8/10/3 3/8/3
f 6/11/3 7/12/3 2/6/3
f 1/4/3 3/8/3 4/5/3
f 4/5/3 6/11/3 2/6/3
f 137/1/1 13/7/1 10/2/1
f 3/1/1 8/7/1 138/2/1
f 2/3/1 7/1/1 162/7/1
f 186/1/4 16/7/4 15/2/4
f 114/1/4 14/7/4 13/2/4
f 89/1/5 9/7/5 16/2/5
f 17/1/5 11/7/5 14/2/5
f 10/4/6 13/9/6 14/10/6
f 12/5/6 15/11/6 16/12/6
f 12/5/6 16/12/6 9/6/6
f 10/4/6 14/10/6 11/8/6
f 12/5/6 9/6/6 10/4/6
f 66/1/4 10/7/4 9/2/4
f 162/1/7 7/7/7 6/2/7
f 18/1/8 1/7/8 2/2/8
f 4/3/5 90/1/5 185/7/5
f 90/1/7 4/7/7 3/2/7
f 138/1/7 8/7/7 5/2/7
f 65/1/9 67/7/9 112/2/9
f 67/1/10 68/7/10 111/2/10
f 68/1/11 69/7/11 110/2/11
f 69/1/12 70/7/12 109/2/12
f 70/1/13 71/7/13 108/2/13
f 71/1/14 72/7/14 107/2/14
f 72/1/15 73/7/15 106/2/15
f 73/1/16 74/7/16 105/2/16
f 74/1/17 75/7/17 104/2/17
f 75/1/18 76/7/18 103/2/18
f 76/1/19 77/7/19 102/2/19
f 77/1/20 78/7/20 101/2/20
f 78/1/21 79/7/21 100/2/21
f 79/1/22 80/7/22 99/2/22
f 80/1/23 81/7/23 98/2/23
f 81/1/24 82/7/24 97/2/24
f 82/1/25 83/7/25 96/2/25
f 83/1/26 84/7/26 95/2/26
f 84/1/27 85/7/27 94/2/27
f 85/1/28 86/7/28 93/2/28
f 86/1/29 87/7/29 92/2/29
f 87/1/30 88/7/30 91/2/30
f 88/1/31 66/7/31 89/2/31
f 41/1/32 43/7/32 40/2/32
f 43/1/33 44/7/33 39/2/33
f 44/1/34 45/7/34 38/2/34
f 45/1/35 46/7/35 37/2/35
f 46/1/36 47/7/36 36/2/36
f 47/1/37 48/7/37 35/2/37
f 48/1/38 49/7/38 34/2/38
f 49/1/39 50/7/39 33/2/39
f 50/1/40 51/7/40 32/2/40
f 51/1/41 52/7/41 31/2/41
f 52/1/42 53/7/42 30/2/42
f 53/1/43 54/7/43 29/2/43
f 54/1/44 55/7/44 28/2/44
f 55/1/45 56/7/45 27/2/45
f 56/1/46 57/7/46 26/2/46
f 57/1/47 58/7/47 25/2/47
f 58/1/48 59/7/48 24/2/48
f 59/1/49 60/7/49 23/2/49
f 60/1/50 61/7/50 22/2/50
f 61/1/51 62/7/51 21/2/51
f 62/1/52 63/7/52 20/2/52
f 63/1/53 64/7/53 19/2/53
f 64/1/54 42/7/54 17/2/54
f 138/3/9 113/1/9 115/7/9
f 115/1/10 116/7/10 159/2/10
f 159/3/11 116/1/11 117/7/11
f 158/3/12 117/1/12 118/7/12
f 157/3/13 118/1/13 119/7/13
f 156/3/14 119/1/14 120/7/14
f 155/3/15 120/1/15 121/7/15
f 154/3/16 121/1/16 122/7/16
f 153/3/17 122/1/17 123/7/17
f 152/3/18 123/1/18 124/7/18
f 151/3/19 124/1/19 125/7/19
f 150/3/20 125/1/20 126/7/20
f 149/3/21 126/1/21 127/7/21
f 148/3/22 127/1/22 128/7/22
f 147/3/23 128/1/23 129/7/23
f 146/3/24 129/1/24 130/7/24
f 145/3/25 130/1/25 131/7/25
f 131/1/26 132/7/26 143/2/26
f 143/3/27 132/1/27 133/7/27
f 142/3/28 133/1/28 134/7/28
f 134/1/29 135/7/29 140/2/29
f 135/1/30 136/7/30 139/2/30
f 136/1/31 114/7/31 137/2/31
f 185/1/9 187/7/9 184/2/9
f 187/1/10 188/7/10 183/2/10
f 183/3/11 188/1/11 189/7/11
f 189/1/12 190/7/12 181/2/12
f 181/3/13 190/1/13 191/7/13
f 180/3/14 191/1/14 192/7/14
f 179/3/15 192/1/15 193/7/15
f 178/3/16 193/1/16 194/7/16
f 177/3/17 194/1/17 195/7/17
f 176/3/18 195/1/18 196/7/18
f 175/3/19 196/1/19 197/7/19
f 174/3/20 197/1/20 198/7/20
f 173/3/21 198/1/21 199/7/21
f 172/3/22 199/1/22 200/7/22
f 171/3/23 200/1/23 201/7/23
f 170/3/24 201/1/24 202/7/24
f 169/3/25 202/1/25 203/7/25
f 203/1/26 204/7/26 167/2/26
f 167/3/27 204/1/27 205/7/27
f 166/3/28 205/1/28 206/7/28
f 206/1/29 207/7/29 164/2/29
f 207/1/30 208/7/30 163/2/30
f 208/1/31 186/7/31 161/2/31
f 137/3/1 66/1/1 88/7/1
f 139/3/1 88/1/1 87/7/1
f 140/3/1 87/1/1 86/7/1
f 141/3/1 86/1/1 85/7/1
f 142/3/1 85/1/1 84/7/1
f 143/3/1 84/1/1 83/7/1
f 144/3/1 83/1/1 82/7/1
f 145/3/1 82/1/1 81/7/1
f 146/3/1 81/1/1 80/7/1
f 147/3/1 80/1/1 79/7/1
f 148/3/1 79/1/1 78/7/1
f 149/3/1 78/1/1 77/7/1
f 150/3/1 77/1/1 76/7/1
f 151/3/1 76/1/1 75/7/1
f 152/3/1 75/1/1 74/7/1
f 153/3/1 74/1/1 73/7/1
f 154/3/1 73/1/1 72/7/1
f 155/3/1 72/1/1 71/7/1
f 156/3/1 71/1/1 70/7/1
f 157/3/1 70/1/1 69/7/1
f 158/3/1 69/1/1 68/7/1
f 159/3/1 68/1/1 67/7/1
f 160/3/1 67/1/1 65/7/1
f 114/1/5 136/7/5 19/2/5
f 136/1/5 135/7/5 20/2/5
f 135/1/5 134/7/5 21/2/5
f 134/1/5 133/7/5 22/2/5
f 133/1/5 132/7/5 23/2/5
f 132/1/5 131/7/5 24/2/5
f 131/1/5 130/7/5 25/2/5
f 130/1/5 129/7/5 26/2/5
f 129/1/5 128/7/5 27/2/5
f 128/1/5 127/7/5 28/2/5
f 127/1/5 126/7/5 29/2/5
f 126/1/5 125/7/5 30/2/5
f 125/1/5 124/7/5 31/2/5
f 124/1/5 123/7/5 32/2/5
f 123/1/5 122/7/5 33/2/5
f 122/1/5 121/7/5 34/2/5
f 121/1/5 120/7/5 35/2/5
f 120/1/5 119/7/5 36/2/5
f 119/1/5 118/7/5 37/2/5
f 118/1/5 117/7/5 38/2/5
f 117/1/5 116/7/5 39/2/5
f 116/1/5 115/7/5 40/2/5
f 115/1/5 113/7/5 18/2/5
f 186/1/5 208/7/5 91/2/5
f 208/1/5 207/7/5 92/2/5
f 207/1/5 206/7/5 93/2/5
f 206/1/5 205/7/5 94/2/5
f 205/1/5 204/7/5 95/2/5
f 204/1/5 203/7/5 96/2/5
f 203/1/5 202/7/5 97/2/5
f 202/1/5 201/7/5 98/2/5
f 201/1/5 200/7/5 99/2/5
f 200/1/5 199/7/5 100/2/5
f 199/1/5 198/7/5 101/2/5
f 198/1/5 197/7/5 102/2/5
f 197/1/5 196/7/5 103/2/5
f 196/1/5 195/7/5 104/2/5
f 195/1/5 194/7/5 105/2/5
f 194/1/5 193/7/5 106/2/5
f 193/1/5 192/7/5 107/2/5
f 192/1/5 191/7/5 108/2/5
f 191/1/5 190/7/5 109/2/5
f 190/1/5 189/7/5 110/2/5
f 189/1/5 188/7/5 111/2/5
f 188/1/5 187/7/5 112/2/5
f 187/1/5 185/7/5 90/2/5
f 41/3/1 162/1/1 184/7/1
f 43/3/1 184/1/1 183/7/1
f 44/3/1 183/1/1 182/7/1
f 45/3/1 182/1/1 181/7/1
f 46/3/1 181/1/1 180/7/1
f 47/3/1 180/1/1 179/7/1
f 48/3/1 179/1/1 178/7/1
f 49/3/1 178/1/1 177/7/1
f 50/3/1 177/1/1 176/7/1
f 51/3/1 176/1/1 175/7/1
f 52/3/1 175/1/1 174/7/1
f 53/3/1 174/1/1 173/7/1
f 54/3/1 173/1/1 172/7/1
f 55/3/1 172/1/1 171/7/1
f 56/3/1 171/1/1 170/7/1
f 57/3/1 170/1/1 169/7/1
f 58/3/1 169/1/1 168/7/1
f 59/3/1 168/1/1 167/7/1
f 60/3/1 167/1/1 166/7/1
f 61/3/1 166/1/1 165/7/1
f 62/3/1 165/1/1 164/7/1
f 63/3/1 164/1/1 163/7/1
f 64/3/1 163/1/1 161/7/1
f 113/1/5 5/7/5 1/2/5
