# Blender 4.2.1 LTS
# www.blender.org
mtllib ThinRampTransitionDown.mtl
o ThinRampTransitionDown
v 0.500000 1.000000 1.000000
v -0.500000 1.000000 1.000000
v 0.300000 1.200000 1.000000
v -0.302000 1.200000 1.000000
v 0.500000 1.600000 1.000000
v -0.302000 1.600000 1.000000
v -0.500000 1.600000 1.000000
v 0.300000 1.600000 1.000000
v -0.302000 0.200000 -3.000000
v 0.300000 0.200000 -3.000000
v 0.500000 0.000000 -3.000000
v -0.500000 0.000000 -3.000000
v 0.300000 0.600000 -3.000000
v 0.500000 0.600000 -3.000000
v -0.500000 0.600000 -3.000000
v -0.302000 0.600000 -3.000000
v 0.500000 0.000000 -2.930193
v 0.500000 0.908492 0.816984
v 0.500000 0.002118 -2.794236
v 0.500000 0.008462 -2.650442
v 0.500000 0.019002 -2.499480
v 0.500000 0.033689 -2.342054
v 0.500000 0.052455 -2.178900
v 0.500000 0.075213 -2.010776
v 0.500000 0.101855 -1.838468
v 0.500000 0.132259 -1.662778
v 0.500000 0.166281 -1.484526
v 0.500000 0.203764 -1.304542
v 0.500000 0.244533 -1.123667
v 0.500000 0.288398 -0.942742
v 0.500000 0.335154 -0.762613
v 0.500000 0.384583 -0.584118
v 0.500000 0.436454 -0.408090
v 0.500000 0.490527 -0.235350
v 0.500000 0.546548 -0.066702
v 0.500000 0.604257 0.097066
v 0.500000 0.663384 0.255191
v 0.500000 0.723654 0.406936
v 0.500000 0.784786 0.551594
v 0.500000 0.846494 0.688489
v -0.500000 0.908492 0.816984
v -0.500000 0.000000 -2.930193
v -0.500000 0.846494 0.688489
v -0.500000 0.784786 0.551594
v -0.500000 0.723654 0.406936
v -0.500000 0.663384 0.255191
v -0.500000 0.604257 0.097066
v -0.500000 0.546548 -0.066702
v -0.500000 0.490527 -0.235350
v -0.500000 0.436454 -0.408090
v -0.500000 0.384583 -0.584118
v -0.500000 0.335154 -0.762613
v -0.500000 0.288398 -0.942742
v -0.500000 0.244533 -1.123667
v -0.500000 0.203764 -1.304542
v -0.500000 0.166281 -1.484526
v -0.500000 0.132259 -1.662778
v -0.500000 0.101855 -1.838468
v -0.500000 0.075213 -2.010776
v -0.500000 0.052455 -2.178900
v -0.500000 0.033689 -2.342054
v -0.500000 0.019002 -2.499480
v -0.500000 0.008462 -2.650442
v -0.500000 0.002118 -2.794236
v 0.300000 1.108492 0.816984
v 0.300000 0.200000 -2.930193
v 0.300000 1.046494 0.688489
v 0.300000 0.984786 0.551594
v 0.300000 0.923654 0.406936
v 0.300000 0.863384 0.255191
v 0.300000 0.804257 0.097066
v 0.300000 0.746548 -0.066702
v 0.300000 0.690527 -0.235350
v 0.300000 0.636454 -0.408090
v 0.300000 0.584583 -0.584118
v 0.300000 0.535154 -0.762613
v 0.300000 0.488398 -0.942742
v 0.300000 0.444533 -1.123667
v 0.300000 0.403764 -1.304542
v 0.300000 0.366281 -1.484526
v 0.300000 0.332259 -1.662778
v 0.300000 0.301855 -1.838468
v 0.300000 0.275213 -2.010776
v 0.300000 0.252455 -2.178900
v 0.300000 0.233689 -2.342054
v 0.300000 0.219002 -2.499480
v 0.300000 0.208462 -2.650442
v 0.300000 0.202118 -2.794236
v -0.302000 0.200000 -2.930193
v -0.302000 1.108492 0.816984
v -0.302000 0.202118 -2.794236
v -0.302000 0.208462 -2.650442
v -0.302000 0.219002 -2.499480
v -0.302000 0.233689 -2.342054
v -0.302000 0.252455 -2.178900
v -0.302000 0.275213 -2.010776
v -0.302000 0.301855 -1.838468
v -0.302000 0.332259 -1.662778
v -0.302000 0.366281 -1.484526
v -0.302000 0.403764 -1.304542
v -0.302000 0.444533 -1.123667
v -0.302000 0.488398 -0.942742
v -0.302000 0.535154 -0.762613
v -0.302000 0.584583 -0.584118
v -0.302000 0.636454 -0.408090
v -0.302000 0.690527 -0.235350
v -0.302000 0.746548 -0.066702
v -0.302000 0.804257 0.097066
v -0.302000 0.863384 0.255191
v -0.302000 0.923654 0.406936
v -0.302000 0.984786 0.551594
v -0.302000 1.046494 0.688489
v 0.500000 1.508492 0.816984
v 0.500000 0.600000 -2.930193
v 0.500000 1.446495 0.688489
v 0.500000 1.384786 0.551594
v 0.500000 1.323654 0.406936
v 0.500000 1.263384 0.255191
v 0.500000 1.204257 0.097066
v 0.500000 1.146548 -0.066702
v 0.500000 1.090527 -0.235350
v 0.500000 1.036454 -0.408090
v 0.500000 0.984583 -0.584118
v 0.500000 0.935154 -0.762613
v 0.500000 0.888398 -0.942742
v 0.500000 0.844533 -1.123667
v 0.500000 0.803765 -1.304542
v 0.500000 0.766281 -1.484526
v 0.500000 0.732259 -1.662778
v 0.500000 0.701855 -1.838468
v 0.500000 0.675213 -2.010776
v 0.500000 0.652455 -2.178900
v 0.500000 0.633689 -2.342054
v 0.500000 0.619002 -2.499480
v 0.500000 0.608462 -2.650442
v 0.500000 0.602118 -2.794236
v 0.300000 0.600000 -2.930193
v 0.300000 1.508492 0.816984
v 0.300000 0.602118 -2.794236
v 0.300000 0.608462 -2.650442
v 0.300000 0.619002 -2.499480
v 0.300000 0.633689 -2.342055
v 0.300000 0.652455 -2.178900
v 0.300000 0.675213 -2.010776
v 0.300000 0.701855 -1.838468
v 0.300000 0.732259 -1.662778
v 0.300000 0.766281 -1.484526
v 0.300000 0.803765 -1.304542
v 0.300000 0.844533 -1.123667
v 0.300000 0.888398 -0.942743
v 0.300000 0.935154 -0.762613
v 0.300000 0.984583 -0.584118
v 0.300000 1.036454 -0.408090
v 0.300000 1.090527 -0.235350
v 0.300000 1.146548 -0.066702
v 0.300000 1.204257 0.097066
v 0.300000 1.263384 0.255191
v 0.300000 1.323654 0.406936
v 0.300000 1.384786 0.551594
v 0.300000 1.446495 0.688489
v -0.500000 0.600000 -2.930193
v -0.500000 1.508492 0.816984
v -0.500000 0.602118 -2.794236
v -0.500000 0.608462 -2.650442
v -0.500000 0.619002 -2.499480
v -0.500000 0.633689 -2.342055
v -0.500000 0.652455 -2.178900
v -0.500000 0.675213 -2.010776
v -0.500000 0.701855 -1.838468
v -0.500000 0.732259 -1.662778
v -0.500000 0.766281 -1.484526
v -0.500000 0.803765 -1.304542
v -0.500000 0.844533 -1.123667
v -0.500000 0.888398 -0.942743
v -0.500000 0.935154 -0.762613
v -0.500000 0.984583 -0.584118
v -0.500000 1.036454 -0.408090
v -0.500000 1.090527 -0.235350
v -0.500000 1.146548 -0.066702
v -0.500000 1.204257 0.097066
v -0.500000 1.263384 0.255191
v -0.500000 1.323654 0.406936
v -0.500000 1.384786 0.551594
v -0.500000 1.446495 0.688489
v -0.302000 1.508492 0.816984
v -0.302000 0.600000 -2.930193
v -0.302000 1.446495 0.688489
v -0.302000 1.384786 0.551594
v -0.302000 1.323654 0.406936
v -0.302000 1.263384 0.255191
v -0.302000 1.204257 0.097066
v -0.302000 1.146548 -0.066702
v -0.302000 1.090527 -0.235350
v -0.302000 1.036454 -0.408090
v -0.302000 0.984583 -0.584118
v -0.302000 0.935154 -0.762613
v -0.302000 0.888398 -0.942742
v -0.302000 0.844533 -1.123667
v -0.302000 0.803765 -1.304542
v -0.302000 0.766281 -1.484526
v -0.302000 0.732259 -1.662778
v -0.302000 0.701855 -1.838468
v -0.302000 0.675213 -2.010776
v -0.302000 0.652455 -2.178900
v -0.302000 0.633689 -2.342054
v -0.302000 0.619002 -2.499480
v -0.302000 0.608462 -2.650442
v -0.302000 0.602118 -2.794236
vn -1.0000 -0.0000 -0.0000
vn -0.0000 -1.0000 -0.0000
vn -0.0000 -0.0000 1.0000
vn -0.0000 1.0000 -0.0078
vn -0.0000 1.0000 -0.0000
vn 1.0000 -0.0000 -0.0000
vn -0.0000 -0.0000 -1.0000
vn -0.0000 0.8976 -0.4409
vn -0.0000 0.8944 -0.4472
vn -0.0000 -0.8944 0.4472
vn -0.0000 0.9062 -0.4228
vn -0.0000 0.9165 -0.4001
vn -0.0000 0.9253 -0.3792
vn -0.0000 0.9331 -0.3597
vn -0.0000 0.9400 -0.3413
vn -0.0000 0.9461 -0.3238
vn -0.0000 0.9517 -0.3070
vn -0.0000 0.9568 -0.2907
vn -0.0000 0.9615 -0.2748
vn -0.0000 0.9659 -0.2591
vn -0.0000 0.9699 -0.2434
vn -0.0000 0.9737 -0.2278
vn -0.0000 0.9773 -0.2119
vn -0.0000 0.9807 -0.1957
vn -0.0000 0.9838 -0.1790
vn -0.0000 0.9868 -0.1617
vn -0.0000 0.9897 -0.1435
vn -0.0000 0.9923 -0.1242
vn -0.0000 0.9946 -0.1036
vn -0.0000 0.9967 -0.0813
vn -0.0000 0.9984 -0.0569
vn -0.0000 0.9996 -0.0298
vn -0.0000 -0.9006 0.4346
vn -0.0000 -0.9117 0.4109
vn -0.0000 -0.9211 0.3893
vn -0.0000 -0.9294 0.3691
vn -0.0000 -0.9367 0.3502
vn -0.0000 -0.9432 0.3324
vn -0.0000 -0.9490 0.3152
vn -0.0000 -0.9543 0.2987
vn -0.0000 -0.9592 0.2827
vn -0.0000 -0.9637 0.2669
vn -0.0000 -0.9679 0.2512
vn -0.0000 -0.9718 0.2356
vn -0.0000 -0.9755 0.2199
vn -0.0000 -0.9790 0.2039
vn -0.0000 -0.9823 0.1875
vn -0.0000 -0.9854 0.1705
vn -0.0000 -0.9883 0.1528
vn -0.0000 -0.9910 0.1341
vn -0.0000 -0.9935 0.1143
vn -0.0000 -0.9957 0.0929
vn -0.0000 -0.9976 0.0697
vn -0.0000 -0.9990 0.0441
vn -0.0000 -0.9999 0.0156
vt 1.000000 0.000000
vt 0.000000 1.000000
vt 0.000000 0.000000
vt 0.500000 1.000000
vt 0.500000 0.000000
vt 0.146447 0.853553
vt 1.000000 1.000000
vt 0.853553 0.146447
vt 0.853553 0.853553
vt 1.000000 0.500000
vt 0.146447 0.146447
vt 0.000000 0.500000
s 0
usemtl Wood
f 161/1/1 12/2/1 42/3/1
f 42/1/2 11/2/2 17/3/2
f 1/4/3 4/5/3 2/6/3
f 137/1/1 10/2/1 66/3/1
f 3/1/1 138/2/1 65/3/1
f 2/3/1 162/7/1 41/2/1
s 1
f 186/1/4 15/2/5 161/3/4
f 114/1/4 13/2/5 137/3/4
s 0
f 89/1/6 16/2/6 186/3/6
f 17/1/6 14/2/6 114/3/6
f 10/4/7 11/8/7 12/5/7
s 1
f 162/1/8 6/2/9 185/3/8
s 0
f 18/1/10 2/2/10 41/3/10
f 4/3/6 185/7/6 6/2/6
s 1
f 138/1/8 5/2/9 113/3/8
s 0
f 41/1/33 40/2/33 18/3/33
f 43/1/34 39/2/34 40/3/34
f 44/1/35 38/2/35 39/3/35
f 45/1/36 37/2/36 38/3/36
f 46/1/37 36/2/37 37/3/37
f 47/1/38 35/2/38 36/3/38
f 48/1/39 34/2/39 35/3/39
f 49/1/40 33/2/40 34/3/40
f 50/1/41 32/2/41 33/3/41
f 51/1/42 31/2/42 32/3/42
f 52/1/43 30/2/43 31/3/43
f 53/1/44 29/2/44 30/3/44
f 54/1/45 28/2/45 29/3/45
f 55/1/46 27/2/46 28/3/46
f 56/1/47 26/2/47 27/3/47
f 57/1/48 25/2/48 26/3/48
f 58/1/49 24/2/49 25/3/49
f 59/1/50 23/2/50 24/3/50
f 60/1/51 22/2/51 23/3/51
f 61/1/52 21/2/52 22/3/52
f 62/1/53 20/2/53 21/3/53
f 63/1/54 19/2/54 20/3/54
f 64/1/55 17/2/55 19/3/55
s 1
f 138/3/8 115/7/11 160/2/11
f 115/1/11 159/2/12 160/3/11
f 159/3/12 117/7/13 158/2/13
f 158/3/13 118/7/14 157/2/14
f 157/3/14 119/7/15 156/2/15
f 156/3/15 120/7/16 155/2/16
f 155/3/16 121/7/17 154/2/17
f 154/3/17 122/7/18 153/2/18
f 153/3/18 123/7/19 152/2/19
f 152/3/19 124/7/20 151/2/20
f 151/3/20 125/7/21 150/2/21
f 150/3/21 126/7/22 149/2/22
f 149/3/22 127/7/23 148/2/23
f 148/3/23 128/7/24 147/2/24
f 147/3/24 129/7/25 146/2/25
f 146/3/25 130/7/26 145/2/26
f 145/3/26 131/7/27 144/2/27
f 131/1/27 143/2/28 144/3/27
f 143/3/28 133/7/29 142/2/29
f 142/3/29 134/7/30 141/2/30
f 134/1/30 140/2/31 141/3/30
f 135/1/31 139/2/32 140/3/31
f 136/1/32 137/2/4 139/3/32
f 185/1/8 184/2/11 162/3/8
f 187/1/11 183/2/12 184/3/11
f 183/3/12 189/7/13 182/2/13
f 189/1/13 181/2/14 182/3/13
f 181/3/14 191/7/15 180/2/15
f 180/3/15 192/7/16 179/2/16
f 179/3/16 193/7/17 178/2/17
f 178/3/17 194/7/18 177/2/18
f 177/3/18 195/7/19 176/2/19
f 176/3/19 196/7/20 175/2/20
f 175/3/20 197/7/21 174/2/21
f 174/3/21 198/7/22 173/2/22
f 173/3/22 199/7/23 172/2/23
f 172/3/23 200/7/24 171/2/24
f 171/3/24 201/7/25 170/2/25
f 170/3/25 202/7/26 169/2/26
f 169/3/26 203/7/27 168/2/27
f 203/1/27 167/2/28 168/3/27
f 167/3/28 205/7/29 166/2/29
f 166/3/29 206/7/30 165/2/30
f 206/1/30 164/2/31 165/3/30
f 207/1/31 163/2/32 164/3/31
f 208/1/32 161/2/4 163/3/32
s 0
f 137/3/1 88/7/1 139/2/1
f 139/3/1 87/7/1 140/2/1
f 140/3/1 86/7/1 141/2/1
f 141/3/1 85/7/1 142/2/1
f 142/3/1 84/7/1 143/2/1
f 143/3/1 83/7/1 144/2/1
f 144/3/1 82/7/1 145/2/1
f 145/3/1 81/7/1 146/2/1
f 146/3/1 80/7/1 147/2/1
f 147/3/1 79/7/1 148/2/1
f 148/3/1 78/7/1 149/2/1
f 149/3/1 77/7/1 150/2/1
f 150/3/1 76/7/1 151/2/1
f 151/3/1 75/7/1 152/2/1
f 152/3/1 74/7/1 153/2/1
f 153/3/1 73/7/1 154/2/1
f 154/3/1 72/7/1 155/2/1
f 155/3/1 71/7/1 156/2/1
f 156/3/1 70/7/1 157/2/1
f 157/3/1 69/7/1 158/2/1
f 158/3/1 68/7/1 159/2/1
f 159/3/1 67/7/1 160/2/1
f 160/3/1 65/7/1 138/2/1
f 114/1/6 19/2/6 17/3/6
f 136/1/6 20/2/6 19/3/6
f 135/1/6 21/2/6 20/3/6
f 134/1/6 22/2/6 21/3/6
f 133/1/6 23/2/6 22/3/6
f 132/1/6 24/2/6 23/3/6
f 131/1/6 25/2/6 24/3/6
f 130/1/6 26/2/6 25/3/6
f 129/1/6 27/2/6 26/3/6
f 128/1/6 28/2/6 27/3/6
f 127/1/6 29/2/6 28/3/6
f 126/1/6 30/2/6 29/3/6
f 125/1/6 31/2/6 30/3/6
f 124/1/6 32/2/6 31/3/6
f 123/1/6 33/2/6 32/3/6
f 122/1/6 34/2/6 33/3/6
f 121/1/6 35/2/6 34/3/6
f 120/1/6 36/2/6 35/3/6
f 119/1/6 37/2/6 36/3/6
f 118/1/6 38/2/6 37/3/6
f 117/1/6 39/2/6 38/3/6
f 116/1/6 40/2/6 39/3/6
f 115/1/6 18/2/6 40/3/6
f 186/1/6 91/2/6 89/3/6
f 208/1/6 92/2/6 91/3/6
f 207/1/6 93/2/6 92/3/6
f 206/1/6 94/2/6 93/3/6
f 205/1/6 95/2/6 94/3/6
f 204/1/6 96/2/6 95/3/6
f 203/1/6 97/2/6 96/3/6
f 202/1/6 98/2/6 97/3/6
f 201/1/6 99/2/6 98/3/6
f 200/1/6 100/2/6 99/3/6
f 199/1/6 101/2/6 100/3/6
f 198/1/6 102/2/6 101/3/6
f 197/1/6 103/2/6 102/3/6
f 196/1/6 104/2/6 103/3/6
f 195/1/6 105/2/6 104/3/6
f 194/1/6 106/2/6 105/3/6
f 193/1/6 107/2/6 106/3/6
f 192/1/6 108/2/6 107/3/6
f 191/1/6 109/2/6 108/3/6
f 190/1/6 110/2/6 109/3/6
f 189/1/6 111/2/6 110/3/6
f 188/1/6 112/2/6 111/3/6
f 187/1/6 90/2/6 112/3/6
f 41/3/1 184/7/1 43/2/1
f 43/3/1 183/7/1 44/2/1
f 44/3/1 182/7/1 45/2/1
f 45/3/1 181/7/1 46/2/1
f 46/3/1 180/7/1 47/2/1
f 47/3/1 179/7/1 48/2/1
f 48/3/1 178/7/1 49/2/1
f 49/3/1 177/7/1 50/2/1
f 50/3/1 176/7/1 51/2/1
f 51/3/1 175/7/1 52/2/1
f 52/3/1 174/7/1 53/2/1
f 53/3/1 173/7/1 54/2/1
f 54/3/1 172/7/1 55/2/1
f 55/3/1 171/7/1 56/2/1
f 56/3/1 170/7/1 57/2/1
f 57/3/1 169/7/1 58/2/1
f 58/3/1 168/7/1 59/2/1
f 59/3/1 167/7/1 60/2/1
f 60/3/1 166/7/1 61/2/1
f 61/3/1 165/7/1 62/2/1
f 62/3/1 164/7/1 63/2/1
f 63/3/1 163/7/1 64/2/1
f 64/3/1 161/7/1 42/2/1
f 113/1/6 1/2/6 18/3/6
f 161/1/1 15/7/1 12/2/1
f 42/1/2 12/7/2 11/2/2
f 1/4/3 5/9/3 8/10/3
f 1/4/3 8/10/3 3/8/3
f 6/11/3 7/12/3 2/6/3
f 1/4/3 3/8/3 4/5/3
f 4/5/3 6/11/3 2/6/3
f 137/1/1 13/7/1 10/2/1
f 3/1/1 8/7/1 138/2/1
f 2/3/1 7/1/1 162/7/1
s 1
f 186/1/4 16/7/5 15/2/5
f 114/1/4 14/7/5 13/2/5
s 0
f 89/1/6 9/7/6 16/2/6
f 17/1/6 11/7/6 14/2/6
f 10/4/7 13/9/7 14/10/7
f 12/5/7 15/11/7 16/12/7
f 12/5/7 16/12/7 9/6/7
f 10/4/7 14/10/7 11/8/7
f 12/5/7 9/6/7 10/4/7
s 1
f 162/1/8 7/7/9 6/2/9
s 0
f 18/1/10 1/7/10 2/2/10
f 4/3/6 90/1/6 185/7/6
s 1
f 138/1/8 8/7/9 5/2/9
s 0
f 41/1/33 43/7/33 40/2/33
f 43/1/34 44/7/34 39/2/34
f 44/1/35 45/7/35 38/2/35
f 45/1/36 46/7/36 37/2/36
f 46/1/37 47/7/37 36/2/37
f 47/1/38 48/7/38 35/2/38
f 48/1/39 49/7/39 34/2/39
f 49/1/40 50/7/40 33/2/40
f 50/1/41 51/7/41 32/2/41
f 51/1/42 52/7/42 31/2/42
f 52/1/43 53/7/43 30/2/43
f 53/1/44 54/7/44 29/2/44
f 54/1/45 55/7/45 28/2/45
f 55/1/46 56/7/46 27/2/46
f 56/1/47 57/7/47 26/2/47
f 57/1/48 58/7/48 25/2/48
f 58/1/49 59/7/49 24/2/49
f 59/1/50 60/7/50 23/2/50
f 60/1/51 61/7/51 22/2/51
f 61/1/52 62/7/52 21/2/52
f 62/1/53 63/7/53 20/2/53
f 63/1/54 64/7/54 19/2/54
f 64/1/55 42/7/55 17/2/55
s 1
f 138/3/8 113/1/8 115/7/11
f 115/1/11 116/7/12 159/2/12
f 159/3/12 116/1/12 117/7/13
f 158/3/13 117/1/13 118/7/14
f 157/3/14 118/1/14 119/7/15
f 156/3/15 119/1/15 120/7/16
f 155/3/16 120/1/16 121/7/17
f 154/3/17 121/1/17 122/7/18
f 153/3/18 122/1/18 123/7/19
f 152/3/19 123/1/19 124/7/20
f 151/3/20 124/1/20 125/7/21
f 150/3/21 125/1/21 126/7/22
f 149/3/22 126/1/22 127/7/23
f 148/3/23 127/1/23 128/7/24
f 147/3/24 128/1/24 129/7/25
f 146/3/25 129/1/25 130/7/26
f 145/3/26 130/1/26 131/7/27
f 131/1/27 132/7/28 143/2/28
f 143/3/28 132/1/28 133/7/29
f 142/3/29 133/1/29 134/7/30
f 134/1/30 135/7/31 140/2/31
f 135/1/31 136/7/32 139/2/32
f 136/1/32 114/7/4 137/2/4
f 185/1/8 187/7/11 184/2/11
f 187/1/11 188/7/12 183/2/12
f 183/3/12 188/1/12 189/7/13
f 189/1/13 190/7/14 181/2/14
f 181/3/14 190/1/14 191/7/15
f 180/3/15 191/1/15 192/7/16
f 179/3/16 192/1/16 193/7/17
f 178/3/17 193/1/17 194/7/18
f 177/3/18 194/1/18 195/7/19
f 176/3/19 195/1/19 196/7/20
f 175/3/20 196/1/20 197/7/21
f 174/3/21 197/1/21 198/7/22
f 173/3/22 198/1/22 199/7/23
f 172/3/23 199/1/23 200/7/24
f 171/3/24 200/1/24 201/7/25
f 170/3/25 201/1/25 202/7/26
f 169/3/26 202/1/26 203/7/27
f 203/1/27 204/7/28 167/2/28
f 167/3/28 204/1/28 205/7/29
f 166/3/29 205/1/29 206/7/30
f 206/1/30 207/7/31 164/2/31
f 207/1/31 208/7/32 163/2/32
f 208/1/32 186/7/4 161/2/4
s 0
f 137/3/1 66/1/1 88/7/1
f 139/3/1 88/1/1 87/7/1
f 140/3/1 87/1/1 86/7/1
f 141/3/1 86/1/1 85/7/1
f 142/3/1 85/1/1 84/7/1
f 143/3/1 84/1/1 83/7/1
f 144/3/1 83/1/1 82/7/1
f 145/3/1 82/1/1 81/7/1
f 146/3/1 81/1/1 80/7/1
f 147/3/1 80/1/1 79/7/1
f 148/3/1 79/1/1 78/7/1
f 149/3/1 78/1/1 77/7/1
f 150/3/1 77/1/1 76/7/1
f 151/3/1 76/1/1 75/7/1
f 152/3/1 75/1/1 74/7/1
f 153/3/1 74/1/1 73/7/1
f 154/3/1 73/1/1 72/7/1
f 155/3/1 72/1/1 71/7/1
f 156/3/1 71/1/1 70/7/1
f 157/3/1 70/1/1 69/7/1
f 158/3/1 69/1/1 68/7/1
f 159/3/1 68/1/1 67/7/1
f 160/3/1 67/1/1 65/7/1
f 114/1/6 136/7/6 19/2/6
f 136/1/6 135/7/6 20/2/6
f 135/1/6 134/7/6 21/2/6
f 134/1/6 133/7/6 22/2/6
f 133/1/6 132/7/6 23/2/6
f 132/1/6 131/7/6 24/2/6
f 131/1/6 130/7/6 25/2/6
f 130/1/6 129/7/6 26/2/6
f 129/1/6 128/7/6 27/2/6
f 128/1/6 127/7/6 28/2/6
f 127/1/6 126/7/6 29/2/6
f 126/1/6 125/7/6 30/2/6
f 125/1/6 124/7/6 31/2/6
f 124/1/6 123/7/6 32/2/6
f 123/1/6 122/7/6 33/2/6
f 122/1/6 121/7/6 34/2/6
f 121/1/6 120/7/6 35/2/6
f 120/1/6 119/7/6 36/2/6
f 119/1/6 118/7/6 37/2/6
f 118/1/6 117/7/6 38/2/6
f 117/1/6 116/7/6 39/2/6
f 116/1/6 115/7/6 40/2/6
f 115/1/6 113/7/6 18/2/6
f 186/1/6 208/7/6 91/2/6
f 208/1/6 207/7/6 92/2/6
f 207/1/6 206/7/6 93/2/6
f 206/1/6 205/7/6 94/2/6
f 205/1/6 204/7/6 95/2/6
f 204/1/6 203/7/6 96/2/6
f 203/1/6 202/7/6 97/2/6
f 202/1/6 201/7/6 98/2/6
f 201/1/6 200/7/6 99/2/6
f 200/1/6 199/7/6 100/2/6
f 199/1/6 198/7/6 101/2/6
f 198/1/6 197/7/6 102/2/6
f 197/1/6 196/7/6 103/2/6
f 196/1/6 195/7/6 104/2/6
f 195/1/6 194/7/6 105/2/6
f 194/1/6 193/7/6 106/2/6
f 193/1/6 192/7/6 107/2/6
f 192/1/6 191/7/6 108/2/6
f 191/1/6 190/7/6 109/2/6
f 190/1/6 189/7/6 110/2/6
f 189/1/6 188/7/6 111/2/6
f 188/1/6 187/7/6 112/2/6
f 187/1/6 185/7/6 90/2/6
f 41/3/1 162/1/1 184/7/1
f 43/3/1 184/1/1 183/7/1
f 44/3/1 183/1/1 182/7/1
f 45/3/1 182/1/1 181/7/1
f 46/3/1 181/1/1 180/7/1
f 47/3/1 180/1/1 179/7/1
f 48/3/1 179/1/1 178/7/1
f 49/3/1 178/1/1 177/7/1
f 50/3/1 177/1/1 176/7/1
f 51/3/1 176/1/1 175/7/1
f 52/3/1 175/1/1 174/7/1
f 53/3/1 174/1/1 173/7/1
f 54/3/1 173/1/1 172/7/1
f 55/3/1 172/1/1 171/7/1
f 56/3/1 171/1/1 170/7/1
f 57/3/1 170/1/1 169/7/1
f 58/3/1 169/1/1 168/7/1
f 59/3/1 168/1/1 167/7/1
f 60/3/1 167/1/1 166/7/1
f 61/3/1 166/1/1 165/7/1
f 62/3/1 165/1/1 164/7/1
f 63/3/1 164/1/1 163/7/1
f 64/3/1 163/1/1 161/7/1
f 113/1/6 5/7/6 1/2/6
s 1
usemtl Grass
f 66/1/4 9/2/5 89/3/4
f 90/1/8 3/2/9 65/3/8
f 65/1/8 112/2/11 90/3/8
f 67/1/11 111/2/12 112/3/11
f 68/1/12 110/2/13 111/3/12
f 69/1/13 109/2/14 110/3/13
f 70/1/14 108/2/15 109/3/14
f 71/1/15 107/2/16 108/3/15
f 72/1/16 106/2/17 107/3/16
f 73/1/17 105/2/18 106/3/17
f 74/1/18 104/2/19 105/3/18
f 75/1/19 103/2/20 104/3/19
f 76/1/20 102/2/21 103/3/20
f 77/1/21 101/2/22 102/3/21
f 78/1/22 100/2/23 101/3/22
f 79/1/23 99/2/24 100/3/23
f 80/1/24 98/2/25 99/3/24
f 81/1/25 97/2/26 98/3/25
f 82/1/26 96/2/27 97/3/26
f 83/1/27 95/2/28 96/3/27
f 84/1/28 94/2/29 95/3/28
f 85/1/29 93/2/30 94/3/29
f 86/1/30 92/2/31 93/3/30
f 87/1/31 91/2/32 92/3/31
f 88/1/32 89/2/4 91/3/32
f 66/1/4 10/7/5 9/2/5
f 90/1/8 4/7/9 3/2/9
f 65/1/8 67/7/11 112/2/11
f 67/1/11 68/7/12 111/2/12
f 68/1/12 69/7/13 110/2/13
f 69/1/13 70/7/14 109/2/14
f 70/1/14 71/7/15 108/2/15
f 71/1/15 72/7/16 107/2/16
f 72/1/16 73/7/17 106/2/17
f 73/1/17 74/7/18 105/2/18
f 74/1/18 75/7/19 104/2/19
f 75/1/19 76/7/20 103/2/20
f 76/1/20 77/7/21 102/2/21
f 77/1/21 78/7/22 101/2/22
f 78/1/22 79/7/23 100/2/23
f 79/1/23 80/7/24 99/2/24
f 80/1/24 81/7/25 98/2/25
f 81/1/25 82/7/26 97/2/26
f 82/1/26 83/7/27 96/2/27
f 83/1/27 84/7/28 95/2/28
f 84/1/28 85/7/29 94/2/29
f 85/1/29 86/7/30 93/2/30
f 86/1/30 87/7/31 92/2/31
f 87/1/31 88/7/32 91/2/32
f 88/1/32 66/7/4 89/2/4
