# Blender 4.2.1 LTS
# www.blender.org
o ThinRamp_-_col
v 0.500000 0.000000 -1.000000
v 0.500000 1.000000 1.000000
v -0.500000 0.000000 -1.000000
v -0.500000 1.000000 1.000000
v 0.300000 1.200000 1.000000
v 0.300000 0.200000 -1.000000
v -0.302000 1.200000 1.000000
v -0.302000 0.200000 -1.000000
v 0.500000 0.400000 -1.000000
v 0.500000 1.400000 1.000000
v -0.302000 1.400000 1.000000
v -0.500000 1.400000 1.000000
v 0.300000 0.400000 -1.000000
v -0.500000 0.400000 -1.000000
v 0.300000 1.400000 1.000000
v -0.302000 0.400000 -1.000000
vn -1.0000 -0.0000 -0.0000
vn -0.0000 -0.8944 0.4472
vn -0.0000 -0.0000 1.0000
vn -0.0000 0.8944 -0.4472
vn -0.0000 -0.0000 -1.0000
vn 1.0000 -0.0000 -0.0000
vt 0.037433 0.373157
vt 0.001566 0.193823
vt 0.037433 0.193823
vt 0.299666 0.189475
vt 0.209999 0.368810
vt 0.209999 0.189475
vt 0.287832 0.774980
vt 0.287832 0.721000
vt 0.305766 0.703246
vt 0.248833 0.371942
vt 0.266767 0.551276
vt 0.248833 0.551276
vt 0.524606 0.001566
vt 0.470626 0.180901
vt 0.470626 0.001566
vt 0.101714 0.732307
vt 0.119648 0.714374
vt 0.119648 0.804041
vt 0.320724 0.189475
vt 0.302970 0.368810
vt 0.302970 0.189475
vt 0.545671 0.001566
vt 0.527738 0.180901
vt 0.527738 0.001566
vt 0.488544 0.551103
vt 0.506477 0.371768
vt 0.506477 0.551103
vt 0.203886 0.366350
vt 0.168020 0.545685
vt 0.168020 0.366350
vt 0.001566 0.373157
vt 0.299666 0.368810
vt 0.305766 0.792913
vt 0.269899 0.792913
vt 0.269899 0.774980
vt 0.269899 0.721000
vt 0.269899 0.703246
vt 0.266767 0.371942
vt 0.524606 0.180901
vt 0.083781 0.732307
vt 0.083781 0.714374
vt 0.083781 0.804041
vt 0.101714 0.786287
vt 0.083781 0.786287
vt 0.320724 0.368810
vt 0.545671 0.180901
vt 0.488544 0.371768
vt 0.203886 0.545685
s 0
f 4/1/1 14/2/1 3/3/1
f 1/4/2 4/5/2 3/6/2
f 5/7/3 7/8/3 4/9/3
f 5/10/1 13/11/1 6/12/1
f 8/13/4 5/14/4 6/15/4
f 6/16/5 1/17/5 3/18/5
f 14/19/4 11/20/4 16/21/4
f 13/22/4 10/23/4 9/24/4
f 7/25/6 16/26/6 11/27/6
f 9/28/6 2/29/6 1/30/6
f 4/1/1 12/31/1 14/2/1
f 1/4/2 2/32/2 4/5/2
f 2/33/3 10/34/3 5/7/3
f 10/34/3 15/35/3 5/7/3
f 11/36/3 12/37/3 7/8/3
f 12/37/3 4/9/3 7/8/3
f 2/33/3 5/7/3 4/9/3
f 5/10/1 15/38/1 13/11/1
f 8/13/4 7/39/4 5/14/4
f 6/16/5 13/40/5 9/41/5
f 3/18/5 14/42/5 8/43/5
f 14/42/5 16/44/5 8/43/5
f 6/16/5 9/41/5 1/17/5
f 3/18/5 8/43/5 6/16/5
f 14/19/4 12/45/4 11/20/4
f 13/22/4 15/46/4 10/23/4
f 7/25/6 8/47/6 16/26/6
f 9/28/6 10/48/6 2/29/6
