# Blender 4.2.1 LTS
# www.blender.org
mtllib TrackCornerSharp.mtl
o Cube_-_col
v 0.000000 0.200000 2.000000
v 0.000000 0.200000 1.800000
v 0.000000 0.000000 0.200000
v 0.000000 0.000000 2.000000
v 0.000000 0.000000 1.800000
v -0.261052 0.000000 1.982890
v -0.261052 0.200000 1.982890
v -0.026105 0.200000 0.198289
v -0.234947 0.200000 1.784601
v -0.234947 0.000000 1.784601
v -0.517638 0.000000 1.931852
v -0.051764 0.200000 0.193185
v -0.517638 0.200000 1.931852
v -0.465874 0.200000 1.738667
v -0.465874 0.000000 1.738667
v 0.000000 0.000000 0.000000
v -0.076537 0.200000 0.184776
v -0.765367 0.200000 1.847759
v -0.765367 0.000000 1.847759
v -0.688830 0.200000 1.662983
v -0.688830 0.000000 1.662983
v -1.000000 0.200000 1.732051
v -0.100000 0.200000 0.173205
v -1.000000 0.000000 1.732051
v -0.900000 0.200000 1.558846
v -0.900000 0.000000 1.558846
v -1.217523 0.000000 1.586707
v -0.121753 0.200000 0.158671
v -1.217523 0.200000 1.586707
v -1.095771 0.200000 1.428036
v -1.095771 0.000000 1.428036
v -1.414214 0.000000 1.414214
v -1.414214 0.200000 1.414214
v -0.141422 0.200000 0.141421
v -1.272793 0.200000 1.272792
v -1.272793 0.000000 1.272792
v -1.586707 0.200000 1.217523
v -0.158671 0.200000 0.121752
v -1.586707 0.000000 1.217523
v -1.428037 0.200000 1.095771
v -1.428037 0.000000 1.095771
v -0.173205 0.200000 0.100000
v -1.732052 0.200000 1.000000
v -1.732052 0.000000 1.000000
v -1.558846 0.200000 0.900000
v -1.558846 0.000000 0.900000
v -1.847760 0.000000 0.765367
v -1.847760 0.200000 0.765367
v -0.184776 0.200000 0.076537
v -1.662984 0.200000 0.688830
v -1.662984 0.000000 0.688830
v -1.931853 0.000000 0.517638
v -1.931853 0.200000 0.517638
v -0.193186 0.200000 0.051764
v -1.738667 0.200000 0.465874
v -1.738667 0.000000 0.465874
v -1.982891 0.000000 0.261052
v 0.000000 0.200000 0.000000
v -0.198290 0.200000 0.026105
v -1.982891 0.200000 0.261052
v -1.784602 0.200000 0.234947
v -1.784602 0.000000 0.234947
v -2.000001 0.000000 -0.000000
v -0.200001 0.200000 -0.000000
v -2.000001 0.200000 -0.000000
v -1.800001 0.200000 -0.000000
v -1.800001 0.000000 -0.000000
v 0.000000 0.200000 0.200000
v -0.200001 0.000000 -0.000000
v 0.000000 0.400000 2.000000
v 0.000000 0.400000 1.800000
v -0.517638 0.400000 1.931852
v -0.765367 0.400000 1.847759
v -0.465874 0.400000 1.738667
v -0.234947 0.400000 1.784601
v -0.026105 0.400000 0.198289
v -0.051764 0.400000 0.193185
v -0.076537 0.400000 0.184776
v -0.688830 0.400000 1.662983
v 0.000000 0.400000 0.200000
v 0.000000 0.400000 0.000000
v -0.900000 0.400000 1.558846
v -0.100000 0.400000 0.173205
v -1.095771 0.400000 1.428036
v -0.121753 0.400000 0.158671
v -0.141422 0.400000 0.141421
v -1.272793 0.400000 1.272792
v -1.428037 0.400000 1.095771
v -0.158671 0.400000 0.121752
v -0.173205 0.400000 0.100000
v -0.184776 0.400000 0.076537
v -1.558846 0.400000 0.900000
v -1.662984 0.400000 0.688830
v -1.738667 0.400000 0.465874
v -0.193186 0.400000 0.051764
v -0.198290 0.400000 0.026105
v -1.784602 0.400000 0.234947
v -2.000001 0.400000 -0.000000
v -1.800001 0.400000 -0.000000
v -1.982891 0.400000 0.261052
v -0.200001 0.400000 -0.000000
v -0.261052 0.400000 1.982890
v -1.000000 0.400000 1.732051
v -1.217523 0.400000 1.586707
v -1.414214 0.400000 1.414214
v -1.586707 0.400000 1.217523
v -1.732052 0.400000 1.000000
v -1.847760 0.400000 0.765367
v -1.931853 0.400000 0.517638
vn -0.0000 -0.0000 -1.0000
vn 1.0000 -0.0000 -0.0000
vn -0.0000 -1.0000 -0.0000
vn -0.0000 1.0000 -0.0000
vn -0.9914 -0.0000 0.1305
vn -0.9659 -0.0000 0.2588
vn -0.6088 -0.0000 0.7934
vn -0.5000 -0.0000 0.8660
vn -0.2588 -0.0000 0.9659
vn -0.1305 -0.0000 0.9914
vn 0.9659 -0.0000 -0.2588
vn 0.9914 -0.0000 -0.1305
vn 0.5000 -0.0000 -0.8660
vn 0.6088 -0.0000 -0.7934
vn -0.0654 -0.0000 0.9979
vn -0.9239 -0.0000 0.3827
vn -0.8660 -0.0000 0.5000
vn 0.1305 -0.0000 -0.9914
vn 0.2588 -0.0000 -0.9659
vn -0.3827 -0.0000 0.9239
vn -0.7071 -0.0000 0.7071
vn -0.7934 -0.0000 0.6088
vn -0.9979 -0.0000 0.0654
vn 0.0654 -0.0000 -0.9979
vn 0.3827 -0.0000 -0.9239
vn 0.7071 -0.0000 -0.7071
vn 0.7934 -0.0000 -0.6088
vn 0.9239 -0.0000 -0.3827
vn 0.9979 -0.0000 -0.0654
vn 0.8660 -0.0000 -0.5000
vt 0.375000 0.750000
vt 0.625000 0.750000
vt 0.000000 0.000000
s 1
f 63/1/1 65/2/1 66/2/1 67/1/1
f 67/1/1 66/2/1 64/3/1 69/3/1
f 3/3/2 16/3/2 58/3/2 68/3/2
f 2/3/2 5/3/2 3/3/2 68/3/2
f 1/2/2 4/1/2 5/3/2 2/3/2
f 16/3/1 69/3/1 64/3/1 58/3/1
f 69/3/3 16/3/3 3/3/3
f 3/3/3 5/3/3 10/3/3
f 10/3/3 15/3/3 3/3/3
f 15/3/3 21/3/3 3/3/3
f 21/3/3 26/3/3 3/3/3
f 26/3/3 31/3/3 3/3/3
f 31/3/3 36/3/3 3/3/3
f 36/3/3 41/3/3 69/3/3
f 3/3/3 36/3/3 69/3/3
f 41/3/3 46/3/3 69/3/3
f 46/3/3 51/3/3 69/3/3
f 51/3/3 56/3/3 69/3/3
f 56/3/3 62/3/3 69/3/3
f 62/3/3 67/1/3 69/3/3
f 67/1/3 62/3/3 57/3/3 63/1/3
f 62/3/3 56/3/3 52/3/3 57/3/3
f 56/3/3 51/3/3 47/3/3 52/3/3
f 44/3/3 47/3/3 51/3/3 46/3/3
f 39/3/3 44/3/3 46/3/3 41/3/3
f 39/3/3 41/3/3 36/3/3 32/3/3
f 36/3/3 31/3/3 27/3/3 32/3/3
f 24/3/3 27/3/3 31/3/3 26/3/3
f 26/3/3 21/3/3 19/3/3 24/3/3
f 19/3/3 21/3/3 15/3/3 11/3/3
f 15/3/3 10/3/3 6/3/3 11/3/3
f 4/1/3 6/3/3 10/3/3 5/3/3
f 38/3/4 42/3/4 45/3/4
f 20/3/4 14/3/4 12/3/4
f 14/3/4 9/3/4 8/3/4
f 9/3/4 2/3/4 68/3/4
f 9/3/4 68/3/4 8/3/4
f 25/3/4 20/3/4 17/3/4
f 14/3/4 8/3/4 12/3/4
f 35/3/4 30/3/4 28/3/4
f 30/3/4 25/3/4 23/3/4
f 45/3/4 40/3/4 38/3/4
f 40/3/4 35/3/4 34/3/4
f 55/3/4 50/3/4 49/3/4
f 50/3/4 45/3/4 42/3/4
f 66/2/4 61/3/4 59/3/4
f 61/3/4 55/3/4 54/3/4
f 59/3/4 64/3/4 66/2/4
f 54/3/4 59/3/4 61/3/4
f 40/3/4 34/3/4 38/3/4
f 35/3/4 28/3/4 34/3/4
f 30/3/4 23/3/4 28/3/4
f 25/3/4 17/3/4 23/3/4
f 20/3/4 12/3/4 17/3/4
f 49/3/4 54/3/4 55/3/4
f 42/3/4 49/3/4 50/3/4
f 59/3/5 54/3/6 95/3/6 96/3/5
f 28/3/7 23/3/8 83/3/8 85/3/7
f 12/3/9 8/3/10 76/3/10 77/3/9
f 55/3/11 61/3/12 97/3/12 94/3/11
f 25/3/13 30/3/14 84/3/14 82/3/13
f 8/3/10 68/3/15 80/3/15 76/3/10
f 49/3/16 42/3/17 90/3/17 91/3/16
f 9/3/18 14/3/19 74/3/19 75/3/18
f 29/3/7 22/3/8 103/3/8 104/3/7
f 53/3/6 48/3/16 108/3/16 109/3/6
f 7/3/10 1/2/15 70/2/15 102/3/10
f 18/3/20 13/3/9 72/3/9 73/3/20
f 6/3/10 4/1/15 1/2/15 7/3/10
f 6/3/10 7/3/10 13/3/9 11/3/9
f 18/3/20 19/3/20 11/3/9 13/3/9
f 19/3/20 18/3/20 22/3/8 24/3/8
f 24/3/8 22/3/8 29/3/7 27/3/7
f 32/3/21 27/3/7 29/3/7 33/3/21
f 32/3/21 33/3/21 37/3/22 39/3/22
f 44/3/17 39/3/22 37/3/22 43/3/17
f 44/3/17 43/3/17 48/3/16 47/3/16
f 47/3/16 48/3/16 53/3/6 52/3/6
f 52/3/6 53/3/6 60/3/5 57/3/5
f 65/2/23 63/1/23 57/3/5 60/3/5
f 23/3/8 17/3/20 78/3/20 83/3/8
f 2/3/24 9/3/18 75/3/18 71/3/24
f 38/3/22 34/3/21 86/3/21 89/3/22
f 33/3/21 29/3/7 104/3/7 105/3/21
f 54/3/6 49/3/16 91/3/16 95/3/6
f 20/3/25 25/3/13 82/3/13 79/3/25
f 35/3/26 40/3/27 88/3/27 87/3/26
f 50/3/28 55/3/11 94/3/11 93/3/28
f 48/3/16 43/3/17 107/3/17 108/3/16
f 68/3/2 58/3/2 81/3/2 80/3/2
f 61/3/12 66/2/29 99/2/29 97/3/12
f 22/3/8 18/3/20 73/3/20 103/3/8
f 96/3/4 81/3/4 101/3/4
f 96/3/4 95/3/4 81/3/4
f 95/3/4 91/3/4 81/3/4
f 91/3/4 90/3/4 81/3/4
f 90/3/4 89/3/4 81/3/4
f 89/3/4 86/3/4 81/3/4
f 86/3/4 85/3/4 81/3/4
f 85/3/4 83/3/4 81/3/4
f 83/3/4 78/3/4 81/3/4
f 78/3/4 77/3/4 81/3/4
f 77/3/4 76/3/4 81/3/4
f 80/3/4 81/3/4 76/3/4
f 97/3/4 100/3/4 109/3/4 94/3/4
f 94/3/4 109/3/4 108/3/4 93/3/4
f 93/3/4 108/3/4 107/3/4 92/3/4
f 99/2/4 98/2/4 100/3/4 97/3/4
f 71/3/4 75/3/4 102/3/4 70/2/4
f 74/3/4 72/3/4 102/3/4 75/3/4
f 72/3/4 74/3/4 79/3/4 73/3/4
f 82/3/4 103/3/4 73/3/4 79/3/4
f 84/3/4 104/3/4 103/3/4 82/3/4
f 87/3/4 105/3/4 104/3/4 84/3/4
f 88/3/4 106/3/4 105/3/4 87/3/4
f 92/3/4 107/3/4 106/3/4 88/3/4
f 40/3/27 45/3/30 92/3/30 88/3/27
f 60/3/5 53/3/6 109/3/6 100/3/5
f 42/3/17 38/3/22 89/3/22 90/3/17
f 13/3/9 7/3/10 102/3/10 72/3/9
f 58/3/1 64/3/1 101/3/1 81/3/1
f 66/2/1 65/2/1 98/2/1 99/2/1
f 37/3/22 33/3/21 105/3/21 106/3/22
f 34/3/21 28/3/7 85/3/7 86/3/21
f 65/2/23 60/3/5 100/3/5 98/2/23
f 17/3/20 12/3/9 77/3/9 78/3/20
f 64/3/23 59/3/5 96/3/5 101/3/23
f 43/3/17 37/3/22 106/3/22 107/3/17
f 45/3/30 50/3/28 93/3/28 92/3/30
f 1/2/2 2/3/2 71/3/2 70/2/2
f 30/3/14 35/3/26 87/3/26 84/3/14
f 14/3/19 20/3/25 79/3/25 74/3/19
