# Blender 4.2.1 LTS
# www.blender.org
mtllib TrackStraight.mtl
o Cube_-_col
v 1.000000 0.200000 -1.000000
v 1.000000 0.000000 -1.000000
v 1.000000 0.200000 1.000000
v 1.000000 0.000000 1.000000
v -1.000000 0.200000 -1.000000
v -1.000000 0.000000 -1.000000
v -1.000000 0.200000 1.000000
v -1.000000 0.000000 1.000000
v 0.800000 0.200000 1.000000
v 0.800000 0.200000 -1.000000
v 0.800000 0.000000 1.000000
v 0.800000 0.000000 -1.000000
v -0.802000 0.200000 1.000000
v -0.802000 0.000000 -1.000000
v -0.802000 0.200000 -1.000000
v -0.802000 0.000000 1.000000
v 1.000000 0.400000 -1.000000
v 1.000000 0.400000 1.000000
v -0.802000 0.400000 1.000000
v -1.000000 0.400000 1.000000
v 0.800000 0.400000 -1.000000
v -1.000000 0.400000 -1.000000
v 0.800000 0.400000 1.000000
v -0.802000 0.400000 -1.000000
vn -0.0000 -0.0000 1.0000
vn -0.0000 -0.0000 -1.0000
vn -1.0000 -0.0000 -0.0000
vn 1.0000 -0.0000 -0.0000
vn -0.0000 -1.0000 -0.0000
vn -0.0000 1.0000 -0.0000
vt 0.375000 0.225250
vt 0.625000 0.225250
vt 0.625000 0.250000
vt 0.375000 0.250000
vt 0.375000 0.475000
vt 0.625000 0.475000
vt 0.625000 0.500000
vt 0.375000 0.500000
vt 0.625000 0.750000
vt 0.375000 0.750000
vt 0.625000 1.000000
vt 0.375000 1.000000
vt 0.350000 0.500000
vt 0.350000 0.750000
vt 0.625000 0.025000
vt 0.625000 0.000000
vt 0.650000 0.500000
vt 0.650000 0.750000
vt 0.149750 0.500000
vt 0.149750 0.750000
vt 0.375000 0.274750
vt 0.625000 0.274750
vt 0.375000 0.000000
vt 0.375000 0.025000
vt 0.125000 0.500000
vt 0.125000 0.750000
vt 0.850250 0.500000
vt 0.850250 0.750000
vt 0.875000 0.500000
vt 0.875000 0.750000
s 0
usemtl Material
f 16/1/1 13/2/1 7/3/1 8/4/1
f 12/5/2 10/6/2 1/7/2 2/8/2
f 8/8/3 7/7/3 5/9/3 6/10/3
f 2/10/4 1/9/4 3/11/4 4/12/4
f 12/13/5 2/8/5 4/10/5 11/14/5
f 9/15/1 3/16/1 18/16/1 23/15/1
f 10/17/3 9/18/3 23/18/3 21/17/3
f 14/19/5 12/13/5 11/14/5 16/20/5
f 14/21/2 15/22/2 10/6/2 12/5/2
f 4/23/1 3/16/1 9/15/1 11/24/1
f 6/4/2 5/3/2 15/22/2 14/21/2
f 6/25/5 14/19/5 16/20/5 8/26/5
f 10/17/6 15/27/6 13/28/6 9/18/6
f 11/24/1 9/15/1 13/2/1 16/1/1
f 24/27/6 22/29/6 20/30/6 19/28/6
f 17/7/6 21/17/6 23/18/6 18/9/6
f 3/11/4 1/9/4 17/9/4 18/11/4
f 1/7/2 10/6/2 21/6/2 17/7/2
f 13/28/4 15/27/4 24/27/4 19/28/4
f 7/3/1 13/2/1 19/2/1 20/3/1
f 15/22/2 5/3/2 22/3/2 24/22/2
f 5/9/3 7/7/3 20/7/3 22/9/3
