# Blender 4.2.1 LTS
# www.blender.org
mtllib TrackStraight.mtl
o Cube_-_col
v 1.000000 0.000000 -1.000000
v 1.000000 0.000000 1.000000
v -1.000000 0.000000 -1.000000
v -1.000000 0.000000 1.000000
v -1.000000 0.000000 0.800000
v 1.000000 0.000000 0.800000
v 1.000000 0.000000 -0.820000
v -1.000000 0.000000 -0.820000
v 1.000000 0.200000 1.000000
v -1.000000 0.200000 1.000000
v 1.000000 0.200000 0.800000
v -1.000000 0.200000 -0.820000
v -1.000000 0.200000 -1.000000
v 1.000000 0.200000 -1.000000
v -1.000000 0.200000 0.800000
v 1.000000 0.200000 -0.820000
v 1.000000 0.400000 1.000000
v -1.000000 0.400000 1.000000
v 1.000000 0.400000 0.800000
v -1.000000 0.400000 -0.820000
v -1.000000 0.400000 -1.000000
v 1.000000 0.400000 -1.000000
v -1.000000 0.400000 0.800000
v 1.000000 0.400000 -0.820000
vn -0.0000 -0.0000 1.0000
vn -1.0000 -0.0000 -0.0000
vn -0.0000 -1.0000 -0.0000
vn 1.0000 -0.0000 -0.0000
vn -0.0000 -0.0000 -1.0000
vn -0.0000 1.0000 -0.0000
vt 0.375000 0.750000
vt 0.625000 0.750000
vt 0.625000 1.000000
vt 0.375000 1.000000
vt 0.375000 0.227500
vt 0.625000 0.227500
vt 0.625000 0.250000
vt 0.375000 0.250000
vt 0.125000 0.725000
vt 0.375000 0.725000
vt 0.125000 0.750000
vt 0.625000 0.725000
vt 0.625000 0.500000
vt 0.375000 0.500000
vt 0.375000 0.522500
vt 0.625000 0.522500
vt 0.125000 0.522500
vt 0.375000 0.000000
vt 0.625000 0.000000
vt 0.625000 0.025000
vt 0.375000 0.025000
vt 0.875000 0.522500
vt 0.875000 0.725000
vt 0.125000 0.500000
vt 0.875000 0.750000
vt 0.875000 0.500000
s 0
usemtl Material
f 2/1/1 9/2/1 10/3/1 4/4/1
f 8/5/2 12/6/2 13/7/2 3/8/2
f 5/9/3 6/10/3 2/1/3 4/11/3
f 6/10/4 11/12/4 9/2/4 2/1/4
f 3/8/5 13/7/5 14/13/5 1/14/5
f 7/15/4 16/16/4 11/12/4 6/10/4
f 8/17/3 7/15/3 6/10/3 5/9/3
f 4/18/2 10/19/2 15/20/2 5/21/2
f 16/16/6 12/22/6 15/23/6 11/12/6
f 3/24/3 1/14/3 7/15/3 8/17/3
f 1/14/4 14/13/4 16/16/4 7/15/4
f 5/21/2 15/20/2 12/6/2 8/5/2
f 14/13/5 13/7/5 21/7/5 22/13/5
f 11/12/5 15/23/5 23/23/5 19/12/5
f 19/12/6 23/23/6 18/25/6 17/2/6
f 22/13/6 21/26/6 20/22/6 24/16/6
f 9/2/4 11/12/4 19/12/4 17/2/4
f 16/16/4 14/13/4 22/13/4 24/16/4
f 15/20/2 10/19/2 18/19/2 23/20/2
f 13/7/2 12/6/2 20/6/2 21/7/2
f 10/3/1 9/2/1 17/2/1 18/3/1
f 12/22/1 16/16/1 24/16/1 20/22/1
