# Blender 4.2.2 LTS
# www.blender.org
mtllib LowPoly1.mtl
o LowPoly2
v 0.000000 0.222521 -0.974928
v 0.000000 -0.222521 -0.974928
v 0.000000 -0.623490 -0.781831
v 0.000000 -0.900969 -0.433884
v 0.176476 0.900969 -0.396373
v 0.317999 0.623490 -0.714239
v 0.396539 0.222521 -0.890641
v 0.396539 -0.222521 -0.890641
v 0.317999 -0.623490 -0.714239
v 0.176476 -0.900969 -0.396373
v 0.322438 0.900969 -0.290325
v 0.581014 0.623490 -0.523147
v 0.724513 0.222521 -0.652354
v 0.724513 -0.222521 -0.652354
v 0.581014 -0.623490 -0.523147
v 0.322438 -0.900969 -0.290325
v 0.412648 0.900969 -0.134077
v 0.743566 0.623490 -0.241599
v 0.927211 0.222521 -0.301269
v 0.927211 -0.222521 -0.301269
v 0.743566 -0.623490 -0.241599
v 0.412648 -0.900969 -0.134077
v 0.431507 0.900969 0.045353
v 0.777548 0.623490 0.081724
v 0.969587 0.222521 0.101908
v 0.969587 -0.222521 0.101908
v 0.777548 -0.623490 0.081724
v 0.431507 -0.900969 0.045353
v 0.375754 0.900969 0.216942
v 0.677086 0.623490 0.390916
v 0.844312 0.222521 0.487464
v 0.844312 -0.222521 0.487464
v 0.677086 -0.623490 0.390916
v 0.375754 -0.900969 0.216942
v 0.255030 0.900969 0.351019
v 0.459549 0.623490 0.632515
v 0.573048 0.222521 0.788733
v 0.573048 -0.222521 0.788733
v 0.459549 -0.623490 0.632515
v 0.255030 -0.900969 0.351019
v 0.090209 0.900969 0.424402
v 0.162552 0.623490 0.764746
v 0.202699 0.222521 0.953623
v 0.202699 -0.222521 0.953623
v 0.162552 -0.623490 0.764746
v 0.090209 -0.900969 0.424402
v -0.090210 0.900969 0.424402
v -0.162552 0.623490 0.764746
v -0.202699 0.222521 0.953623
v -0.202699 -0.222521 0.953623
v -0.162552 -0.623490 0.764746
v -0.090210 -0.900969 0.424402
v -0.255030 0.900969 0.351019
v -0.459549 0.623490 0.632515
v -0.573048 0.222521 0.788733
v -0.573048 -0.222521 0.788733
v -0.459549 -0.623490 0.632515
v -0.255030 -0.900969 0.351019
v 0.000000 1.000000 0.000000
v -0.375754 0.900969 0.216942
v -0.677086 0.623490 0.390916
v -0.844312 0.222521 0.487464
v -0.844312 -0.222521 0.487464
v -0.677086 -0.623490 0.390916
v -0.375754 -0.900969 0.216942
v -0.431507 0.900969 0.045353
v -0.777548 0.623490 0.081724
v -0.969587 0.222521 0.101908
v -0.969587 -0.222521 0.101908
v -0.777548 -0.623490 0.081724
v -0.431507 -0.900969 0.045353
v -0.412648 0.900969 -0.134078
v -0.743566 0.623490 -0.241599
v -0.927211 0.222521 -0.301269
v -0.927211 -0.222521 -0.301269
v -0.743566 -0.623490 -0.241599
v -0.412648 -0.900969 -0.134078
v -0.322438 0.900969 -0.290325
v -0.581014 0.623490 -0.523147
v -0.724512 0.222521 -0.652354
v -0.724512 -0.222521 -0.652354
v -0.581014 -0.623490 -0.523147
v -0.322438 -0.900969 -0.290325
v -0.176476 0.900969 -0.396372
v -0.317999 0.623490 -0.714238
v -0.396539 0.222521 -0.890641
v -0.396539 -0.222521 -0.890641
v -0.317999 -0.623490 -0.714238
v -0.176476 -0.900969 -0.396372
v 0.000000 0.900969 -0.433884
v 0.000000 0.623490 -0.781831
v 0.000000 -1.000000 0.000000
vn 0.0472 -0.9738 -0.2223
vn 0.1881 -0.4261 -0.8849
vn 0.1881 0.4261 -0.8849
vn 0.0472 0.9738 -0.2223
vn 0.1314 -0.7751 -0.6181
vn 0.2079 -0.0000 -0.9781
vn 0.1314 0.7751 -0.6181
vn 0.1336 -0.9738 -0.1838
vn 0.5317 -0.4261 -0.7319
vn 0.5317 0.4261 -0.7319
vn 0.1336 0.9738 -0.1838
vn 0.3714 -0.7751 -0.5112
vn 0.5878 -0.0000 -0.8090
vn 0.3714 0.7751 -0.5112
vn 0.1968 -0.9738 -0.1136
vn 0.7835 -0.4261 -0.4523
vn 0.7835 0.4261 -0.4523
vn 0.1968 0.9738 -0.1136
vn 0.5472 -0.7751 -0.3159
vn 0.8660 -0.0000 -0.5000
vn 0.5472 0.7751 -0.3159
vn 0.8997 0.4261 -0.0946
vn 0.2260 0.9738 -0.0238
vn 0.6284 -0.7751 -0.0661
vn 0.9945 -0.0000 -0.1045
vn 0.6284 0.7751 -0.0661
vn 0.2260 -0.9738 -0.0238
vn 0.8997 -0.4261 -0.0946
vn 0.6010 -0.7751 0.1953
vn 0.9511 -0.0000 0.3090
vn 0.6010 0.7751 0.1953
vn 0.2161 -0.9738 0.0702
vn 0.8604 -0.4261 0.2796
vn 0.8604 0.4261 0.2796
vn 0.2161 0.9738 0.0702
vn 0.4696 -0.7751 0.4228
vn 0.7431 -0.0000 0.6691
vn 0.4696 0.7751 0.4228
vn 0.1689 -0.9738 0.1521
vn 0.6723 -0.4261 0.6053
vn 0.6723 0.4261 0.6053
vn 0.1689 0.9738 0.1521
vn 0.2570 0.7751 0.5773
vn 0.0924 -0.9738 0.2076
vn 0.3680 -0.4261 0.8264
vn 0.3680 0.4261 0.8264
vn 0.0924 0.9738 0.2076
vn 0.2570 -0.7751 0.5773
vn 0.4067 -0.0000 0.9135
vn -0.0000 -0.9738 0.2272
vn -0.0000 -0.4261 0.9047
vn -0.0000 0.4261 0.9047
vn -0.0000 0.9738 0.2272
vn -0.0000 -0.7751 0.6319
vn -0.0000 -0.0000 1.0000
vn -0.0000 0.7751 0.6319
vn -0.3680 -0.4261 0.8264
vn -0.3680 0.4261 0.8264
vn -0.0924 0.9738 0.2076
vn -0.2570 -0.7751 0.5773
vn -0.4067 -0.0000 0.9135
vn -0.2570 0.7751 0.5773
vn -0.0924 -0.9738 0.2076
vn -0.1689 0.9738 0.1521
vn -0.4696 -0.7751 0.4228
vn -0.7431 -0.0000 0.6691
vn -0.4696 0.7751 0.4228
vn -0.1689 -0.9738 0.1521
vn -0.6723 -0.4261 0.6053
vn -0.6723 0.4261 0.6053
vn -0.6010 -0.7751 0.1953
vn -0.9511 -0.0000 0.3090
vn -0.6010 0.7751 0.1953
vn -0.2161 -0.9738 0.0702
vn -0.8604 -0.4261 0.2796
vn -0.8604 0.4261 0.2796
vn -0.2161 0.9738 0.0702
vn -0.9945 -0.0000 -0.1045
vn -0.6284 0.7751 -0.0661
vn -0.2260 -0.9738 -0.0238
vn -0.8997 -0.4261 -0.0946
vn -0.8997 0.4261 -0.0946
vn -0.2260 0.9738 -0.0238
vn -0.6284 -0.7751 -0.0661
vn -0.1968 -0.9738 -0.1136
vn -0.7835 -0.4261 -0.4523
vn -0.7835 0.4261 -0.4523
vn -0.1968 0.9738 -0.1136
vn -0.5472 -0.7751 -0.3159
vn -0.8660 -0.0000 -0.5000
vn -0.5472 0.7751 -0.3159
vn -0.1336 -0.9738 -0.1838
vn -0.5317 -0.4261 -0.7319
vn -0.5317 0.4261 -0.7319
vn -0.1336 0.9738 -0.1838
vn -0.3714 -0.7751 -0.5112
vn -0.5878 -0.0000 -0.8090
vn -0.3714 0.7751 -0.5112
vn -0.1881 0.4261 -0.8849
vn -0.0472 0.9738 -0.2223
vn -0.1314 -0.7751 -0.6181
vn -0.2079 -0.0000 -0.9781
vn -0.1314 0.7751 -0.6181
vn -0.0472 -0.9738 -0.2223
vn -0.1881 -0.4261 -0.8849
vt 0.700000 0.000000
vt 0.733333 0.142857
vt 0.666667 0.142857
vt 0.733333 0.285714
vt 0.733333 0.428571
vt 0.666667 0.428571
vt 0.666667 0.285714
vt 0.733333 0.571429
vt 0.733333 0.714286
vt 0.666667 0.714286
vt 0.666667 0.571429
vt 0.733333 0.857143
vt 0.700000 1.000000
vt 0.666667 0.857143
vt 0.633333 0.000000
vt 0.600000 0.142857
vt 0.600000 0.428571
vt 0.600000 0.285714
vt 0.600000 0.714286
vt 0.600000 0.571429
vt 0.633333 1.000000
vt 0.600000 0.857143
vt 0.566667 0.000000
vt 0.533333 0.142857
vt 0.533333 0.428571
vt 0.533333 0.285714
vt 0.533333 0.714286
vt 0.533333 0.571429
vt 0.566667 1.000000
vt 0.533333 0.857143
vt 0.466667 0.714286
vt 0.466667 0.571429
vt 0.500000 1.000000
vt 0.466667 0.857143
vt 0.466667 0.285714
vt 0.466667 0.142857
vt 0.466667 0.428571
vt 0.500000 0.000000
vt 0.400000 0.285714
vt 0.400000 0.142857
vt 0.400000 0.571429
vt 0.400000 0.428571
vt 0.400000 0.857143
vt 0.400000 0.714286
vt 0.433333 0.000000
vt 0.433333 1.000000
vt 0.333333 0.285714
vt 0.333333 0.142857
vt 0.333333 0.571429
vt 0.333333 0.428571
vt 0.333333 0.857143
vt 0.333333 0.714286
vt 0.366667 0.000000
vt 0.366667 1.000000
vt 0.266667 0.857143
vt 0.266667 0.714286
vt 0.300000 0.000000
vt 0.266667 0.142857
vt 0.266667 0.428571
vt 0.266667 0.285714
vt 0.266667 0.571429
vt 0.300000 1.000000
vt 0.233333 0.000000
vt 0.200000 0.142857
vt 0.200000 0.428571
vt 0.200000 0.285714
vt 0.200000 0.714286
vt 0.200000 0.571429
vt 0.233333 1.000000
vt 0.200000 0.857143
vt 0.133333 0.428571
vt 0.133333 0.285714
vt 0.133333 0.714286
vt 0.133333 0.571429
vt 0.166667 1.000000
vt 0.133333 0.857143
vt 0.133333 0.142857
vt 0.166667 0.000000
vt 0.100000 1.000000
vt 0.066667 0.857143
vt 0.066667 0.285714
vt 0.066667 0.142857
vt 0.066667 0.571429
vt 0.066667 0.428571
vt 0.066667 0.714286
vt 0.100000 0.000000
vt 0.000000 0.285714
vt 0.000000 0.142857
vt 0.000000 0.571429
vt 0.000000 0.428571
vt 0.000000 0.857143
vt 0.000000 0.714286
vt 0.033333 0.000000
vt 0.033333 1.000000
vt 1.000000 0.428571
vt 1.000000 0.571429
vt 0.933333 0.571429
vt 0.933333 0.428571
vt 1.000000 0.714286
vt 1.000000 0.857143
vt 0.933333 0.857143
vt 0.933333 0.714286
vt 0.966667 0.000000
vt 1.000000 0.142857
vt 0.933333 0.142857
vt 1.000000 0.285714
vt 0.933333 0.285714
vt 0.966667 1.000000
vt 0.900000 0.000000
vt 0.866667 0.142857
vt 0.866667 0.428571
vt 0.866667 0.285714
vt 0.866667 0.714286
vt 0.866667 0.571429
vt 0.900000 1.000000
vt 0.866667 0.857143
vt 0.833333 0.000000
vt 0.800000 0.142857
vt 0.800000 0.428571
vt 0.800000 0.285714
vt 0.800000 0.714286
vt 0.800000 0.571429
vt 0.833333 1.000000
vt 0.800000 0.857143
vt 0.766667 1.000000
vt 0.766667 0.000000
s 0
f 92/1/1 4/2/1 10/3/1
f 3/4/2 2/5/2 8/6/2 9/7/2
f 1/8/3 91/9/3 6/10/3 7/11/3
f 90/12/4 59/13/4 5/14/4
f 4/2/5 3/4/5 9/7/5 10/3/5
f 2/5/6 1/8/6 7/11/6 8/6/6
f 91/9/7 90/12/7 5/14/7 6/10/7
f 92/15/8 10/3/8 16/16/8
f 9/7/9 8/6/9 14/17/9 15/18/9
f 7/11/10 6/10/10 12/19/10 13/20/10
f 5/14/11 59/21/11 11/22/11
f 10/3/12 9/7/12 15/18/12 16/16/12
f 8/6/13 7/11/13 13/20/13 14/17/13
f 6/10/14 5/14/14 11/22/14 12/19/14
f 92/23/15 16/16/15 22/24/15
f 15/18/16 14/17/16 20/25/16 21/26/16
f 13/20/17 12/19/17 18/27/17 19/28/17
f 11/22/18 59/29/18 17/30/18
f 16/16/19 15/18/19 21/26/19 22/24/19
f 14/17/20 13/20/20 19/28/20 20/25/20
f 12/19/21 11/22/21 17/30/21 18/27/21
f 19/28/22 18/27/22 24/31/22 25/32/22
f 17/30/23 59/33/23 23/34/23
f 22/24/24 21/26/24 27/35/24 28/36/24
f 20/25/25 19/28/25 25/32/25 26/37/25
f 18/27/26 17/30/26 23/34/26 24/31/26
f 92/38/27 22/24/27 28/36/27
f 21/26/28 20/25/28 26/37/28 27/35/28
f 28/36/29 27/35/29 33/39/29 34/40/29
f 26/37/30 25/32/30 31/41/30 32/42/30
f 24/31/31 23/34/31 29/43/31 30/44/31
f 92/45/32 28/36/32 34/40/32
f 27/35/33 26/37/33 32/42/33 33/39/33
f 25/32/34 24/31/34 30/44/34 31/41/34
f 23/34/35 59/46/35 29/43/35
f 34/40/36 33/39/36 39/47/36 40/48/36
f 32/42/37 31/41/37 37/49/37 38/50/37
f 30/44/38 29/43/38 35/51/38 36/52/38
f 92/53/39 34/40/39 40/48/39
f 33/39/40 32/42/40 38/50/40 39/47/40
f 31/41/41 30/44/41 36/52/41 37/49/41
f 29/43/42 59/54/42 35/51/42
f 36/52/43 35/51/43 41/55/43 42/56/43
f 92/57/44 40/48/44 46/58/44
f 39/47/45 38/50/45 44/59/45 45/60/45
f 37/49/46 36/52/46 42/56/46 43/61/46
f 35/51/47 59/62/47 41/55/47
f 40/48/48 39/47/48 45/60/48 46/58/48
f 38/50/49 37/49/49 43/61/49 44/59/49
f 92/63/50 46/58/50 52/64/50
f 45/60/51 44/59/51 50/65/51 51/66/51
f 43/61/52 42/56/52 48/67/52 49/68/52
f 41/55/53 59/69/53 47/70/53
f 46/58/54 45/60/54 51/66/54 52/64/54
f 44/59/55 43/61/55 49/68/55 50/65/55
f 42/56/56 41/55/56 47/70/56 48/67/56
f 51/66/57 50/65/57 56/71/57 57/72/57
f 49/68/58 48/67/58 54/73/58 55/74/58
f 47/70/59 59/75/59 53/76/59
f 52/64/60 51/66/60 57/72/60 58/77/60
f 50/65/61 49/68/61 55/74/61 56/71/61
f 48/67/62 47/70/62 53/76/62 54/73/62
f 92/78/63 52/64/63 58/77/63
f 53/76/64 59/79/64 60/80/64
f 58/77/65 57/72/65 64/81/65 65/82/65
f 56/71/66 55/74/66 62/83/66 63/84/66
f 54/73/67 53/76/67 60/80/67 61/85/67
f 92/86/68 58/77/68 65/82/68
f 57/72/69 56/71/69 63/84/69 64/81/69
f 55/74/70 54/73/70 61/85/70 62/83/70
f 65/82/71 64/81/71 70/87/71 71/88/71
f 63/84/72 62/83/72 68/89/72 69/90/72
f 61/85/73 60/80/73 66/91/73 67/92/73
f 92/93/74 65/82/74 71/88/74
f 64/81/75 63/84/75 69/90/75 70/87/75
f 62/83/76 61/85/76 67/92/76 68/89/76
f 60/80/77 59/94/77 66/91/77
f 69/95/78 68/96/78 74/97/78 75/98/78
f 67/99/79 66/100/79 72/101/79 73/102/79
f 92/103/80 71/104/80 77/105/80
f 70/106/81 69/95/81 75/98/81 76/107/81
f 68/96/82 67/99/82 73/102/82 74/97/82
f 66/100/83 59/108/83 72/101/83
f 71/104/84 70/106/84 76/107/84 77/105/84
f 92/109/85 77/105/85 83/110/85
f 76/107/86 75/98/86 81/111/86 82/112/86
f 74/97/87 73/102/87 79/113/87 80/114/87
f 72/101/88 59/115/88 78/116/88
f 77/105/89 76/107/89 82/112/89 83/110/89
f 75/98/90 74/97/90 80/114/90 81/111/90
f 73/102/91 72/101/91 78/116/91 79/113/91
f 92/117/92 83/110/92 89/118/92
f 82/112/93 81/111/93 87/119/93 88/120/93
f 80/114/94 79/113/94 85/121/94 86/122/94
f 78/116/95 59/123/95 84/124/95
f 83/110/96 82/112/96 88/120/96 89/118/96
f 81/111/97 80/114/97 86/122/97 87/119/97
f 79/113/98 78/116/98 84/124/98 85/121/98
f 86/122/99 85/121/99 91/9/99 1/8/99
f 84/124/100 59/125/100 90/12/100
f 89/118/101 88/120/101 3/4/101 4/2/101
f 87/119/102 86/122/102 1/8/102 2/5/102
f 85/121/103 84/124/103 90/12/103 91/9/103
f 92/126/104 89/118/104 4/2/104
f 88/120/105 87/119/105 2/5/105 3/4/105
